<?xml version="1.0" encoding="utf-8"?>
<!-- Generator: Adobe Illustrator 16.0.3, SVG Export Plug-In . SVG Version: 6.00 Build 0)  -->
<!DOCTYPE svg PUBLIC "-//W3C//DTD SVG 1.1//EN" "http://www.w3.org/Graphics/SVG/1.1/DTD/svg11.dtd">
<svg version="1.1" id="Layer_1" xmlns="http://www.w3.org/2000/svg" xmlns:xlink="http://www.w3.org/1999/xlink" x="0px" y="0px"
	 width="420px" height="371.922px" viewBox="0 0 420 371.922" enable-background="new 0 0 420 371.922" xml:space="preserve">
<rect x="146.941" y="241.729" width="127.351" height="127.351"/>
<path d="M271.449,366.23H149.792V244.574H271.45L271.449,366.23L271.449,366.23z M277.141,238.879h-5.69H149.787h-5.691v5.691
	v121.66v5.69h5.691h121.662h5.691v-5.69V244.57V238.879L277.141,238.879z"/>
<path opacity="0.4" fill="#231F20" enable-background="new    " d="M13.283,150.656c-5.218,0-9.489-4.268-9.489-9.486v-17.078
	c0-5.215,4.271-9.486,9.489-9.486h17.078c5.218,0,9.484,4.271,9.484,9.486v17.078c0,5.219-4.266,9.486-9.484,9.486H13.283
	 M30.361,110.809H13.283c-7.274,0-13.202,5.879-13.283,13.135v17.375c0.081,7.256,6.008,13.135,13.283,13.135h17.078
	c7.322,0,13.277-5.959,13.277-13.283v-17.078C43.638,116.77,37.683,110.809,30.361,110.809"/>
<path opacity="0.4" fill="#231F20" enable-background="new    " d="M88.231,150.656c-5.219,0-9.487-4.268-9.487-9.486v-17.078
	c0-5.215,4.269-9.486,9.487-9.486h17.078c5.219,0,9.487,4.271,9.487,9.486v17.078c0,5.219-4.268,9.486-9.487,9.486H88.231
	 M105.309,110.809H88.231c-7.255,0-13.167,5.844-13.283,13.07v17.504c0.116,7.229,6.028,13.07,13.283,13.07h17.078
	c7.325,0,13.28-5.959,13.28-13.283v-17.078C118.589,116.77,112.634,110.809,105.309,110.809"/>
<path opacity="0.4" fill="#231F20" enable-background="new    " d="M163.183,150.656c-5.222,0-9.489-4.268-9.489-9.486v-17.078
	c0-5.215,4.268-9.486,9.489-9.486h17.075c5.218,0,9.486,4.271,9.486,9.486v17.078c0,5.219-4.268,9.486-9.486,9.486H163.183
	 M180.258,110.809h-17.075c-7.252,0-13.17,5.844-13.283,13.07v17.504c0.113,7.229,6.031,13.07,13.283,13.07h17.075
	c7.325,0,13.282-5.959,13.282-13.283v-17.078C193.54,116.77,187.583,110.809,180.258,110.809"/>
<path fill="#FFFFFF" d="M238.13,152.555c-6.276,0-11.384-5.105-11.384-11.385v-17.076c0-6.281,5.107-11.385,11.384-11.385h17.076
	c6.278,0,11.385,5.104,11.385,11.385v17.076c0,6.279-5.104,11.385-11.385,11.385H238.13z"/>
<path d="M255.206,114.605c5.222,0,9.487,4.271,9.487,9.486v17.078c0,5.219-4.267,9.486-9.487,9.486h-17.073
	c-5.221,0-9.492-4.268-9.492-9.486v-17.078c0-5.215,4.271-9.486,9.492-9.486H255.206 M255.206,110.809h-17.073
	c-7.324,0-13.285,5.961-13.285,13.283v17.078c0,7.324,5.959,13.283,13.285,13.283h17.073c7.325,0,13.282-5.959,13.282-13.283
	v-17.078C268.489,116.77,262.531,110.809,255.206,110.809"/>
<path fill="#FFFFFF" d="M313.082,152.555c-6.279,0-11.387-5.105-11.387-11.385v-17.076c0-6.281,5.106-11.385,11.387-11.385h17.072
	c6.285,0,11.387,5.104,11.387,11.385v17.076c0,6.279-5.102,11.385-11.387,11.385H313.082z"/>
<path d="M330.158,114.605c5.219,0,9.484,4.271,9.484,9.486v17.078c0,5.219-4.267,9.486-9.484,9.486h-17.076
	c-5.219,0-9.489-4.268-9.489-9.486v-17.078c0-5.215,4.271-9.486,9.489-9.486H330.158 M330.158,110.809h-17.076
	c-7.323,0-13.283,5.961-13.283,13.283v17.078c0,7.324,5.96,13.283,13.283,13.283h17.076c7.32,0,13.277-5.959,13.277-13.283v-17.078
	C343.438,116.77,337.479,110.809,330.158,110.809"/>
<path fill="#FFFFFF" d="M388.029,152.555c-6.279,0-11.385-5.105-11.385-11.385v-17.076c0-6.281,5.104-11.385,11.385-11.385h17.077
	c6.28,0,11.385,5.104,11.385,11.385v17.076c0,6.279-5.104,11.385-11.385,11.385H388.029z"/>
<path d="M405.108,114.605c5.219,0,9.486,4.271,9.486,9.486v17.078c0,5.219-4.269,9.486-9.486,9.486h-17.079
	c-5.219,0-9.486-4.268-9.486-9.486v-17.078c0-5.215,4.268-9.486,9.486-9.486H405.108 M405.108,110.809h-17.079
	c-7.322,0-13.282,5.961-13.282,13.283v17.078c0,7.324,5.96,13.283,13.282,13.283h17.079c7.32,0,13.279-5.959,13.279-13.283v-17.078
	C418.389,116.77,412.43,110.809,405.108,110.809"/>
<path opacity="0.4" fill="#231F20" d="M21.819,127.568c-2.795,0-5.063,2.266-5.063,5.063s2.268,5.064,5.063,5.064
	s5.065-2.268,5.065-5.064l0,0C26.884,129.834,24.614,127.568,21.819,127.568"/>
<path opacity="0.4" fill="#231F20" d="M86.776,117.439h-0.269c-2.735,0.07-4.929,2.314-4.929,5.063c0,2.77,2.219,5.016,4.974,5.064
	h0.181c2.755-0.049,4.972-2.295,4.972-5.064l0,0C91.705,119.754,89.508,117.51,86.776,117.439"/>
<path opacity="0.4" fill="#231F20" d="M106.898,137.695L106.898,137.695c-2.798,0-5.063,2.268-5.063,5.063
	c0,2.771,2.217,5.018,4.972,5.066h0.182c2.755-0.049,4.974-2.295,4.974-5.066l0,0C111.963,139.963,109.693,137.695,106.898,137.695"
	/>
<path d="M241.499,122.502c0,2.799-2.269,5.064-5.063,5.064s-5.063-2.266-5.063-5.064c0-2.795,2.268-5.064,5.063-5.064
	C239.229,117.438,241.499,119.707,241.499,122.502"/>
<path d="M256.691,137.695c-2.797,0-5.064,2.268-5.064,5.063c0,2.801,2.268,5.066,5.064,5.066c2.795,0,5.063-2.266,5.063-5.066
	C261.756,139.963,259.486,137.695,256.691,137.695"/>
<path d="M236.434,137.695c2.801,0,5.064,2.268,5.064,5.063c0,2.801-2.266,5.066-5.064,5.066c-2.795,0-5.062-2.266-5.062-5.066
	C231.372,139.963,233.639,137.695,236.434,137.695"/>
<path d="M251.627,122.502c0,2.799,2.27,5.064,5.064,5.064c2.798,0,5.063-2.266,5.063-5.064c0-2.795-2.267-5.064-5.063-5.064
	C253.896,117.438,251.627,119.707,251.627,122.502"/>
<path d="M391.398,122.502c0,2.799-2.269,5.064-5.063,5.064c-2.8,0-5.063-2.266-5.063-5.064c0-2.795,2.265-5.064,5.063-5.064
	C389.131,117.438,391.398,119.707,391.398,122.502"/>
<path d="M391.398,132.631c0,2.797-2.269,5.064-5.063,5.064c-2.8,0-5.063-2.268-5.063-5.064s2.265-5.064,5.063-5.064
	C389.131,127.566,391.398,129.834,391.398,132.631"/>
<path d="M411.654,132.631c0,2.797-2.266,5.064-5.063,5.064c-2.797,0-5.063-2.268-5.063-5.064s2.266-5.064,5.063-5.064
	C409.39,127.566,411.654,129.834,411.654,132.631"/>
<path d="M406.592,137.695c-2.797,0-5.063,2.268-5.063,5.063c0,2.801,2.266,5.066,5.063,5.066c2.798,0,5.063-2.266,5.063-5.066
	C411.654,139.963,409.39,137.695,406.592,137.695"/>
<path d="M406.592,127.566c-2.797,0-5.063-2.266-5.063-5.064c0-2.797,2.266-5.064,5.063-5.064c2.798,0,5.063,2.268,5.063,5.064
	C411.654,125.301,409.39,127.566,406.592,127.566"/>
<path d="M391.398,142.758c0-2.797-2.269-5.063-5.063-5.063c-2.8,0-5.063,2.266-5.063,5.063c0,2.801,2.265,5.066,5.063,5.066
	C389.131,147.824,391.398,145.559,391.398,142.758"/>
<path opacity="0.4" fill="#231F20" d="M161.616,117.439h-0.269c-2.738,0.07-4.93,2.314-4.93,5.063c0,2.77,2.217,5.016,4.972,5.064
	h0.182c2.724-0.047,4.926-2.248,4.974-4.973v-0.182C166.498,119.703,164.321,117.51,161.616,117.439"/>
<path opacity="0.4" fill="#231F20" d="M181.738,137.695L181.738,137.695c-2.798,0-5.065,2.268-5.065,5.063
	c0,2.771,2.217,5.018,4.977,5.066h0.178c2.728-0.049,4.924-2.248,4.975-4.977v-0.178
	C186.753,139.916,184.506,137.695,181.738,137.695"/>
<path opacity="0.4" fill="#231F20" d="M171.445,127.568c-2.77,0-5.018,2.219-5.063,4.975v0.178c0.045,2.758,2.292,4.975,5.063,4.975
	c2.767,0,5.012-2.217,5.062-4.975v-0.182C176.457,129.787,174.212,127.568,171.445,127.568"/>
<path d="M316.861,122.502c0,2.799-2.266,5.064-5.063,5.064c-2.801,0-5.066-2.266-5.066-5.064c0-2.795,2.267-5.064,5.066-5.064
	C314.596,117.438,316.861,119.707,316.861,122.502"/>
<path d="M332.057,137.695c-2.8,0-5.064,2.268-5.064,5.063c0,2.801,2.266,5.066,5.064,5.066c2.797,0,5.063-2.266,5.063-5.066
	C337.118,139.963,334.854,137.695,332.057,137.695"/>
<path d="M332.057,127.566c-2.8,0-5.064-2.266-5.064-5.064c0-2.797,2.266-5.064,5.064-5.064c2.797,0,5.063,2.268,5.063,5.064
	C337.118,125.301,334.854,127.566,332.057,127.566"/>
<path d="M316.861,142.758c0-2.797-2.266-5.063-5.063-5.063c-2.801,0-5.066,2.266-5.066,5.063c0,2.801,2.267,5.066,5.066,5.066
	C314.596,147.824,316.861,145.559,316.861,142.758"/>
<path d="M326.684,132.631c0,2.797-2.266,5.064-5.064,5.064s-5.063-2.268-5.063-5.064s2.265-5.064,5.063-5.064
	C324.418,127.566,326.684,129.834,326.684,132.631"/>
<polygon points="324.465,164.434 324.465,197.514 283.627,238.352 279.602,234.328 318.773,195.156 318.773,164.434 "/>
<polyline points="250.521,164.434 250.521,232.393 244.83,232.393 244.83,164.434 "/>
<polygon points="399.415,164.434 399.415,197.514 285.105,311.818 281.083,307.799 393.723,195.156 393.723,164.434 "/>
<path d="M409.49,85.879l2.123-2.125l9.423,9.42l-2.128,2.125l-3.443-3.445l-9.371,9.369l-2.528-2.527l9.37-9.371L409.49,85.879z
	 M410.682,82.82l-2.125,2.125l-6.068-6.07l-2.465,2.463l5.57,5.57l-1.963,1.967l-5.57-5.57l-2.818,2.818l6.198,6.195l-2.126,2.127
	l-8.726-8.729l11.494-11.494L410.682,82.82z M385.268,80.219c-0.779-0.314-1.444-0.754-2.004-1.311
	c-0.882-0.881-1.52-1.826-1.916-2.834c-0.397-1.01-0.57-2.023-0.517-3.043c0.056-1.018,0.313-2.021,0.782-3.002
	c0.466-0.982,1.117-1.893,1.955-2.73c0.855-0.855,1.783-1.525,2.777-2.002c0.992-0.479,2.006-0.75,3.036-0.814
	c1.028-0.066,2.052,0.1,3.067,0.492c1.012,0.389,1.96,1.025,2.841,1.904c0.59,0.592,1.073,1.252,1.446,1.98
	c0.378,0.732,0.615,1.492,0.72,2.281c0.101,0.787,0.045,1.58-0.172,2.373c-0.215,0.797-0.618,1.551-1.207,2.27l-2.415-2.414
	c0.496-0.793,0.688-1.568,0.582-2.318c-0.109-0.752-0.469-1.434-1.082-2.045c-0.568-0.568-1.161-0.941-1.777-1.119
	c-0.617-0.178-1.234-0.203-1.854-0.08c-0.618,0.123-1.215,0.365-1.801,0.725c-0.586,0.36-1.129,0.791-1.637,1.297
	c-0.482,0.482-0.896,1.008-1.236,1.576c-0.346,0.57-0.577,1.162-0.695,1.771c-0.118,0.611-0.09,1.229,0.093,1.844
	c0.177,0.619,0.548,1.211,1.114,1.779c0.839,0.836,1.697,1.271,2.578,1.305c0.883,0.031,1.761-0.316,2.641-1.049l-2.544-2.545
	l1.884-1.883l4.827,4.832l-6.213,6.215l-1.608-1.611l1.047-1.561C386.95,80.629,386.044,80.537,385.268,80.219z M384.438,56.576
	c0.516,0.514,0.897,1.063,1.145,1.645c0.247,0.576,0.372,1.16,0.376,1.746c0.007,0.582-0.104,1.145-0.328,1.682
	c-0.226,0.535-0.56,1.025-0.999,1.465c-0.676,0.678-1.4,1.119-2.181,1.328s-1.619,0.121-2.519-0.266l-0.037,0.031
	c0.229,0.398,0.353,0.787,0.381,1.17c0.026,0.379-0.016,0.756-0.129,1.125c-0.111,0.369-0.283,0.73-0.517,1.078
	c-0.229,0.35-0.479,0.68-0.749,0.992c-0.172,0.191-0.373,0.418-0.609,0.676c-0.235,0.256-0.471,0.527-0.701,0.814
	c-0.229,0.283-0.432,0.57-0.604,0.859c-0.174,0.291-0.278,0.576-0.321,0.855l-2.524-2.529c0.224-0.506,0.573-1.025,1.046-1.561
	c0.473-0.539,0.902-1.068,1.301-1.596c0.518-0.688,0.775-1.309,0.775-1.867s-0.318-1.154-0.951-1.787l-2.529-2.527l-4.488,4.49
	l-2.529-2.529l11.497-11.494L384.438,56.576z M378.337,60.875c0.579,0.58,1.142,0.887,1.688,0.918
	c0.548,0.031,1.113-0.242,1.689-0.82c0.559-0.559,0.82-1.109,0.781-1.65c-0.036-0.541-0.344-1.102-0.926-1.684l-2.77-2.77
	l-3.234,3.236L378.337,60.875z M372.943,45.082l-7.2,15.795l-2.624-2.627l1.691-3.428l-4.297-4.299l-3.462,1.658l-2.544-2.543
	l15.84-7.148L372.943,45.082z M366.035,52.277l2.77-5.668l-0.031-0.031l-5.715,2.721L366.035,52.277z M355.826,32.217l2.126-2.125
	l9.42,9.418l-2.125,2.125l-3.445-3.443l-9.368,9.369l-2.529-2.527l9.371-9.371L355.826,32.217z M341.514,17.902l2.125-2.125
	l9.422,9.42l-2.127,2.125l-3.442-3.445l-9.371,9.369l-2.529-2.525l9.371-9.371L341.514,17.902z M342.32,14.459l-11.496,11.496
	l-2.529-2.529l11.496-11.496L342.32,14.459z M330.389,2.529l-4.412,4.408l4.656,4.656l4.41-4.412l2.525,2.525l-11.495,11.498
	l-2.527-2.529l4.959-4.959l-4.651-4.652l-4.959,4.959l-2.529-2.527L327.863,0L330.389,2.529z"/>
<path d="M335.396,85.879l2.123-2.125l9.42,9.42l-2.125,2.125l-3.443-3.445L332,101.223l-2.527-2.527l9.37-9.371L335.396,85.879z
	 M336.588,82.82l-2.125,2.125l-6.068-6.07l-2.465,2.463l5.57,5.57l-1.964,1.967l-5.569-5.57l-2.82,2.818l6.197,6.195l-2.123,2.127
	l-8.726-8.729l11.493-11.494L336.588,82.82z M311.171,80.219c-0.776-0.314-1.444-0.754-2.003-1.311
	c-0.88-0.881-1.518-1.826-1.915-2.834c-0.396-1.01-0.571-2.023-0.515-3.043c0.054-1.018,0.313-2.021,0.779-3.002
	c0.465-0.982,1.119-1.893,1.957-2.73c0.856-0.855,1.783-1.525,2.777-2.002c0.99-0.479,2.003-0.75,3.034-0.814
	c1.03-0.066,2.052,0.1,3.067,0.492c1.012,0.389,1.963,1.025,2.84,1.904c0.589,0.592,1.072,1.252,1.449,1.98
	c0.375,0.732,0.613,1.492,0.719,2.281c0.102,0.787,0.046,1.58-0.172,2.373c-0.217,0.797-0.617,1.551-1.205,2.27l-2.416-2.414
	c0.492-0.793,0.688-1.568,0.58-2.318c-0.109-0.752-0.467-1.434-1.08-2.045c-0.568-0.568-1.161-0.941-1.779-1.119
	c-0.616-0.178-1.232-0.203-1.852-0.08s-1.217,0.365-1.806,0.725c-0.582,0.359-1.127,0.791-1.634,1.297
	c-0.48,0.482-0.895,1.008-1.236,1.576c-0.346,0.57-0.578,1.162-0.693,1.771c-0.117,0.611-0.09,1.229,0.089,1.844
	c0.178,0.619,0.552,1.211,1.118,1.779c0.84,0.836,1.697,1.271,2.576,1.305c0.879,0.031,1.763-0.316,2.643-1.049l-2.544-2.545
	l1.883-1.883l4.829,4.832l-6.214,6.215l-1.607-1.611l1.046-1.561C312.855,80.629,311.95,80.537,311.171,80.219z M310.346,56.576
	c0.516,0.514,0.896,1.063,1.145,1.645c0.244,0.576,0.371,1.16,0.375,1.746c0.007,0.582-0.104,1.145-0.328,1.682
	c-0.229,0.535-0.561,1.025-0.998,1.465c-0.68,0.678-1.406,1.119-2.182,1.328c-0.779,0.209-1.619,0.121-2.521-0.266l-0.034,0.031
	c0.226,0.398,0.353,0.787,0.38,1.17c0.028,0.379-0.017,0.756-0.129,1.125c-0.113,0.369-0.285,0.73-0.515,1.078
	c-0.231,0.35-0.479,0.68-0.75,0.992c-0.175,0.191-0.373,0.418-0.608,0.676c-0.236,0.256-0.471,0.527-0.703,0.814
	c-0.23,0.283-0.432,0.57-0.604,0.859c-0.174,0.291-0.278,0.576-0.324,0.855l-2.525-2.529c0.226-0.506,0.574-1.025,1.049-1.561
	c0.474-0.539,0.904-1.068,1.302-1.596c0.517-0.688,0.774-1.309,0.774-1.867s-0.317-1.154-0.951-1.787l-2.528-2.527l-4.491,4.49
	l-2.525-2.529l11.496-11.494L310.346,56.576z M304.241,60.875c0.579,0.58,1.145,0.887,1.69,0.918
	c0.549,0.031,1.112-0.242,1.689-0.82c0.559-0.559,0.82-1.109,0.781-1.65c-0.038-0.541-0.348-1.102-0.928-1.684l-2.768-2.77
	l-3.234,3.236L304.241,60.875z M298.852,45.082l-7.201,15.795l-2.623-2.627l1.691-3.428l-4.299-4.299l-3.463,1.658l-2.544-2.543
	l15.842-7.148L298.852,45.082z M291.941,52.277l2.77-5.668l-0.034-0.031l-5.713,2.721L291.941,52.277z M281.732,32.217l2.125-2.125
	l9.422,9.418l-2.129,2.125l-3.442-3.443l-9.371,9.369l-2.528-2.527l9.371-9.371L281.732,32.217z M267.42,17.902l2.125-2.125
	l9.421,9.42l-2.128,2.125l-3.445-3.445l-9.369,9.369l-2.526-2.525l9.371-9.371L267.42,17.902z M268.225,14.459L256.73,25.955
	l-2.529-2.529l11.497-11.496L268.225,14.459z M256.295,2.529l-4.412,4.408l4.652,4.656l4.412-4.412l2.527,2.525l-11.496,11.498
	l-2.526-2.529l4.96-4.959l-4.655-4.652l-4.957,4.959l-2.528-2.527L253.768,0L256.295,2.529z"/>
<path d="M259.884,85.879l2.124-2.125l9.422,9.42l-2.127,2.125l-3.443-3.445l-9.371,9.369l-2.528-2.527l9.371-9.371L259.884,85.879z
	 M261.076,82.82l-2.124,2.125l-6.071-6.07l-2.463,2.463l5.568,5.57l-1.961,1.967l-5.571-5.57l-2.817,2.818l6.197,6.195l-2.123,2.127
	l-8.729-8.729l11.496-11.494L261.076,82.82z M235.663,80.219c-0.776-0.314-1.446-0.754-2.004-1.311
	c-0.882-0.881-1.521-1.826-1.917-2.834c-0.396-1.01-0.568-2.023-0.516-3.043c0.056-1.018,0.313-2.021,0.781-3.002
	c0.465-0.982,1.119-1.893,1.956-2.73c0.856-0.855,1.784-1.525,2.777-2.002c0.993-0.479,2.006-0.75,3.036-0.814
	c1.029-0.066,2.052,0.1,3.068,0.492c1.012,0.389,1.961,1.025,2.84,1.904c0.59,0.592,1.073,1.252,1.447,1.98
	c0.376,0.732,0.616,1.492,0.719,2.281c0.101,0.787,0.045,1.58-0.17,2.373c-0.214,0.797-0.619,1.551-1.207,2.27l-2.418-2.414
	c0.495-0.793,0.687-1.568,0.582-2.318c-0.109-0.752-0.468-1.434-1.082-2.045c-0.568-0.568-1.162-0.941-1.775-1.119
	c-0.62-0.178-1.235-0.203-1.854-0.08c-0.617,0.123-1.217,0.365-1.802,0.725c-0.586,0.359-1.129,0.791-1.638,1.297
	c-0.481,0.482-0.894,1.008-1.235,1.576c-0.345,0.57-0.575,1.162-0.692,1.771c-0.119,0.611-0.088,1.229,0.09,1.844
	c0.176,0.619,0.549,1.211,1.117,1.779c0.838,0.836,1.696,1.271,2.578,1.305c0.879,0.031,1.76-0.316,2.639-1.049l-2.543-2.545
	l1.883-1.883l4.83,4.832l-6.215,6.215l-1.608-1.611l1.046-1.561C237.343,80.629,236.438,80.537,235.663,80.219z M234.833,56.576
	c0.517,0.514,0.897,1.063,1.146,1.645c0.246,0.576,0.371,1.16,0.375,1.746c0.004,0.582-0.105,1.145-0.328,1.682
	c-0.228,0.535-0.56,1.025-1,1.465c-0.676,0.678-1.401,1.119-2.18,1.328c-0.779,0.209-1.619,0.121-2.521-0.266l-0.034,0.031
	c0.227,0.398,0.352,0.787,0.379,1.17c0.028,0.379-0.016,0.756-0.128,1.125c-0.114,0.369-0.284,0.73-0.515,1.078
	c-0.232,0.35-0.481,0.68-0.75,0.992c-0.17,0.191-0.375,0.418-0.61,0.676c-0.235,0.256-0.47,0.527-0.702,0.814
	c-0.229,0.283-0.43,0.57-0.604,0.859c-0.174,0.291-0.278,0.576-0.321,0.855l-2.526-2.529c0.223-0.506,0.572-1.025,1.045-1.561
	c0.474-0.539,0.904-1.068,1.301-1.596c0.52-0.688,0.775-1.309,0.775-1.867s-0.316-1.154-0.949-1.787l-2.529-2.527l-4.49,4.49
	l-2.527-2.529l11.493-11.494L234.833,56.576z M228.732,60.875c0.576,0.58,1.141,0.887,1.688,0.918
	c0.548,0.031,1.111-0.242,1.689-0.82c0.558-0.559,0.818-1.109,0.781-1.65s-0.345-1.102-0.925-1.684l-2.771-2.77l-3.234,3.236
	L228.732,60.875z M223.337,45.082l-7.198,15.795l-2.625-2.627l1.692-3.428l-4.298-4.299l-3.462,1.658l-2.544-2.543l15.842-7.148
	L223.337,45.082z M216.43,52.277l2.771-5.668l-0.033-0.031l-5.716,2.721L216.43,52.277z M206.222,32.217l2.123-2.125l9.422,9.418
	l-2.127,2.125l-3.443-3.443l-9.371,9.369l-2.529-2.527l9.371-9.371L206.222,32.217z M191.909,17.902l2.124-2.125l9.421,9.42
	l-2.126,2.125l-3.444-3.445l-9.371,9.369l-2.529-2.525l9.371-9.371L191.909,17.902z M192.715,14.459l-11.498,11.496l-2.528-2.529
	l11.498-11.496L192.715,14.459z M180.786,2.529l-4.414,4.408l4.655,4.656l4.409-4.412l2.529,2.525l-11.498,11.498l-2.526-2.529
	l4.959-4.959l-4.653-4.652l-4.959,4.959l-2.529-2.527L178.257,0L180.786,2.529z"/>
<rect x="149.787" y="285.125" fill="#FFFFFF" width="121.658" height="40.553"/>
<polygon points="149.787,325.678 149.787,324.73 270.496,324.73 270.496,286.074 150.734,286.074 150.734,325.678 149.787,325.678 
	149.787,324.73 149.787,325.678 148.839,325.678 148.839,284.178 272.395,284.178 272.395,326.625 148.839,326.625 148.839,325.678 
	"/>
<rect x="149.787" y="244.574" fill="#FFFFFF" width="121.658" height="40.553"/>
<polygon points="149.787,285.125 149.787,284.178 270.496,284.178 270.496,245.521 150.734,245.521 150.734,285.125 
	149.787,285.125 149.787,284.178 149.787,285.125 148.839,285.125 148.839,243.625 272.395,243.625 272.395,286.074 
	148.839,286.074 148.839,285.125 "/>
<rect x="149.787" y="325.678" fill="#FFFFFF" width="121.658" height="40.554"/>
<polygon points="149.787,366.23 149.787,365.281 270.496,365.281 270.496,326.625 150.734,326.625 150.734,366.23 149.787,366.23 
	149.787,365.281 149.787,366.23 148.839,366.23 148.839,324.73 272.395,324.73 272.395,367.18 148.839,367.18 148.839,366.23 "/>
</svg>
