<?xml version="1.0" encoding="utf-8"?>
<!-- Generator: Adobe Illustrator 16.0.3, SVG Export Plug-In . SVG Version: 6.00 Build 0)  -->
<!DOCTYPE svg PUBLIC "-//W3C//DTD SVG 1.1//EN" "http://www.w3.org/Graphics/SVG/1.1/DTD/svg11.dtd">
<svg version="1.1" id="Layer_1" xmlns="http://www.w3.org/2000/svg" xmlns:xlink="http://www.w3.org/1999/xlink" x="0px" y="0px"
	 width="420px" height="406.404px" viewBox="0 0 420 406.404" enable-background="new 0 0 420 406.404" xml:space="preserve">
<path opacity="0.4" fill="#231F20" enable-background="new    " d="M13.282,150.758c-5.218,0-9.488-4.266-9.488-9.486v-17.078
	c0-5.216,4.27-9.486,9.488-9.486h17.077c5.218,0,9.485,4.271,9.485,9.486v17.078c0,5.221-4.267,9.486-9.485,9.486H13.282
	 M30.359,110.912H13.282c-7.275,0-13.202,5.877-13.282,13.133v17.375c0.081,7.258,6.007,13.133,13.282,13.133h17.077
	c7.325,0,13.281-5.956,13.281-13.281v-17.078C43.64,116.87,37.685,110.912,30.359,110.912"/>
<path opacity="0.4" fill="#231F20" enable-background="new    " d="M88.233,150.758c-5.219,0-9.489-4.266-9.489-9.486v-17.078
	c0-5.216,4.271-9.486,9.489-9.486h17.076c5.219,0,9.484,4.271,9.484,9.486v17.078c0,5.221-4.265,9.486-9.484,9.486H88.233
	 M105.309,110.912H88.233c-7.325,0-13.285,5.958-13.285,13.281v17.078c0,7.325,5.96,13.281,13.285,13.281h17.076
	c7.325,0,13.28-5.956,13.28-13.281v-17.078C118.589,116.87,112.634,110.912,105.309,110.912"/>
<path opacity="0.4" fill="#231F20" enable-background="new    " d="M163.182,150.758c-5.218,0-9.486-4.266-9.486-9.486v-17.078
	c0-5.216,4.269-9.486,9.486-9.486h17.079c5.218,0,9.484,4.271,9.484,9.486v17.078c0,5.221-4.266,9.486-9.484,9.486H163.182
	 M180.26,110.912h-17.079c-7.274,0-13.202,5.877-13.282,13.133v17.375c0.081,7.258,6.008,13.133,13.282,13.133h17.079
	c7.325,0,13.28-5.956,13.28-13.281v-17.078C193.54,116.87,187.585,110.912,180.26,110.912"/>
<path fill="#FFFFFF" d="M238.13,152.656c-6.278,0-11.384-5.106-11.384-11.385v-17.075c0-6.282,5.105-11.386,11.384-11.386h17.078
	c6.28,0,11.383,5.104,11.383,11.386v17.075c0,6.278-5.103,11.385-11.383,11.385H238.13z"/>
<path d="M255.208,114.707c5.22,0,9.487,4.27,9.487,9.486v17.078c0,5.221-4.269,9.486-9.487,9.486H238.13
	c-5.218,0-9.487-4.266-9.487-9.486v-17.078c0-5.217,4.27-9.486,9.487-9.486H255.208 M255.208,110.912H238.13
	c-7.319,0-13.282,5.959-13.282,13.281v17.078c0,7.325,5.963,13.281,13.282,13.281h17.078c7.323,0,13.283-5.956,13.283-13.281
	v-17.078C268.491,116.871,262.531,110.912,255.208,110.912"/>
<path fill="#FFFFFF" d="M313.08,152.656c-6.277,0-11.383-5.106-11.383-11.385v-17.075c0-6.282,5.104-11.386,11.383-11.386h17.076
	c6.279,0,11.385,5.104,11.385,11.386v17.075c0,6.278-5.105,11.385-11.385,11.385H313.08z"/>
<path d="M330.156,114.707c5.219,0,9.486,4.27,9.486,9.486v17.078c0,5.221-4.269,9.486-9.486,9.486h-17.074
	c-5.219,0-9.489-4.266-9.489-9.486v-17.078c0-5.217,4.271-9.486,9.489-9.486H330.156 M330.156,110.912h-17.074
	c-7.323,0-13.285,5.959-13.285,13.281v17.078c0,7.325,5.962,13.281,13.285,13.281h17.074c7.324,0,13.283-5.956,13.283-13.281
	v-17.078C343.439,116.871,337.48,110.912,330.156,110.912"/>
<path fill="#FFFFFF" d="M388.032,152.656c-6.277,0-11.388-5.106-11.388-11.385v-17.075c0-6.282,5.109-11.386,11.388-11.386h17.074
	c6.283,0,11.387,5.104,11.387,11.386v17.075c0,6.278-5.104,11.385-11.387,11.385H388.032z"/>
<path d="M405.11,114.707c5.22,0,9.482,4.27,9.482,9.486v17.078c0,5.221-4.264,9.486-9.482,9.486h-17.078
	c-5.218,0-9.489-4.266-9.489-9.486v-17.078c0-5.217,4.271-9.486,9.489-9.486H405.11 M405.11,110.912h-17.078
	c-7.325,0-13.285,5.959-13.285,13.281v17.078c0,7.325,5.96,13.281,13.285,13.281h17.078c7.32,0,13.277-5.956,13.277-13.281v-17.078
	C418.389,116.871,412.432,110.912,405.11,110.912"/>
<path opacity="0.4" fill="#231F20" d="M21.82,127.669L21.82,127.669c-2.798,0-5.064,2.269-5.064,5.063
	c0,2.799,2.266,5.064,5.064,5.064c2.796,0,5.063-2.266,5.063-5.064l0,0C26.884,129.938,24.617,127.669,21.82,127.669"/>
<path opacity="0.4" fill="#231F20" d="M86.776,117.543h-0.267c-2.737,0.07-4.932,2.311-4.932,5.063c0,2.797,2.268,5.063,5.065,5.063
	c2.795,0,5.065-2.267,5.065-5.063l0,0C91.708,119.854,89.51,117.613,86.776,117.543"/>
<path opacity="0.4" fill="#231F20" d="M106.9,137.798c-2.8,0-5.065,2.267-5.065,5.063c0,2.799,2.265,5.064,5.065,5.064
	c2.795,0,5.063-2.266,5.063-5.064l0,0C111.963,140.064,109.695,137.798,106.9,137.798"/>
<path d="M241.499,122.605c0,2.797-2.267,5.063-5.062,5.063c-2.801,0-5.065-2.267-5.065-5.063s2.265-5.064,5.065-5.064
	C239.23,117.541,241.499,119.81,241.499,122.605"/>
<path d="M256.691,137.798c-2.797,0-5.063,2.269-5.063,5.063c0,2.799,2.267,5.064,5.063,5.064c2.795,0,5.063-2.266,5.063-5.064
	C261.756,140.066,259.486,137.798,256.691,137.798"/>
<path d="M236.438,137.798c2.795,0,5.062,2.269,5.062,5.063c0,2.799-2.267,5.064-5.062,5.064c-2.801,0-5.065-2.266-5.065-5.064
	C231.372,140.066,233.637,137.798,236.438,137.798"/>
<path d="M251.629,122.605c0,2.797,2.268,5.063,5.063,5.063c2.801,0,5.064-2.267,5.064-5.063s-2.265-5.064-5.064-5.064
	C253.896,117.541,251.629,119.81,251.629,122.605"/>
<path d="M391.4,122.605c0,2.797-2.268,5.063-5.063,5.063c-2.799,0-5.065-2.267-5.065-5.063s2.268-5.064,5.065-5.064
	C389.134,117.541,391.4,119.81,391.4,122.605"/>
<path d="M391.4,132.732c0,2.799-2.268,5.064-5.063,5.064c-2.799,0-5.065-2.266-5.065-5.064c0-2.795,2.268-5.063,5.065-5.063
	C389.134,127.669,391.4,129.938,391.4,132.732"/>
<path d="M411.656,132.732c0,2.799-2.268,5.064-5.063,5.064c-2.799,0-5.067-2.266-5.067-5.064c0-2.795,2.27-5.063,5.067-5.063
	C409.39,127.669,411.656,129.938,411.656,132.732"/>
<path d="M406.594,137.798c-2.799,0-5.067,2.269-5.067,5.063c0,2.799,2.27,5.064,5.067,5.064c2.796,0,5.063-2.266,5.063-5.064
	C411.656,140.066,409.39,137.798,406.594,137.798"/>
<path d="M406.594,127.669c-2.799,0-5.067-2.267-5.067-5.063c0-2.799,2.27-5.064,5.067-5.064c2.796,0,5.063,2.266,5.063,5.064
	C411.656,125.402,409.39,127.669,406.594,127.669"/>
<path d="M391.4,142.861c0-2.799-2.268-5.063-5.063-5.063c-2.799,0-5.065,2.265-5.065,5.063c0,2.798,2.268,5.064,5.065,5.064
	C389.134,147.926,391.4,145.66,391.4,142.861"/>
<path opacity="0.4" fill="#231F20" d="M161.616,117.543h-0.27c-2.734,0.07-4.926,2.311-4.926,5.063c0,2.797,2.262,5.063,5.062,5.063
	c2.765,0,5.015-2.218,5.063-4.974v-0.182C166.5,119.805,164.318,117.613,161.616,117.543"/>
<path opacity="0.4" fill="#231F20" d="M181.738,137.798c-2.797,0-5.062,2.267-5.062,5.063c0,2.799,2.265,5.064,5.062,5.064
	c2.771,0,5.018-2.218,5.063-4.973v-0.182C186.756,140.018,184.508,137.798,181.738,137.798"/>
<path opacity="0.4" fill="#231F20" d="M171.445,127.669L171.445,127.669c-2.768,0-5.015,2.221-5.065,4.974v0.18
	c0.05,2.758,2.297,4.975,5.065,4.975c2.767,0,5.015-2.217,5.062-4.975v-0.18C176.459,129.89,174.212,127.669,171.445,127.669"/>
<path d="M316.861,122.605c0,2.797-2.264,5.063-5.063,5.063c-2.795,0-5.063-2.267-5.063-5.063s2.27-5.064,5.063-5.064
	C314.598,117.541,316.861,119.81,316.861,122.605"/>
<path d="M332.055,137.798c-2.798,0-5.064,2.269-5.064,5.063c0,2.799,2.268,5.064,5.064,5.064c2.799,0,5.066-2.266,5.066-5.064
	C337.121,140.066,334.854,137.798,332.055,137.798"/>
<path d="M332.055,127.669c-2.798,0-5.064-2.267-5.064-5.063c0-2.799,2.268-5.064,5.064-5.064c2.799,0,5.066,2.266,5.066,5.064
	C337.121,125.402,334.854,127.669,332.055,127.669"/>
<path d="M316.861,142.861c0-2.799-2.264-5.063-5.063-5.063c-2.795,0-5.063,2.265-5.063,5.063c0,2.798,2.27,5.064,5.063,5.064
	C314.598,147.926,316.861,145.66,316.861,142.861"/>
<path d="M326.684,132.732c0,2.799-2.269,5.064-5.063,5.064c-2.8,0-5.063-2.266-5.063-5.064c0-2.795,2.265-5.063,5.063-5.063
	C324.415,127.669,326.684,129.938,326.684,132.732"/>
<path d="M204.251,202.686c8.878,0,17.626,2.723,18.356,3.885c0.129,0.191,1.517,7.166,1.526,10.813c0,0.949-0.09,1.675-0.321,1.996
	c-0.254,0.354-1.191,0.899-1.191,0.899l0.313,1.724c-1.228,2.047-8.873,4.487-8.873,4.487l0.26,0.523l5.094-0.427l2.398,0.8
	l3.599-0.398l3.604,2.003l4.401-0.8l1.604-1.203l1.201-0.4l0.396-0.804c0.676-0.388,11.615-5.601,11.615-5.601l14.369,16.024
	c0,0-0.131,2.61-0.354,5.593c-0.186,2.451-0.867,8.293-0.801,8.809v-0.004l4.805,6.816v38.428l-2.005,7.213l0.81,2.396v6.007
	c0,0-0.643,2.128-3.207,3.605c-0.763,0.434-3.201,1.199-3.201,1.199l-2.412,4.809c-0.576,0.354-1.512,0.865-2.622,0.865
	c-0.554,0-1.157-0.128-1.78-0.465c-0.6-0.332-0.559-1.527-1.598-1.604l-4.992,1.702l1.387,13.514c0,0,4.266,5.423,6.41,12.405
	c0.29,0.93,2.203,0.986,2.8,1.604c0.013,0.017,1.831,3.353,2.188,6.654c0.486,4.545-1.01,7.521-1.791,8.16
	c-0.297,0.256-1.67,0.91-1.992,1.598c-0.273,0.576-0.141,2.398-0.405,3.605c-0.239,1.059-0.772,2.117-0.799,2.807
	c-0.073,1.844,1.013,6.135,1.204,7.609c0.052,0.44,0.396,1.203,0.398,1.203c0.021,0.987,0.246,9.879,0.246,9.879l-14.846,9.631
	l-26.423,0.383l-1.401-21.256l-3.362-2.238c0,0-1.571-1.979-2.667-4.805c-0.666-1.758-1.041-3.545-1.593-4.813
	c0,0-1.68-2.244-1.833-3.718c-0.153-1.475-0.447-8.047-0.171-8.694c0.264-0.629,1.026-0.798,1.194-1.603
	c0.15-0.649,0.045-3.715,0.96-7.926c0.91-4.215,3.046-5.68,3.046-5.68l-2.403-1.609l-3.203-20.011l-4.407-0.409l-0.767-4.332
	l-3.235-0.471l2.009,2.803l-2.521,20.061l-1.807,1.208c0,0,1.085,1.419,1.523,1.956c0.588,0.725,4.208,6.285,3.688,16.535
	c-0.33,6.521-4.055,12.377-4.487,13.092c-0.226,0.363-1.427,3.9-1.427,3.9l-0.176,16.92l-27.727,5.502l-17.224-3.209l-0.628-16.643
	l3.281-6.271l-0.144-1.403c-0.596-0.742-1.058-2.025-1.599-3.201c-0.337-0.72-2.205-4.701-1.328-13.32
	c0.875-8.625,5.108-12.783,5.327-13.104l0.124-0.034l0.555,0.066l0.121-0.032l2.403-3.202l-1.202-2.81l1.606-14.41
	c0,0-1.611-0.825-2.808-1.202c-0.857-0.266-1.416-0.832-2.396-0.832l-0.407,0.032c-0.689,0.992-2.574,3.648-5.716,3.648
	c-0.699,0-1.466-0.133-2.293-0.443c-1.216-0.457-2.519-3.104-2.519-3.104h-1.287c0,0-0.636,1.11-1.634,1.11l-0.166-0.014
	c-1.795-0.215-2.813-1.6-3.182-1.6h-0.012c-0.415,0.039-1.602,1.199-1.602,1.199l-0.287,2.272l-8.129,7.341
	c-0.186,0.075-0.472,0.101-0.769,0.101c-0.593,0-1.234-0.101-1.234-0.101l-3.574,2.225c0,0-0.209,0.102-0.621,0.102
	c-0.397,0-0.98-0.094-1.75-0.455c-0.563-0.267-1.167-1.187-1.167-1.187l-6.893,4.922h-2.805l-1.201,1.597l-0.408,2.005
	l-16.912,14.223c0,0-0.44,0.153-1.126,0.153c-0.347,0-0.754-0.041-1.197-0.153c-0.834-0.216-1.983-1.039-1.983-1.039l-2.8,2.032
	c0,0-0.285,0.17-0.853,0.17c-1.083,0-3.195-0.614-6.342-4.182c-4.803-5.445-3.369-7.723-3.369-7.723l2.823-2.428
	c0,0-0.701-1.021-0.942-1.978c-0.344-1.385,0.397-2.579,0.397-2.579l9.887-8.908c0,0-0.586-1.688-0.402-2.806
	c0.058-0.329,1.201-1.199,1.201-1.199l-0.241-1.184l2.936-2.992c0,0-1.126-1.396-1.489-2.236c-2.113-4.841,0.488-16.369,9.11-24.139
	c5.505-4.965,10.688-6.184,14.753-6.184c3.909,0,6.785,1.125,7.926,1.125l0.242-0.023c0.731-0.465,10.793-10.837,11.603-12.012
	c0.277-0.387,0.118-0.867,0.402-1.206c0.691-0.802,1.553-1.492,2.006-1.599c0.301-0.07,0.573-0.104,0.819-0.104
	c1.332,0,1.92,0.92,3.18,1.302c1.065,0.33,6.812,2.003,6.812,2.003l5.206-1.197l-0.804-1.201l0.402-1.199l-1.604-2.012l6.404-6.401
	l12.016,3.211l5.203,6.401c0,0,0.388-1.953,0.794-3.606c0.413-1.651,0.805-3.198,0.805-3.198l-5.603-3.205l-4.004-16.821
	l14.554-10.953l12.431,3.063l3.174-1.11l0.734,0.168l3.391-1.242l-0.417-1.036c0,0-1.508,0.133-3.303,0.133
	c-1.752,0-3.783-0.127-4.939-0.634l-1.199-3.198c0,0-2.155-0.414-2.803-1.604c-0.468-0.865-0.94-3.879-1.199-5.601
	c-0.687-4.492-1.078-6.281,1.601-8.412c0.37-0.291,5.083-4.865,17.455-8.131C198.612,202.957,201.44,202.686,204.251,202.686
	 M204.251,196.992L204.251,196.992c-3.542,0-6.799,0.387-9.678,1.143c-11.247,2.971-17.124,7.068-19.627,9.25l0.027-0.022
	c-5.105,4.104-4.392,8.722-3.705,13.191l0.075,0.489c0.302,2.008,0.561,3.476,0.822,4.603l-2.328-0.574l-2.162,1.626l-14.554,10.958
	l-2.976,2.238l0.86,3.627l2.797,11.733l-5-1.333l-3.172-0.845l-2.317,2.317l-6.408,6.4l-2.682,2.678
	c-0.623-0.185-1.151-0.342-1.468-0.437l-0.171-0.104c-0.86-0.524-2.458-1.496-4.847-1.496c-0.688,0-1.397,0.084-2.111,0.25
	c-2.154,0.504-3.921,2.146-5.03,3.433c-0.646,0.769-1.008,1.539-1.222,2.175c-1.639,1.813-5.854,6.197-8.328,8.673
	c-1.608-0.342-3.745-0.715-6.307-0.715c-6.688,0-12.938,2.574-18.563,7.647c-9.826,8.856-13.416,22.136-10.884,29.688l-2.049,2.086
	l0.279,1.362c-0.309,0.555-0.543,1.18-0.664,1.879c-0.088,0.545-0.118,1.094-0.11,1.627l-7.574,6.826l-0.593,0.536l-0.423,0.677
	c-0.42,0.676-1.628,2.898-1.302,5.801l-0.507,0.436l-0.454,0.725c-1.115,1.769-2.966,6.722,3.912,14.524
	c3.574,4.051,7.144,6.106,10.612,6.106c1.38,0,2.718-0.346,3.771-0.975l0.221-0.133l0.204-0.148l0.093-0.068
	c0.839,0.207,1.689,0.314,2.544,0.314c1.44,0,2.503-0.297,3.006-0.476l0.985-0.346l0.799-0.668l16.912-14.223l1.523-1.282
	l0.196-0.985h0.852l1.485-1.061l3.73-2.664c0.933,0.296,1.86,0.447,2.77,0.447c1.416,0,2.464-0.361,3.092-0.664l0.277-0.133
	l0.261-0.164l2.036-1.268c0.988-0.023,1.858-0.189,2.65-0.508c1.056-0.419,1.056-0.419,9.844-8.41l0.482-0.443l0.091,0.011
	c0.273,0.036,0.563,0.052,0.844,0.052c0.282,0,0.555-0.016,0.819-0.047c0.76,0.71,1.629,1.304,2.617,1.675
	c1.42,0.536,2.866,0.811,4.296,0.811c1.397,0,3.112-0.262,4.907-1.144l-0.845,7.583l-0.166,1.49l0.292,0.679
	c-0.329,0.264-0.633,0.568-0.905,0.9c-3.66,4.245-5.912,9.787-6.556,16.096c-0.85,8.393,0.523,13.492,1.828,16.299
	c0.118,0.254,0.233,0.521,0.349,0.789c0.128,0.293,0.262,0.599,0.402,0.904l-2.167,4.143l-0.704,1.343l0.056,1.514l0.633,16.641
	l0.171,4.551l4.475,0.834l17.224,3.214l1.076,0.196l1.073-0.213l27.729-5.504l4.535-0.9l0.047-4.627l0.164-15.995
	c0.312-0.894,0.631-1.796,0.804-2.236c0.427-0.711,0.913-1.57,1.413-2.551c0.299,0.53,0.608,1.014,0.89,1.432
	c0.121,0.354,0.259,0.813,0.392,1.256c0.257,0.857,0.543,1.822,0.936,2.851c1.375,3.565,3.313,6.055,3.529,6.321l0.554,0.703
	l0.744,0.494l1.023,0.684l1.217,18.451l0.36,5.396l5.404-0.076l26.424-0.387l1.639-0.025l1.375-0.893l14.848-9.629l2.673-1.734
	l-0.079-3.188c0,0-0.229-8.854-0.245-9.84l-0.108-5.694l-1.063,0.021c-0.17-0.887-0.347-1.873-0.412-2.479l0.052-0.142
	c0.182-0.531,0.412-1.188,0.588-1.957c0.148-0.668,0.227-1.322,0.271-1.916l0.24-0.194c2.381-1.998,4.466-6.813,3.787-13.123
	c-0.48-4.449-2.735-8.722-3.299-9.466l-0.207-0.272l-0.231-0.244c-0.718-0.75-1.513-1.223-2.22-1.549
	c-1.78-4.765-4.225-8.646-5.594-10.629l-0.576-5.582c0.674,0.151,1.357,0.229,2.052,0.229c2.841,0,4.932-1.287,5.616-1.709
	l1.371-0.85l0.725-1.445l1.369-2.729c0.842-0.319,1.508-0.615,1.984-0.893c4.318-2.487,5.608-6.191,5.825-6.907l0.24-0.801v-0.836
	v-6.007v-0.938l-0.298-0.883l-0.249-0.734l1.536-5.529l0.209-0.749v-0.774v-38.429v-1.795l-1.028-1.469l-2.392-3.416
	c-0.465-0.658-0.875-1.249-1.254-1.771c0.072-0.757,0.162-1.632,0.233-2.324c0.167-1.644,0.341-3.344,0.423-4.416
	c0.221-3.021,0.356-5.625,0.36-5.733l0.123-2.343l-1.567-1.75l-14.371-16.022l-2.842-3.171l-3.844,1.833
	c-7.38,3.519-11.407,5.464-11.975,5.787l-0.151,0.083l-0.146,0.094c-0.377,0.247-0.707,0.52-0.988,0.811l-0.184,0.063l-0.74,0.553
	l-0.525,0.399l-1.076,0.194l-1.223-0.68l-0.024-0.137c0.94-1.568,1.071-3.387,1.071-4.828c-0.006-1.984-0.99-11.697-2.448-13.931
	C224.266,198.539,209.336,196.992,204.251,196.992 M198.786,337.68l0.131-1.036l0.196-1.559l0.656,4.11l0.136,0.84
	C199.52,339.107,199.138,338.32,198.786,337.68"/>
<polyline points="249.516,164.536 249.516,196.438 243.824,196.438 243.824,164.536 "/>
<polygon points="324.467,164.536 324.467,197.614 284.686,237.397 280.657,233.374 318.775,195.258 318.775,164.536 "/>
<polygon points="399.415,164.536 399.415,197.617 282.201,314.826 278.178,310.802 393.725,195.258 393.725,164.536 "/>
<path d="M409.49,85.879l2.125-2.125l9.417,9.419l-2.121,2.126l-3.448-3.445l-9.371,9.369l-2.523-2.527l9.371-9.369L409.49,85.879z
	 M410.682,82.82l-2.128,2.125l-6.065-6.068l-2.465,2.463l5.57,5.57l-1.967,1.965l-5.569-5.57l-2.815,2.817l6.2,6.198l-2.128,2.125
	l-8.728-8.727l11.496-11.495L410.682,82.82z M385.268,80.221c-0.779-0.316-1.447-0.754-2.006-1.312
	c-0.88-0.882-1.518-1.825-1.914-2.835c-0.397-1.009-0.57-2.023-0.514-3.042c0.049-1.02,0.311-2.021,0.779-3.003
	c0.468-0.982,1.119-1.892,1.955-2.73c0.858-0.857,1.783-1.525,2.779-2.002c0.99-0.479,2.002-0.75,3.031-0.814
	c1.031-0.064,2.057,0.1,3.066,0.49c1.016,0.393,1.962,1.029,2.847,1.908c0.588,0.591,1.071,1.251,1.447,1.98
	c0.371,0.73,0.612,1.49,0.715,2.279c0.104,0.788,0.045,1.58-0.168,2.374c-0.215,0.794-0.618,1.551-1.211,2.27l-2.413-2.414
	c0.494-0.794,0.689-1.567,0.578-2.319c-0.105-0.752-0.463-1.432-1.076-2.045c-0.566-0.568-1.161-0.941-1.779-1.118
	c-0.617-0.177-1.236-0.204-1.851-0.08c-0.618,0.123-1.222,0.364-1.804,0.724c-0.584,0.36-1.133,0.792-1.635,1.297
	c-0.482,0.482-0.896,1.01-1.242,1.578c-0.342,0.568-0.574,1.158-0.688,1.77c-0.123,0.613-0.094,1.228,0.083,1.845
	c0.177,0.616,0.555,1.21,1.123,1.778c0.833,0.838,1.694,1.271,2.573,1.305c0.879,0.033,1.76-0.316,2.64-1.047l-2.544-2.544
	l1.885-1.883l4.833,4.83l-6.216,6.214l-1.614-1.609l1.052-1.563C386.952,80.631,386.046,80.538,385.268,80.221z M384.438,56.577
	c0.518,0.515,0.896,1.062,1.143,1.644c0.245,0.578,0.376,1.16,0.383,1.745c0.004,0.586-0.107,1.146-0.333,1.683
	s-0.56,1.025-1.001,1.466c-0.674,0.676-1.4,1.118-2.177,1.329c-0.779,0.209-1.618,0.12-2.524-0.268l-0.029,0.033
	c0.226,0.396,0.353,0.785,0.377,1.168c0.025,0.381-0.015,0.756-0.129,1.126c-0.11,0.37-0.283,0.729-0.516,1.079
	c-0.229,0.349-0.479,0.68-0.749,0.989c-0.17,0.194-0.376,0.42-0.61,0.677c-0.236,0.258-0.47,0.529-0.701,0.813
	c-0.231,0.285-0.432,0.572-0.604,0.863c-0.17,0.288-0.279,0.574-0.322,0.854l-2.527-2.529c0.228-0.504,0.572-1.024,1.048-1.561
	c0.472-0.537,0.907-1.069,1.305-1.595c0.515-0.687,0.771-1.31,0.773-1.867c-0.003-0.558-0.318-1.154-0.951-1.788l-2.524-2.527
	l-4.496,4.492l-2.528-2.529l11.499-11.494L384.438,56.577z M378.335,60.876c0.581,0.579,1.144,0.886,1.69,0.917
	c0.545,0.033,1.115-0.24,1.691-0.82c0.559-0.559,0.82-1.108,0.779-1.65c-0.034-0.542-0.346-1.102-0.926-1.684l-2.77-2.768
	l-3.236,3.236L378.335,60.876z M372.939,45.082l-7.194,15.794l-2.623-2.625l1.688-3.429l-4.297-4.299l-3.462,1.658l-2.544-2.543
	l15.844-7.149L372.939,45.082z M366.035,52.279l2.768-5.668l-0.029-0.032l-5.715,2.722L366.035,52.279z M355.826,32.217l2.128-2.125
	l9.416,9.418l-2.125,2.126l-3.446-3.444l-9.371,9.369l-2.523-2.527l9.371-9.37L355.826,32.217z M341.514,17.904l2.127-2.125
	l9.416,9.418l-2.123,2.126l-3.447-3.445l-9.371,9.37l-2.524-2.527l9.369-9.37L341.514,17.904z M342.318,14.459l-11.494,11.495
	l-2.527-2.528l11.492-11.494L342.318,14.459z M330.389,2.529l-4.412,4.41l4.654,4.654l4.409-4.412l2.528,2.527l-11.493,11.496
	l-2.529-2.527l4.957-4.959l-4.649-4.654l-4.959,4.96l-2.526-2.528L327.859,0L330.389,2.529z"/>
<path d="M335.396,85.879l2.125-2.125l9.416,9.419l-2.123,2.126l-3.445-3.445l-9.371,9.369l-2.525-2.527l9.367-9.369L335.396,85.879z
	 M336.588,82.82l-2.127,2.125l-6.066-6.068l-2.465,2.463l5.57,5.57l-1.967,1.965l-5.568-5.57l-2.816,2.817l6.197,6.198l-2.125,2.125
	l-8.728-8.727l11.497-11.495L336.588,82.82z M311.174,80.221c-0.779-0.316-1.447-0.754-2.006-1.312
	c-0.88-0.882-1.518-1.825-1.915-2.835c-0.396-1.009-0.567-2.023-0.515-3.042c0.051-1.02,0.313-2.021,0.781-3.003
	c0.467-0.982,1.115-1.892,1.955-2.73c0.858-0.857,1.783-1.525,2.773-2.002c0.996-0.479,2.007-0.75,3.038-0.814
	c1.03-0.064,2.05,0.1,3.065,0.49c1.016,0.393,1.959,1.029,2.84,1.908c0.595,0.591,1.076,1.251,1.451,1.98
	c0.373,0.73,0.616,1.49,0.715,2.279c0.102,0.788,0.047,1.58-0.168,2.374c-0.211,0.794-0.615,1.551-1.207,2.27l-2.414-2.414
	c0.492-0.794,0.686-1.567,0.578-2.319c-0.105-0.752-0.469-1.432-1.076-2.045c-0.57-0.568-1.164-0.941-1.779-1.118
	c-0.618-0.177-1.236-0.204-1.854-0.08c-0.615,0.123-1.22,0.364-1.802,0.724c-0.588,0.36-1.131,0.792-1.634,1.297
	c-0.482,0.482-0.896,1.01-1.243,1.578c-0.341,0.568-0.573,1.158-0.69,1.77c-0.117,0.613-0.088,1.228,0.088,1.845
	c0.177,0.616,0.553,1.21,1.119,1.778c0.836,0.838,1.697,1.271,2.576,1.305c0.879,0.033,1.76-0.316,2.641-1.047l-2.545-2.544
	l1.886-1.883l4.831,4.83l-6.217,6.214l-1.611-1.609l1.05-1.563C312.854,80.631,311.95,80.538,311.174,80.221z M310.346,56.577
	c0.512,0.515,0.896,1.062,1.139,1.644c0.248,0.578,0.377,1.16,0.381,1.745c0.007,0.586-0.104,1.146-0.328,1.683
	c-0.229,0.537-0.559,1.025-1,1.466c-0.676,0.676-1.404,1.118-2.184,1.329c-0.775,0.209-1.614,0.12-2.52-0.268l-0.029,0.033
	c0.223,0.396,0.353,0.785,0.377,1.168c0.026,0.381-0.015,0.756-0.131,1.126c-0.111,0.37-0.281,0.729-0.513,1.079
	c-0.231,0.349-0.483,0.68-0.75,0.989c-0.169,0.194-0.375,0.42-0.611,0.677c-0.237,0.258-0.468,0.529-0.7,0.813
	c-0.23,0.285-0.432,0.572-0.604,0.863c-0.171,0.288-0.281,0.574-0.321,0.854l-2.528-2.529c0.228-0.504,0.572-1.024,1.045-1.561
	s0.908-1.069,1.306-1.595c0.517-0.687,0.771-1.31,0.771-1.867s-0.314-1.154-0.947-1.788l-2.527-2.527l-4.491,4.492l-2.528-2.529
	l11.496-11.494L310.346,56.577z M304.241,60.876c0.577,0.579,1.145,0.886,1.688,0.917c0.549,0.033,1.11-0.24,1.691-0.82
	c0.559-0.559,0.818-1.108,0.781-1.65c-0.038-0.542-0.348-1.102-0.926-1.684l-2.77-2.768l-3.236,3.236L304.241,60.876z
	 M298.846,45.082l-7.193,15.794l-2.623-2.625l1.688-3.429l-4.298-4.299l-3.465,1.658l-2.545-2.543l15.847-7.149L298.846,45.082z
	 M291.939,52.279l2.77-5.668l-0.029-0.032l-5.718,2.722L291.939,52.279z M281.732,32.217l2.127-2.125l9.418,9.418l-2.127,2.126
	l-3.444-3.444l-9.371,9.369l-2.526-2.527l9.368-9.37L281.732,32.217z M267.42,17.904l2.127-2.125l9.417,9.418l-2.126,2.126
	l-3.445-3.445l-9.371,9.37l-2.524-2.527l9.367-9.37L267.42,17.904z M268.225,14.459L256.73,25.954l-2.527-2.528l11.492-11.494
	L268.225,14.459z M256.295,2.529l-4.412,4.41l4.652,4.654l4.412-4.412l2.525,2.527L251.98,21.204l-2.528-2.527l4.957-4.959
	l-4.65-4.654l-4.959,4.96l-2.528-2.528L253.766,0L256.295,2.529z"/>
<path d="M261.301,85.879l2.129-2.125l9.415,9.419l-2.122,2.126l-3.449-3.445l-9.371,9.369l-2.527-2.527l9.371-9.369L261.301,85.879z
	 M262.492,82.82l-2.125,2.125l-6.069-6.068l-2.463,2.463l5.571,5.57l-1.967,1.965l-5.57-5.57l-2.816,2.817l6.198,6.198l-2.125,2.125
	l-8.729-8.727l11.498-11.495L262.492,82.82z M237.081,80.221c-0.779-0.316-1.449-0.754-2.007-1.312
	c-0.879-0.882-1.518-1.825-1.915-2.835c-0.397-1.009-0.568-2.023-0.515-3.042c0.053-1.02,0.313-2.021,0.78-3.003
	c0.466-0.982,1.116-1.892,1.956-2.73c0.857-0.857,1.785-1.525,2.776-2.002c0.995-0.479,2.005-0.75,3.036-0.814
	c1.029-0.064,2.052,0.1,3.067,0.49c1.017,0.393,1.96,1.029,2.841,1.908c0.592,0.591,1.075,1.251,1.449,1.98
	c0.375,0.73,0.615,1.49,0.717,2.279c0.101,0.788,0.045,1.58-0.168,2.374c-0.214,0.794-0.619,1.551-1.209,2.27l-2.412-2.414
	c0.492-0.794,0.686-1.567,0.576-2.319c-0.104-0.752-0.467-1.432-1.078-2.045c-0.57-0.568-1.164-0.941-1.776-1.118
	c-0.619-0.177-1.237-0.204-1.854-0.08c-0.615,0.123-1.217,0.364-1.801,0.724c-0.588,0.36-1.131,0.792-1.636,1.297
	c-0.483,0.482-0.897,1.01-1.239,1.578c-0.343,0.568-0.572,1.158-0.695,1.77c-0.115,0.613-0.084,1.228,0.092,1.845
	c0.176,0.616,0.547,1.21,1.119,1.778c0.836,0.838,1.695,1.271,2.576,1.305c0.879,0.034,1.758-0.316,2.639-1.047l-2.545-2.544
	l1.887-1.883l4.828,4.83l-6.213,6.214l-1.61-1.609l1.046-1.563C238.759,80.631,237.855,80.538,237.081,80.221z M236.25,56.577
	c0.514,0.515,0.896,1.062,1.143,1.644c0.246,0.578,0.371,1.16,0.379,1.745c0.004,0.586-0.105,1.146-0.33,1.683
	c-0.226,0.537-0.558,1.025-1,1.466c-0.674,0.676-1.402,1.118-2.183,1.329c-0.776,0.209-1.616,0.12-2.519-0.268l-0.03,0.033
	c0.224,0.396,0.351,0.785,0.377,1.168c0.024,0.381-0.017,0.756-0.131,1.126c-0.11,0.37-0.281,0.729-0.513,1.079
	c-0.231,0.349-0.483,0.68-0.75,0.989c-0.17,0.194-0.377,0.42-0.613,0.677c-0.236,0.258-0.467,0.529-0.699,0.813
	c-0.23,0.285-0.432,0.572-0.604,0.863c-0.174,0.288-0.281,0.574-0.321,0.854l-2.529-2.529c0.226-0.504,0.573-1.024,1.046-1.561
	s0.907-1.069,1.305-1.595c0.515-0.687,0.771-1.31,0.771-1.867s-0.316-1.154-0.949-1.788l-2.526-2.527l-4.492,4.492l-2.529-2.529
	L230.05,50.38L236.25,56.577z M230.146,60.876c0.578,0.579,1.145,0.886,1.689,0.917c0.548,0.033,1.112-0.24,1.691-0.82
	c0.558-0.559,0.818-1.108,0.783-1.65c-0.041-0.542-0.348-1.102-0.926-1.684l-2.77-2.768l-3.238,3.236L230.146,60.876z
	 M224.752,45.082l-7.193,15.794l-2.627-2.625l1.691-3.429l-4.298-4.299l-3.463,1.658l-2.544-2.543l15.844-7.149L224.752,45.082z
	 M217.846,52.279l2.77-5.668l-0.03-0.032l-5.716,2.722L217.846,52.279z M207.64,32.217l2.126-2.125l9.417,9.418l-2.127,2.126
	l-3.445-3.444l-9.37,9.369l-2.529-2.527l9.371-9.37L207.64,32.217z M193.326,17.904l2.125-2.125l9.418,9.418l-2.126,2.126
	l-3.444-3.445l-9.371,9.37l-2.528-2.527l9.371-9.37L193.326,17.904z M194.131,14.459l-11.498,11.495l-2.526-2.528l11.495-11.494
	L194.131,14.459z M182.201,2.529l-4.412,4.41l4.653,4.654l4.412-4.412l2.526,2.527l-11.493,11.496l-2.528-2.527l4.957-4.959
	l-4.65-4.654l-4.962,4.96l-2.526-2.528L179.672,0L182.201,2.529z"/>
</svg>
