<svg xmlns="http://www.w3.org/2000/svg" viewBox="0 0 300 236.749"><defs><style>.a{fill:#2a2a2a;}.b{fill:#be1e2d;}.b,.d,.e{fill-rule:evenodd;}.c{fill:#ebe5d6;}.c,.d,.e{stroke:#2a2a2a;stroke-linejoin:bevel;stroke-width:1.564px;}.d{fill:#e1d6bc;}.e{fill:#fff6d8;}.f{opacity:0.2;}</style></defs><title>tactics</title><path class="a" d="M247.8,63.244h7.212l8.31,26.564H256.97l-1.63-6.315h-8.108L245.6,89.808h-6.112Zm.652,15.564h5.663l-.611-2.445c-.734-2.648-1.467-5.785-2.159-8.555h-.163c-.653,2.81-1.345,5.907-2.079,8.555Z"/><path class="a" d="M242.627,164.724h9.086c5.5,0,9.777,1.507,9.777,6.6,0,2.362-1.3,4.93-3.463,5.744v.163a6.017,6.017,0,0,1,4.767,6.234c0,5.419-4.563,7.822-10.308,7.822h-9.859Zm8.8,10.633c2.932,0,4.2-1.222,4.2-3.136,0-2.078-1.345-2.853-4.156-2.853h-2.852v5.989Zm.57,11.286c3.259,0,4.93-1.141,4.93-3.585,0-2.323-1.63-3.26-4.93-3.26h-3.382v6.845Z"/><path class="b" d="M192.077,75.73h1.354c.122,0,.16-.023.2-.138.041-.139.08-.279.106-.415.006-.077.033-.13.091-.142.31-.083.358-.35.437-.6a.513.513,0,0,0,.06-.236c-.023-.126.056-.171.154-.2s.193-.094.294-.137c.079-.034.122,0,.164.093.086.215.155.428.251.643a2.96,2.96,0,0,0,.206.533c.029.054.04.074.093.061.14-.016.3.058.434-.052.014-.009.051,0,.077,0,.191-.009.2,0,.256.193.034.095.071.2.115.3a.06.06,0,0,0,.05.043.685.685,0,0,0,.207-.021c.365-.148,6.676-2.584,6.939-2.657a.357.357,0,0,0,.105-.053c.063-.055.148-.1.041-.182-.026-.234-.171-.426-.217-.66a.2.2,0,0,1,.014-.213,1.847,1.847,0,0,0,.322-.653c.02-.061.038-.138.058-.213.225.2.225.193.442-.02.315-.3.619-.608.95-.884a5.13,5.13,0,0,0,.559-.526.263.263,0,0,1,.289-.073c.15.041.31.063.46.116a1.025,1.025,0,0,0,.362.076,2.066,2.066,0,0,0,.571.074,6.058,6.058,0,0,0,1.313.044.81.81,0,0,0,.443-.044c.119-.054.285.021.424-.054.086-.041.214.046.3-.053a2.575,2.575,0,0,0,.762-.171c.209-.043.41-.129.619-.191a1.623,1.623,0,0,0,.321-.13.261.261,0,0,1,.323.012c.225.118,1.513.961,1.649,1.013a1.545,1.545,0,0,1,.568.385c.37.331,12.309,11.34,12.52,11.521.2-.168,1.9-1.748,2.093-1.919a.253.253,0,0,0,.09-.236v-.276c.251.223.246.212.472,0,.191-.193.4-.364.6-.544.052-.055.08-.086.021-.16-.033-.032-.016-.118-.016-.182,0-.824,0-1.653-.013-2.486,0-.117.069-.215.019-.333a1.606,1.606,0,0,1-.1-.362c-.026-.114-.49-1.856-.565-2.122-.071-.235-1.381-5.044-1.429-5.28a.368.368,0,0,0-.064-.139,5.167,5.167,0,0,0-.646-.586c-.015,0-.025-.02-.038-.033-.356-.34-9.718-8.981-9.941-9.195a.9.9,0,0,1-.145-.1.081.081,0,0,0-.113.013c-.106.1-.219.178-.318.267s-.162.171-.251.246c-.1.093-.209.17-.336.276,0-.265-.006-.513,0-.756a9.7,9.7,0,0,1-.053-1.006c0-.017-.017-.074-.038-.081-.086-.066-.074-.12-.02-.2a.492.492,0,0,0,.032-.4,3.343,3.343,0,0,0-.562-1.086c-.133-.192-.3-.373-.454-.555-.15-.215-.307-.413-.457-.618-.034-.041-.072-.075-.107-.118-.246-.244-.481-.51-.741-.733a7.883,7.883,0,0,0-1.909-1.209,8.7,8.7,0,0,0-1.154-.4c-.287-.066-.585-.13-.88-.192a3.4,3.4,0,0,0-.938-.064.449.449,0,0,1-.257-.042.253.253,0,0,0-.255,0c-.091.063-.186.029-.275.042a1.668,1.668,0,0,1-.951-.213c-.21-.108-.433-.171-.648-.269-.26-.105-.527-.178-.784-.3a4.614,4.614,0,0,0-.707-.235c-.251-.064-.492-.139-.749-.191-.159-.044-.324-.1-.486-.13a.549.549,0,0,0-.5.15c-.006.012-.009.021-.021.021-.223.086-.241.268-.223.471.006.127.1.192.156.278.206.31.444.6.648.917.139.21.31.406.459.6-.191.127-.388.266-.586.4a6.347,6.347,0,0,0-.8.676,8.964,8.964,0,0,0-.981,1.148c-.041.057-.041.132-.08.184a4.476,4.476,0,0,0-.559,1.054,6.96,6.96,0,0,0-.25.78c-.066.227-.087.45-.145.662a2.328,2.328,0,0,0-.06.652c0,.405.014.821,0,1.224-.015.269.065.524.054.79.118.119-.006.31.105.44-.067.178-.026.391-.2.553-.379.342-.745.7-1.141,1.066v-.212c0-.437-.007-.886.006-1.314a2.054,2.054,0,0,0-.4-1.257,3.553,3.553,0,0,0-.3-.364c-.267-.276-.533-.544-.811-.81-.122-.107-.188-.3-.394-.288-.063-.2-.278-.236-.41-.352a3.286,3.286,0,0,0-.447-.288c-.109-.074-.22-.15-.332-.211-.1-.057-.226-.064-.237-.205a2.637,2.637,0,0,0-.382-.17c-.093-.024-.093-.056-.093-.117V55.526h.958c.131,0,.165-.045.171-.172V54.04c0-.168.008-.158.165-.232.362-.183.758-.278,1.126-.459a5.683,5.683,0,0,1,.626-.234c.072-.023.118-.057.118-.141V51.662c0-.093-.046-.127-.137-.159-.263-.1-.525-.2-.784-.3a.211.211,0,0,1-.158-.235c.013-.353,0-4.29,0-5.89,0-.245.022-.256.237-.329.086-.034.171-.066.255-.108.017-.012.049-.053.045-.064,0-.075.026-.1.084-.1a.668.668,0,0,0,.149-.052.687.687,0,0,1,.292-.117c.008-.109.017-.216.017-.321V41.848c0-.1,0-.18-.131-.151-.456-.233-.948-.35-1.394-.587-.427-.083-.793-.339-1.214-.436-.077-.012-.109-.074-.109-.16.007-.148.007-.3.007-.448,0-.446-.007-.9,0-1.342a.227.227,0,0,0-.069-.182c-.2-.193-.372-.4-.576-.567-.252-.2-.449-.448-.706-.639-.266-.215-.483-.491-.749-.7s-.488-.46-.733-.684c-.056-.04-.112-.074-.165-.115-.162-.11-.165-.11-.3.021s-.289.277-.42.415a.506.506,0,0,1-.411.183q-3.579-.018-7.154,0a.5.5,0,0,1-.368-.15c-.153-.163-.312-.321-.476-.481-.107-.1-.113-.086-.238-.021a4.294,4.294,0,0,0-.507.458c-.328.308-.645.638-.987.927-.251.2-.447.448-.7.643s-.452.436-.692.648a.4.4,0,0,0-.145.342c.01.533-.011,1.058.015,1.591a.485.485,0,0,1-.212.444,1.607,1.607,0,0,0-.379.375,5.05,5.05,0,0,0-.454.62,4.335,4.335,0,0,0-.263.5c-.136.286-.212.6-.33.885-.041.118.023.246-.085.342a7.293,7.293,0,0,0-.106.9,6.491,6.491,0,0,0-.053,1.368,6.214,6.214,0,0,1,.053.724.508.508,0,0,1,.049.33c-.006.107.054.191.063.3a6.849,6.849,0,0,0,.168.757,7.716,7.716,0,0,0,.307,1c.081.2.154.417.24.622.134.3.266.585.405.872a2.794,2.794,0,0,0,.181.3.589.589,0,0,0,.048.106h-.309c-.043.236-.059,3.828-.023,4.662h.423v.566c0,.183-.006.363,0,.533,0,.107-.015.18-.145.212a.411.411,0,0,0-.191.1c-.053.041-.149.032-.162.139,0,.032-.079.053-.126.073a6.841,6.841,0,0,0-.928.61,1.473,1.473,0,0,1-.278.171c-.026.021-.059.021-.09.041.011.02.031.054.026.073s-.043.054-.043.054c-.111-.061-.148.032-.191.085-.362.355-.727.729-1.089,1.079a2.666,2.666,0,0,0-.583,1.014c-.01.02,0,.04,0,.052,0,.278-.077.555-.066.844.02.256.009.521.009.843-.277-.257-.5-.481-.736-.692-.086-.075-.181-.141-.266-.214a.32.32,0,0,1-.124-.3c.018-.1-.052-.184-.052-.268a1.863,1.863,0,0,1,.08-.34c.006-.011.029-.034.019-.043-.035-.193.066-.376.06-.567-.006-.513.006-1.022-.006-1.535a2.808,2.808,0,0,0-.057-.64c-.032-.182-.064-.361-.111-.544-.043-.159-.092-.343-.15-.5a7.581,7.581,0,0,0-.693-1.452c-.14-.226-.311-.417-.439-.649a.238.238,0,0,0-.043-.034c-.214-.235-.411-.479-.644-.692a6.714,6.714,0,0,0-1.073-.841c-.053-.034-.09-.1-.143-.107-.14-.036-.048-.077-.026-.141s.064-.1.093-.148c.211-.267.412-.546.611-.824.127-.169.244-.362.388-.533a.657.657,0,0,0,.091-.447.045.045,0,0,0-.018-.043.985.985,0,0,0-.559-.384.685.685,0,0,0-.318.065c-.322.085-.643.18-.967.256a7.44,7.44,0,0,0-1.034.339c-.348.15-.71.28-1.066.419a2.381,2.381,0,0,0-.653.289.134.134,0,0,1-.1.021c-.2-.107-.409-.012-.639-.066V49.774c0-.115.005-.214.106-.277a.388.388,0,0,0,.162-.4c-.013-.3-.006-.608,0-.9a.317.317,0,0,0-.107-.257c-.161-.151-3.638-3.426-3.872-3.6-.164-.117-.282-.286-.5-.35-.188-.045-1.775-.64-1.952-.717a.1.1,0,0,0-.135.023c-.325.332-.675.639-.981.992-.256.311-.554.588-.837.873s-.56.59-.828.9a3.557,3.557,0,0,0-.33.451c-.182.243-.353.48-.527.724-.2.266-.4.542-.6.822-.165.234-.324.469-.5.7a2.934,2.934,0,0,0-.377.588c-.162.33-.339.649-.524.969-.129.224-.245.469-.368.7-.245.447-.485.886-.72,1.333a4.492,4.492,0,0,0-.17.439c-.108.3-.239.587-.337.884-.127.427-.321.854-.452,1.281-.087.3-.227.588-.329.884-.035.1-.055.193-.082.289a3.079,3.079,0,0,1-.06.354c-.031.083-.026.181-.058.265s-.027.171-.047.244c-.071.257-.109.513-.178.758-.021.073-.021.137-.038.2s-.041.127-.052.193c-.053.276-.1.565-.177.841a.864.864,0,0,0-.032.194v3.454c0,.182.026.227.2.277a3,3,0,0,0,.332.108c.087.033.074.075.03.118-.082.066-.142.182-.26.214-.032,0-.058.043-.079.064-.38.362-4.285,3.969-4.543,4.226-.023.02-.06.029-.089.053a.755.755,0,0,0-.356.533c-.035.257-2.01,7.476-2.1,7.679,0,.024,0,.064.015.073.064.066.034.139.034.2,0,.844,0,1.678,0,2.52a.506.506,0,0,1,0,.16c-.008.032-.069.043-.012.093.2.185.378.387.569.567a1.031,1.031,0,0,0,.2.153c.124.061.213.009.315-.13a1.137,1.137,0,0,1,0,.148c-.011.086.032.182-.049.246a1.559,1.559,0,0,0,.248.246,3.251,3.251,0,0,1,.525.48c.134.117.278.235.411.351a3.989,3.989,0,0,0,.385.374,5.34,5.34,0,0,1,.538.5.134.134,0,0,0,.207.012c.045-.032.111-.053.146-.085.388-.373,12.359-11.4,12.567-11.6a.217.217,0,0,1,.1-.064,3.591,3.591,0,0,0,.355-.182c.281-.182.568-.351.857-.522.165-.1.325-.2.49-.3.076-.055.166-.086.235-.138s.09-.033.156,0a4.345,4.345,0,0,0,.581.225c.191.052.377.125.568.179.267.064.542.117.8.191.135.033.3-.01.436.064.368-.043.728.075,1.095.041.15-.008.3-.029.439-.041a2.641,2.641,0,0,0,.427-.011c.2-.053.407-.041.6-.107a4.792,4.792,0,0,0,.58-.15c.069-.032.153.025.219-.061a.246.246,0,0,1,.085.04c.272.246.523.5.8.738.255.212.49.448.729.684.14.02.177.222.322.191a.629.629,0,0,0,.287-.191c.107-.085.193-.2.284-.278.416.213,2,1.194,2.394,1.472a.348.348,0,0,0,.135.076.756.756,0,0,1,.314.212,1.691,1.691,0,0,0,.8.394,3.046,3.046,0,0,0,.674.034,1.661,1.661,0,0,0,.5-.087,1.593,1.593,0,0,1,.2-.012c.065-.008.13-.041.2-.052a.184.184,0,0,1,.125.032c.2.073,3.266,1.291,3.621,1.408.087.033.134.074.125.159a1.1,1.1,0,0,0,.138.533.447.447,0,0,0,.469.331c.085-.008.127.044.143.119.037.159.069.308.107.467a.12.12,0,0,0,.124.109h1.435v.279q0,9.389-.005,18.806c0,.33,0,.32.318.32h7.287c.122,0,.165-.043.171-.152V75.73Zm26.109-9.547c.133.127.269.264.389.383-.145.15-.3.3-.449.46-.043-.034-.111-.085-.178-.139a2.462,2.462,0,0,1-.2-.182c.106-.107.2-.2.3-.3C218.175,66.278,218.175,66.288,218.186,66.183Zm-60.046-.164a.28.28,0,0,0,.109.249c.1.095.182.213.272.307-.095.109-.193.2-.289.312-.015.009-.037,0-.048,0-.177-.151-.351-.3-.517-.44C157.833,66.3,157.981,66.171,158.14,66.019Z"/><rect class="c" x="142.485" y="84.441" width="22.273" height="14.394"/><polygon class="d" points="164.757 84.441 169.962 80.739 169.962 95.135 164.757 98.835 164.757 84.441"/><polygon class="d" points="164.757 70.042 169.962 66.342 169.962 80.739 164.757 84.441 164.757 70.042"/><polygon class="e" points="142.485 70.042 147.69 66.342 169.962 66.342 164.757 70.042 142.485 70.042"/><polygon class="e" points="120.211 70.042 125.414 66.342 147.69 66.342 142.485 70.042 120.211 70.042"/><polygon class="e" points="97.938 70.042 103.141 66.342 125.414 66.342 120.211 70.042 97.938 70.042"/><polygon class="e" points="75.662 70.042 80.867 66.342 103.141 66.342 97.938 70.042 75.662 70.042"/><polygon class="e" points="53.389 70.042 58.594 66.342 80.867 66.342 75.662 70.042 53.389 70.042"/><polygon class="e" points="31.115 70.042 36.319 66.342 58.594 66.342 53.389 70.042 31.115 70.042"/><rect class="c" x="120.211" y="84.441" width="22.274" height="14.394"/><rect class="c" x="97.938" y="84.441" width="22.273" height="14.394"/><rect class="c" x="75.662" y="84.441" width="22.276" height="14.394"/><rect class="c" x="53.389" y="84.441" width="22.273" height="14.394"/><rect class="c" x="31.115" y="84.441" width="22.274" height="14.394"/><rect class="c" x="142.485" y="70.042" width="22.273" height="14.399"/><rect class="c" x="120.211" y="70.042" width="22.274" height="14.399"/><rect class="c" x="97.938" y="70.042" width="22.273" height="14.399"/><rect class="c" x="75.662" y="70.042" width="22.276" height="14.399"/><rect class="c" x="53.389" y="70.042" width="22.273" height="14.399"/><rect class="c" x="31.115" y="70.042" width="22.274" height="14.399"/><g class="f"><polygon class="d" points="164.757 55.645 169.962 51.944 169.962 66.342 164.757 70.043 164.757 55.645"/><polygon class="e" points="142.485 55.645 147.69 51.944 169.962 51.944 164.757 55.645 142.485 55.645"/><polygon class="e" points="120.211 55.645 125.414 51.944 147.69 51.944 142.485 55.645 120.211 55.645"/><polygon class="e" points="97.938 55.645 103.141 51.944 125.414 51.944 120.211 55.645 97.938 55.645"/><polygon class="e" points="75.662 55.645 80.867 51.944 103.141 51.944 97.938 55.645 75.662 55.645"/><polygon class="e" points="53.389 55.645 58.594 51.944 80.867 51.944 75.662 55.645 53.389 55.645"/><polygon class="e" points="31.115 55.645 36.319 51.944 58.594 51.944 53.389 55.645 31.115 55.645"/><rect class="c" x="142.485" y="55.645" width="22.273" height="14.399"/><rect class="c" x="120.211" y="55.645" width="22.274" height="14.399"/><rect class="c" x="97.938" y="55.645" width="22.273" height="14.399"/><rect class="c" x="75.662" y="55.645" width="22.276" height="14.399"/><rect class="c" x="53.389" y="55.645" width="22.273" height="14.399"/><rect class="c" x="31.115" y="55.645" width="22.274" height="14.399"/></g><path class="b" d="M192.077,171.882h1.355c.122,0,.159-.021.2-.138a3.838,3.838,0,0,0,.107-.415c0-.075.033-.13.09-.141.311-.084.359-.351.438-.6a.5.5,0,0,0,.06-.235c-.021-.127.055-.171.156-.2s.191-.095.292-.136c.079-.035.123,0,.164.093.086.214.156.428.251.641a2.86,2.86,0,0,0,.208.534c.027.055.037.074.093.062.138-.018.3.058.431-.052.017-.01.052,0,.078,0,.191-.01.2,0,.256.191.034.095.071.205.113.3a.063.063,0,0,0,.054.041.715.715,0,0,0,.2-.019c.367-.15,6.676-2.585,6.939-2.659a.289.289,0,0,0,.1-.053c.065-.053.15-.095.043-.18-.026-.236-.169-.427-.217-.662a.2.2,0,0,1,.015-.212,1.829,1.829,0,0,0,.321-.653c.02-.062.037-.137.057-.213.226.2.226.194.443-.02.313-.3.619-.608.95-.885a5.539,5.539,0,0,0,.561-.525.262.262,0,0,1,.289-.074c.146.042.308.065.458.118a1.055,1.055,0,0,0,.362.075,2.058,2.058,0,0,0,.57.073,5.951,5.951,0,0,0,1.314.044.783.783,0,0,0,.443-.044c.12-.053.284.023.423-.053.085-.042.215.045.3-.054a2.491,2.491,0,0,0,.762-.171,6.284,6.284,0,0,0,.619-.191,1.5,1.5,0,0,0,.319-.128.266.266,0,0,1,.326.011c.224.117,1.511.96,1.648,1.012a1.546,1.546,0,0,1,.567.387c.373.33,12.31,11.339,12.523,11.52.194-.169,1.9-1.749,2.093-1.92a.248.248,0,0,0,.088-.235v-.277c.251.223.246.214.471,0,.191-.192.405-.363.6-.542.052-.057.08-.086.021-.162-.033-.03-.018-.116-.018-.18,0-.824,0-1.653-.011-2.487,0-.118.071-.214.017-.332a1.748,1.748,0,0,1-.1-.362c-.025-.116-.489-1.856-.564-2.124-.069-.233-1.381-5.044-1.429-5.279a.368.368,0,0,0-.064-.139,5.181,5.181,0,0,0-.646-.587c-.017,0-.023-.02-.037-.032-.357-.339-9.719-8.982-9.942-9.194a1.028,1.028,0,0,1-.145-.1.079.079,0,0,0-.113.013c-.106.094-.219.178-.318.265s-.162.171-.249.248c-.1.093-.211.168-.339.276,0-.267,0-.513,0-.756a10.022,10.022,0,0,1-.054-1.007c0-.018-.015-.073-.038-.081-.082-.067-.073-.12-.02-.195a.477.477,0,0,0,.032-.4,3.243,3.243,0,0,0-.56-1.086c-.133-.194-.3-.374-.454-.556-.148-.214-.306-.413-.457-.617-.034-.043-.072-.077-.108-.118-.245-.246-.479-.512-.74-.735a7.249,7.249,0,0,0-1.031-.747,7.067,7.067,0,0,0-.878-.46,8.613,8.613,0,0,0-1.154-.405c-.287-.065-.585-.128-.878-.192a3.423,3.423,0,0,0-.941-.064.456.456,0,0,1-.257-.041.251.251,0,0,0-.254,0c-.09.064-.188.03-.273.041a1.673,1.673,0,0,1-.955-.213c-.208-.106-.431-.171-.646-.268-.26-.106-.527-.179-.784-.3a4.478,4.478,0,0,0-.707-.236c-.252-.062-.491-.139-.747-.191-.159-.042-.326-.1-.488-.128a.546.546,0,0,0-.5.148c-.006.013-.01.023-.021.023-.222.086-.241.266-.222.469,0,.127.1.193.153.278.208.31.446.6.651.918.138.211.309.405.46.6-.193.129-.39.268-.59.405a6.462,6.462,0,0,0-.793.674,8.676,8.676,0,0,0-.98,1.15c-.045.055-.045.132-.082.182a4.4,4.4,0,0,0-.559,1.056,6.682,6.682,0,0,0-.25.779c-.064.227-.089.449-.144.663a2.366,2.366,0,0,0-.059.652c-.006.4.012.819-.006,1.224-.017.267.065.522.053.79.118.119-.006.31.105.438-.067.18-.026.393-.2.553-.377.342-.745.7-1.141,1.066v-.212c0-.435-.009-.886.008-1.312a2.047,2.047,0,0,0-.4-1.257,3.259,3.259,0,0,0-.3-.366c-.267-.276-.533-.542-.81-.809-.123-.107-.189-.3-.394-.289-.064-.2-.278-.234-.412-.351a3.126,3.126,0,0,0-.448-.289c-.107-.073-.218-.148-.33-.211-.095-.055-.226-.063-.235-.2a2.875,2.875,0,0,0-.384-.169c-.093-.023-.093-.055-.093-.116v-1.175h.957c.134,0,.164-.043.171-.171v-1.313c0-.169.01-.158.165-.232.362-.183.757-.279,1.125-.46a5.966,5.966,0,0,1,.63-.235c.069-.021.118-.055.118-.139v-1.314c0-.093-.049-.127-.138-.159-.264-.1-.526-.2-.784-.3a.211.211,0,0,1-.159-.235c.014-.351,0-4.288,0-5.888,0-.247.022-.256.237-.33a2.5,2.5,0,0,0,.257-.108c.015-.011.047-.054.043-.063,0-.076.026-.1.084-.1a.811.811,0,0,0,.151-.052.71.71,0,0,1,.29-.118c.008-.107.019-.214.019-.319V138c0-.1,0-.182-.135-.152-.452-.232-.946-.349-1.392-.586-.427-.084-.794-.341-1.216-.436-.075-.012-.107-.076-.107-.161.007-.147.007-.3.007-.448,0-.446-.007-.895,0-1.343a.212.212,0,0,0-.071-.18c-.194-.194-.368-.4-.574-.567-.252-.2-.449-.449-.706-.639-.264-.215-.484-.492-.747-.7s-.49-.46-.735-.684c-.055-.04-.112-.075-.165-.116-.16-.11-.166-.11-.3.021s-.287.276-.42.414a.5.5,0,0,1-.412.183q-3.577-.018-7.153,0a.493.493,0,0,1-.368-.149c-.153-.162-.312-.32-.476-.482-.105-.1-.112-.085-.236-.021a4.24,4.24,0,0,0-.508.46c-.329.308-.646.638-.986.927-.251.2-.449.448-.7.642s-.45.435-.692.649a.4.4,0,0,0-.145.342c.012.533-.009,1.056.017,1.589a.484.484,0,0,1-.214.446,1.673,1.673,0,0,0-.377.374,4.741,4.741,0,0,0-.454.621,4.249,4.249,0,0,0-.263.5c-.137.285-.212.6-.33.884-.041.118.025.248-.085.343a6.944,6.944,0,0,0-.106.9,6.354,6.354,0,0,0-.053,1.367,6.279,6.279,0,0,1,.053.724.511.511,0,0,1,.051.33c-.009.107.05.191.061.3.038.254.1.509.166.756a8.012,8.012,0,0,0,.309,1c.079.2.156.415.238.62.136.3.268.585.407.874a2.882,2.882,0,0,0,.181.3.583.583,0,0,0,.048.1h-.309c-.041.237-.059,3.83-.021,4.663h.422v.565c0,.183-.007.365,0,.533.006.108-.017.182-.146.214a.412.412,0,0,0-.191.1c-.052.043-.149.032-.162.139,0,.032-.079.055-.126.075a6.827,6.827,0,0,0-.928.608,1.387,1.387,0,0,1-.278.171c-.026.023-.059.023-.09.041.011.022.031.055.026.075s-.041.054-.041.054c-.115-.063-.15.032-.191.085-.365.355-.727.727-1.091,1.079a2.706,2.706,0,0,0-.585,1.014.149.149,0,0,0,0,.052c0,.278-.075.555-.063.844.02.256.008.521.008.843-.277-.257-.5-.481-.735-.692-.087-.077-.183-.142-.269-.216a.319.319,0,0,1-.122-.3c.017-.1-.052-.183-.052-.268a1.737,1.737,0,0,1,.08-.341c.006-.009.027-.034.021-.041-.037-.193.064-.376.06-.567-.007-.513,0-1.024-.007-1.537a2.765,2.765,0,0,0-.059-.64c-.031-.18-.063-.359-.11-.542-.043-.159-.092-.343-.15-.5a7.444,7.444,0,0,0-.695-1.452c-.136-.225-.31-.416-.435-.65l-.046-.033a8.775,8.775,0,0,0-.645-.692,6.681,6.681,0,0,0-1.072-.842c-.054-.034-.089-.1-.142-.107-.139-.034-.049-.075-.026-.139s.062-.1.094-.15c.21-.266.411-.545.61-.823.128-.17.244-.362.388-.533a.654.654,0,0,0,.092-.448c0-.009,0-.032-.017-.041a.979.979,0,0,0-.559-.384.674.674,0,0,0-.32.063c-.322.085-.641.182-.967.257a7.229,7.229,0,0,0-1.034.34c-.347.148-.709.278-1.066.417a2.443,2.443,0,0,0-.653.289.126.126,0,0,1-.1.021c-.2-.107-.408-.01-.639-.065v-1.61c0-.117.006-.216.106-.277a.4.4,0,0,0,.162-.4c-.011-.3-.006-.609,0-.906a.313.313,0,0,0-.109-.256c-.159-.151-3.636-3.425-3.871-3.6-.165-.117-.283-.287-.5-.349-.186-.045-1.777-.642-1.954-.717a.094.094,0,0,0-.133.021c-.325.333-.677.639-.981.993-.256.311-.554.587-.837.874s-.56.589-.828.9a3.591,3.591,0,0,0-.33.449c-.18.243-.351.48-.527.724-.2.268-.4.544-.6.822-.165.236-.326.469-.5.7a2.988,2.988,0,0,0-.379.586c-.159.33-.336.651-.522.969-.13.224-.245.47-.368.7-.245.448-.486.888-.72,1.335a4.4,4.4,0,0,0-.17.437c-.11.3-.241.588-.337.886-.128.427-.319.853-.452,1.279-.087.3-.227.59-.329.886-.033.1-.055.193-.084.287a2.577,2.577,0,0,1-.059.355c-.03.084-.026.182-.057.264s-.029.171-.049.246c-.069.257-.107.513-.176.758-.022.073-.022.137-.036.2s-.045.129-.052.194c-.055.277-.1.566-.177.842a.745.745,0,0,0-.034.193v3.455c0,.181.026.225.2.277a3.344,3.344,0,0,0,.33.107c.089.032.076.076.032.117-.084.066-.143.184-.26.216-.032,0-.058.041-.081.063-.377.362-4.282,3.969-4.543,4.225-.021.02-.059.031-.087.054a.755.755,0,0,0-.356.533c-.037.257-2.009,7.477-2.094,7.68,0,.023,0,.062.013.073.066.066.034.139.034.2.006.844.006,1.676.006,2.518a.59.59,0,0,1-.006.162c-.008.03-.07.041-.012.093.2.185.38.385.571.567a.931.931,0,0,0,.2.151c.122.061.213.009.316-.13,0,.086,0,.116,0,.15-.012.086.03.18-.05.244a1.531,1.531,0,0,0,.248.248,3.105,3.105,0,0,1,.523.478c.137.118.28.235.413.353a4.653,4.653,0,0,0,.383.374,4.949,4.949,0,0,1,.54.5.137.137,0,0,0,.209.01c.041-.032.107-.053.145-.085.388-.371,12.358-11.4,12.567-11.6a.229.229,0,0,1,.1-.065,3.274,3.274,0,0,0,.355-.18c.283-.183.57-.353.859-.524.166-.095.325-.2.49-.3.076-.053.165-.085.235-.137s.092-.034.154,0a4.131,4.131,0,0,0,.583.224c.192.052.377.126.568.181.269.062.541.116.8.189.133.035.295-.009.434.064.368-.041.727.077,1.095.043.151-.009.3-.031.44-.043a2.449,2.449,0,0,0,.428-.009c.2-.055.4-.043.594-.108a5.333,5.333,0,0,0,.582-.149c.069-.032.155.023.22-.062a.287.287,0,0,1,.084.039c.272.248.523.5.8.738.257.214.492.448.732.685.138.02.177.221.321.191a.627.627,0,0,0,.287-.191c.109-.086.194-.194.284-.278.416.212,2,1.193,2.4,1.472a.3.3,0,0,0,.133.075.77.77,0,0,1,.314.214,1.7,1.7,0,0,0,.8.393,2.875,2.875,0,0,0,.674.033,1.62,1.62,0,0,0,.5-.087,1.844,1.844,0,0,1,.2-.012c.065-.007.128-.041.193-.05a.186.186,0,0,1,.129.03c.2.075,3.264,1.293,3.621,1.409.085.032.132.073.122.159a1.134,1.134,0,0,0,.137.533.454.454,0,0,0,.472.331c.084-.009.126.043.141.12.038.158.07.308.11.467a.115.115,0,0,0,.124.107H184.3v.281q0,9.387,0,18.8c0,.33,0,.321.318.321h7.287c.121,0,.167-.045.171-.152V171.882Zm26.11-9.547c.132.127.266.265.388.384-.143.149-.3.3-.447.459-.045-.033-.112-.085-.182-.138s-.134-.118-.2-.182c.108-.107.2-.205.3-.3C218.175,162.431,218.175,162.441,218.187,162.335Zm-60.045-.163a.275.275,0,0,0,.105.249c.1.095.184.212.274.308-.1.107-.194.2-.289.311-.015.009-.035,0-.047,0-.178-.152-.35-.3-.518-.44C157.835,162.45,157.981,162.323,158.142,162.172Z"/><polygon class="d" points="120.211 180.593 125.414 176.891 125.414 191.289 120.211 194.989 120.211 180.593"/><polygon class="d" points="120.211 166.194 125.414 162.494 125.414 176.891 120.211 180.593 120.211 166.194"/><polygon class="d" points="120.211 151.8 125.414 148.097 125.414 162.494 120.211 166.194 120.211 151.8"/><polygon class="e" points="97.938 151.8 103.144 148.097 125.417 148.097 120.212 151.8 97.938 151.8"/><polygon class="e" points="75.665 151.8 80.869 148.097 103.144 148.097 97.938 151.8 75.665 151.8"/><polygon class="e" points="53.389 151.8 58.596 148.097 80.869 148.097 75.665 151.8 53.389 151.8"/><polygon class="e" points="31.117 151.8 36.322 148.097 58.596 148.097 53.389 151.8 31.117 151.8"/><rect class="c" x="97.938" y="180.593" width="22.273" height="14.396"/><rect class="c" x="75.662" y="180.593" width="22.276" height="14.396"/><rect class="c" x="53.389" y="180.593" width="22.273" height="14.396"/><rect class="c" x="31.115" y="180.593" width="22.274" height="14.396"/><rect class="c" x="97.938" y="166.194" width="22.273" height="14.399"/><rect class="c" x="75.662" y="166.194" width="22.276" height="14.399"/><rect class="c" x="53.389" y="166.194" width="22.273" height="14.399"/><rect class="c" x="31.115" y="166.194" width="22.274" height="14.399"/><rect class="c" x="97.938" y="151.8" width="22.273" height="14.394"/><rect class="c" x="75.662" y="151.8" width="22.276" height="14.394"/><g class="f"><polygon class="d" points="164.757 180.593 169.962 176.891 169.962 191.289 164.757 194.989 164.757 180.593"/><polygon class="d" points="164.757 166.194 169.962 162.494 169.962 176.891 164.757 180.593 164.757 166.194"/><polygon class="d" points="164.757 151.8 169.962 148.097 169.962 162.494 164.757 166.194 164.757 151.8"/><polygon class="e" points="142.485 151.8 147.691 148.097 169.964 148.097 164.76 151.8 142.485 151.8"/><polygon class="e" points="120.212 151.8 125.417 148.097 147.691 148.097 142.485 151.8 120.212 151.8"/><rect class="c" x="142.485" y="180.593" width="22.273" height="14.396"/><rect class="c" x="120.211" y="180.593" width="22.274" height="14.396"/><rect class="c" x="142.485" y="166.194" width="22.273" height="14.399"/><rect class="c" x="120.211" y="166.194" width="22.274" height="14.399"/><rect class="c" x="142.485" y="151.8" width="22.273" height="14.394"/><rect class="c" x="120.211" y="151.8" width="22.274" height="14.394"/></g><rect class="c" x="53.389" y="151.8" width="22.273" height="14.394"/><rect class="c" x="31.115" y="151.8" width="22.274" height="14.394"/></svg>