<svg xmlns="http://www.w3.org/2000/svg" viewBox="0 0 300 300"><defs><style>.a{isolation:isolate;}.b,.c,.e{fill:#e1d6bc;mix-blend-mode:multiply;}.b{fill-opacity:0.1;stroke:#e1d6bc;stroke-linecap:round;stroke-miterlimit:10;stroke-opacity:0.2;stroke-width:0.535px;}.c,.d,.f{fill-rule:evenodd;}.c,.e{opacity:0.4;}.d{fill:#231f20;}.f,.g{fill:#be1e2d;}</style></defs><title>tactics</title><g class="a"><circle class="b" cx="163.635" cy="106.642" r="93.78" transform="translate(34.919 253.546) rotate(-81.868)"/><path class="c" d="M103,106.642a60.632,60.632,0,1,1,60.632,60.632A60.632,60.632,0,0,1,103,106.642Z"/><path class="d" d="M165.415,111.03c.018-.013,0-.044,0-.065,0-.063-.008-.126-.01-.186,0-.173-.008-.345-.013-.514,0-.031-.012-.06-.016-.09-.075-.039-.158-.035-.235-.067a.334.334,0,0,1,.034-.041.864.864,0,0,0,.244-.545,1.266,1.266,0,0,0-.055-.52,1.322,1.322,0,0,0-.328-.566l-.1-.1.2-.075a.29.29,0,0,0,.01-.144c0-.017-.006-.033-.007-.05,0-.117-.008-.234-.015-.353-.006-.14-.014-.282-.022-.422,0-.031,0-.067,0-.1s0-.046-.007-.075a1.275,1.275,0,0,0-.36-.038c-.007-.09-.015-.178-.02-.263a.677.677,0,0,0,.042-.687.431.431,0,0,1,.165-.046l.534.674a.64.64,0,0,0,.089-.008c.066-.013.131-.029.194-.044.02,0,.041,0,.062-.008.022.027.042.05.061.075.058.077.09.092.181.061a1.015,1.015,0,0,0,.178-.088c.049-.029.094-.05.148-.011a.126.126,0,0,0,.071.011c.019,0,.038,0,.064-.006.036.043.074.089.11.135q.291.382.582.761.393.513.788,1.027c.192.249.386.5.575.748a.142.142,0,0,0,.16.054.29.29,0,0,0,.153-.086.148.148,0,0,0,.015-.221c-.155-.2-.308-.4-.459-.6-.237-.31-.471-.621-.7-.932q-.414-.544-.828-1.09l-.035-.052.023-.071a.085.085,0,0,0-.013-.088c-.074-.1-.146-.2-.219-.295a.1.1,0,0,0-.086-.039.2.2,0,0,1-.071-.009.232.232,0,0,1,.039-.018c.069-.019.139-.04.21-.057a.165.165,0,0,0,.107-.077c.045-.073.093-.142.145-.215-.012-.023-.021-.046-.033-.067-.06-.1-.121-.2-.179-.307a.21.21,0,0,0-.131-.113.105.105,0,0,1-.028-.019c0-.039,0-.077,0-.112a.137.137,0,0,1,.02-.069c.045-.067.095-.132.14-.2a.6.6,0,0,0,.091-.428,1.136,1.136,0,0,0-.319-.62,1.511,1.511,0,0,0-.555-.376,1.071,1.071,0,0,0-.587-.061l-.041.007c-.074-.053-.1-.147-.18-.207a2.2,2.2,0,0,0-.291.146.721.721,0,0,0-.418.271c-.016-.01-.028-.014-.037-.02a.224.224,0,0,0-.034-.023c-.08.01-.142.071-.225.092-.009-.015-.017-.028-.024-.042-.028-.063-.056-.128-.083-.194a.114.114,0,0,1-.011-.046.5.5,0,0,0-.093-.291l-.031-.054c.016-.01.028-.025.041-.029a.723.723,0,0,0,.333-.259c.058-.075.13-.134.186-.2.026-.033.058-.061.087-.092a.211.211,0,0,0,.018-.027,10.616,10.616,0,0,0-.677-.913l-.057.027c-.1.063-.2.126-.3.188-.026.017-.053.03-.087.048,0-.1.009-.179.014-.263H163.5a.436.436,0,0,0,.021-.064.127.127,0,0,0-.051-.136,2.291,2.291,0,0,0-1.1-.464,2.245,2.245,0,0,0-1.24.171.591.591,0,0,1-.074.032.1.1,0,0,0-.071.117c0,.027.006.054.008.081a2.67,2.67,0,0,0-.043.307l-.069,0c-.206-.033-.414-.067-.619-.1a.166.166,0,0,0-.15.027l-.19-.151c-.024.021-.044.036-.063.055-.141.129-.282.263-.423.392s-.26.241-.389.36c-.007.05-.013.1-.016.148-.009.134-.017.265-.023.4,0,.077-.009.152-.012.229a.081.081,0,0,0,.044.076c.033.023.063.046.1.075-.049.044-.09.085-.132.123-.089.079-.176.157-.266.234a.1.1,0,0,0-.037.075c-.007.134-.017.265-.025.4,0,.054-.009.107-.012.161,0,.021,0,.042,0,.062.033.026.064.049.1.078l-.037.042-.3.252a.143.143,0,0,0-.043.1c-.01.145-.024.289-.035.433-.01.127-.018.253-.027.378a.1.1,0,0,0,.059.106c.088.048.17.1.257.153a.313.313,0,0,0,.064.031c.025-.014.046-.025.072-.042.009.046.017.086.023.126a.069.069,0,0,1-.036.06c-.059.048-.118.1-.18.144a.193.193,0,0,0-.086.174c0,.094-.012.188-.019.29a.275.275,0,0,0,.048.04c.081.048.166.1.249.142.012.008.023.019.04.029.013.069.025.142.038.217.043.027.086.052.128.077l.082.044a.079.079,0,0,0,.1,0c.035-.027.071-.05.11-.077.084.048.168.094.251.142a.226.226,0,0,0-.022.179,1.647,1.647,0,0,0,.253.145c.038-.028.07-.046.1-.071.074-.053.145-.109.219-.161a.163.163,0,0,0,.076-.117c.023-.119.05-.238.073-.359a.15.15,0,0,1,.072-.109c.052-.033.1-.075.151-.109a.172.172,0,0,1,.078-.035q.29-.016.584-.025c.017,0,.035,0,.064,0-.035.06-.067.111-.1.165-.051,0-.1.01-.153.015l-.064-.044a.3.3,0,0,0-.24-.061.394.394,0,0,1-.068.008.3.3,0,0,0-.25.153.431.431,0,0,0,.139.6.2.2,0,0,1,.036.029c-.085.04-.17,0-.256.034,0,.035,0,.077-.01.117s-.011.077-.017.121c-.046,0-.092.008-.139.015a.458.458,0,0,0-.025.158c-.007.126-.009.253-.015.38-.008.165-.017.33-.026.5,0,.065-.007.128-.009.193a.491.491,0,0,0,0,.073c.1.039.2.058.3.1-.021,0-.041,0-.063,0a.135.135,0,0,0-.125.067,2.3,2.3,0,0,0-.267.526c-.032.1-.058.2-.088.3,0,.017-.008.031-.012.046a.159.159,0,0,1-.106.016c-.122,0-.15.021-.167.142a1.426,1.426,0,0,0-.018.452c.011.064.017.131.031.194s.041.073.107.067c.043,0,.088,0,.137-.007.009.028.017.048.022.069a2.069,2.069,0,0,0,.208.591.388.388,0,0,1,.04.241,1.737,1.737,0,0,0-.006.217.2.2,0,0,0,.03.079l.4.679c.034.052.065.1.1.159.023,0,.042.006.06,0l.427-.034c.084-.006.168-.008.254-.014s.18-.015.272-.021.174-.013.259-.017.093-.014.1-.094c.007-.119.016-.238.024-.357.009-.15.017-.3.025-.447.006-.077.01-.157.016-.251a2.446,2.446,0,0,0,.315-.881l.077-.01c.069,0,.1-.023.125-.09a.727.727,0,0,0,.034-.159,1.085,1.085,0,0,0-.024-.405.319.319,0,0,0-.041-.092.116.116,0,0,0-.131-.058.162.162,0,0,1-.045,0c-.036-.126-.068-.251-.11-.37s-.1-.232-.148-.355c.118-.033.238-.023.359-.052.021-.159.02-.32.033-.481s.019-.321.029-.486a.417.417,0,0,1,.07-.017c.075-.01.152-.019.227-.027a.534.534,0,0,0,.067-.023v-.167a.619.619,0,0,1,.171-.015c.031.186.018.372.052.556a.575.575,0,0,0,.088.023c.086.019.174.033.261.054.044.008.046.01.048.059l-.038.012a.95.95,0,0,0-.34.148.523.523,0,0,0-.054.05.383.383,0,0,1-.182.115c-.05.017-.1.038-.154.057a1.349,1.349,0,0,0,.011.248c.027.011.048.019.073.027a.485.485,0,0,1-.01.17c-.006.054.007.114-.031.154v.144a.121.121,0,0,0,.054.119c.062.157.12.3.18.456-.017.01-.033.025-.053.037,0,.011,0,.021,0,.032a3.045,3.045,0,0,0,.026.346c.022.134.024.265.034.4,0,.052.015.065.076.082.149.037.3.075.446.115.416.106.832.217,1.246.325a.163.163,0,0,0,.136-.014c.172-.113.346-.224.517-.334C165.372,111.065,165.39,111.048,165.415,111.03Zm-1.025-5.172c.024.019-.009.05-.015.078-.044.006-.085.01-.124.018s-.075.025-.126.04c.013-.042.026-.073.032-.1a.126.126,0,0,1,.138-.107Z"/><circle class="b" cx="143.318" cy="150.592" r="93.781" transform="translate(-64.508 145.449) rotate(-45)"/><circle class="e" cx="143.318" cy="150.592" r="60.632" transform="translate(-64.508 145.449) rotate(-45)"/><path class="d" d="M145.1,154.98c.018-.012,0-.043,0-.066,0-.063-.008-.124-.01-.186,0-.171-.008-.343-.014-.514a.844.844,0,0,0-.015-.09c-.076-.039-.158-.033-.235-.065a.334.334,0,0,1,.034-.041.867.867,0,0,0,.243-.545,1.282,1.282,0,0,0-.054-.523,1.31,1.31,0,0,0-.328-.563l-.1-.1c.076-.027.143-.05.2-.075a.293.293,0,0,0,.01-.142c0-.017-.006-.034-.007-.05,0-.117-.009-.236-.015-.355-.006-.14-.014-.28-.023-.42,0-.033,0-.067,0-.1l-.007-.073a1.206,1.206,0,0,0-.36-.038c-.008-.09-.015-.178-.02-.265a.673.673,0,0,0,.042-.685.431.431,0,0,1,.165-.046l.534.672a.654.654,0,0,0,.089-.006c.066-.013.13-.031.194-.046a.62.62,0,0,1,.062-.006c.022.027.042.05.06.075.059.077.091.092.182.061a1.178,1.178,0,0,0,.178-.088.118.118,0,0,1,.148-.011c.017.013.047.009.071.009a.226.226,0,0,0,.064-.007c.036.044.074.092.109.138l.583.761.787,1.025c.192.251.387.5.576.75a.144.144,0,0,0,.159.054.311.311,0,0,0,.154-.086.148.148,0,0,0,.015-.221c-.155-.2-.308-.4-.459-.6-.237-.31-.471-.623-.706-.932q-.413-.544-.827-1.09l-.035-.052.023-.071a.088.088,0,0,0-.013-.09c-.074-.1-.146-.194-.219-.293a.1.1,0,0,0-.086-.041.193.193,0,0,1-.071-.007.232.232,0,0,1,.039-.018q.1-.031.21-.057a.164.164,0,0,0,.106-.079c.046-.071.094-.14.145-.213-.011-.023-.02-.048-.032-.069-.061-.1-.121-.2-.18-.3a.214.214,0,0,0-.13-.115.064.064,0,0,1-.028-.017c0-.041,0-.077,0-.115a.138.138,0,0,1,.02-.066c.045-.067.095-.132.139-.2a.59.59,0,0,0,.091-.428,1.115,1.115,0,0,0-.318-.62,1.491,1.491,0,0,0-.556-.376,1.052,1.052,0,0,0-.587-.061.358.358,0,0,0-.04,0c-.074-.052-.1-.146-.18-.206a2.218,2.218,0,0,0-.291.148.721.721,0,0,0-.418.271l-.038-.022-.033-.023a2.317,2.317,0,0,0-.226.094l-.024-.042c-.028-.065-.055-.13-.082-.194a.118.118,0,0,1-.012-.049.5.5,0,0,0-.092-.29l-.031-.052a.136.136,0,0,1,.041-.029.753.753,0,0,0,.333-.261c.058-.073.13-.132.186-.2.026-.031.057-.058.087-.09a.146.146,0,0,0,.017-.029,10.08,10.08,0,0,0-.676-.911.3.3,0,0,0-.057.028l-.3.187-.087.046c0-.094.009-.177.013-.261h-.006c.006-.023.017-.044.021-.064a.126.126,0,0,0-.051-.136,2.29,2.29,0,0,0-1.1-.464,2.225,2.225,0,0,0-1.239.171l-.074.032a.1.1,0,0,0-.071.117c0,.027.006.054.008.081a2.248,2.248,0,0,0-.043.307c-.024,0-.047,0-.069-.006-.206-.031-.414-.065-.619-.1a.155.155,0,0,0-.15.027c-.063-.05-.125-.1-.19-.151-.024.019-.044.036-.063.053l-.423.394c-.129.122-.26.239-.389.358-.007.052-.013.1-.016.15-.009.132-.017.263-.023.4,0,.075-.009.152-.013.229a.084.084,0,0,0,.045.076c.033.023.063.046.1.075l-.132.121c-.089.079-.176.159-.266.236a.1.1,0,0,0-.037.075c-.007.132-.018.263-.025.395,0,.056-.009.109-.012.163,0,.021,0,.04,0,.062l.1.076a.311.311,0,0,1-.038.041c-.1.086-.2.172-.3.255a.139.139,0,0,0-.043.1c-.011.145-.024.289-.036.433-.009.125-.017.253-.026.378a.1.1,0,0,0,.059.1c.087.05.17.105.257.155a.5.5,0,0,0,.063.029.607.607,0,0,0,.072-.042c.01.046.018.088.023.128a.073.073,0,0,1-.035.06c-.06.048-.118.1-.18.144a.19.19,0,0,0-.086.172c0,.1-.012.19-.019.292a.338.338,0,0,0,.048.04c.081.048.166.1.248.142l.041.027c.013.071.025.144.038.219l.128.075c.027.017.054.03.082.046a.077.077,0,0,0,.1-.006c.034-.025.071-.05.11-.077l.251.144a.221.221,0,0,0-.022.179,1.555,1.555,0,0,0,.253.142c.038-.025.07-.045.1-.068.075-.053.146-.109.22-.161a.17.17,0,0,0,.076-.117c.023-.119.05-.24.073-.359a.147.147,0,0,1,.072-.109c.052-.033.1-.075.15-.111a.2.2,0,0,1,.079-.033c.193-.011.388-.019.583-.027.018,0,.036,0,.065,0l-.1.163-.154.016-.063-.045a.3.3,0,0,0-.24-.059l-.068.008a.3.3,0,0,0-.25.151.431.431,0,0,0,.139.6.377.377,0,0,1,.036.029c-.085.04-.171,0-.256.034,0,.037,0,.077-.01.117s-.011.077-.017.121c-.046.006-.092.01-.139.014a.479.479,0,0,0-.025.161c-.008.126-.009.251-.015.378-.008.165-.017.332-.026.5,0,.063-.007.128-.01.193a.49.49,0,0,0,.005.071c.1.039.2.058.3.1l-.063,0a.135.135,0,0,0-.125.067,2.3,2.3,0,0,0-.267.526c-.032.1-.058.2-.088.3,0,.016-.008.031-.012.046-.035.025-.071.014-.107.014-.122,0-.149.021-.167.142a1.456,1.456,0,0,0-.017.451c.011.065.016.132.031.2s.041.073.107.067a.847.847,0,0,1,.136-.007.556.556,0,0,1,.023.069,2.067,2.067,0,0,0,.208.589.394.394,0,0,1,.04.243,1.545,1.545,0,0,0-.006.215.178.178,0,0,0,.03.079c.135.228.269.453.4.679l.1.159c.023,0,.042.006.06.006.143-.011.284-.025.427-.034.083-.008.168-.01.253-.016s.181-.015.273-.021.173-.013.259-.017.093-.012.1-.092c.006-.121.016-.238.024-.359l.025-.445c.005-.077.01-.157.016-.253a2.42,2.42,0,0,0,.315-.881.576.576,0,0,1,.077-.008.117.117,0,0,0,.125-.09.821.821,0,0,0,.034-.159,1.1,1.1,0,0,0-.024-.407.308.308,0,0,0-.042-.09.112.112,0,0,0-.13-.058.169.169,0,0,1-.045,0c-.037-.126-.068-.249-.111-.37s-.1-.232-.147-.353c.118-.033.238-.023.358-.052.022-.161.021-.322.034-.481s.019-.321.029-.486c.026-.007.047-.015.07-.019l.227-.027a.456.456,0,0,0,.066-.021v-.167a.531.531,0,0,1,.172-.015c.031.186.017.372.052.554.031.01.06.018.088.025.086.019.174.033.261.052.043.01.046.012.048.061l-.038.012a.916.916,0,0,0-.34.148.435.435,0,0,0-.055.05.376.376,0,0,1-.181.115c-.05.017-.1.038-.154.057a1.267,1.267,0,0,0,.011.248c.027.009.048.019.073.027a.488.488,0,0,1-.01.17c-.006.054.007.112-.031.154v.142a.12.12,0,0,0,.054.121c.062.155.12.3.18.453l-.053.04c0,.011-.006.021-.006.032.008.114.007.231.026.344.022.134.024.267.035.4,0,.05.015.065.076.08l.446.117c.416.106.831.215,1.246.323a.156.156,0,0,0,.136-.014c.172-.113.345-.222.517-.332C145.054,155.014,145.073,155,145.1,154.98Zm-1.025-5.171c.024.019-.01.05-.015.075-.045.009-.085.013-.124.021s-.075.023-.126.04c.013-.044.026-.075.032-.106a.126.126,0,0,1,.138-.107C144.005,149.755,144.037,149.78,144.073,149.809Z"/><circle class="b" cx="163.635" cy="194.541" r="93.781" transform="translate(-89.634 172.687) rotate(-45)"/><circle class="e" cx="163.635" cy="194.541" r="60.632" transform="translate(-55.476 323.433) rotate(-80.398)"/><path class="d" d="M165.415,198.929c.018-.012,0-.043,0-.064,0-.063-.008-.126-.01-.186,0-.171-.008-.345-.013-.514,0-.031-.012-.061-.016-.092-.075-.037-.158-.033-.235-.065a.334.334,0,0,1,.034-.041.864.864,0,0,0,.244-.545,1.273,1.273,0,0,0-.055-.521,1.3,1.3,0,0,0-.328-.566l-.1-.1.2-.075a.289.289,0,0,0,.01-.144c0-.017-.006-.034-.007-.05,0-.117-.008-.234-.015-.353-.006-.14-.014-.282-.022-.42,0-.033,0-.067,0-.1s0-.046-.007-.075a1.275,1.275,0,0,0-.36-.038c-.007-.088-.015-.178-.02-.263a.677.677,0,0,0,.042-.687.431.431,0,0,1,.165-.046l.534.674a.64.64,0,0,0,.089-.008c.066-.013.131-.029.194-.044a.319.319,0,0,1,.062-.008l.061.075c.058.077.09.092.181.061a1.015,1.015,0,0,0,.178-.088c.049-.029.094-.05.148-.011a.126.126,0,0,0,.071.011c.019,0,.038,0,.064-.006.036.043.074.089.11.135q.291.382.582.76.393.515.788,1.028c.192.249.386.5.575.748a.142.142,0,0,0,.16.054.3.3,0,0,0,.153-.086.148.148,0,0,0,.015-.221c-.155-.2-.308-.4-.459-.6-.237-.309-.471-.62-.7-.931q-.414-.544-.828-1.09c-.012-.017-.023-.034-.035-.05l.023-.073a.085.085,0,0,0-.013-.088c-.074-.1-.146-.2-.219-.295a.1.1,0,0,0-.086-.039.2.2,0,0,1-.071-.009.232.232,0,0,1,.039-.018l.21-.057a.165.165,0,0,0,.107-.077c.045-.071.093-.142.145-.215-.012-.023-.021-.046-.033-.067-.06-.1-.121-.2-.179-.307a.21.21,0,0,0-.131-.113.073.073,0,0,1-.028-.019c0-.039,0-.077,0-.112a.146.146,0,0,1,.02-.069c.045-.067.095-.132.14-.2a.6.6,0,0,0,.091-.428,1.136,1.136,0,0,0-.319-.62,1.487,1.487,0,0,0-.555-.376,1.071,1.071,0,0,0-.587-.061l-.041.006c-.074-.052-.1-.148-.18-.206a2.2,2.2,0,0,0-.291.146.721.721,0,0,0-.418.271l-.037-.02a.224.224,0,0,0-.034-.023c-.08.01-.142.071-.225.091a.436.436,0,0,1-.024-.041c-.028-.063-.056-.128-.083-.195a.1.1,0,0,1-.011-.045.52.52,0,0,0-.093-.293c-.01-.014-.019-.031-.031-.052a.21.21,0,0,1,.041-.029.721.721,0,0,0,.333-.261c.058-.073.13-.132.186-.2.026-.033.058-.061.087-.092a.211.211,0,0,0,.018-.027,10.616,10.616,0,0,0-.677-.913c-.017.007-.038.017-.057.027-.1.063-.2.126-.3.188-.026.017-.053.03-.087.048,0-.1.009-.179.014-.263H163.5a.6.6,0,0,0,.021-.064.129.129,0,0,0-.051-.136,2.269,2.269,0,0,0-1.1-.462,2.244,2.244,0,0,0-1.24.169.591.591,0,0,1-.074.032.1.1,0,0,0-.071.117c0,.027.006.054.008.081a2.67,2.67,0,0,0-.043.307l-.069,0c-.206-.033-.414-.067-.619-.1a.16.16,0,0,0-.15.027l-.19-.151c-.024.021-.044.036-.063.055-.141.129-.282.263-.423.392s-.26.238-.389.36c-.007.05-.013.1-.016.148-.009.131-.017.265-.023.4,0,.077-.009.152-.012.229a.081.081,0,0,0,.044.076c.033.023.063.046.1.075-.049.044-.09.085-.132.123-.089.079-.176.157-.266.234a.1.1,0,0,0-.037.075c-.007.134-.017.265-.025.4,0,.054-.009.106-.012.161,0,.021,0,.042,0,.062.033.025.064.048.1.078-.013.014-.025.029-.037.041l-.3.255a.135.135,0,0,0-.043.1c-.01.145-.024.289-.035.433-.01.127-.018.252-.027.38a.1.1,0,0,0,.059.1c.088.048.17.1.257.155a.452.452,0,0,0,.064.029c.025-.015.046-.025.072-.042.009.046.017.086.023.126a.074.074,0,0,1-.036.062c-.059.046-.118.1-.18.142a.193.193,0,0,0-.086.174c0,.094-.012.188-.019.29a.328.328,0,0,0,.048.04c.081.048.166.1.249.142.012.008.023.018.04.029.013.069.025.142.038.219l.128.075.082.044a.079.079,0,0,0,.1,0c.035-.027.071-.05.11-.077.084.046.168.094.251.142a.226.226,0,0,0-.022.179,1.647,1.647,0,0,0,.253.145c.038-.028.07-.046.1-.071.074-.053.145-.109.219-.161a.165.165,0,0,0,.076-.117c.023-.119.05-.238.073-.359a.154.154,0,0,1,.072-.109c.052-.033.1-.075.151-.109a.172.172,0,0,1,.078-.035q.29-.017.584-.025c.017,0,.035,0,.064,0-.035.06-.067.111-.1.165l-.153.014c-.02-.012-.042-.027-.064-.043a.3.3,0,0,0-.24-.061.394.394,0,0,1-.068.008.3.3,0,0,0-.25.153.431.431,0,0,0,.139.6.2.2,0,0,1,.036.029c-.085.04-.17,0-.256.034,0,.035,0,.077-.01.117s-.011.077-.017.121c-.046,0-.092.008-.139.015a.458.458,0,0,0-.025.158c-.007.126-.009.253-.015.38-.008.163-.017.33-.026.5,0,.065-.007.128-.009.192a.5.5,0,0,0,0,.074c.1.037.2.058.3.1-.021,0-.041,0-.063,0a.139.139,0,0,0-.125.067,2.3,2.3,0,0,0-.267.526c-.032.1-.058.2-.088.3l-.012.046a.159.159,0,0,1-.106.016c-.122,0-.15.021-.167.142a1.421,1.421,0,0,0-.018.451c.011.065.017.132.031.195s.041.073.107.067c.043-.005.088-.005.137-.007.009.027.017.048.022.069a2.079,2.079,0,0,0,.208.591.383.383,0,0,1,.04.24,1.769,1.769,0,0,0-.006.218.187.187,0,0,0,.03.079l.4.679c.034.052.065.1.1.158.023,0,.042.007.06,0l.427-.034c.084-.006.168-.008.254-.014l.272-.023c.086-.007.174-.011.259-.015s.093-.015.1-.094c.007-.119.016-.238.024-.359l.025-.445c.006-.077.01-.157.016-.251a2.446,2.446,0,0,0,.315-.881l.077-.01c.069,0,.1-.023.125-.09a.727.727,0,0,0,.034-.159,1.085,1.085,0,0,0-.024-.405.345.345,0,0,0-.041-.092.112.112,0,0,0-.131-.056.336.336,0,0,1-.045,0c-.036-.126-.068-.251-.11-.37s-.1-.232-.148-.355c.118-.034.238-.023.359-.052.021-.159.02-.32.033-.481s.019-.321.029-.486a.417.417,0,0,1,.07-.017c.075-.01.152-.019.227-.027a.534.534,0,0,0,.067-.023v-.167a.619.619,0,0,1,.171-.015c.031.186.018.372.052.556l.088.023.261.052c.044.01.046.012.048.06l-.038.013a.95.95,0,0,0-.34.148.523.523,0,0,0-.054.05.383.383,0,0,1-.182.115c-.05.017-.1.038-.154.057a1.349,1.349,0,0,0,.011.248c.027.011.048.019.073.027a.475.475,0,0,1-.01.169c-.006.057.007.115-.031.155v.144a.119.119,0,0,0,.054.119c.062.157.12.3.18.455-.017.011-.033.026-.053.038,0,.011,0,.023,0,.031a3.046,3.046,0,0,0,.026.347c.022.134.024.265.034.4,0,.052.015.065.076.082.149.037.3.075.446.114l1.246.326a.156.156,0,0,0,.136-.016l.517-.333A.564.564,0,0,0,165.415,198.929Zm-1.025-5.171c.024.019-.009.05-.015.078-.044.006-.085.01-.124.018s-.075.025-.126.04c.013-.042.026-.073.032-.1a.126.126,0,0,1,.138-.107C164.322,193.7,164.355,193.729,164.39,193.758Z"/><path class="f" d="M230.451,149.853h-.265c-.024,0-.031,0-.038-.027a.6.6,0,0,1-.021-.081c0-.015-.007-.026-.018-.028-.061-.016-.07-.069-.086-.117a.1.1,0,0,1-.011-.045c0-.026-.012-.034-.03-.04s-.038-.019-.058-.027-.024,0-.032.018c-.017.042-.031.084-.049.126a.592.592,0,0,1-.041.1c0,.011-.007.015-.018.013-.027,0-.058.01-.084-.011h-.016c-.038,0-.039,0-.05.038-.007.019-.014.04-.022.058a.012.012,0,0,1-.011.009.126.126,0,0,1-.039,0c-.072-.03-1.308-.506-1.359-.52l-.021-.011c-.012-.01-.029-.019-.008-.035a1.317,1.317,0,0,1,.043-.13.042.042,0,0,0,0-.042.352.352,0,0,1-.063-.127c0-.013-.007-.027-.012-.042-.043.04-.043.038-.086,0-.062-.059-.121-.119-.186-.173a1.065,1.065,0,0,1-.11-.1.048.048,0,0,0-.056-.014c-.029.008-.061.012-.09.023a.224.224,0,0,1-.071.014.415.415,0,0,1-.112.015,1.16,1.16,0,0,1-.257.008.161.161,0,0,1-.086-.008c-.024-.011-.057,0-.084-.011s-.042.009-.058-.01a.544.544,0,0,1-.15-.033c-.04-.009-.08-.026-.121-.038a.309.309,0,0,1-.062-.025.051.051,0,0,0-.064,0c-.044.023-.3.188-.323.2a.3.3,0,0,0-.111.076c-.073.064-2.41,2.22-2.451,2.255-.038-.033-.372-.342-.41-.376a.047.047,0,0,1-.017-.046v-.054c-.05.044-.049.042-.092,0s-.08-.071-.118-.107c-.011-.01-.016-.016,0-.031s0-.023,0-.035c0-.161,0-.324,0-.487,0-.023-.014-.042,0-.065a.312.312,0,0,0,.019-.071c.006-.023.1-.363.111-.415s.27-.988.28-1.034a.061.061,0,0,1,.012-.027.991.991,0,0,1,.127-.115l.007-.006c.07-.067,1.9-1.759,1.947-1.8a.2.2,0,0,0,.028-.019.015.015,0,0,1,.022,0c.021.018.043.035.062.052s.032.033.049.048.041.033.066.054c0-.052,0-.1,0-.148,0-.067.018-.13.011-.2,0,0,0-.014.007-.016s.015-.023,0-.038a.094.094,0,0,1-.006-.077.661.661,0,0,1,.109-.213c.027-.038.06-.073.089-.109s.061-.081.09-.121c.006-.008.014-.014.021-.023.048-.048.094-.1.145-.144a1.55,1.55,0,0,1,.2-.146,1.28,1.28,0,0,1,.172-.09,1.711,1.711,0,0,1,.225-.079l.173-.038a.661.661,0,0,1,.184-.012.085.085,0,0,0,.05-.009.055.055,0,0,1,.05,0c.018.013.036.006.053.009a.327.327,0,0,0,.187-.042c.041-.021.085-.034.126-.052s.1-.036.154-.059a.87.87,0,0,1,.139-.046c.049-.012.1-.027.146-.037.031-.009.064-.019.095-.026a.107.107,0,0,1,.1.03l0,0c.044.017.047.052.044.092,0,.025-.02.037-.03.054-.041.061-.088.117-.127.18-.028.041-.061.079-.09.117l.115.079a1.3,1.3,0,0,1,.155.132,1.7,1.7,0,0,1,.192.225c.009.011.009.025.016.036a.867.867,0,0,1,.11.206,1.439,1.439,0,0,1,.049.153c.012.044.016.088.028.129a.489.489,0,0,1,.011.128c0,.079,0,.161,0,.24,0,.052-.012.1-.01.155-.023.023,0,.06-.021.085.014.036,0,.077.039.109.074.067.146.138.223.209v-.042c0-.086,0-.173,0-.257a.4.4,0,0,1,.079-.246.445.445,0,0,1,.059-.071c.052-.055.1-.107.159-.159.024-.021.036-.059.077-.057.013-.039.054-.046.08-.069a.658.658,0,0,1,.088-.056c.021-.015.043-.029.065-.042s.044-.012.046-.039a.456.456,0,0,1,.075-.034c.018,0,.018-.01.018-.023v-.23h-.187c-.026,0-.033-.008-.034-.033v-.257c0-.033,0-.031-.032-.046-.071-.035-.148-.054-.22-.09-.04-.018-.082-.031-.123-.046-.014,0-.023-.01-.023-.027v-.257c0-.018.009-.025.027-.031.051-.019.1-.04.153-.058a.042.042,0,0,0,.031-.046c0-.069,0-.84,0-1.153,0-.048,0-.05-.046-.065a.366.366,0,0,1-.051-.021l-.008-.012c0-.015,0-.019-.017-.019a.092.092,0,0,1-.029-.011.167.167,0,0,0-.057-.023c0-.02,0-.041,0-.062v-.42c0-.019,0-.036.026-.029.088-.046.185-.069.272-.115.084-.017.156-.067.238-.086.015,0,.021-.014.021-.031s0-.059,0-.088c0-.088,0-.175,0-.263a.042.042,0,0,1,.014-.035,1.476,1.476,0,0,1,.113-.111c.049-.04.087-.088.137-.125s.095-.1.147-.138.1-.09.144-.134l.032-.023c.031-.021.032-.021.057,0s.057.055.083.082a.1.1,0,0,0,.08.035q.7,0,1.4,0a.1.1,0,0,0,.072-.029c.03-.031.061-.063.093-.094s.023-.017.047,0a.773.773,0,0,1,.1.09c.065.06.126.125.193.181.049.04.088.088.137.126s.089.085.136.127a.08.08,0,0,1,.028.067c0,.1,0,.207,0,.311a.1.1,0,0,0,.041.088.306.306,0,0,1,.075.073.869.869,0,0,1,.088.121.918.918,0,0,1,.052.1c.027.057.041.117.064.174.009.022,0,.048.017.066a1.458,1.458,0,0,1,.021.176,1.249,1.249,0,0,1,.01.267,1.355,1.355,0,0,0-.01.142.1.1,0,0,0-.01.065c0,.021-.01.037-.012.058a1.459,1.459,0,0,1-.032.149,1.771,1.771,0,0,1-.061.2c-.016.04-.03.081-.047.121-.026.059-.052.115-.079.171a.58.58,0,0,1-.036.059c0,.006,0,.012-.009.021h.06c.009.046.012.75,0,.912h-.082v.111c0,.036,0,.071,0,.1s0,.035.028.041a.085.085,0,0,1,.038.019c.01.008.029.006.031.027s.016.011.025.015a1.211,1.211,0,0,1,.182.119.252.252,0,0,0,.054.033c.005,0,.012,0,.018.009s-.006.01,0,.014.008.011.008.011c.022-.013.029.006.038.016.071.069.142.142.213.211a.552.552,0,0,1,.115.2.033.033,0,0,1,0,.01c0,.055.014.109.012.165s0,.1,0,.165c.054-.05.1-.094.144-.136.017-.014.036-.027.052-.041a.061.061,0,0,0,.024-.059c0-.019.011-.035.011-.052a.407.407,0,0,0-.016-.067l0-.008c.007-.038-.013-.073-.012-.111,0-.1,0-.2,0-.3a.6.6,0,0,1,.012-.125c.006-.035.013-.071.022-.106s.018-.067.029-.1a1.542,1.542,0,0,1,.136-.284c.027-.043.06-.081.086-.127l.008-.006c.042-.046.08-.094.126-.136a1.326,1.326,0,0,1,.21-.165c.011-.006.018-.019.028-.021.027-.006.01-.015.006-.027s-.013-.019-.019-.029c-.041-.053-.081-.107-.119-.161-.025-.034-.048-.071-.077-.105a.132.132,0,0,1-.017-.087l0-.009a.2.2,0,0,1,.11-.075.131.131,0,0,1,.062.013c.063.016.125.035.189.05a1.462,1.462,0,0,1,.2.067c.068.029.139.054.209.081a.512.512,0,0,1,.127.056.023.023,0,0,0,.02,0c.039-.021.08,0,.125-.013v-.315c0-.023,0-.042-.021-.055a.076.076,0,0,1-.031-.077c0-.058,0-.119,0-.177a.059.059,0,0,1,.021-.05c.031-.03.712-.671.758-.7s.055-.057.1-.069.348-.126.382-.14c.013-.006.018,0,.026,0,.064.065.133.125.193.194s.108.115.164.172.109.114.161.175a.688.688,0,0,1,.065.088c.036.048.069.094.1.142s.078.106.117.161.064.091.1.137a.627.627,0,0,1,.074.115c.031.065.066.128.1.19.025.044.048.092.072.138.048.088.095.173.141.261a.8.8,0,0,1,.033.086c.021.058.048.115.066.173.025.084.063.167.089.251.017.058.044.115.064.173.007.019.011.038.017.057a.535.535,0,0,0,.011.068c.006.017,0,.036.011.053s.006.033.01.048c.013.05.021.1.034.148a.353.353,0,0,1,.008.04c0,.012.008.025.01.037a1.562,1.562,0,0,0,.035.165.167.167,0,0,1,.006.038v.677c0,.035-.005.043-.039.054s-.043.014-.065.021-.014.014-.006.023.028.035.051.041c.007,0,.012.009.016.013.074.071.839.777.89.827,0,0,.011.006.016.011a.142.142,0,0,1,.07.1c.008.05.394,1.464.411,1.5l0,.014c-.013.013-.007.027-.007.04,0,.165,0,.328,0,.493a.108.108,0,0,0,0,.031c0,.006.014.009,0,.019-.038.035-.074.075-.111.111a.185.185,0,0,1-.04.029c-.024.012-.042,0-.062-.025a.258.258,0,0,0,0,.029c0,.017-.006.036.01.048a.273.273,0,0,1-.048.048.66.66,0,0,0-.1.094l-.08.069a.737.737,0,0,1-.075.073,1.1,1.1,0,0,0-.106.1.025.025,0,0,1-.04,0c-.009-.006-.021-.01-.029-.016-.076-.073-2.419-2.233-2.46-2.271a.04.04,0,0,0-.021-.012.564.564,0,0,1-.069-.036c-.055-.035-.111-.068-.168-.1-.032-.019-.063-.04-.1-.058-.015-.011-.032-.017-.046-.028s-.018-.006-.03,0a.655.655,0,0,1-.114.044c-.038.011-.074.025-.112.036s-.105.023-.156.037c-.026.007-.058,0-.085.013-.072-.008-.143.015-.215.008l-.086-.008a.572.572,0,0,1-.083,0c-.04-.011-.08-.008-.117-.021a1.056,1.056,0,0,1-.114-.029c-.014-.007-.03,0-.043-.013a.038.038,0,0,0-.016.009c-.054.048-.1.1-.157.144s-.1.087-.143.133c-.027.005-.035.044-.063.038a.115.115,0,0,1-.056-.038.72.72,0,0,1-.056-.054c-.081.042-.392.234-.468.288a.061.061,0,0,1-.027.015.149.149,0,0,0-.061.042.34.34,0,0,1-.158.077.578.578,0,0,1-.131.006.308.308,0,0,1-.1-.017.248.248,0,0,0-.039,0c-.013,0-.025-.008-.038-.01a.039.039,0,0,0-.025.006c-.039.015-.639.253-.709.276-.017.006-.026.015-.024.031a.234.234,0,0,1-.027.1.089.089,0,0,1-.092.064c-.017,0-.025.009-.028.023l-.021.092a.023.023,0,0,1-.024.021h-.281v.054q0,1.839,0,3.683c0,.064,0,.062-.063.062h-1.426c-.024,0-.033-.008-.034-.029v-3.77Zm-5.111-1.869-.076.075c.028.029.058.059.087.09l.036-.027q.019-.017.039-.036c-.02-.021-.038-.039-.058-.058S225.342,148.005,225.34,147.984Zm11.755-.031a.053.053,0,0,1-.021.048c-.019.018-.035.041-.053.06.019.021.038.04.056.061h.01l.1-.086C237.156,148.007,237.126,147.982,237.1,147.953Z"/><path class="g" d="M222.665,154.361h2.272l2.617,8.368h-2l-.513-1.99h-2.554l-.513,1.99h-1.925Zm.205,4.9h1.784l-.192-.77c-.232-.835-.463-1.822-.681-2.695h-.051c-.206.886-.423,1.86-.655,2.695Z"/><path class="f" d="M191.956,151.292h-.266c-.024,0-.031,0-.038-.029a.653.653,0,0,1-.021-.079c0-.015-.006-.026-.018-.028-.06-.016-.07-.071-.085-.117a.1.1,0,0,1-.012-.048c0-.025-.011-.031-.03-.039l-.058-.025c-.015-.007-.024,0-.032.016-.017.042-.03.086-.049.128a.661.661,0,0,1-.041.1c-.005.009-.007.013-.018.011-.027,0-.058.012-.084-.009,0,0-.011,0-.016,0-.037,0-.039,0-.05.038-.006.021-.014.039-.022.06,0,0-.006.009-.01.009a.13.13,0,0,1-.04,0c-.072-.032-1.307-.506-1.359-.523a.038.038,0,0,1-.02-.01c-.013-.008-.03-.017-.009-.036,0-.045.034-.083.043-.127a.045.045,0,0,0,0-.044.36.36,0,0,1-.063-.125l-.011-.042c-.044.038-.044.038-.087,0-.062-.061-.121-.119-.186-.173a1.34,1.34,0,0,1-.11-.1.048.048,0,0,0-.056-.014c-.029.008-.061.012-.09.023a.3.3,0,0,1-.071.014.342.342,0,0,1-.111.013,1.165,1.165,0,0,1-.257.01.186.186,0,0,1-.087-.008c-.024-.013-.056,0-.084-.013s-.041.011-.058-.01a.472.472,0,0,1-.149-.031c-.041-.011-.081-.026-.121-.038a.352.352,0,0,1-.063-.027.057.057,0,0,0-.064,0c-.044.025-.3.188-.322.2a.33.33,0,0,0-.111.075c-.073.067-2.41,2.221-2.452,2.258-.038-.035-.372-.342-.409-.378a.044.044,0,0,1-.018-.044v-.054c-.049.042-.048.042-.092,0s-.08-.073-.118-.109c-.011-.008-.016-.014,0-.029s0-.023,0-.035c0-.163,0-.326,0-.489,0-.021-.014-.04,0-.065a.368.368,0,0,0,.019-.071c.005-.023.1-.361.11-.415s.271-.986.28-1.032a.046.046,0,0,1,.013-.027.856.856,0,0,1,.126-.115l.007-.009c.07-.066,1.9-1.756,1.947-1.8.008-.008.02-.012.028-.019a.015.015,0,0,1,.022,0,.754.754,0,0,1,.063.052c.016.014.031.033.049.048s.04.033.065.054c0-.052,0-.1,0-.15,0-.065.018-.13.011-.195a.029.029,0,0,1,.007-.018c.017-.011.015-.021,0-.038a.1.1,0,0,1-.006-.077.635.635,0,0,1,.11-.211c.026-.04.059-.073.088-.111s.061-.079.09-.119a.24.24,0,0,1,.021-.023c.048-.048.094-.1.145-.144a1.383,1.383,0,0,1,.2-.146,1.488,1.488,0,0,1,.4-.169c.056-.015.115-.027.172-.038a.664.664,0,0,1,.184-.012.084.084,0,0,0,.05-.009.055.055,0,0,1,.05,0c.018.013.037.006.053.009a.328.328,0,0,0,.187-.044c.041-.019.085-.032.127-.05s.1-.038.153-.059a.87.87,0,0,1,.139-.046c.049-.012.1-.029.146-.04.032-.006.064-.016.095-.023a.1.1,0,0,1,.1.03l0,0c.043.015.047.05.043.09s-.019.039-.03.056c-.041.061-.088.117-.127.178-.027.041-.061.081-.09.117.038.025.076.054.115.079a1.318,1.318,0,0,1,.155.134,1.712,1.712,0,0,1,.193.225c.008.011.008.025.015.036a.857.857,0,0,1,.11.2c.02.05.034.1.049.155s.017.086.028.129a.442.442,0,0,1,.012.126c0,.081,0,.161,0,.242,0,.052-.013.1-.011.152-.023.026,0,.061-.021.086.014.038.006.079.039.111.074.067.146.136.223.209v-.044c0-.086,0-.172,0-.257a.415.415,0,0,1,.079-.247.43.43,0,0,1,.059-.069c.053-.054.105-.108.159-.158.024-.023.037-.059.077-.057.013-.039.055-.046.081-.069a.589.589,0,0,1,.087-.056l.065-.044c.019-.008.044-.01.046-.037a.456.456,0,0,1,.075-.034c.018,0,.018-.01.018-.023v-.23h-.187c-.026,0-.032-.008-.033-.035v-.257c0-.031,0-.029-.033-.044-.071-.035-.148-.056-.22-.09-.04-.018-.082-.031-.123-.046-.014-.006-.023-.012-.023-.029v-.257c0-.018.009-.025.027-.031.051-.017.1-.04.153-.056a.042.042,0,0,0,.031-.046c0-.069,0-.84,0-1.153,0-.048,0-.05-.046-.065-.017-.006-.034-.015-.05-.021s-.01-.01-.009-.014,0-.017-.016-.019a.062.062,0,0,1-.03-.009.122.122,0,0,0-.057-.025c0-.021,0-.041,0-.06v-.42c0-.019,0-.036.026-.031.089-.044.185-.067.272-.113.084-.019.156-.067.238-.086a.027.027,0,0,0,.021-.031c0-.029,0-.059,0-.09,0-.086,0-.173,0-.261a.049.049,0,0,1,.014-.038c.039-.035.072-.077.113-.108s.087-.088.138-.128.095-.1.146-.135.1-.092.144-.136a.292.292,0,0,1,.032-.021c.032-.023.033-.023.058,0s.056.052.082.082a.1.1,0,0,0,.081.033h1.4a.09.09,0,0,0,.072-.029c.03-.031.062-.061.093-.092s.023-.019.047,0a.527.527,0,0,1,.1.09c.065.06.126.125.193.179.049.04.088.09.137.128s.089.085.136.125a.083.083,0,0,1,.028.069c0,.1,0,.207,0,.309a.091.091,0,0,0,.042.088.427.427,0,0,1,.074.073.966.966,0,0,1,.089.121.94.94,0,0,1,.051.1c.027.057.042.115.065.174.008.02,0,.048.016.064a1.561,1.561,0,0,1,.021.176,1.344,1.344,0,0,1,.011.269,1.357,1.357,0,0,0-.011.142.1.1,0,0,0-.009.063.351.351,0,0,1-.013.058c-.007.05-.02.1-.032.151a1.74,1.74,0,0,1-.061.194c-.015.042-.03.083-.047.123-.026.056-.052.115-.079.171a.58.58,0,0,1-.036.059l-.009.021h.061c.008.044.011.747,0,.912h-.083v.111c0,.034,0,.069,0,.105,0,.02,0,.035.028.039a.083.083,0,0,1,.038.021c.01.008.029.006.031.027,0,0,.016.009.025.015a1.211,1.211,0,0,1,.182.119c.017.012.036.021.054.033l.018.007c0,.006-.006.01,0,.014s.008.013.008.013c.022-.015.03.006.038.016.071.069.142.14.213.211a.523.523,0,0,1,.115.2v.01c0,.055.014.109.012.163s0,.1,0,.167c.055-.05.1-.094.144-.138.017-.014.036-.025.053-.039a.067.067,0,0,0,.024-.059c0-.019.01-.035.01-.052a.3.3,0,0,0-.016-.067s0-.006,0-.01c.007-.038-.012-.073-.011-.111,0-.1,0-.2,0-.3a.581.581,0,0,1,.011-.125c.006-.035.013-.073.022-.109s.018-.064.029-.1a1.5,1.5,0,0,1,.136-.286c.027-.042.061-.081.086-.125l.008-.008c.042-.046.081-.094.126-.136a1.453,1.453,0,0,1,.21-.165c.011-.006.018-.017.029-.019.027-.008.009-.015,0-.027s-.013-.021-.019-.029l-.119-.161c-.025-.036-.048-.071-.076-.105a.127.127,0,0,1-.018-.087l0-.009a.2.2,0,0,1,.11-.075.126.126,0,0,1,.062.013c.063.014.126.035.189.05a1.149,1.149,0,0,1,.2.067c.068.029.139.052.209.079a.487.487,0,0,1,.127.058.023.023,0,0,0,.02,0c.039-.023.08,0,.125-.015v-.315a.061.061,0,0,0-.02-.055.072.072,0,0,1-.032-.075c0-.06,0-.119,0-.179a.056.056,0,0,1,.021-.048c.031-.032.712-.671.758-.7s.056-.059.1-.069.348-.128.383-.142a.024.024,0,0,1,.026,0c.063.065.132.125.192.194s.108.115.164.174.109.114.162.175a.566.566,0,0,1,.064.088c.036.046.069.094.1.14s.078.106.118.16.063.094.1.138a.719.719,0,0,1,.074.117c.031.065.066.128.1.188s.048.092.072.138c.048.088.095.175.141.263.014.027.022.057.034.086.021.056.047.113.066.171.025.086.062.167.088.253.017.058.044.115.064.173a.484.484,0,0,1,.017.054.5.5,0,0,0,.011.069c.007.019,0,.038.012.055s0,.033.009.048c.014.048.021.1.035.148,0,.013,0,.027.007.04s.008.025.01.037c.011.055.019.109.035.163a.2.2,0,0,1,.006.04v.677c0,.033,0,.041-.039.054l-.064.021c-.017,0-.015.012-.007.021s.029.035.052.041c.006,0,.011.011.015.015.074.071.839.777.89.827,0,0,.011,0,.017.008a.16.16,0,0,1,.07.107c.007.048.393,1.464.41,1.5a.024.024,0,0,1,0,.014c-.013.011-.006.025-.006.038,0,.165,0,.33,0,.493a.105.105,0,0,0,0,.031c0,.008.013.008,0,.019-.039.037-.074.075-.112.113a.292.292,0,0,1-.04.029c-.024.012-.041,0-.061-.025a.274.274,0,0,0,0,.029c0,.017-.007.034.009.046a.218.218,0,0,1-.048.048.71.71,0,0,0-.1.094c-.026.023-.055.046-.081.071a1.036,1.036,0,0,1-.075.073.981.981,0,0,0-.1.1.026.026,0,0,1-.041,0,.167.167,0,0,1-.028-.018c-.077-.071-2.42-2.231-2.461-2.271a.061.061,0,0,0-.021-.012.278.278,0,0,1-.068-.036c-.056-.035-.112-.066-.169-.1-.032-.021-.063-.04-.1-.06-.014-.009-.032-.015-.046-.026s-.017-.006-.03,0a.62.62,0,0,1-.114.042c-.037.011-.074.025-.111.036-.053.014-.106.023-.157.039-.026.007-.057,0-.085.011-.072-.006-.143.017-.215.01-.029,0-.057-.008-.085-.01a.39.39,0,0,1-.084,0c-.04-.011-.079-.009-.117-.019a.738.738,0,0,1-.114-.031c-.013,0-.03,0-.043-.011a.038.038,0,0,0-.016.009c-.054.048-.1.1-.157.144s-.1.087-.143.133c-.027,0-.034.044-.063.038a.143.143,0,0,1-.056-.038.564.564,0,0,1-.055-.054c-.082.04-.393.234-.469.288a.063.063,0,0,1-.026.015.148.148,0,0,0-.062.04.306.306,0,0,1-.158.077.479.479,0,0,1-.131.008.36.36,0,0,1-.1-.017.271.271,0,0,0-.04,0c-.013,0-.025-.008-.038-.01a.129.129,0,0,0-.025.006c-.038.015-.639.255-.709.278-.016.006-.026.012-.024.031a.228.228,0,0,1-.027.105.09.09,0,0,1-.092.062.027.027,0,0,0-.028.025l-.021.09a.023.023,0,0,1-.024.023h-.281v.052q0,1.842,0,3.685c0,.062,0,.062-.062.062q-.7,0-1.4,0a.15.15,0,0,1-.03,0c-.024,0-.032-.008-.033-.029v-3.768Zm-5.112-1.869c-.026.023-.052.05-.076.075.028.027.058.059.087.088l.036-.025.04-.038a.75.75,0,0,0-.059-.056C186.846,149.442,186.846,149.442,186.844,149.423Zm11.755-.031a.055.055,0,0,1-.021.048c-.018.018-.035.039-.053.06.019.021.038.04.057.059l.009,0,.1-.086Z"/><path class="g" d="M182.206,155.8h2.861c1.733,0,3.08.475,3.08,2.079a1.942,1.942,0,0,1-1.09,1.81v.05a1.9,1.9,0,0,1,1.5,1.964c0,1.707-1.437,2.464-3.246,2.464h-3.106Zm2.772,3.349c.923,0,1.322-.384,1.322-.988,0-.654-.424-.9-1.31-.9h-.9v1.886Zm.179,3.555c1.027,0,1.553-.359,1.553-1.129,0-.731-.513-1.027-1.553-1.027h-1.065V162.7Z"/><path class="f" d="M196.418,65.915h-.265c-.024,0-.032,0-.039-.029a.653.653,0,0,1-.021-.079c0-.015-.006-.025-.018-.028-.06-.016-.07-.071-.085-.116a.118.118,0,0,1-.012-.049c0-.025-.011-.031-.03-.039l-.058-.025c-.015-.007-.023,0-.032.016-.017.042-.03.086-.049.128a.576.576,0,0,1-.041.1c0,.009-.007.013-.017.011-.028,0-.059.012-.085-.009,0,0-.01,0-.016,0-.037,0-.038,0-.05.038a.431.431,0,0,1-.022.06s-.006.009-.01.009a.133.133,0,0,1-.04,0c-.072-.032-1.307-.506-1.358-.523a.038.038,0,0,1-.021-.01c-.013-.008-.03-.017-.009-.035.006-.046.034-.084.043-.128a.045.045,0,0,0,0-.044.36.36,0,0,1-.063-.125l-.011-.042c-.044.038-.044.038-.087,0-.061-.061-.121-.119-.186-.173a1.327,1.327,0,0,1-.109-.1.051.051,0,0,0-.057-.014c-.029.008-.06.012-.089.023a.306.306,0,0,1-.072.014.342.342,0,0,1-.111.013,1.165,1.165,0,0,1-.257.01.175.175,0,0,1-.087-.008c-.024-.013-.056,0-.083-.013s-.042.011-.059-.01a.472.472,0,0,1-.149-.031c-.041-.011-.081-.025-.121-.038a.352.352,0,0,1-.063-.027.059.059,0,0,0-.064,0c-.044.025-.295.188-.322.2a.318.318,0,0,0-.111.076c-.073.066-2.41,2.22-2.452,2.257-.038-.035-.372-.342-.409-.378a.044.044,0,0,1-.018-.044V66.69c-.049.042-.048.042-.092,0s-.079-.073-.118-.109c-.01-.008-.016-.014,0-.029s0-.023,0-.035c0-.163,0-.326,0-.489,0-.021-.013-.04,0-.065a.308.308,0,0,0,.019-.071c0-.023.1-.361.11-.415s.271-.986.28-1.032a.053.053,0,0,1,.013-.027.856.856,0,0,1,.126-.115l.008-.008c.069-.067,1.9-1.757,1.946-1.8a.22.22,0,0,1,.028-.018c.01-.007.016-.005.022,0a.754.754,0,0,1,.063.052c.017.014.031.033.049.048s.041.033.066.054c0-.052,0-.1,0-.15,0-.065.017-.13.01-.194a.029.029,0,0,1,.007-.019c.017-.011.015-.021,0-.038a.093.093,0,0,1-.007-.077.645.645,0,0,1,.11-.211c.026-.04.059-.073.089-.111l.09-.119a.22.22,0,0,1,.02-.023c.048-.048.094-.1.146-.144a1.323,1.323,0,0,1,.2-.146,1.483,1.483,0,0,1,.172-.09,1.513,1.513,0,0,1,.226-.079c.056-.015.115-.027.172-.038a.664.664,0,0,1,.184-.012.084.084,0,0,0,.05-.009.055.055,0,0,1,.05,0c.018.013.037.007.054.009a.332.332,0,0,0,.187-.044c.04-.019.084-.032.126-.05s.1-.038.153-.059a.87.87,0,0,1,.139-.046c.049-.012.1-.029.146-.039.032-.007.064-.017.1-.023a.1.1,0,0,1,.1.029l0,0c.044.015.047.05.044.09,0,.025-.02.039-.031.056-.04.061-.087.117-.127.178-.027.041-.061.081-.09.117.038.025.076.054.115.079a1.415,1.415,0,0,1,.156.134,1.783,1.783,0,0,1,.192.225c.008.011.008.025.015.036a.857.857,0,0,1,.11.2,1.464,1.464,0,0,1,.049.155c.013.042.017.086.028.129a.442.442,0,0,1,.012.126c0,.081,0,.161,0,.242,0,.052-.013.1-.011.153-.023.025,0,.06-.02.085.013.038.005.08.038.111.074.067.146.136.224.209V63.24c0-.086,0-.171,0-.257a.4.4,0,0,1,.078-.246.446.446,0,0,1,.059-.069c.053-.055.1-.109.159-.159.024-.023.037-.059.077-.057.013-.039.055-.045.081-.068a.555.555,0,0,1,.088-.057l.064-.044c.019-.008.044-.01.046-.037a.558.558,0,0,1,.075-.034c.018,0,.018-.01.018-.023V61.96h-.187c-.026,0-.032-.009-.033-.036v-.257c0-.031,0-.029-.033-.044-.071-.035-.148-.056-.22-.089a1,1,0,0,0-.123-.046c-.014-.007-.023-.013-.023-.03V61.2c0-.018.009-.025.027-.031.051-.017.1-.04.154-.056a.041.041,0,0,0,.03-.046c0-.069,0-.84,0-1.153,0-.048,0-.05-.046-.065-.017-.006-.033-.014-.05-.021s-.01-.01-.008-.014-.006-.017-.017-.019a.055.055,0,0,1-.029-.009.142.142,0,0,0-.058-.025c0-.02,0-.041,0-.06v-.42c0-.019,0-.035.026-.031.089-.044.185-.067.273-.113.083-.019.155-.067.238-.086a.028.028,0,0,0,.021-.031c0-.029,0-.058,0-.09,0-.085,0-.173,0-.261a.048.048,0,0,1,.013-.037c.039-.036.072-.078.113-.109s.088-.088.138-.127.1-.1.146-.136.1-.092.144-.136l.032-.021c.032-.023.033-.023.058,0s.056.053.082.082a.1.1,0,0,0,.081.033h1.4a.09.09,0,0,0,.072-.029c.03-.031.062-.061.093-.092s.023-.019.047,0a.527.527,0,0,1,.1.09c.065.06.127.125.194.179.049.04.087.09.136.128s.089.085.136.125a.083.083,0,0,1,.028.069c0,.1,0,.207,0,.309a.092.092,0,0,0,.042.088.427.427,0,0,1,.074.073.876.876,0,0,1,.089.121.94.94,0,0,1,.051.1c.027.057.042.115.065.174.008.02,0,.048.016.064a1.36,1.36,0,0,1,.021.176,1.276,1.276,0,0,1,.011.269,1.357,1.357,0,0,0-.011.142.1.1,0,0,0-.009.063.329.329,0,0,1-.013.058,1.354,1.354,0,0,1-.032.151,1.553,1.553,0,0,1-.061.194c-.015.042-.03.083-.047.123-.026.057-.052.115-.079.171a.573.573,0,0,1-.035.059l-.01.021h.061c.008.044.011.747,0,.912H198.7v.111c0,.034,0,.069,0,.105,0,.02,0,.035.029.039a.085.085,0,0,1,.037.021c.011.009.03.006.032.027,0,.005.015.009.025.015a1.344,1.344,0,0,1,.181.119c.017.013.036.021.055.033l.017.007c0,.006-.006.01,0,.014s.009.013.009.013c.021-.015.029.006.037.017.071.068.142.139.213.21a.51.51,0,0,1,.115.2v.01c0,.055.015.109.013.163s0,.1,0,.167c.055-.05.1-.094.145-.138.016-.014.035-.025.052-.039a.064.064,0,0,0,.024-.059c0-.018.01-.035.01-.052a.363.363,0,0,0-.015-.067s-.006-.006,0-.01c.008-.038-.012-.073-.011-.111,0-.1,0-.2,0-.3a.581.581,0,0,1,.011-.125c.007-.035.013-.073.022-.108s.018-.065.03-.1a1.438,1.438,0,0,1,.135-.286c.028-.041.061-.081.086-.125l.008-.008c.042-.046.081-.094.127-.136a1.4,1.4,0,0,1,.21-.165c.01-.006.017-.017.028-.019.027-.008.009-.014,0-.027a.057.057,0,0,0-.019-.029l-.119-.161c-.025-.036-.048-.071-.076-.1a.131.131,0,0,1-.018-.088l0-.009a.2.2,0,0,1,.11-.075.145.145,0,0,1,.063.013c.062.014.125.035.189.05a1.139,1.139,0,0,1,.2.067c.068.029.139.052.209.079a.459.459,0,0,1,.127.059.026.026,0,0,0,.02,0c.039-.023.081,0,.126-.015v-.315a.059.059,0,0,0-.021-.055.073.073,0,0,1-.032-.075c0-.06,0-.119,0-.179a.058.058,0,0,1,.021-.048c.032-.032.713-.671.758-.7s.056-.059.1-.069.347-.128.382-.142a.024.024,0,0,1,.026,0c.064.065.132.125.192.194s.109.115.164.174.11.114.162.175a.625.625,0,0,1,.065.088c.035.046.068.094.1.14l.118.161c.032.045.064.093.1.137a.765.765,0,0,1,.074.117c.032.065.066.128.1.188s.048.092.072.138c.048.088.095.176.141.263.013.027.021.057.033.086.021.056.047.113.066.171.025.086.062.167.089.253.016.058.043.115.063.173a.32.32,0,0,1,.017.055.46.46,0,0,0,.011.068c.007.019.006.038.012.055s.005.033.009.048c.014.048.021.1.035.148,0,.013,0,.027.007.04s.008.025.011.037a1.522,1.522,0,0,0,.034.163.2.2,0,0,1,.006.04v.677c0,.033,0,.041-.038.054s-.043.015-.065.021-.015.012-.006.021.028.035.051.041c.006,0,.011.011.015.015.075.071.839.777.89.827,0,0,.012,0,.017.009a.155.155,0,0,1,.07.106c.007.048.393,1.464.41,1.5a.024.024,0,0,1,0,.014c-.012.011-.006.025-.006.038,0,.165,0,.33,0,.493a.105.105,0,0,0,0,.031c0,.009.013.009,0,.019-.039.038-.074.075-.112.113a.241.241,0,0,1-.04.029c-.024.013-.041,0-.061-.025a.271.271,0,0,0,0,.029c0,.017-.006.034.009.046a.2.2,0,0,1-.048.048.766.766,0,0,0-.1.094c-.026.023-.054.046-.081.071a1.036,1.036,0,0,1-.075.073,1.086,1.086,0,0,0-.105.1.026.026,0,0,1-.041,0,.167.167,0,0,1-.028-.018c-.076-.071-2.42-2.231-2.46-2.271a.088.088,0,0,0-.021-.012.284.284,0,0,1-.069-.036c-.056-.035-.112-.066-.168-.1l-.1-.06a.5.5,0,0,1-.046-.025c-.013-.011-.018-.007-.031,0a.724.724,0,0,1-.113.041c-.038.011-.075.025-.112.036s-.106.023-.157.04c-.026.006-.057,0-.084.01-.073-.006-.144.017-.216.01-.029,0-.057-.008-.085-.01a.392.392,0,0,1-.084,0c-.039-.011-.079-.008-.117-.019a.77.77,0,0,1-.114-.031c-.013,0-.03,0-.042-.011a.04.04,0,0,0-.017.009c-.053.048-.1.1-.157.144s-.1.087-.143.133c-.027,0-.034.044-.062.038a.14.14,0,0,1-.057-.038.7.7,0,0,1-.055-.054c-.082.04-.393.234-.469.288a.057.057,0,0,1-.026.015.148.148,0,0,0-.062.04.306.306,0,0,1-.157.077.489.489,0,0,1-.132.008.409.409,0,0,1-.1-.016.175.175,0,0,0-.04,0c-.012,0-.025-.008-.037-.01a.1.1,0,0,0-.025.006c-.039.015-.64.255-.71.278-.016.006-.026.013-.024.031a.216.216,0,0,1-.027.105.089.089,0,0,1-.092.062.028.028,0,0,0-.028.025c-.007.03-.013.061-.021.09a.023.023,0,0,1-.024.023h-.281v.052q0,1.842,0,3.685c0,.062,0,.062-.062.062q-.7,0-1.4,0a.16.16,0,0,1-.031,0c-.024,0-.032-.008-.033-.029V65.915Zm-5.112-1.869c-.026.023-.052.05-.076.075.028.027.058.059.088.088l.035-.025.04-.038c-.021-.021-.039-.039-.059-.056S191.308,64.065,191.306,64.046Zm11.756-.031a.057.057,0,0,1-.021.048c-.019.019-.036.039-.054.06.019.021.038.04.057.059l.009,0,.1-.086C203.122,64.069,203.093,64.044,203.062,64.015Z"/><path class="g" d="M186.563,74.656c0-2.772,1.836-4.389,3.954-4.389a3.531,3.531,0,0,1,2.514,1.091l-1,1.206a2.135,2.135,0,0,0-1.475-.667c-1.142,0-2.053,1.014-2.053,2.695,0,1.72.795,2.721,2.027,2.721a2.231,2.231,0,0,0,1.63-.784l1,1.181a3.443,3.443,0,0,1-2.708,1.232C188.335,78.942,186.563,77.466,186.563,74.656Z"/></g></svg>