<svg xmlns="http://www.w3.org/2000/svg" viewBox="0 0 300 300"><defs><style>.a{isolation:isolate;}.b,.c{fill:#e1d6bc;mix-blend-mode:multiply;}.b{fill-opacity:0.1;stroke:#e1d6bc;stroke-linecap:round;stroke-miterlimit:10;stroke-opacity:0.2;stroke-width:0.535px;}.c{opacity:0.4;}.d{fill:#231f20;}.d,.e{fill-rule:evenodd;}.e,.f{fill:#be1e2d;}</style></defs><title>tactics</title><g class="a"><circle class="b" cx="150" cy="106.643" r="93.781" transform="translate(-31.474 137.301) rotate(-45)"/><circle class="c" cx="150" cy="106.643" r="60.632" transform="translate(22.88 239.733) rotate(-81.725)"/><path class="d" d="M151.78,111.031c.018-.014,0-.045,0-.066,0-.063-.008-.125-.01-.186-.005-.172-.008-.343-.014-.514a.889.889,0,0,0-.015-.09c-.075-.039-.158-.034-.235-.066.013-.018.024-.03.034-.042a.859.859,0,0,0,.244-.544,1.271,1.271,0,0,0-.055-.521,1.312,1.312,0,0,0-.328-.565l-.1-.1.205-.075a.3.3,0,0,0,.01-.144c0-.016-.006-.032-.007-.049,0-.118-.008-.235-.015-.354-.006-.14-.014-.281-.023-.42,0-.033,0-.067,0-.1l-.007-.075a1.312,1.312,0,0,0-.36-.038c-.008-.088-.015-.177-.02-.263a.677.677,0,0,0,.042-.687.47.47,0,0,1,.165-.046c.175.222.353.445.534.674a.642.642,0,0,0,.089-.007c.066-.012.131-.03.194-.045.02,0,.041,0,.062-.007l.061.075c.058.077.09.091.181.06a.946.946,0,0,0,.178-.087c.049-.03.094-.05.148-.011a.135.135,0,0,0,.071.01c.019,0,.038,0,.064-.006.036.043.074.09.109.136l.583.761.787,1.026c.193.249.387.5.576.748a.143.143,0,0,0,.16.056.3.3,0,0,0,.153-.087.148.148,0,0,0,.015-.221c-.155-.2-.308-.4-.459-.6-.237-.31-.471-.622-.706-.932q-.413-.546-.827-1.09l-.035-.052.023-.072a.085.085,0,0,0-.013-.088c-.074-.1-.146-.195-.219-.293a.1.1,0,0,0-.086-.041.218.218,0,0,1-.071-.008.232.232,0,0,1,.039-.018c.069-.02.139-.04.21-.057a.162.162,0,0,0,.106-.078c.046-.072.094-.142.146-.215-.012-.023-.021-.046-.033-.067-.06-.1-.121-.2-.179-.306a.214.214,0,0,0-.131-.114.085.085,0,0,1-.028-.018c0-.04,0-.077,0-.113a.146.146,0,0,1,.02-.069c.045-.067.095-.131.14-.2a.6.6,0,0,0,.091-.427,1.128,1.128,0,0,0-.319-.621,1.505,1.505,0,0,0-.556-.377,1.058,1.058,0,0,0-.586-.06l-.041.006c-.074-.053-.1-.147-.18-.207a2.1,2.1,0,0,0-.291.148.714.714,0,0,0-.418.27l-.037-.021a.334.334,0,0,0-.034-.023c-.08.011-.142.071-.225.092a.338.338,0,0,1-.024-.041c-.029-.064-.056-.129-.083-.194a.112.112,0,0,1-.011-.047.509.509,0,0,0-.093-.291c-.01-.016-.019-.032-.031-.053a.279.279,0,0,1,.041-.03.728.728,0,0,0,.333-.259c.058-.074.13-.132.186-.2a1.237,1.237,0,0,1,.087-.091.22.22,0,0,0,.018-.028,10.447,10.447,0,0,0-.677-.912.5.5,0,0,0-.057.028l-.3.187c-.026.016-.054.029-.087.047,0-.094.009-.178.014-.261h-.007a.492.492,0,0,0,.021-.065.126.126,0,0,0-.051-.135,2.289,2.289,0,0,0-1.1-.463,2.227,2.227,0,0,0-1.24.17c-.025.012-.049.022-.074.032a.1.1,0,0,0-.071.117c0,.026.006.054.008.081a2.6,2.6,0,0,0-.043.308c-.024,0-.047,0-.069-.006-.206-.033-.414-.066-.619-.1a.163.163,0,0,0-.15.026l-.19-.149c-.024.019-.044.035-.063.053-.141.13-.282.263-.423.394s-.26.239-.389.358c-.007.051-.013.1-.016.149-.009.133-.017.264-.023.4,0,.077-.009.154-.013.23a.081.081,0,0,0,.045.075c.033.023.063.047.1.076-.049.044-.09.084-.132.122l-.266.236a.1.1,0,0,0-.037.075c-.007.132-.017.263-.025.395,0,.055-.009.108-.012.161,0,.021,0,.042,0,.064.033.025.064.048.1.076l-.037.042-.3.254a.138.138,0,0,0-.043.1c-.01.143-.024.288-.035.432-.01.126-.018.253-.027.378a.1.1,0,0,0,.059.105c.088.049.17.1.257.154a.369.369,0,0,0,.064.03.785.785,0,0,0,.072-.042c.009.046.017.086.023.126a.074.074,0,0,1-.036.062c-.059.047-.118.1-.18.143a.191.191,0,0,0-.086.173c0,.094-.012.189-.019.292a.337.337,0,0,0,.048.039c.081.048.166.1.249.142.012.008.023.018.04.028.013.069.025.142.038.219l.128.075.082.046a.079.079,0,0,0,.1-.006c.035-.027.071-.05.11-.077l.251.143a.223.223,0,0,0-.022.18,1.821,1.821,0,0,0,.253.143c.038-.026.07-.046.1-.07.075-.053.146-.11.22-.161a.165.165,0,0,0,.076-.117c.023-.119.05-.239.073-.359a.151.151,0,0,1,.072-.11c.052-.032.1-.074.151-.109a.17.17,0,0,1,.078-.034c.193-.011.388-.018.584-.026.017,0,.035,0,.064,0-.035.059-.067.111-.1.164l-.153.016-.064-.045a.3.3,0,0,0-.24-.06c-.023,0-.045.007-.068.008a.3.3,0,0,0-.25.152.431.431,0,0,0,.139.6.264.264,0,0,1,.036.029c-.085.04-.17,0-.256.034,0,.036,0,.077-.01.117s-.011.077-.017.121l-.139.015a.464.464,0,0,0-.025.159c-.007.126-.009.252-.015.379-.008.165-.017.331-.026.5,0,.064-.007.128-.009.192a.478.478,0,0,0,0,.073c.1.039.2.058.3.1-.021,0-.041,0-.063,0a.135.135,0,0,0-.125.067,2.277,2.277,0,0,0-.267.525c-.032.1-.058.2-.088.3,0,.016-.008.032-.012.045a.154.154,0,0,1-.106.016c-.122,0-.15.021-.167.142a1.428,1.428,0,0,0-.018.452c.011.064.017.131.031.2s.041.073.107.066c.042,0,.088,0,.136-.006a.617.617,0,0,1,.023.069,2.062,2.062,0,0,0,.208.59.389.389,0,0,1,.04.241,1.742,1.742,0,0,0-.006.217.183.183,0,0,0,.03.079l.4.679c.034.053.065.106.1.159a.452.452,0,0,0,.06,0c.143-.01.284-.023.427-.033.083-.006.168-.009.254-.015s.18-.015.272-.021.174-.013.259-.017.093-.013.1-.093c.007-.12.016-.239.024-.358l.025-.446c.006-.078.01-.156.016-.252a2.44,2.44,0,0,0,.315-.881c.029,0,.054-.008.077-.009.069-.005.105-.024.125-.091a.723.723,0,0,0,.034-.157,1.094,1.094,0,0,0-.024-.407.339.339,0,0,0-.041-.091.115.115,0,0,0-.131-.058.165.165,0,0,1-.045,0c-.036-.126-.068-.249-.11-.37s-.1-.232-.148-.355c.118-.033.238-.022.358-.051.022-.16.021-.321.034-.48s.019-.322.029-.487c.026-.006.047-.015.07-.018l.227-.027c.023,0,.042-.015.067-.022v-.168a.582.582,0,0,1,.171-.014c.031.186.018.373.052.555a.735.735,0,0,0,.088.024c.086.018.174.034.261.053.044.009.046.012.048.059l-.038.013a.918.918,0,0,0-.34.149.428.428,0,0,0-.055.049.376.376,0,0,1-.181.115l-.154.057a1.349,1.349,0,0,0,.011.248c.027.01.048.019.073.027a.487.487,0,0,1-.01.17c-.006.055.007.113-.031.154v.143a.121.121,0,0,0,.054.12l.18.455c-.017.011-.033.025-.053.039,0,.01,0,.021,0,.03a3.045,3.045,0,0,0,.026.346c.022.134.024.267.034.4,0,.051.015.065.076.081.149.038.3.075.446.116.416.107.831.216,1.246.324a.159.159,0,0,0,.136-.014c.172-.113.345-.223.517-.334C151.737,111.065,151.755,111.048,151.78,111.031Zm-1.025-5.172c.024.019-.009.05-.015.077-.045.007-.085.011-.124.02s-.075.023-.126.039c.013-.043.026-.074.032-.105a.127.127,0,0,1,.138-.107Z"/><circle class="b" cx="150" cy="150.592" r="93.781" transform="translate(-62.551 150.174) rotate(-45)"/><circle class="c" cx="150" cy="150.592" r="60.632" transform="translate(-62.551 150.174) rotate(-45)"/><path class="d" d="M151.78,154.98c.018-.012,0-.043,0-.065,0-.063-.008-.125-.01-.186-.005-.172-.008-.344-.014-.514a.844.844,0,0,0-.015-.09c-.075-.039-.158-.034-.235-.066a.334.334,0,0,1,.034-.041.866.866,0,0,0,.244-.545,1.278,1.278,0,0,0-.055-.522,1.309,1.309,0,0,0-.328-.564l-.1-.1c.076-.028.143-.051.205-.075a.3.3,0,0,0,.01-.143c0-.017-.006-.034-.007-.05,0-.117-.008-.235-.015-.354-.006-.14-.014-.281-.023-.421,0-.032,0-.067,0-.1s0-.045-.007-.074a1.239,1.239,0,0,0-.36-.038c-.008-.09-.015-.178-.02-.264a.675.675,0,0,0,.042-.686.431.431,0,0,1,.165-.046l.534.673a.642.642,0,0,0,.089-.007c.066-.013.131-.03.194-.045.02,0,.041,0,.062-.007.022.027.042.05.061.075.058.077.09.092.181.061a1.091,1.091,0,0,0,.178-.088c.049-.03.094-.05.148-.011a.126.126,0,0,0,.071.01.411.411,0,0,0,.064-.006c.036.043.074.09.109.136l.583.761.787,1.026c.193.25.387.5.576.749a.144.144,0,0,0,.16.054.3.3,0,0,0,.153-.086.148.148,0,0,0,.015-.221c-.155-.2-.308-.4-.459-.6-.237-.31-.471-.622-.706-.932q-.413-.544-.827-1.09l-.035-.052.023-.071a.087.087,0,0,0-.013-.089c-.074-.1-.146-.2-.219-.294a.1.1,0,0,0-.086-.04.194.194,0,0,1-.071-.008.232.232,0,0,1,.039-.018c.069-.02.139-.04.21-.057a.162.162,0,0,0,.106-.078c.046-.072.094-.141.146-.214-.012-.023-.021-.047-.033-.068-.06-.1-.121-.2-.179-.306a.214.214,0,0,0-.131-.114.085.085,0,0,1-.028-.018c0-.04,0-.077,0-.113a.139.139,0,0,1,.02-.068c.045-.067.095-.132.14-.2a.6.6,0,0,0,.091-.428,1.129,1.129,0,0,0-.319-.62,1.5,1.5,0,0,0-.556-.376,1.058,1.058,0,0,0-.586-.061l-.041.006c-.074-.053-.1-.147-.18-.207a2.1,2.1,0,0,0-.291.148.719.719,0,0,0-.418.27l-.037-.021a.334.334,0,0,0-.034-.023c-.08.011-.142.071-.225.093-.009-.015-.017-.028-.024-.042-.029-.064-.056-.129-.083-.193a.12.12,0,0,1-.011-.048.511.511,0,0,0-.093-.291c-.01-.016-.019-.032-.031-.053a.174.174,0,0,1,.041-.029.744.744,0,0,0,.333-.26c.058-.073.13-.132.186-.2.026-.032.057-.059.087-.091a.22.22,0,0,0,.018-.028,10.447,10.447,0,0,0-.677-.912.384.384,0,0,0-.057.029c-.1.061-.2.124-.3.186-.026.016-.054.029-.087.047,0-.095.009-.178.014-.261h-.007a.531.531,0,0,0,.021-.064.125.125,0,0,0-.051-.135,2.272,2.272,0,0,0-1.1-.464,2.236,2.236,0,0,0-1.24.17l-.074.033a.1.1,0,0,0-.071.116c0,.027.006.054.008.081a2.627,2.627,0,0,0-.043.308c-.024,0-.047,0-.069-.006-.206-.032-.414-.066-.619-.1a.16.16,0,0,0-.15.027l-.19-.151c-.024.02-.044.036-.063.054-.141.13-.282.263-.423.394s-.26.239-.389.358c-.007.051-.013.1-.016.149-.009.133-.017.264-.023.4,0,.076-.009.153-.013.229a.083.083,0,0,0,.045.076c.033.023.063.046.1.075l-.132.122c-.089.079-.176.158-.266.236a.1.1,0,0,0-.037.074c-.007.133-.017.264-.025.4,0,.055-.009.108-.012.162,0,.021,0,.041,0,.062l.1.077c-.014.015-.025.03-.037.041-.1.085-.2.171-.3.254a.143.143,0,0,0-.043.1c-.01.145-.024.289-.035.433-.01.126-.018.253-.027.378a.1.1,0,0,0,.059.1c.088.049.17.1.257.154a.369.369,0,0,0,.064.03.785.785,0,0,0,.072-.042c.009.046.017.087.023.127a.071.071,0,0,1-.036.06c-.059.048-.118.1-.18.144a.191.191,0,0,0-.086.173c0,.095-.012.189-.019.291a.283.283,0,0,0,.048.04c.081.048.166.1.249.142l.04.028c.013.07.025.143.038.218l.128.076c.027.016.055.03.082.045a.078.078,0,0,0,.1-.005c.035-.026.071-.05.11-.077l.251.143a.221.221,0,0,0-.022.179,1.642,1.642,0,0,0,.253.144c.038-.027.07-.046.1-.07.075-.053.146-.109.22-.161a.165.165,0,0,0,.076-.117c.023-.119.05-.239.073-.359a.147.147,0,0,1,.072-.109c.052-.033.1-.075.151-.11a.181.181,0,0,1,.078-.034c.193-.011.388-.019.584-.026.017,0,.035,0,.064,0-.035.059-.067.111-.1.164l-.153.015-.064-.044a.3.3,0,0,0-.24-.06c-.023,0-.045.007-.068.008a.3.3,0,0,0-.25.152.431.431,0,0,0,.139.6.264.264,0,0,1,.036.029c-.085.04-.17,0-.256.034,0,.036,0,.077-.01.117s-.011.077-.017.121l-.139.015a.464.464,0,0,0-.025.159c-.007.126-.009.252-.015.379-.008.165-.017.331-.026.5,0,.064-.007.128-.009.193a.485.485,0,0,0,0,.072c.1.039.2.058.3.1-.021,0-.041,0-.063,0a.135.135,0,0,0-.125.067,2.3,2.3,0,0,0-.267.526c-.032.1-.058.2-.088.3l-.012.046a.159.159,0,0,1-.106.015c-.122,0-.15.021-.167.142a1.429,1.429,0,0,0-.018.452c.011.064.017.131.031.195s.041.073.107.067a1.166,1.166,0,0,1,.136-.007.617.617,0,0,1,.023.069,2.062,2.062,0,0,0,.208.59.391.391,0,0,1,.04.242,1.726,1.726,0,0,0-.006.216.183.183,0,0,0,.03.079l.4.679c.034.053.065.1.1.159.023,0,.042.006.06.005.143-.011.284-.024.427-.034.083-.007.168-.009.254-.015l.272-.022c.086-.006.174-.012.259-.016s.093-.013.1-.093c.007-.12.016-.238.024-.359l.025-.445c.006-.077.01-.157.016-.252a2.433,2.433,0,0,0,.315-.881c.029,0,.054-.008.077-.009.069,0,.105-.024.125-.09a.74.74,0,0,0,.034-.159,1.09,1.09,0,0,0-.024-.406.326.326,0,0,0-.041-.091.115.115,0,0,0-.131-.058.165.165,0,0,1-.045,0c-.036-.126-.068-.25-.11-.37s-.1-.232-.148-.354c.118-.033.238-.023.358-.052.022-.16.021-.321.034-.481s.019-.321.029-.486a.557.557,0,0,1,.07-.018l.227-.027a.522.522,0,0,0,.067-.022v-.167a.583.583,0,0,1,.171-.015c.031.186.018.372.052.555a.735.735,0,0,0,.088.024c.086.019.174.033.261.053.044.009.046.011.048.06l-.038.012a.933.933,0,0,0-.34.148.527.527,0,0,0-.055.05.376.376,0,0,1-.181.115c-.05.017-.1.038-.154.057a1.349,1.349,0,0,0,.011.248c.027.01.048.019.073.027a.487.487,0,0,1-.01.17c-.006.054.007.113-.031.154v.143a.121.121,0,0,0,.054.12l.18.455c-.017.011-.033.025-.053.038,0,.011,0,.021,0,.032a3.045,3.045,0,0,0,.026.345c.022.134.024.266.034.4,0,.051.015.065.076.081.149.038.3.076.446.116.416.106.831.216,1.246.324a.159.159,0,0,0,.136-.014c.172-.113.345-.223.517-.333C151.737,155.015,151.755,155,151.78,154.98Zm-1.025-5.171c.024.019-.009.05-.015.077-.045.007-.085.011-.124.019s-.075.024-.126.04c.013-.043.026-.074.032-.1a.126.126,0,0,1,.138-.107Z"/><circle class="b" cx="150" cy="194.543" r="93.781" transform="translate(-65.674 312.15) rotate(-80.97)"/><circle class="c" cx="150" cy="194.543" r="60.632" transform="translate(-65.639 312.215) rotate(-80.987)"/><path class="d" d="M151.78,198.93c.018-.012,0-.043,0-.065,0-.063-.008-.125-.01-.185-.005-.172-.008-.345-.014-.515a.909.909,0,0,0-.015-.091c-.075-.038-.158-.033-.235-.065a.334.334,0,0,1,.034-.041.866.866,0,0,0,.244-.545,1.278,1.278,0,0,0-.055-.522,1.307,1.307,0,0,0-.328-.565c-.031-.031-.062-.064-.1-.1.076-.028.143-.051.205-.075a.3.3,0,0,0,.01-.143c0-.017-.006-.034-.007-.05,0-.117-.008-.235-.015-.354-.006-.139-.014-.281-.023-.42,0-.033,0-.067,0-.1s0-.045-.007-.074a1.239,1.239,0,0,0-.36-.038c-.008-.089-.015-.178-.02-.264a.677.677,0,0,0,.042-.687.449.449,0,0,1,.165-.045l.534.673a.642.642,0,0,0,.089-.007c.066-.013.131-.03.194-.045a.42.42,0,0,1,.062-.007l.061.075c.058.077.09.091.181.06a.946.946,0,0,0,.178-.087c.049-.03.094-.05.148-.011a.135.135,0,0,0,.071.01.411.411,0,0,0,.064-.006c.036.043.074.09.109.136l.583.76q.393.515.787,1.027c.193.249.387.5.576.749a.144.144,0,0,0,.16.054.3.3,0,0,0,.153-.087.147.147,0,0,0,.015-.22c-.155-.2-.308-.4-.459-.6-.237-.309-.471-.621-.706-.931q-.413-.544-.827-1.09l-.035-.051c.008-.028.016-.05.023-.072a.087.087,0,0,0-.013-.089c-.074-.1-.146-.2-.219-.294a.1.1,0,0,0-.086-.04.218.218,0,0,1-.071-.008.354.354,0,0,1,.039-.019l.21-.057a.159.159,0,0,0,.106-.076c.046-.072.094-.142.146-.216-.012-.022-.021-.046-.033-.067-.06-.1-.121-.2-.179-.306a.214.214,0,0,0-.131-.114.071.071,0,0,1-.028-.018c0-.04,0-.077,0-.113a.139.139,0,0,1,.02-.068c.045-.067.095-.132.14-.2a.594.594,0,0,0,.091-.427,1.136,1.136,0,0,0-.319-.62,1.491,1.491,0,0,0-.556-.376,1.058,1.058,0,0,0-.586-.061l-.041.005c-.074-.052-.1-.147-.18-.206a2.208,2.208,0,0,0-.291.147.721.721,0,0,0-.418.271l-.037-.021a.334.334,0,0,0-.034-.023c-.08.011-.142.071-.225.091a.326.326,0,0,1-.024-.04c-.029-.064-.056-.129-.083-.195a.1.1,0,0,1-.011-.046.517.517,0,0,0-.093-.292c-.01-.015-.019-.031-.031-.052a.21.21,0,0,1,.041-.029.732.732,0,0,0,.333-.261c.058-.074.13-.132.186-.2a1.237,1.237,0,0,1,.087-.091.167.167,0,0,0,.018-.028,10.447,10.447,0,0,0-.677-.912.48.48,0,0,0-.057.027c-.1.063-.2.126-.3.188-.026.016-.054.03-.087.047,0-.095.009-.178.014-.262h-.007c.007-.022.017-.044.021-.064a.127.127,0,0,0-.051-.136,2.28,2.28,0,0,0-1.1-.463,2.236,2.236,0,0,0-1.24.17c-.025.012-.049.022-.074.032a.1.1,0,0,0-.071.117c0,.027.006.054.008.08a2.688,2.688,0,0,0-.043.308c-.024,0-.047,0-.069,0-.206-.032-.414-.066-.619-.1a.158.158,0,0,0-.15.027l-.19-.151c-.024.021-.044.036-.063.054-.141.13-.282.263-.423.393s-.26.238-.389.36c-.007.05-.013.1-.016.148-.009.131-.017.264-.023.4,0,.077-.009.153-.013.23a.084.084,0,0,0,.045.076c.033.023.063.046.1.075-.049.044-.09.084-.132.122-.089.08-.176.157-.266.235a.1.1,0,0,0-.037.075c-.007.133-.017.264-.025.4,0,.054-.009.106-.012.16,0,.022,0,.042,0,.063.033.025.064.048.1.077-.014.015-.025.03-.037.041l-.3.255a.139.139,0,0,0-.043.1c-.01.145-.024.289-.035.433-.01.126-.018.252-.027.379a.1.1,0,0,0,.059.1c.088.049.17.1.257.155a.46.46,0,0,0,.064.03l.072-.042c.009.045.017.085.023.126a.074.074,0,0,1-.036.061c-.059.047-.118.1-.18.143a.191.191,0,0,0-.086.173c0,.095-.012.189-.019.291a.338.338,0,0,0,.048.04c.081.048.166.095.249.142l.04.028c.013.07.025.142.038.219l.128.075.082.045a.078.078,0,0,0,.1,0c.035-.026.071-.05.11-.077l.251.143a.221.221,0,0,0-.022.179,1.642,1.642,0,0,0,.253.144c.038-.027.07-.046.1-.071.075-.052.146-.109.22-.16a.167.167,0,0,0,.076-.117c.023-.119.05-.239.073-.36a.147.147,0,0,1,.072-.108c.052-.034.1-.075.151-.109a.172.172,0,0,1,.078-.035c.193-.011.388-.019.584-.026.017,0,.035,0,.064,0-.035.059-.067.11-.1.164-.051,0-.1.011-.153.015l-.064-.044a.3.3,0,0,0-.24-.06c-.023,0-.045.007-.068.008a.3.3,0,0,0-.25.152.431.431,0,0,0,.139.6.2.2,0,0,1,.036.029c-.085.04-.17,0-.256.034,0,.036,0,.077-.01.117s-.011.077-.017.121l-.139.015a.464.464,0,0,0-.025.159c-.007.126-.009.252-.015.379-.008.164-.017.331-.026.5,0,.065-.007.129-.009.192a.517.517,0,0,0,0,.075c.1.037.2.057.3.1-.021,0-.041,0-.063,0a.137.137,0,0,0-.125.067,2.284,2.284,0,0,0-.267.526c-.032.1-.058.2-.088.3l-.012.046a.159.159,0,0,1-.106.015c-.122,0-.15.022-.167.142a1.423,1.423,0,0,0-.018.451c.011.065.017.132.031.2s.041.073.107.067a1.166,1.166,0,0,1,.136-.007.556.556,0,0,1,.023.069,2.073,2.073,0,0,0,.208.59.387.387,0,0,1,.04.241,1.753,1.753,0,0,0-.006.217.183.183,0,0,0,.03.079l.4.679c.034.053.065.1.1.158a.486.486,0,0,0,.06.006c.143-.011.284-.024.427-.034.083-.007.168-.009.254-.015l.272-.022c.086-.007.174-.012.259-.016s.093-.014.1-.093c.007-.12.016-.238.024-.359l.025-.445c.006-.077.01-.157.016-.252a2.44,2.44,0,0,0,.315-.881c.029,0,.054-.008.077-.009.069,0,.105-.024.125-.09a.74.74,0,0,0,.034-.159,1.09,1.09,0,0,0-.024-.406.339.339,0,0,0-.041-.091.113.113,0,0,0-.131-.057.225.225,0,0,1-.045,0c-.036-.126-.068-.25-.11-.37s-.1-.232-.148-.354c.118-.034.238-.023.358-.052.022-.16.021-.321.034-.481s.019-.321.029-.486a.557.557,0,0,1,.07-.018l.227-.027a.522.522,0,0,0,.067-.022v-.167a.583.583,0,0,1,.171-.015c.031.186.018.372.052.555l.088.024.261.052c.044.01.046.012.048.06l-.038.013a.933.933,0,0,0-.34.148.527.527,0,0,0-.055.05.376.376,0,0,1-.181.115c-.05.017-.1.037-.154.057a1.349,1.349,0,0,0,.011.248c.027.01.048.019.073.027a.485.485,0,0,1-.01.17c-.006.055.007.113-.031.154v.143a.121.121,0,0,0,.054.12c.062.156.12.3.18.454-.017.012-.033.026-.053.039,0,.011,0,.022,0,.031a3.045,3.045,0,0,0,.026.346c.022.134.024.266.034.4,0,.051.015.065.076.081l.446.115,1.246.325a.153.153,0,0,0,.136-.015c.172-.112.345-.222.517-.333C151.737,198.965,151.755,198.948,151.78,198.93Zm-1.025-5.171c.024.018-.009.05-.015.077-.045.007-.085.011-.124.019s-.075.024-.126.039c.013-.042.026-.073.032-.1a.127.127,0,0,1,.138-.107C150.687,193.705,150.72,193.73,150.755,193.759Z"/><path class="e" d="M226.459,151.993h-.265c-.024,0-.031,0-.039-.028s-.015-.054-.021-.081-.006-.024-.017-.027c-.061-.016-.07-.069-.086-.117,0-.014-.015-.03-.011-.047s-.012-.032-.031-.04-.037-.017-.057-.025-.024,0-.033.018c-.016.041-.03.084-.049.126a.621.621,0,0,1-.04.1c-.006.009-.008.013-.018.012-.027,0-.059.011-.085-.01h-.015c-.038,0-.039,0-.051.038-.006.02-.013.039-.021.059a.013.013,0,0,1-.011.008.109.109,0,0,1-.04,0c-.072-.03-1.307-.5-1.358-.521a.051.051,0,0,1-.021-.01c-.013-.01-.029-.018-.008-.035.005-.047.033-.084.042-.129a.039.039,0,0,0,0-.043.345.345,0,0,1-.062-.126l-.012-.042c-.044.039-.044.038-.087,0-.061-.059-.121-.119-.185-.174a.963.963,0,0,1-.11-.1.05.05,0,0,0-.056-.015c-.03.009-.061.013-.09.023a.226.226,0,0,1-.071.015.348.348,0,0,1-.112.014,1.226,1.226,0,0,1-.257.009.176.176,0,0,1-.087-.008c-.024-.011-.056,0-.083-.011s-.042.008-.059-.011a.474.474,0,0,1-.149-.033c-.041-.009-.08-.025-.121-.037a.348.348,0,0,1-.063-.026.052.052,0,0,0-.063,0c-.044.024-.3.188-.323.2a.325.325,0,0,0-.111.075c-.073.066-2.41,2.22-2.452,2.257-.037-.034-.371-.343-.409-.377a.047.047,0,0,1-.018-.045v-.054c-.049.043-.048.042-.092,0s-.079-.072-.118-.108c-.01-.009-.015-.016,0-.03s0-.023,0-.035c0-.163,0-.325,0-.488,0-.022-.013-.041,0-.065a.286.286,0,0,0,.019-.071c0-.023.1-.362.111-.416s.27-.987.28-1.032a.061.061,0,0,1,.012-.027.915.915,0,0,1,.126-.115l.008-.007c.07-.068,1.9-1.758,1.946-1.8.009-.007.02-.011.028-.018a.016.016,0,0,1,.023,0c.02.019.042.035.062.052s.031.034.049.048.041.034.066.055c0-.052,0-.1,0-.15a1.806,1.806,0,0,0,.01-.2.027.027,0,0,1,.008-.017c.016-.012.014-.022,0-.038a.09.09,0,0,1-.006-.077.629.629,0,0,1,.109-.212c.026-.039.06-.074.089-.11s.061-.08.09-.12a.115.115,0,0,1,.021-.023c.048-.048.094-.1.145-.144a1.453,1.453,0,0,1,.2-.146,1.355,1.355,0,0,1,.173-.09,1.577,1.577,0,0,1,.225-.079c.057-.014.115-.026.173-.038a.7.7,0,0,1,.183-.013.079.079,0,0,0,.051-.008.055.055,0,0,1,.05,0c.017.012.036.006.053.008a.314.314,0,0,0,.187-.043c.041-.019.084-.031.126-.05s.1-.037.154-.059a.781.781,0,0,1,.139-.046c.049-.012.1-.028.146-.039.031-.007.063-.018.095-.023a.1.1,0,0,1,.1.029l0,0c.044.015.047.051.044.091s-.02.038-.03.055c-.041.061-.088.117-.128.178a1.356,1.356,0,0,1-.09.118c.038.025.077.053.115.079a1.166,1.166,0,0,1,.156.133,1.643,1.643,0,0,1,.192.225c.008.01.008.025.016.035a.872.872,0,0,1,.109.207,1.3,1.3,0,0,1,.049.153c.013.042.017.086.029.129a.485.485,0,0,1,.011.127c0,.08,0,.161,0,.241,0,.052-.012.1-.01.153-.023.025,0,.061-.021.086.013.036,0,.079.038.109.075.067.147.137.224.209v-.042c0-.086,0-.172,0-.257a.405.405,0,0,1,.078-.246.569.569,0,0,1,.06-.07c.052-.055.1-.108.158-.16.025-.021.037-.057.078-.056.012-.04.054-.045.08-.069a.6.6,0,0,1,.088-.056l.065-.043c.018-.009.044-.011.046-.039a.551.551,0,0,1,.075-.033c.017,0,.017-.011.017-.023v-.23h-.186c-.027,0-.033-.008-.034-.034v-.257c0-.033,0-.03-.032-.045-.071-.036-.149-.055-.221-.089a1.2,1.2,0,0,0-.123-.047c-.013,0-.023-.011-.023-.028v-.257c0-.018.01-.024.027-.031.052-.017.1-.039.154-.058a.04.04,0,0,0,.03-.045c0-.07,0-.84,0-1.153,0-.049,0-.051-.046-.065l-.05-.021-.008-.014c0-.013-.005-.017-.017-.018a.124.124,0,0,1-.029-.01.155.155,0,0,0-.058-.024c0-.02,0-.041,0-.062v-.419c0-.019,0-.035.026-.03.089-.045.185-.068.273-.114.083-.018.155-.067.238-.086.015,0,.021-.015.021-.031s0-.059,0-.089c0-.087,0-.175,0-.262a.047.047,0,0,1,.013-.036c.039-.037.072-.078.113-.11s.088-.088.138-.126.095-.1.146-.138.1-.09.144-.134a.315.315,0,0,1,.033-.022c.031-.022.032-.022.057,0s.057.054.083.082a.1.1,0,0,0,.08.034q.7,0,1.4,0a.094.094,0,0,0,.073-.029l.092-.093c.021-.02.023-.018.047,0a.775.775,0,0,1,.1.089c.064.061.126.126.193.181.049.04.088.089.137.126s.088.086.135.127a.081.081,0,0,1,.029.068c0,.1,0,.206,0,.31a.093.093,0,0,0,.042.087.346.346,0,0,1,.074.074.855.855,0,0,1,.089.121.772.772,0,0,1,.051.1c.027.056.042.116.065.173.008.023,0,.049.017.067a1.475,1.475,0,0,1,.021.174,1.273,1.273,0,0,1,.01.269,1.13,1.13,0,0,0-.01.142.1.1,0,0,0-.01.064.412.412,0,0,1-.012.059c-.008.049-.02.1-.033.148a1.479,1.479,0,0,1-.06.2c-.016.04-.031.082-.047.122-.026.058-.053.115-.08.172-.009.02-.024.039-.035.058a.159.159,0,0,1-.009.02h.06c.008.046.011.75,0,.913h-.082v.111c0,.035,0,.07,0,.1s0,.036.028.041a.082.082,0,0,1,.038.02c.01.009.029.007.031.027s.015.01.025.015a1.322,1.322,0,0,1,.182.119.409.409,0,0,0,.054.033l.018.007c0,.006-.007.011-.006.015s.009.011.009.011c.022-.013.029.007.037.017.071.07.142.142.213.211a.517.517,0,0,1,.115.2v.01c0,.055.015.109.013.164s0,.1,0,.166c.054-.05.1-.094.144-.136.017-.015.035-.027.052-.042a.061.061,0,0,0,.024-.058c0-.019.01-.036.01-.052a.382.382,0,0,0-.015-.067l0-.009c.007-.038-.013-.073-.012-.111,0-.1,0-.2,0-.3a.528.528,0,0,1,.012-.126.966.966,0,0,1,.022-.107.908.908,0,0,1,.029-.1,1.372,1.372,0,0,1,.136-.284c.027-.044.06-.082.085-.127l.009-.008a1.782,1.782,0,0,1,.126-.135,1.453,1.453,0,0,1,.21-.165c.01-.006.018-.018.028-.02.027-.008.01-.015.005-.027a.1.1,0,0,0-.018-.03c-.041-.053-.081-.107-.12-.16-.025-.035-.048-.071-.076-.1a.127.127,0,0,1-.017-.087l0-.009a.194.194,0,0,1,.109-.075.16.16,0,0,1,.063.012c.063.017.125.036.189.051a1.192,1.192,0,0,1,.2.066c.068.03.139.054.209.081a.506.506,0,0,1,.128.057.025.025,0,0,0,.02,0c.038-.021.08,0,.125-.013v-.316a.056.056,0,0,0-.021-.054.074.074,0,0,1-.031-.076c0-.059,0-.119,0-.178a.059.059,0,0,1,.021-.05c.031-.03.712-.67.758-.7s.055-.058.1-.069.348-.126.382-.141c.013-.006.018,0,.026,0,.064.064.133.125.192.194s.109.115.164.173.11.115.162.175a.679.679,0,0,1,.065.087l.1.141c.039.054.079.107.118.162l.1.138a.583.583,0,0,1,.075.115c.031.065.065.127.1.189.025.045.048.092.072.138.048.088.095.174.141.262.013.027.022.057.033.086.021.057.047.114.066.172.025.085.063.167.089.252.017.058.044.114.064.173a.458.458,0,0,1,.016.056.4.4,0,0,0,.012.068c.006.018.005.037.011.053s0,.034.01.049c.013.049.021.1.034.148,0,.014,0,.027.007.039s.009.025.011.038c.01.055.019.11.034.164a.178.178,0,0,1,.007.039v.677c0,.034-.006.043-.039.054s-.043.015-.065.02-.014.015-.006.022.028.036.051.043c.006,0,.012.009.016.013.074.071.838.777.889.827a.14.14,0,0,0,.017.009.152.152,0,0,1,.07.106c.007.049.394,1.464.411,1.5l0,.015c-.012.012-.006.026-.006.039,0,.165,0,.329,0,.493a.108.108,0,0,0,0,.031c0,.007.014.009,0,.019-.038.037-.074.075-.112.111a.185.185,0,0,1-.039.03c-.024.013-.042,0-.062-.025a.265.265,0,0,0,0,.029c0,.017-.006.035.01.047a.363.363,0,0,1-.048.048.712.712,0,0,0-.1.094c-.026.023-.054.046-.08.07a.737.737,0,0,1-.075.073,1.1,1.1,0,0,0-.106.1.027.027,0,0,1-.041,0c-.008-.007-.021-.011-.028-.019-.076-.071-2.419-2.231-2.46-2.27a.055.055,0,0,0-.021-.012.452.452,0,0,1-.069-.036c-.055-.035-.112-.068-.168-.1l-.1-.06a.342.342,0,0,1-.046-.026c-.013-.01-.018-.006-.03,0a.747.747,0,0,1-.114.044c-.038.009-.074.024-.112.034s-.1.023-.157.039c-.026.007-.057,0-.084.012-.072-.008-.143.015-.215.01-.029,0-.058-.008-.086-.01a.458.458,0,0,1-.083,0c-.04-.011-.08-.008-.117-.02a.828.828,0,0,1-.114-.03c-.014-.006-.03,0-.043-.012a.059.059,0,0,0-.017.008c-.053.048-.1.1-.156.144s-.1.089-.143.135c-.028,0-.035.043-.063.037a.14.14,0,0,1-.057-.038c-.02-.017-.037-.037-.055-.054-.081.04-.392.234-.469.288a.061.061,0,0,1-.026.015.141.141,0,0,0-.061.041.326.326,0,0,1-.158.077.532.532,0,0,1-.132.007.331.331,0,0,1-.1-.017.248.248,0,0,0-.039,0c-.013,0-.026-.009-.038-.011a.057.057,0,0,0-.025.006c-.039.015-.639.254-.709.277-.017.006-.026.014-.024.031a.237.237,0,0,1-.027.105.088.088,0,0,1-.092.063.028.028,0,0,0-.029.024c-.007.031-.013.061-.02.091a.024.024,0,0,1-.024.022h-.281v.053q0,1.842,0,3.683c0,.064,0,.063-.063.063h-1.4c-.009,0-.02,0-.03,0s-.033-.008-.034-.029v-3.769Zm-5.111-1.869c-.027.024-.053.051-.077.075l.088.089.035-.027a.448.448,0,0,0,.04-.036c-.021-.021-.038-.04-.058-.058S221.35,150.143,221.348,150.124Zm11.755-.032a.055.055,0,0,1-.021.049.757.757,0,0,0-.053.06c.018.021.037.04.056.06h.009l.1-.085C233.163,150.147,233.134,150.122,233.1,150.092Z"/><path class="f" d="M218.671,156.5h2.271l2.618,8.367h-2l-.513-1.989h-2.554l-.513,1.989h-1.925Zm.205,4.9h1.784l-.192-.769c-.232-.835-.463-1.822-.681-2.7h-.051c-.206.885-.423,1.86-.655,2.7Z"/><path class="e" d="M176.6,151.292h-.266c-.024,0-.031,0-.038-.028a.554.554,0,0,1-.021-.08c0-.015-.006-.025-.018-.028-.06-.016-.07-.069-.085-.117a.094.094,0,0,1-.012-.047c0-.025-.011-.032-.03-.039l-.058-.026c-.015-.006-.024,0-.032.018-.017.042-.03.084-.049.126a.625.625,0,0,1-.041.1c0,.01-.007.014-.018.012-.027,0-.058.011-.084-.01h-.016c-.037,0-.038,0-.05.037a.6.6,0,0,1-.022.059.013.013,0,0,1-.01.009.133.133,0,0,1-.04,0c-.072-.03-1.307-.506-1.359-.522a.078.078,0,0,1-.021-.009c-.012-.01-.029-.019-.008-.036,0-.046.034-.084.043-.129a.042.042,0,0,0,0-.042.378.378,0,0,1-.063-.127l-.011-.042c-.044.039-.044.038-.087,0-.062-.059-.121-.119-.186-.173a1.165,1.165,0,0,1-.109-.1.048.048,0,0,0-.057-.015c-.029.009-.06.012-.09.023a.255.255,0,0,1-.071.014.345.345,0,0,1-.112.014,1.1,1.1,0,0,1-.256.009.174.174,0,0,1-.087-.008c-.024-.011-.056,0-.084-.011s-.041.009-.058-.011a.447.447,0,0,1-.149-.032c-.041-.01-.081-.026-.122-.038a.37.37,0,0,1-.062-.026.054.054,0,0,0-.064,0c-.044.024-.3.188-.323.2a.324.324,0,0,0-.11.076c-.073.065-2.41,2.22-2.452,2.256l-.41-.377a.047.047,0,0,1-.017-.045v-.054c-.049.043-.048.042-.092,0s-.08-.072-.118-.108c-.011-.009-.016-.015,0-.029s0-.023,0-.036c0-.162,0-.325,0-.487,0-.022-.014-.042,0-.066a.336.336,0,0,0,.018-.071l.111-.415c.014-.045.271-.987.28-1.033a.053.053,0,0,1,.013-.027.86.86,0,0,1,.126-.115l.007-.007c.07-.067,1.9-1.757,1.947-1.8.008-.008.02-.012.028-.019a.014.014,0,0,1,.022,0c.021.018.043.034.063.052s.031.033.049.048.04.034.065.055c0-.053,0-.1,0-.15,0-.066.018-.13.011-.2a.026.026,0,0,1,.007-.017c.017-.012.015-.022,0-.038a.1.1,0,0,1-.006-.077.65.65,0,0,1,.11-.212c.026-.038.059-.073.089-.11l.089-.12.021-.023c.048-.048.094-.1.145-.144a1.462,1.462,0,0,1,.2-.146,1.343,1.343,0,0,1,.172-.09,1.548,1.548,0,0,1,.226-.079l.172-.038a.7.7,0,0,1,.184-.012.085.085,0,0,0,.05-.009.055.055,0,0,1,.05,0c.018.013.037.006.053.009a.328.328,0,0,0,.187-.043c.041-.02.085-.032.127-.051s.1-.036.153-.059a.777.777,0,0,1,.139-.045c.049-.013.1-.029.146-.039.032-.007.064-.018.095-.024a.1.1,0,0,1,.1.029l.005,0c.043.016.047.052.043.091s-.019.038-.03.056c-.041.06-.088.116-.127.178-.027.041-.061.08-.09.117.038.025.076.053.115.08a1.215,1.215,0,0,1,.155.132,1.7,1.7,0,0,1,.192.225c.009.011.009.026.016.036a.851.851,0,0,1,.11.206,1.517,1.517,0,0,1,.049.153c.012.043.017.087.028.129a.449.449,0,0,1,.012.127c0,.08,0,.161,0,.241,0,.052-.013.1-.011.153-.023.025,0,.061-.021.086.014.037.006.079.039.11.074.067.146.137.223.209v-.043c0-.086,0-.172,0-.257a.406.406,0,0,1,.079-.246.486.486,0,0,1,.059-.07c.052-.054.105-.108.159-.159.024-.022.037-.058.077-.057.013-.039.055-.045.081-.069a.589.589,0,0,1,.087-.056c.021-.014.043-.029.065-.042s.044-.012.046-.039a.381.381,0,0,1,.075-.033c.018,0,.018-.011.018-.024v-.23h-.187c-.026,0-.032-.008-.033-.034v-.257c0-.032,0-.03-.033-.045-.071-.035-.148-.055-.22-.089a1.3,1.3,0,0,0-.123-.047c-.014,0-.023-.01-.023-.028v-.257c0-.018.009-.024.027-.03.051-.018.1-.04.153-.058a.042.042,0,0,0,.031-.046c0-.069,0-.839,0-1.153,0-.048,0-.05-.046-.065a.44.44,0,0,1-.05-.021l-.009-.013c0-.014,0-.018-.016-.019a.076.076,0,0,1-.03-.01.145.145,0,0,0-.057-.024c0-.02,0-.041,0-.061v-.42c0-.019,0-.035.026-.03.089-.045.185-.068.272-.114.084-.017.156-.066.239-.086.014,0,.02-.014.02-.031s0-.059,0-.088c0-.088,0-.175,0-.263a.048.048,0,0,1,.014-.036c.039-.037.072-.078.113-.11s.087-.088.138-.126.095-.1.146-.137.1-.091.144-.134a.319.319,0,0,1,.032-.023c.032-.022.033-.022.058,0s.056.054.082.082a.1.1,0,0,0,.081.035q.7,0,1.4,0a.094.094,0,0,0,.072-.03c.03-.031.062-.062.093-.093s.023-.018.047,0a.654.654,0,0,1,.1.09c.065.06.126.125.193.18.049.04.088.09.137.127s.089.086.136.126a.081.081,0,0,1,.028.068c0,.1,0,.207,0,.31a.092.092,0,0,0,.042.088.366.366,0,0,1,.074.073,1.045,1.045,0,0,1,.089.121c.02.032.034.066.051.1.027.056.042.115.064.173.009.022,0,.048.017.066a1.466,1.466,0,0,1,.021.175,1.331,1.331,0,0,1,.011.268,1.355,1.355,0,0,0-.011.143.1.1,0,0,0-.009.063.416.416,0,0,1-.013.059c-.007.049-.02.1-.032.149a1.692,1.692,0,0,1-.061.195c-.015.041-.03.082-.047.122-.026.058-.052.115-.079.172-.01.02-.024.039-.036.058s0,.012-.009.021h.061c.008.045.011.749,0,.912h-.083v.111c0,.035,0,.07,0,.105s0,.036.028.04a.082.082,0,0,1,.038.02c.01.009.029.007.031.027s.016.01.025.015a1.211,1.211,0,0,1,.182.119.6.6,0,0,0,.054.033l.018.008s-.006.01,0,.015.008.011.008.011c.022-.013.03.007.038.016.071.07.142.142.213.211a.53.53,0,0,1,.115.2v.01c0,.055.014.109.012.164s0,.1,0,.166c.054-.05.1-.093.144-.136.017-.015.036-.027.053-.041a.065.065,0,0,0,.024-.058c0-.02.01-.036.01-.053a.311.311,0,0,0-.016-.067l0-.009c.007-.038-.012-.073-.011-.11,0-.1,0-.2,0-.3a.591.591,0,0,1,.011-.126c.006-.035.013-.072.022-.107s.018-.066.029-.1a1.482,1.482,0,0,1,.136-.284c.027-.044.061-.082.086-.127l.008-.007c.042-.046.081-.094.126-.136a1.453,1.453,0,0,1,.21-.165c.011-.006.018-.018.029-.02.027-.007.009-.015,0-.027s-.013-.019-.019-.029c-.041-.054-.08-.107-.119-.161-.025-.035-.048-.071-.076-.105a.127.127,0,0,1-.018-.087l0-.009a.19.19,0,0,1,.11-.074.14.14,0,0,1,.062.012c.063.016.126.035.189.05a1.237,1.237,0,0,1,.2.067c.068.029.139.053.209.081a.482.482,0,0,1,.127.056.023.023,0,0,0,.02,0c.039-.022.08,0,.125-.013v-.316a.058.058,0,0,0-.021-.055.074.074,0,0,1-.031-.076c0-.059,0-.119,0-.178a.058.058,0,0,1,.021-.049c.031-.03.712-.67.758-.7s.056-.058.1-.069.348-.126.383-.141a.02.02,0,0,1,.026.005c.063.064.132.124.192.194s.108.114.164.172.109.115.162.175a.681.681,0,0,1,.064.088c.036.047.069.094.1.141s.078.107.118.161.063.092.1.138a.627.627,0,0,1,.074.115c.031.065.066.128.1.19.025.045.048.092.072.138.048.087.095.173.141.261.014.027.022.057.034.086.021.058.047.114.066.172.025.085.062.167.088.252.017.058.044.115.064.173.007.018.011.037.017.056a.535.535,0,0,0,.011.068c.006.019,0,.037.012.054s0,.033.009.048c.014.049.021.1.035.149,0,.013,0,.026.007.039s.008.025.01.037c.011.055.019.11.035.164a.185.185,0,0,1,.006.039v.677c0,.034,0,.043-.039.054s-.042.015-.064.021-.015.014-.007.022.029.035.052.042c.006,0,.011.009.015.013.074.071.839.777.89.827a.068.068,0,0,0,.017.009.16.16,0,0,1,.07.106c.007.049.393,1.465.41,1.5l0,.014c-.013.012-.006.026-.006.039,0,.165,0,.329,0,.493a.087.087,0,0,0,0,.032c0,.006.013.008,0,.018-.039.037-.075.075-.112.112a.227.227,0,0,1-.04.029c-.024.013-.042,0-.061-.025a.265.265,0,0,0,0,.029c0,.017-.007.035.009.048a.266.266,0,0,1-.048.047.71.71,0,0,0-.1.094c-.027.024-.055.046-.081.07a.737.737,0,0,1-.075.073.981.981,0,0,0-.1.1.027.027,0,0,1-.041,0c-.009-.007-.021-.011-.028-.018-.077-.072-2.42-2.232-2.461-2.271a.061.061,0,0,0-.021-.012.3.3,0,0,1-.068-.036c-.056-.035-.112-.067-.169-.1-.032-.02-.063-.041-.1-.06-.014-.009-.032-.016-.046-.027s-.017,0-.03,0a.626.626,0,0,1-.114.044c-.037.01-.074.024-.111.035-.053.013-.106.023-.157.038-.026.007-.058,0-.085.012-.072-.007-.143.016-.215.01-.029,0-.057-.008-.085-.01a.467.467,0,0,1-.084,0c-.04-.011-.079-.008-.117-.019a1.062,1.062,0,0,1-.114-.031c-.013-.006-.03,0-.043-.011a.026.026,0,0,0-.016.008c-.054.048-.1.1-.157.144s-.1.088-.143.134c-.027,0-.034.043-.063.037a.127.127,0,0,1-.056-.038.7.7,0,0,1-.055-.053c-.082.04-.393.233-.469.288a.073.073,0,0,1-.026.014.15.15,0,0,0-.062.041.322.322,0,0,1-.158.077.577.577,0,0,1-.131.008.361.361,0,0,1-.1-.018.268.268,0,0,0-.04,0c-.013,0-.025-.009-.038-.011a.05.05,0,0,0-.025.007c-.038.014-.639.253-.709.276-.016.006-.026.014-.024.031a.222.222,0,0,1-.027.105.088.088,0,0,1-.092.063.027.027,0,0,0-.028.024l-.021.092a.022.022,0,0,1-.024.021c-.018,0-.035,0-.052,0h-.229v.053q0,1.842,0,3.684c0,.063,0,.062-.062.062h-1.427c-.024,0-.032-.009-.033-.03v-3.769Zm-5.112-1.869c-.026.024-.052.052-.076.076l.088.088.035-.026c.014-.011.026-.024.04-.037-.021-.021-.039-.039-.059-.057S171.488,149.443,171.486,149.423Zm11.755-.031a.053.053,0,0,1-.021.048c-.018.018-.035.04-.053.061l.057.059h.009l.1-.086Z"/><path class="f" d="M166.847,155.8h2.861c1.732,0,3.08.475,3.08,2.079a1.941,1.941,0,0,1-1.091,1.81v.05a1.9,1.9,0,0,1,1.5,1.964c0,1.707-1.436,2.464-3.246,2.464h-3.1Zm2.771,3.349c.924,0,1.322-.384,1.322-.988,0-.654-.423-.9-1.309-.9h-.9v1.886Zm.18,3.555c1.026,0,1.553-.359,1.553-1.129,0-.731-.513-1.027-1.553-1.027h-1.065V162.7Z"/><path class="e" d="M184.8,68.466h-.265c-.024,0-.031,0-.038-.027a.6.6,0,0,1-.021-.081c0-.015-.007-.025-.018-.027-.061-.017-.07-.07-.086-.117a.112.112,0,0,1-.011-.047c0-.025-.012-.033-.03-.04l-.058-.026c-.016-.006-.024,0-.032.018-.017.042-.031.084-.049.126a.625.625,0,0,1-.041.1c0,.01-.007.014-.018.012-.027,0-.058.011-.084-.01h-.016c-.038,0-.039,0-.05.038-.007.019-.014.039-.022.059a.014.014,0,0,1-.011.008.126.126,0,0,1-.039,0c-.072-.03-1.308-.506-1.359-.521a.081.081,0,0,1-.021-.01c-.012-.01-.029-.019-.008-.036a1.219,1.219,0,0,1,.043-.129.042.042,0,0,0,0-.042.36.36,0,0,1-.063-.127l-.012-.042c-.043.04-.043.038-.086,0-.062-.06-.121-.12-.186-.174a1.176,1.176,0,0,1-.11-.1.05.05,0,0,0-.056-.015c-.029.009-.061.012-.09.023a.255.255,0,0,1-.071.014.348.348,0,0,1-.112.014,1.1,1.1,0,0,1-.257.009.17.17,0,0,1-.086-.007c-.024-.012-.057,0-.084-.012s-.042.009-.058-.011a.452.452,0,0,1-.15-.032c-.04-.01-.08-.025-.121-.038a.309.309,0,0,1-.062-.025.054.054,0,0,0-.064,0c-.044.025-.3.189-.323.2a.312.312,0,0,0-.111.075c-.073.066-2.41,2.22-2.451,2.256l-.41-.377a.045.045,0,0,1-.017-.045v-.054c-.05.044-.049.042-.092,0s-.08-.072-.118-.107c-.011-.01-.016-.016,0-.03s0-.023,0-.036c0-.162,0-.324,0-.487,0-.022-.014-.042,0-.066a.286.286,0,0,0,.019-.071c.006-.022.1-.362.111-.415s.27-.987.28-1.033a.061.061,0,0,1,.012-.027.923.923,0,0,1,.127-.115l.007-.007c.07-.067,1.9-1.757,1.947-1.8.008-.007.019-.012.028-.019a.014.014,0,0,1,.022,0c.021.018.043.034.062.052s.032.033.049.048.041.034.066.055c0-.053,0-.1,0-.15,0-.066.018-.13.011-.2a.029.029,0,0,1,.007-.018c.017-.012.015-.022,0-.038a.091.091,0,0,1-.006-.076.647.647,0,0,1,.109-.212c.027-.039.06-.074.089-.111s.061-.08.09-.12c.006-.008.014-.015.021-.023.048-.048.094-.1.145-.144a1.462,1.462,0,0,1,.2-.146,1.406,1.406,0,0,1,.172-.09,1.548,1.548,0,0,1,.226-.079l.172-.038a.7.7,0,0,1,.184-.012.085.085,0,0,0,.05-.009.058.058,0,0,1,.05,0c.018.013.036.007.053.009a.32.32,0,0,0,.187-.043c.041-.019.085-.032.126-.051s.1-.036.154-.059a.777.777,0,0,1,.139-.045c.049-.013.1-.028.146-.039.031-.007.064-.018.095-.024a.1.1,0,0,1,.1.029l0,0c.044.016.047.052.044.091s-.02.039-.03.056c-.041.06-.088.116-.127.178-.028.042-.061.08-.09.117l.115.08a1.215,1.215,0,0,1,.155.132,1.7,1.7,0,0,1,.192.225c.009.011.009.026.016.036a.887.887,0,0,1,.11.206,1.517,1.517,0,0,1,.049.153c.012.043.016.087.028.13a.481.481,0,0,1,.011.126c0,.08,0,.161,0,.241,0,.052-.012.1-.01.154-.023.024,0,.06-.021.085.014.037,0,.079.039.11.074.067.146.137.223.209v-.043c0-.086,0-.172,0-.257a.4.4,0,0,1,.079-.246.486.486,0,0,1,.059-.07c.052-.054.1-.108.159-.159.024-.021.036-.058.077-.056.013-.04.054-.046.08-.069a.663.663,0,0,1,.088-.057c.021-.014.043-.029.065-.042s.044-.012.046-.039a.45.45,0,0,1,.075-.033c.018,0,.018-.011.018-.024v-.229h-.187c-.026,0-.033-.009-.034-.035v-.257c0-.032,0-.029-.032-.045-.071-.035-.148-.054-.22-.089a1.143,1.143,0,0,0-.123-.046c-.014,0-.023-.011-.023-.028v-.257c0-.019.009-.025.027-.031.051-.018.1-.04.153-.058a.042.042,0,0,0,.031-.046c0-.069,0-.839,0-1.153,0-.048,0-.05-.046-.065a.366.366,0,0,1-.051-.021l-.008-.013c0-.014,0-.018-.017-.019a.089.089,0,0,1-.029-.009.137.137,0,0,0-.057-.024c0-.021,0-.042,0-.062v-.42c0-.019,0-.035.026-.03.088-.044.185-.067.272-.114.084-.017.156-.066.238-.086.015,0,.021-.014.021-.03s0-.059,0-.089c0-.087,0-.175,0-.263a.045.045,0,0,1,.014-.036c.038-.036.072-.078.113-.11s.087-.088.137-.126.095-.1.147-.137.1-.09.144-.134c.01-.009.022-.015.032-.023.031-.022.032-.022.057,0s.057.054.083.082a.1.1,0,0,0,.08.035q.7,0,1.4,0a.094.094,0,0,0,.072-.03l.093-.093c.021-.02.023-.018.047,0a.643.643,0,0,1,.1.089c.065.06.126.125.193.18.049.04.088.09.137.127s.089.086.136.127a.079.079,0,0,1,.028.068c0,.1,0,.206,0,.309a.094.094,0,0,0,.041.088.329.329,0,0,1,.075.074.86.86,0,0,1,.088.12.948.948,0,0,1,.052.1c.027.056.041.115.064.173.009.022,0,.048.017.066a1.466,1.466,0,0,1,.021.175,1.264,1.264,0,0,1,.01.268,1.355,1.355,0,0,0-.01.143.094.094,0,0,0-.01.064c0,.02-.01.038-.012.058a1.519,1.519,0,0,1-.032.149,1.692,1.692,0,0,1-.061.2c-.016.041-.03.083-.047.122-.026.058-.052.115-.079.172-.01.02-.024.039-.036.059,0,.005,0,.011-.009.02h.06c.009.045.012.749,0,.913h-.082v.11c0,.035,0,.07,0,.105s0,.036.028.04a.1.1,0,0,1,.038.02c.01.009.029.007.031.027s.016.01.025.015a1.294,1.294,0,0,1,.182.119.3.3,0,0,0,.054.033l.018.008s-.006.01,0,.015.008.011.008.011c.022-.013.029.007.038.017.071.069.142.141.213.211a.532.532,0,0,1,.115.2v.01c0,.055.014.109.012.164s0,.1,0,.166l.144-.136c.017-.015.036-.027.052-.041a.061.061,0,0,0,.024-.058c0-.019.011-.036.011-.053a.384.384,0,0,0-.016-.067l0-.008c.007-.039-.013-.074-.012-.111,0-.1,0-.2,0-.3a.591.591,0,0,1,.011-.126c.006-.035.013-.072.022-.107s.018-.066.029-.1a1.463,1.463,0,0,1,.136-.285c.027-.043.06-.082.086-.127l.008-.007c.042-.046.08-.094.126-.136a1.38,1.38,0,0,1,.21-.164c.011-.007.018-.019.028-.021.027-.007.01-.014.006-.027s-.013-.019-.019-.029c-.041-.053-.081-.107-.119-.161-.025-.034-.048-.071-.077-.1a.136.136,0,0,1-.017-.088l0-.008a.188.188,0,0,1,.109-.075.144.144,0,0,1,.063.012c.063.016.125.035.189.05a1.34,1.34,0,0,1,.2.067c.068.029.139.053.209.081a.481.481,0,0,1,.127.057.025.025,0,0,0,.02,0c.039-.022.08,0,.125-.013v-.316c0-.022,0-.041-.021-.054a.076.076,0,0,1-.031-.077c0-.059,0-.119,0-.178a.058.058,0,0,1,.021-.049c.031-.03.712-.67.758-.7s.055-.057.1-.069.348-.126.382-.14c.013-.006.018,0,.026,0,.064.064.133.125.193.194s.108.114.164.172.109.115.161.175a.767.767,0,0,1,.065.088c.036.047.069.094.1.141s.078.107.117.161.064.093.1.138a.7.7,0,0,1,.074.115c.031.065.066.128.1.19.025.045.048.092.072.138q.072.131.141.261a.822.822,0,0,1,.033.087c.021.057.048.113.066.171.025.085.063.167.089.252.017.058.044.115.064.173.007.018.011.037.017.056a.522.522,0,0,0,.011.069c.006.018,0,.036.011.053s.006.033.01.048c.013.05.021.1.034.149a.27.27,0,0,1,.008.039c0,.012.008.025.01.037.011.055.019.111.035.164a.184.184,0,0,1,.006.04V65.9c0,.034,0,.043-.039.054s-.043.015-.065.021-.014.014-.006.022.028.035.051.042c.007,0,.012.009.016.013.074.071.839.778.89.827,0,0,.011.006.016.01a.15.15,0,0,1,.07.105c.008.049.394,1.465.411,1.5l0,.014c-.013.013-.007.027-.007.039,0,.166,0,.329,0,.494a.109.109,0,0,0,0,.031c0,.007.014.008,0,.019-.038.036-.074.074-.111.111a.227.227,0,0,1-.04.029c-.024.013-.042,0-.062-.025a.262.262,0,0,0,0,.029c0,.017-.006.035.01.048a.266.266,0,0,1-.048.047.849.849,0,0,0-.1.094c-.026.024-.054.046-.08.07a.737.737,0,0,1-.075.073,1.108,1.108,0,0,0-.106.1.026.026,0,0,1-.04,0c-.009-.007-.021-.011-.029-.018-.076-.072-2.419-2.232-2.46-2.27a.04.04,0,0,0-.021-.012.452.452,0,0,1-.069-.036c-.055-.036-.111-.068-.168-.1l-.1-.06a.417.417,0,0,1-.046-.026c-.012-.01-.018-.006-.03,0a.652.652,0,0,1-.114.043c-.037.01-.074.025-.112.035s-.105.023-.156.039c-.026.006-.058,0-.085.011-.072-.007-.143.016-.215.01-.029,0-.057-.008-.086-.01a.459.459,0,0,1-.083,0c-.04-.011-.08-.009-.117-.02a.871.871,0,0,1-.114-.031c-.014,0-.03,0-.043-.011a.04.04,0,0,0-.017.008c-.053.048-.1.1-.156.144s-.1.088-.143.134c-.027,0-.035.043-.063.038a.14.14,0,0,1-.056-.038c-.021-.017-.038-.038-.056-.054-.081.04-.392.233-.468.288a.07.07,0,0,1-.027.014.157.157,0,0,0-.061.041.306.306,0,0,1-.158.077.581.581,0,0,1-.131.008.374.374,0,0,1-.1-.017c-.011-.005-.027,0-.039,0s-.025-.009-.038-.01a.046.046,0,0,0-.025.006c-.039.015-.639.253-.709.276-.017.006-.026.014-.024.031a.234.234,0,0,1-.027.105.089.089,0,0,1-.092.064.025.025,0,0,0-.028.024c-.008.03-.014.06-.021.091a.023.023,0,0,1-.024.021c-.018,0-.036,0-.052,0h-.229v.054q0,1.841,0,3.683c0,.063,0,.062-.063.062h-1.426c-.024,0-.033-.008-.034-.029v-3.77ZM179.692,66.6c-.026.025-.052.052-.076.076l.087.088.036-.026c.013-.011.026-.024.039-.037-.02-.02-.038-.039-.058-.057S179.694,66.617,179.692,66.6Zm11.755-.031a.052.052,0,0,1-.021.048c-.019.019-.035.041-.053.061l.056.059h.01l.1-.086C191.508,66.62,191.478,66.6,191.447,66.566Z"/><path class="f" d="M174.949,77.208c0-2.772,1.836-4.389,3.953-4.389a3.533,3.533,0,0,1,2.515,1.091l-1,1.206a2.136,2.136,0,0,0-1.476-.667c-1.141,0-2.052,1.013-2.052,2.7,0,1.719.795,2.72,2.027,2.72a2.23,2.23,0,0,0,1.63-.783l1,1.181a3.446,3.446,0,0,1-2.708,1.232C176.721,81.494,174.949,80.018,174.949,77.208Z"/></g></svg>