<svg xmlns="http://www.w3.org/2000/svg" viewBox="0 0 300 300"><defs><style>.a{isolation:isolate;}.b,.c{fill:#e1d6bc;mix-blend-mode:multiply;}.b{fill-opacity:0.1;stroke:#e1d6bc;stroke-linecap:round;stroke-opacity:0.2;stroke-width:0.535px;}.b,.g{stroke-miterlimit:10;}.c{opacity:0.4;}.d{fill:#231f20;}.d,.e{fill-rule:evenodd;}.e,.f{fill:#be1e2d;}.g{fill:none;stroke:#be1e2d;stroke-width:8.555px;}</style></defs><title>tactics</title><g class="a"><circle class="b" cx="172.906" cy="112.617" r="93.781" transform="translate(-28.989 155.248) rotate(-45)"/><circle class="c" cx="172.906" cy="112.617" r="60.632" transform="translate(-28.989 155.248) rotate(-45)"/><path class="d" d="M174.687,117.005c.018-.013,0-.045,0-.066,0-.063-.009-.124-.011-.186,0-.172-.008-.343-.013-.514a.825.825,0,0,0-.016-.089c-.075-.04-.158-.034-.235-.067.014-.018.024-.03.035-.042a.861.861,0,0,0,.243-.544,1.271,1.271,0,0,0-.054-.521,1.339,1.339,0,0,0-.328-.565c-.032-.032-.063-.064-.1-.1.076-.027.143-.051.2-.075a.3.3,0,0,0,.011-.143c0-.016-.007-.033-.008-.05,0-.117-.008-.235-.014-.354-.007-.14-.015-.281-.023-.42,0-.033,0-.067,0-.1l-.008-.075a1.312,1.312,0,0,0-.36-.037c-.007-.089-.015-.178-.02-.264a.673.673,0,0,0,.042-.686.431.431,0,0,1,.165-.046l.535.674a.64.64,0,0,0,.088-.008c.066-.012.131-.03.195-.045.02,0,.04,0,.061-.007l.061.075c.058.077.091.092.182.06a1,1,0,0,0,.177-.086.119.119,0,0,1,.148-.012.126.126,0,0,0,.071.01.586.586,0,0,0,.064-.006c.037.044.074.09.11.136l.582.761.788,1.026c.192.249.386.5.575.749a.144.144,0,0,0,.16.055.291.291,0,0,0,.153-.087.146.146,0,0,0,.015-.221c-.154-.2-.308-.4-.458-.6-.237-.31-.471-.622-.706-.932l-.827-1.09c-.013-.017-.023-.034-.036-.052l.023-.072a.083.083,0,0,0-.012-.088c-.075-.1-.147-.195-.22-.293a.1.1,0,0,0-.085-.041.248.248,0,0,1-.071-.007.169.169,0,0,1,.038-.019q.1-.03.21-.057a.164.164,0,0,0,.107-.078c.046-.071.094-.141.145-.214-.012-.023-.021-.047-.032-.068-.061-.1-.122-.2-.18-.306a.212.212,0,0,0-.131-.114.1.1,0,0,1-.028-.017c0-.041,0-.078,0-.114a.158.158,0,0,1,.02-.069c.045-.066.095-.131.14-.2a.587.587,0,0,0,.091-.427,1.132,1.132,0,0,0-.319-.621,1.5,1.5,0,0,0-.555-.376,1.062,1.062,0,0,0-.587-.061l-.041.006c-.074-.052-.1-.146-.179-.207a2.111,2.111,0,0,0-.292.148.717.717,0,0,0-.417.27c-.017-.009-.029-.015-.038-.021l-.033-.023c-.081.011-.142.071-.226.092a.4.4,0,0,1-.024-.041c-.028-.064-.055-.128-.083-.194a.108.108,0,0,1-.011-.047.506.506,0,0,0-.093-.29c-.009-.017-.019-.033-.03-.054a.164.164,0,0,1,.041-.029.742.742,0,0,0,.333-.26c.057-.074.129-.132.185-.2.027-.033.058-.06.087-.091a.1.1,0,0,0,.018-.028,10.4,10.4,0,0,0-.677-.912.487.487,0,0,0-.056.028l-.3.187c-.026.016-.053.029-.087.048.006-.095.01-.179.014-.262h-.006c.006-.022.016-.043.021-.066a.126.126,0,0,0-.052-.134,2.287,2.287,0,0,0-1.1-.464,2.237,2.237,0,0,0-1.24.17c-.025.012-.049.023-.074.033a.1.1,0,0,0-.071.116c0,.027.006.054.009.081a2.285,2.285,0,0,0-.043.308c-.024,0-.047,0-.069-.006-.207-.033-.415-.066-.619-.1a.164.164,0,0,0-.151.027c-.062-.05-.124-.1-.19-.15-.024.02-.044.035-.063.053-.141.131-.281.263-.423.394s-.259.239-.389.358c-.006.051-.013.1-.016.149-.009.133-.016.264-.023.4,0,.076-.009.153-.012.229a.08.08,0,0,0,.045.075c.032.023.062.047.1.076-.049.044-.09.085-.132.122-.088.08-.176.158-.266.236a.1.1,0,0,0-.036.075c-.008.132-.018.264-.025.395-.006.055-.01.108-.013.162,0,.021,0,.041,0,.063.034.025.064.048.1.076a.55.55,0,0,1-.037.042c-.1.085-.2.17-.3.254a.143.143,0,0,0-.043.1c-.01.143-.024.288-.035.433-.01.125-.018.252-.026.378a.1.1,0,0,0,.058.105c.088.048.17.1.257.154a.362.362,0,0,0,.064.029c.025-.013.046-.025.072-.041.009.046.018.086.023.125a.074.074,0,0,1-.036.062c-.059.047-.118.1-.179.144a.188.188,0,0,0-.087.172c0,.094-.011.189-.019.292a.505.505,0,0,0,.048.039c.082.049.166.1.249.143.012.007.023.017.041.027.012.07.025.143.037.219l.129.076c.027.015.054.029.081.045a.079.079,0,0,0,.1-.006c.035-.026.071-.05.11-.077l.252.144a.217.217,0,0,0-.022.179,1.713,1.713,0,0,0,.252.143c.038-.026.07-.046.1-.07.074-.053.145-.109.219-.161a.165.165,0,0,0,.076-.116c.023-.12.051-.24.073-.36a.153.153,0,0,1,.072-.109c.053-.033.1-.074.151-.109a.172.172,0,0,1,.078-.035c.193-.011.389-.018.584-.026a.614.614,0,0,1,.065,0c-.036.059-.068.11-.1.163l-.154.016c-.02-.014-.042-.028-.064-.045a.3.3,0,0,0-.24-.06.525.525,0,0,1-.068.008.3.3,0,0,0-.249.152.43.43,0,0,0,.138.6.221.221,0,0,1,.036.03c-.085.039-.17,0-.256.033,0,.037,0,.077-.009.117s-.012.077-.018.121l-.139.015a.464.464,0,0,0-.025.159c-.007.126-.008.252-.015.38-.008.165-.016.33-.026.495,0,.064-.007.128-.009.192a.478.478,0,0,0,0,.073c.1.04.2.058.3.1l-.063,0a.134.134,0,0,0-.125.066,2.281,2.281,0,0,0-.266.526c-.033.1-.059.2-.089.3a.415.415,0,0,1-.012.045.149.149,0,0,1-.106.017c-.122,0-.149.021-.167.142a1.42,1.42,0,0,0-.018.451c.012.065.017.131.032.195s.04.073.106.066c.043,0,.089,0,.137,0,.009.027.018.047.023.069a2.053,2.053,0,0,0,.208.59.378.378,0,0,1,.039.24,1.742,1.742,0,0,0-.006.217.191.191,0,0,0,.03.079l.4.679c.034.053.065.106.1.159a.438.438,0,0,0,.059,0c.143-.01.284-.023.427-.033.084-.006.168-.009.254-.015s.181-.015.273-.021.173-.012.259-.017.092-.013.1-.093c.006-.12.015-.239.024-.358l.025-.446c0-.077.009-.156.015-.251a2.446,2.446,0,0,0,.316-.882c.028,0,.053-.008.076-.009.069,0,.105-.024.125-.09a.734.734,0,0,0,.035-.158,1.139,1.139,0,0,0-.024-.407.342.342,0,0,0-.042-.091.114.114,0,0,0-.131-.058.159.159,0,0,1-.044,0c-.037-.125-.068-.249-.111-.37s-.1-.232-.147-.354c.118-.034.238-.023.358-.051.022-.161.021-.322.033-.481s.019-.321.029-.486a.57.57,0,0,1,.07-.019c.076-.009.152-.017.227-.027a.653.653,0,0,0,.067-.022v-.167a.553.553,0,0,1,.171-.014c.031.185.018.372.052.554a.789.789,0,0,0,.088.024c.087.018.174.034.261.053.044.009.046.012.048.059l-.037.013a.932.932,0,0,0-.341.149.32.32,0,0,0-.054.05.394.394,0,0,1-.182.115c-.05.017-.1.037-.153.057a1.271,1.271,0,0,0,.01.248l.073.027a.481.481,0,0,1-.009.169c-.006.055.006.114-.032.154v.143a.121.121,0,0,0,.055.121c.061.155.12.3.179.454l-.053.039c0,.01-.005.021-.005.03a3.011,3.011,0,0,0,.026.346c.022.134.024.267.034.4,0,.051.015.064.077.08l.446.116c.415.107.831.216,1.245.325a.163.163,0,0,0,.136-.015c.172-.113.346-.222.517-.334C174.643,117.039,174.662,117.023,174.687,117.005Zm-1.026-5.172c.024.019-.009.05-.014.077-.045.007-.086.011-.125.02s-.075.024-.126.039c.014-.043.026-.074.033-.1a.126.126,0,0,1,.137-.107Z"/><circle class="b" cx="149.715" cy="150.592" r="93.781" transform="translate(-62.634 149.972) rotate(-45)"/><circle class="c" cx="149.715" cy="150.592" r="60.632" transform="translate(-9.381 291.238) rotate(-86.645)"/><path class="d" d="M151.5,154.98c.018-.012,0-.043,0-.065,0-.063-.009-.125-.011-.186-.005-.172-.008-.344-.013-.514a.844.844,0,0,0-.016-.09c-.075-.039-.158-.034-.235-.066a.329.329,0,0,1,.035-.041.87.87,0,0,0,.243-.545,1.277,1.277,0,0,0-.054-.522,1.329,1.329,0,0,0-.328-.564c-.032-.032-.063-.065-.1-.1.076-.028.143-.051.2-.075a.3.3,0,0,0,.011-.143c0-.017-.007-.034-.008-.05,0-.117-.008-.235-.014-.354-.007-.14-.015-.281-.023-.421,0-.032,0-.067,0-.1l-.008-.074a1.239,1.239,0,0,0-.36-.038c-.007-.09-.015-.178-.02-.264a.673.673,0,0,0,.042-.686.431.431,0,0,1,.165-.046l.535.673a.64.64,0,0,0,.088-.007c.066-.013.131-.03.2-.045.02,0,.04,0,.061-.007.022.027.042.05.061.075.058.077.091.092.182.061a1.081,1.081,0,0,0,.177-.088c.049-.03.094-.05.148-.011a.126.126,0,0,0,.071.01.411.411,0,0,0,.064-.006c.037.043.074.09.11.136l.582.761.788,1.026c.192.25.386.5.575.749a.144.144,0,0,0,.16.054.289.289,0,0,0,.153-.086.146.146,0,0,0,.015-.221c-.154-.2-.308-.4-.458-.6-.237-.31-.471-.622-.706-.932l-.827-1.09c-.013-.017-.023-.034-.036-.052l.023-.071a.087.087,0,0,0-.012-.089c-.075-.1-.147-.2-.22-.294a.1.1,0,0,0-.085-.04.194.194,0,0,1-.071-.008.222.222,0,0,1,.038-.018c.069-.02.139-.04.21-.057a.164.164,0,0,0,.107-.078c.046-.072.094-.141.145-.214-.012-.023-.021-.047-.033-.068-.06-.1-.121-.2-.179-.306a.212.212,0,0,0-.131-.114.085.085,0,0,1-.028-.018c0-.04,0-.077,0-.113a.15.15,0,0,1,.02-.068c.045-.067.095-.132.14-.2a.589.589,0,0,0,.091-.428,1.129,1.129,0,0,0-.319-.62,1.491,1.491,0,0,0-.555-.376,1.062,1.062,0,0,0-.587-.061l-.041.006c-.074-.053-.1-.147-.179-.207a2.111,2.111,0,0,0-.292.148.717.717,0,0,0-.417.27c-.017-.01-.029-.015-.038-.021a.314.314,0,0,0-.033-.023c-.081.011-.142.071-.226.093-.008-.015-.017-.028-.024-.042-.028-.064-.055-.129-.083-.193a.12.12,0,0,1-.011-.048.511.511,0,0,0-.093-.291c-.009-.016-.019-.032-.03-.053a.153.153,0,0,1,.04-.029.747.747,0,0,0,.334-.26c.057-.073.129-.132.185-.2.027-.032.058-.059.087-.091a.147.147,0,0,0,.018-.028,10.447,10.447,0,0,0-.677-.912.376.376,0,0,0-.056.029c-.1.061-.2.124-.3.186-.026.016-.053.029-.087.047.006-.095.01-.178.014-.261h-.006c.006-.022.016-.042.021-.064a.127.127,0,0,0-.052-.135,2.268,2.268,0,0,0-1.1-.464,2.237,2.237,0,0,0-1.24.17l-.074.033a.1.1,0,0,0-.071.116c0,.027.006.054.009.081a2.263,2.263,0,0,0-.043.308c-.024,0-.047,0-.069-.006-.207-.032-.415-.066-.619-.1a.162.162,0,0,0-.151.027l-.19-.151c-.024.02-.044.036-.063.054-.141.13-.281.263-.423.394s-.259.239-.389.358c-.006.051-.013.1-.016.149-.009.133-.016.264-.023.4-.005.076-.009.153-.012.229a.083.083,0,0,0,.045.076l.1.075-.132.122c-.088.079-.176.158-.266.236a.1.1,0,0,0-.036.074c-.008.133-.018.264-.026.4,0,.055-.009.108-.012.162,0,.021,0,.041,0,.062l.1.077a.524.524,0,0,1-.037.041c-.1.085-.2.171-.3.254a.147.147,0,0,0-.043.1c-.01.145-.024.289-.035.433-.01.126-.018.253-.026.378a.1.1,0,0,0,.058.1c.088.049.17.1.257.154a.369.369,0,0,0,.064.03.785.785,0,0,0,.072-.042c.009.046.018.087.023.127a.071.071,0,0,1-.036.06c-.059.048-.118.1-.179.144a.19.19,0,0,0-.087.173c0,.095-.011.189-.019.291a.391.391,0,0,0,.048.04c.082.048.166.1.249.142.012.008.023.017.041.028.012.07.025.143.037.218l.129.076c.027.016.054.03.081.045a.078.078,0,0,0,.1-.005c.035-.026.071-.05.11-.077l.252.143a.217.217,0,0,0-.022.179,1.632,1.632,0,0,0,.252.144c.038-.027.07-.046.1-.07.074-.053.145-.109.219-.161a.165.165,0,0,0,.076-.117c.023-.119.051-.239.073-.359a.153.153,0,0,1,.072-.109c.053-.033.1-.075.151-.11a.181.181,0,0,1,.078-.034c.193-.011.389-.019.584-.026.018,0,.035,0,.065,0-.036.059-.068.111-.1.164l-.154.015-.064-.044a.3.3,0,0,0-.24-.06c-.023,0-.045.007-.068.008a.3.3,0,0,0-.249.152.431.431,0,0,0,.138.6.264.264,0,0,1,.036.029c-.085.04-.17,0-.256.034,0,.036,0,.077-.009.117s-.012.077-.018.121l-.139.015a.464.464,0,0,0-.025.159c-.007.126-.008.252-.015.379-.008.165-.016.331-.026.5,0,.064-.007.128-.009.193a.485.485,0,0,0,0,.072c.1.039.2.058.3.1-.021,0-.041,0-.063,0a.135.135,0,0,0-.125.067,2.3,2.3,0,0,0-.266.526c-.033.1-.059.2-.089.3,0,.016-.007.031-.012.046a.159.159,0,0,1-.106.015c-.122,0-.149.021-.167.142a1.429,1.429,0,0,0-.018.452c.012.064.017.131.032.195s.04.073.106.067a1.2,1.2,0,0,1,.137-.007c.009.028.018.047.023.069a2.033,2.033,0,0,0,.208.59.384.384,0,0,1,.039.242,1.726,1.726,0,0,0-.006.216.2.2,0,0,0,.03.079l.4.679c.034.053.065.1.1.159.023,0,.041.006.059.005.143-.011.284-.024.427-.034.084-.007.168-.009.254-.015l.273-.022c.085-.006.173-.012.259-.016s.092-.013.1-.093c.006-.12.015-.238.024-.359l.025-.445c0-.077.009-.157.015-.252a2.434,2.434,0,0,0,.316-.881c.028,0,.053-.008.076-.009.069,0,.105-.024.125-.09a.743.743,0,0,0,.035-.159,1.134,1.134,0,0,0-.024-.406.328.328,0,0,0-.042-.091.114.114,0,0,0-.131-.058.159.159,0,0,1-.044,0c-.037-.126-.068-.25-.111-.37s-.1-.232-.147-.354c.118-.033.238-.023.358-.052.022-.16.021-.321.033-.481s.019-.321.029-.486a.557.557,0,0,1,.07-.018l.227-.027a.476.476,0,0,0,.067-.022v-.167a.586.586,0,0,1,.171-.015c.031.186.018.372.052.555a.789.789,0,0,0,.088.024c.087.019.174.033.261.053.044.009.046.011.048.06l-.037.012a.93.93,0,0,0-.341.148.432.432,0,0,0-.054.05.379.379,0,0,1-.182.115c-.05.017-.1.038-.153.057a1.268,1.268,0,0,0,.01.248c.027.01.048.019.073.027a.486.486,0,0,1-.009.17c-.007.054.006.113-.032.154v.143a.12.12,0,0,0,.055.12c.061.156.12.3.179.455-.016.011-.033.025-.053.038,0,.011,0,.021,0,.032a3.045,3.045,0,0,0,.026.345c.022.134.024.266.034.4,0,.051.015.065.077.081l.446.116c.415.106.831.216,1.245.324a.159.159,0,0,0,.136-.014c.172-.113.346-.223.517-.333C151.452,155.015,151.471,155,151.5,154.98Zm-1.026-5.171c.024.019-.009.05-.014.077-.045.007-.086.011-.125.019s-.075.024-.126.04a.959.959,0,0,0,.032-.1.126.126,0,0,1,.138-.107Z"/><circle class="b" cx="126.524" cy="188.567" r="93.781" transform="translate(-83.195 275.653) rotate(-78.69)"/><circle class="c" cx="126.524" cy="188.567" r="60.632" transform="translate(-83.195 275.653) rotate(-78.69)"/><path class="d" d="M128.305,192.955c.017-.012,0-.044,0-.066,0-.062-.009-.124-.011-.184-.005-.173-.008-.345-.013-.515a.863.863,0,0,0-.016-.091,2.4,2.4,0,0,0-.235-.065.35.35,0,0,1,.035-.042.866.866,0,0,0,.243-.545,1.272,1.272,0,0,0-.054-.521,1.327,1.327,0,0,0-.328-.565c-.032-.031-.063-.065-.1-.1.076-.028.143-.051.2-.075a.3.3,0,0,0,.011-.143c0-.017-.007-.034-.008-.051,0-.117-.008-.234-.014-.354-.007-.138-.015-.28-.023-.419,0-.034,0-.067,0-.1l-.008-.074a1.239,1.239,0,0,0-.36-.037c-.007-.089-.015-.178-.02-.265a.677.677,0,0,0,.042-.687.469.469,0,0,1,.165-.045l.535.674a.64.64,0,0,0,.088-.007c.066-.013.131-.031.2-.045a.563.563,0,0,1,.061-.008l.061.076c.058.077.091.091.182.06a.942.942,0,0,0,.177-.088c.049-.03.094-.05.148-.01a.136.136,0,0,0,.071.009.411.411,0,0,0,.064-.006c.037.044.074.091.11.137l.582.76.788,1.027c.192.248.386.5.575.748a.144.144,0,0,0,.16.055.291.291,0,0,0,.153-.087.145.145,0,0,0,.015-.22c-.154-.2-.308-.4-.458-.6-.237-.309-.471-.621-.706-.931l-.827-1.091c-.013-.016-.023-.033-.036-.051.008-.027.016-.049.023-.072a.085.085,0,0,0-.012-.088c-.075-.1-.147-.2-.22-.294a.1.1,0,0,0-.085-.041.248.248,0,0,1-.071-.007.225.225,0,0,1,.038-.019c.069-.02.139-.038.21-.057a.168.168,0,0,0,.107-.076c.046-.072.094-.142.145-.217-.012-.022-.021-.046-.033-.066-.06-.1-.121-.2-.179-.306a.206.206,0,0,0-.131-.114.085.085,0,0,1-.028-.018c0-.041,0-.077,0-.114a.142.142,0,0,1,.02-.068c.045-.067.095-.131.14-.2a.586.586,0,0,0,.091-.427,1.138,1.138,0,0,0-.319-.621,1.477,1.477,0,0,0-.555-.375,1.044,1.044,0,0,0-.587-.061l-.041,0c-.074-.052-.1-.147-.179-.207a2.228,2.228,0,0,0-.292.148.724.724,0,0,0-.418.271l-.037-.022-.034-.023c-.08.012-.142.071-.225.092a.4.4,0,0,1-.024-.041c-.028-.063-.055-.128-.083-.194a.1.1,0,0,1-.011-.047.516.516,0,0,0-.093-.291c-.009-.016-.019-.031-.03-.052a.231.231,0,0,1,.04-.03.729.729,0,0,0,.334-.261c.057-.073.129-.131.185-.2.027-.034.058-.06.087-.091a.121.121,0,0,0,.018-.028,10.447,10.447,0,0,0-.677-.912.354.354,0,0,0-.056.027c-.1.063-.2.126-.3.188-.026.016-.053.029-.087.047.006-.095.01-.178.014-.262h-.006c.006-.022.016-.044.021-.065a.129.129,0,0,0-.052-.135,2.28,2.28,0,0,0-1.1-.463,2.228,2.228,0,0,0-1.24.17.776.776,0,0,1-.074.031.1.1,0,0,0-.071.117c0,.028.006.055.008.081a2.459,2.459,0,0,0-.042.308c-.024,0-.047,0-.069,0-.207-.033-.415-.066-.619-.1a.162.162,0,0,0-.151.028l-.19-.151c-.024.021-.044.036-.063.053-.141.131-.282.264-.423.394s-.26.238-.389.359c-.006.05-.013.1-.016.149-.009.131-.016.264-.023.4,0,.078-.009.154-.012.231a.081.081,0,0,0,.045.075c.032.023.062.046.1.076-.049.043-.09.084-.132.122-.088.08-.176.156-.266.235a.1.1,0,0,0-.036.075c-.008.132-.018.264-.026.4-.005.054-.009.106-.012.159,0,.022,0,.042,0,.064.034.025.064.048.1.076a.408.408,0,0,1-.037.042c-.1.085-.2.169-.3.255a.143.143,0,0,0-.043.1c-.01.144-.024.288-.035.432-.01.127-.018.253-.026.38a.1.1,0,0,0,.058.1c.088.049.17.1.257.155a.613.613,0,0,0,.064.03l.072-.042c.009.045.018.085.023.125a.077.077,0,0,1-.036.062c-.059.047-.118.1-.179.143a.19.19,0,0,0-.087.172c0,.095-.011.189-.019.292a.387.387,0,0,0,.048.039c.082.048.166.095.249.142a.455.455,0,0,0,.041.029c.012.07.025.142.037.219l.129.075.081.045a.078.078,0,0,0,.1,0c.035-.026.071-.05.11-.078.085.047.168.095.252.143a.22.22,0,0,0-.022.18,1.627,1.627,0,0,0,.252.143c.038-.026.07-.046.1-.07.074-.052.145-.109.219-.161a.163.163,0,0,0,.076-.117c.023-.119.05-.239.073-.359a.151.151,0,0,1,.072-.108c.053-.034.1-.076.151-.109a.162.162,0,0,1,.078-.035c.193-.011.389-.019.584-.027.018,0,.035,0,.065,0-.036.059-.068.11-.1.164-.051,0-.1.011-.153.015-.02-.013-.042-.028-.064-.045a.3.3,0,0,0-.24-.059c-.023,0-.045.007-.068.008a.294.294,0,0,0-.249.152.43.43,0,0,0,.138.6.165.165,0,0,1,.036.029c-.085.04-.17,0-.256.034,0,.036,0,.077-.009.116s-.012.078-.018.122l-.139.014a.469.469,0,0,0-.025.16c-.007.125-.008.252-.015.379-.008.164-.016.331-.026.5,0,.065-.007.128-.009.192a.5.5,0,0,0,0,.074c.1.038.2.058.3.1-.021,0-.041,0-.063,0a.137.137,0,0,0-.125.067,2.249,2.249,0,0,0-.266.527c-.033.1-.059.2-.089.3a.436.436,0,0,1-.012.046.159.159,0,0,1-.106.016c-.122,0-.149.022-.167.142a1.421,1.421,0,0,0-.018.451c.012.065.017.132.032.2s.04.074.106.067c.043,0,.089,0,.137-.006.009.027.018.047.023.069a2.043,2.043,0,0,0,.208.59.38.38,0,0,1,.039.241,1.732,1.732,0,0,0-.006.216.2.2,0,0,0,.03.08l.4.679c.034.053.065.105.1.158a.454.454,0,0,0,.059,0c.143-.01.284-.024.427-.033.084-.007.168-.009.254-.016s.181-.014.273-.022.173-.011.258-.015.093-.014.1-.093c.006-.12.015-.238.024-.359l.025-.445c.005-.078.009-.157.015-.252a2.467,2.467,0,0,0,.316-.881c.028,0,.053-.009.076-.01a.115.115,0,0,0,.125-.09.734.734,0,0,0,.035-.158,1.132,1.132,0,0,0-.024-.406.328.328,0,0,0-.042-.091.114.114,0,0,0-.131-.058.225.225,0,0,1-.045,0c-.036-.125-.067-.249-.11-.369s-.1-.232-.147-.354c.118-.034.238-.023.358-.053.022-.159.021-.32.033-.48s.019-.322.029-.487c.026-.006.047-.014.07-.017l.227-.027a.653.653,0,0,0,.067-.022v-.168a.585.585,0,0,1,.171-.014c.031.186.018.372.052.554.032.01.061.018.088.024.087.019.174.035.261.053.044.01.046.012.048.06l-.038.013a.933.933,0,0,0-.34.148.368.368,0,0,0-.054.05.379.379,0,0,1-.182.115c-.05.017-.1.037-.153.056a1.278,1.278,0,0,0,.01.249c.027.009.048.019.073.027a.478.478,0,0,1-.009.169c-.007.056.006.114-.032.155v.143a.119.119,0,0,0,.055.12c.061.156.12.3.179.454l-.053.039c0,.01-.005.022-.005.031a3.045,3.045,0,0,0,.026.346c.022.134.024.266.034.4,0,.051.015.065.077.08.148.039.3.076.445.116q.624.162,1.246.325a.156.156,0,0,0,.136-.016c.172-.111.346-.221.517-.332C128.261,192.99,128.28,192.973,128.305,192.955Zm-1.026-5.171c.024.018-.009.05-.014.076-.045.007-.086.012-.125.02s-.075.024-.126.039a.843.843,0,0,0,.032-.105.127.127,0,0,1,.138-.106C127.211,187.73,127.244,187.755,127.279,187.784Z"/><path class="e" d="M213.237,193.3h-.265c-.024,0-.032,0-.039-.028a.8.8,0,0,1-.021-.081c0-.015-.006-.025-.017-.027-.061-.017-.07-.069-.086-.117,0-.015-.015-.03-.012-.047s-.011-.033-.03-.04-.037-.018-.057-.026-.024,0-.033.019c-.016.042-.03.083-.049.125a.632.632,0,0,1-.04.1c-.006.009-.008.013-.018.012-.027,0-.059.011-.085-.01h-.015c-.038,0-.039,0-.051.037a.537.537,0,0,1-.022.059.012.012,0,0,1-.01.008.133.133,0,0,1-.04,0c-.072-.029-1.307-.5-1.358-.521a.046.046,0,0,1-.021-.01c-.013-.01-.029-.018-.009-.035.006-.047.034-.085.043-.13a.036.036,0,0,0,0-.041.362.362,0,0,1-.062-.128l-.012-.041c-.044.039-.044.037-.087,0-.061-.058-.121-.119-.186-.173a1.045,1.045,0,0,1-.109-.1.051.051,0,0,0-.057-.015c-.029.008-.06.013-.089.023a.258.258,0,0,1-.071.015.348.348,0,0,1-.112.013,1.1,1.1,0,0,1-.257.01.166.166,0,0,1-.087-.009c-.024-.01-.056,0-.083-.01s-.042.008-.059-.012a.473.473,0,0,1-.149-.032c-.041-.009-.08-.025-.121-.038a.345.345,0,0,1-.063-.025.054.054,0,0,0-.063,0c-.044.024-.3.189-.323.2a.312.312,0,0,0-.111.075c-.073.066-2.41,2.22-2.452,2.257l-.409-.377a.047.047,0,0,1-.018-.045v-.055c-.049.044-.048.042-.092,0s-.079-.072-.118-.107c-.01-.01-.015-.016,0-.03s0-.023,0-.036c0-.162,0-.324,0-.487,0-.023-.013-.041,0-.065a.286.286,0,0,0,.019-.071c0-.022.1-.363.111-.416s.27-.987.279-1.033a.084.084,0,0,1,.013-.027.983.983,0,0,1,.126-.115l.008-.006c.07-.068,1.9-1.759,1.946-1.8.008-.007.02-.011.028-.019a.015.015,0,0,1,.022,0c.021.019.043.034.063.052s.031.034.049.048a.8.8,0,0,0,.066.054c0-.052,0-.1,0-.149a1.819,1.819,0,0,0,.01-.2s0-.015.008-.017.014-.023,0-.038a.09.09,0,0,1-.006-.077.633.633,0,0,1,.109-.213c.026-.037.06-.073.089-.109s.06-.081.09-.12a.115.115,0,0,1,.021-.023c.048-.048.094-.1.145-.145a1.475,1.475,0,0,1,.2-.146,1.671,1.671,0,0,1,.173-.09,1.711,1.711,0,0,1,.225-.079l.172-.038a.707.707,0,0,1,.184-.012.09.09,0,0,0,.05-.008.05.05,0,0,1,.05,0c.018.012.037.006.054.008a.322.322,0,0,0,.187-.043c.04-.02.084-.032.126-.051s.1-.036.154-.058a.745.745,0,0,1,.138-.046c.05-.013.1-.028.147-.039.031-.007.063-.018.095-.024a.1.1,0,0,1,.1.029l0,0c.044.016.047.053.044.092s-.02.038-.03.055c-.041.06-.088.116-.128.178-.027.042-.06.08-.09.118.038.025.077.052.115.079a1.237,1.237,0,0,1,.156.132,1.725,1.725,0,0,1,.192.226c.008.01.008.025.016.035a.854.854,0,0,1,.109.207,1.227,1.227,0,0,1,.049.152c.013.043.017.087.028.13a.439.439,0,0,1,.012.127c0,.08,0,.161,0,.24,0,.053-.013.1-.01.154-.023.024,0,.061-.021.086.013.036,0,.078.038.109.074.067.147.137.224.209v-.043c0-.085,0-.172,0-.257a.4.4,0,0,1,.078-.245.664.664,0,0,1,.06-.071c.052-.054.1-.108.158-.159.024-.021.037-.058.078-.056.012-.04.054-.046.08-.069a.555.555,0,0,1,.088-.057c.021-.014.043-.029.064-.041s.044-.013.046-.04a.563.563,0,0,1,.076-.033c.017,0,.017-.011.017-.023v-.23h-.187c-.026,0-.032-.008-.033-.035v-.256c0-.033,0-.031-.032-.045-.071-.036-.149-.055-.221-.09a1.2,1.2,0,0,0-.123-.046.027.027,0,0,1-.023-.028v-.257c0-.018.01-.024.027-.03l.154-.059a.041.041,0,0,0,.03-.046c0-.069,0-.839,0-1.153,0-.048,0-.05-.046-.065a.521.521,0,0,1-.05-.02L212,187.2c0-.014-.006-.018-.017-.019a.082.082,0,0,1-.029-.009.155.155,0,0,0-.058-.024c0-.02,0-.041,0-.062v-.42c0-.018,0-.035.026-.029.089-.046.185-.069.273-.115.083-.016.155-.067.238-.085.014,0,.021-.015.021-.032s0-.058,0-.087c0-.088,0-.176,0-.264a.045.045,0,0,1,.013-.035c.039-.038.072-.078.113-.111s.088-.087.138-.125.095-.1.146-.138.1-.09.144-.134a.315.315,0,0,1,.033-.022c.031-.022.032-.022.057,0l.083.081a.1.1,0,0,0,.08.036q.7,0,1.4,0a.091.091,0,0,0,.072-.031l.093-.093c.021-.019.023-.017.047,0a.711.711,0,0,1,.1.09c.065.061.127.125.194.181.049.039.087.088.136.126s.089.086.136.127a.08.08,0,0,1,.028.067c0,.105,0,.207,0,.31a.094.094,0,0,0,.042.088.346.346,0,0,1,.074.074.907.907,0,0,1,.089.12,1.046,1.046,0,0,1,.051.1c.027.056.042.116.065.173.008.023,0,.048.017.067a3.021,3.021,0,0,1,.031.443,1.357,1.357,0,0,0-.011.142.1.1,0,0,0-.009.064.412.412,0,0,1-.012.059c-.008.049-.02.1-.033.148a1.574,1.574,0,0,1-.06.195c-.016.041-.031.083-.047.123l-.08.171a.558.558,0,0,1-.035.058.079.079,0,0,1-.01.021h.061c.008.046.011.75,0,.913h-.082v.11c0,.036,0,.071,0,.1a.032.032,0,0,0,.028.041.082.082,0,0,1,.037.019c.011.009.03.007.032.028s.015.01.025.014a1.344,1.344,0,0,1,.181.119.387.387,0,0,0,.055.034l.018.007s-.007.011-.006.016.009.01.009.01c.022-.012.029.006.037.017.071.069.142.142.213.211a.513.513,0,0,1,.115.2.04.04,0,0,1,0,.011c0,.054.015.108.013.164s0,.1,0,.166c.054-.051.1-.094.144-.136.016-.016.035-.027.052-.042a.062.062,0,0,0,.024-.058c0-.019.01-.036.01-.053a.371.371,0,0,0-.015-.066l-.005-.009c.008-.038-.012-.073-.011-.11,0-.1,0-.2,0-.3a.533.533,0,0,1,.012-.126c.006-.035.012-.072.021-.106s.018-.067.03-.1a1.421,1.421,0,0,1,.135-.284c.028-.044.061-.083.086-.128l.008-.007c.042-.045.081-.094.127-.136a1.446,1.446,0,0,1,.21-.164c.01-.006.018-.018.028-.021.027-.007.009-.014,0-.027s-.012-.018-.019-.029c-.04-.053-.08-.106-.119-.161-.025-.034-.048-.071-.076-.1a.13.13,0,0,1-.018-.088l0-.008a.19.19,0,0,1,.11-.075.131.131,0,0,1,.063.012c.062.017.125.036.189.05a1.293,1.293,0,0,1,.2.067c.068.029.139.053.209.082a.47.47,0,0,1,.128.056.023.023,0,0,0,.019,0c.039-.021.081,0,.126-.012v-.317c0-.022,0-.041-.021-.054a.073.073,0,0,1-.031-.076c0-.059,0-.119,0-.178a.062.062,0,0,1,.02-.05c.032-.029.713-.67.759-.7s.055-.057.1-.069.347-.125.382-.14a.019.019,0,0,1,.026,0c.064.064.133.125.192.195s.109.114.164.171.11.115.162.175a.865.865,0,0,1,.065.088l.1.141.118.162.1.138a.551.551,0,0,1,.074.115c.032.064.066.127.1.19.025.044.048.092.072.138q.072.129.141.261c.013.027.022.056.033.085.021.059.047.115.066.173.025.084.063.167.089.251.016.059.044.115.063.174a.306.306,0,0,1,.017.056.4.4,0,0,0,.012.068c.006.018,0,.036.011.053s0,.033.009.048c.014.05.021.1.035.148,0,.015,0,.028.007.04s.009.025.011.038a1.593,1.593,0,0,0,.034.164.176.176,0,0,1,.006.038v.677c0,.034,0,.044-.038.054a.492.492,0,0,1-.065.021c-.017,0-.015.015-.006.022s.028.036.051.043c.006,0,.011.008.016.012.074.071.838.777.889.827,0,.005.012.007.017.01a.148.148,0,0,1,.07.1c.007.049.394,1.464.41,1.5l0,.015c-.012.012-.006.026-.006.038,0,.166,0,.329,0,.494a.116.116,0,0,0,0,.032c0,.006.014.008,0,.018-.039.036-.074.075-.112.111a.18.18,0,0,1-.039.029c-.024.013-.042,0-.062-.025a.281.281,0,0,0,0,.03c0,.016-.006.035.009.048a.305.305,0,0,1-.048.047.705.705,0,0,0-.1.094c-.026.024-.054.046-.08.069a.664.664,0,0,1-.076.074.974.974,0,0,0-.1.1.028.028,0,0,1-.041,0,.268.268,0,0,1-.028-.018c-.076-.072-2.42-2.232-2.46-2.27a.063.063,0,0,0-.021-.012.564.564,0,0,1-.069-.036c-.055-.036-.112-.068-.168-.1-.033-.019-.064-.04-.1-.06a.5.5,0,0,1-.046-.026c-.013-.011-.018-.006-.03,0a.789.789,0,0,1-.114.044c-.038.009-.074.024-.112.034s-.106.023-.157.039c-.026.006-.057,0-.084.011-.072-.007-.143.016-.215.01-.03,0-.058-.008-.086-.01a.393.393,0,0,1-.084,0c-.039-.011-.079-.008-.117-.021a.851.851,0,0,1-.113-.029c-.014-.006-.031,0-.043-.012a.059.059,0,0,0-.017.008c-.053.048-.1.1-.157.144s-.1.088-.143.134c-.027,0-.034.044-.062.037a.137.137,0,0,1-.057-.037c-.02-.017-.037-.038-.055-.055-.081.041-.393.234-.469.289a.066.066,0,0,1-.026.014.163.163,0,0,0-.062.042.313.313,0,0,1-.157.076.489.489,0,0,1-.132.008.367.367,0,0,1-.1-.017.255.255,0,0,0-.04,0c-.012,0-.025-.01-.037-.011a.033.033,0,0,0-.025.007c-.039.014-.639.252-.709.275-.017.007-.027.015-.024.032a.222.222,0,0,1-.028.1.087.087,0,0,1-.091.064.026.026,0,0,0-.029.024c-.007.031-.013.06-.021.092a.023.023,0,0,1-.024.021h-.28v.053q0,1.841,0,3.683c0,.064,0,.063-.063.063H213.27c-.024,0-.032-.009-.033-.03V193.3Zm-5.112-1.87c-.026.025-.052.053-.076.076.028.029.059.058.088.088l.035-.026c.014-.01.026-.024.04-.036-.021-.021-.039-.04-.058-.058S208.127,191.446,208.125,191.426Zm11.756-.031a.055.055,0,0,1-.021.048c-.019.019-.036.041-.053.061l.056.06h.009l.1-.085Z"/><path class="f" d="M205.451,197.8h2.272l2.617,8.367h-2l-.513-1.989h-2.554l-.513,1.989h-1.925Zm.205,4.9h1.784l-.192-.769c-.231-.835-.463-1.823-.681-2.7h-.05c-.206.886-.424,1.861-.656,2.7Z"/><path class="e" d="M256.052,148.07h-.265c-.024,0-.032,0-.039-.029a.723.723,0,0,1-.021-.08c0-.015-.006-.024-.018-.027-.06-.016-.07-.07-.085-.117,0-.015-.015-.03-.012-.047s-.011-.033-.03-.04-.038-.018-.057-.025-.024,0-.033.017c-.017.042-.03.084-.049.127a.576.576,0,0,1-.041.1c0,.009-.007.013-.017.011-.027,0-.059.012-.085-.009h-.016c-.037,0-.038,0-.05.037a.431.431,0,0,1-.022.06.014.014,0,0,1-.01.008.107.107,0,0,1-.04,0c-.072-.03-1.307-.5-1.358-.521a.039.039,0,0,1-.021-.011c-.013-.009-.029-.017-.009-.035.006-.046.034-.084.043-.129a.04.04,0,0,0,0-.042.378.378,0,0,1-.063-.127l-.011-.041c-.044.038-.044.038-.087,0-.061-.06-.121-.12-.186-.174a1.3,1.3,0,0,1-.109-.1.05.05,0,0,0-.057-.016c-.029.009-.06.013-.089.023a.265.265,0,0,1-.071.015.325.325,0,0,1-.112.013,1.227,1.227,0,0,1-.257.01.176.176,0,0,1-.087-.008c-.024-.012-.056,0-.083-.012s-.042.009-.059-.011a.423.423,0,0,1-.149-.032c-.041-.009-.081-.025-.121-.038a.247.247,0,0,1-.063-.026.057.057,0,0,0-.064,0c-.043.025-.295.188-.322.2a.316.316,0,0,0-.111.075c-.073.066-2.41,2.22-2.452,2.257l-.409-.377a.046.046,0,0,1-.018-.045v-.055c-.049.043-.048.043-.092,0s-.079-.072-.118-.107c-.01-.01-.016-.016,0-.029s0-.023,0-.036c0-.163,0-.326,0-.489,0-.02-.013-.04,0-.064a.338.338,0,0,0,.019-.071c0-.023.1-.363.11-.416s.271-.987.28-1.033a.064.064,0,0,1,.013-.026.922.922,0,0,1,.126-.116l.008-.007c.07-.067,1.9-1.757,1.946-1.8a.154.154,0,0,1,.028-.019.015.015,0,0,1,.022,0c.021.018.043.034.063.052s.031.034.049.048.041.035.066.056c0-.054,0-.1,0-.151,0-.066.017-.129.01-.2a.031.031,0,0,1,.007-.018c.017-.011.015-.021,0-.037a.1.1,0,0,1-.007-.078.645.645,0,0,1,.11-.211c.026-.039.06-.074.089-.11s.06-.081.09-.12a.15.15,0,0,1,.02-.023c.048-.048.094-.1.146-.145a1.475,1.475,0,0,1,.2-.146,1.656,1.656,0,0,1,.172-.09,1.63,1.63,0,0,1,.226-.078c.056-.014.115-.027.172-.039a.75.75,0,0,1,.184-.012.076.076,0,0,0,.05-.008.052.052,0,0,1,.05,0c.018.012.037.006.054.008a.331.331,0,0,0,.187-.043c.04-.019.084-.031.126-.05s.1-.038.153-.06a.773.773,0,0,1,.139-.044c.049-.013.1-.03.146-.04.032-.006.064-.018.095-.023a.1.1,0,0,1,.1.029l0,0c.044.016.047.051.044.091s-.02.039-.031.057c-.04.06-.087.115-.127.177-.027.042-.061.08-.09.117.038.025.076.053.115.079a1.24,1.24,0,0,1,.156.134,1.716,1.716,0,0,1,.192.225c.008.01.008.026.015.035a.889.889,0,0,1,.11.206,1.43,1.43,0,0,1,.049.153c.013.043.017.087.028.13a.446.446,0,0,1,.012.126c0,.081,0,.161,0,.241,0,.053-.013.1-.011.154-.022.025,0,.06-.02.086.013.036,0,.079.038.109.074.067.146.137.224.209V145.4c0-.085,0-.171,0-.257a.4.4,0,0,1,.078-.246.5.5,0,0,1,.06-.069c.052-.054.1-.109.158-.16.024-.022.037-.057.078-.056.012-.04.054-.045.08-.069a.555.555,0,0,1,.088-.057c.02-.013.042-.029.064-.042s.044-.011.046-.039a.445.445,0,0,1,.075-.032c.018,0,.018-.012.018-.024v-.23h-.187c-.026,0-.032-.008-.033-.035v-.256c0-.033,0-.03-.032-.045-.071-.036-.149-.056-.221-.089a1.3,1.3,0,0,0-.123-.047c-.014,0-.023-.012-.023-.028v-.257c0-.019.009-.025.027-.032.051-.016.1-.039.154-.057a.04.04,0,0,0,.03-.045c0-.07,0-.839,0-1.154,0-.048,0-.05-.046-.065a.521.521,0,0,1-.05-.02s-.01-.01-.009-.014,0-.018-.016-.019a.082.082,0,0,1-.029-.009.128.128,0,0,0-.058-.024c0-.021,0-.042,0-.062v-.42c0-.018,0-.034.026-.03.089-.044.185-.067.273-.114.083-.017.155-.065.238-.085a.028.028,0,0,0,.021-.031c0-.029,0-.059,0-.089,0-.087,0-.175,0-.263a.047.047,0,0,1,.013-.036c.039-.036.072-.077.113-.11s.088-.087.138-.126.095-.1.146-.137.1-.091.144-.135c.01-.008.022-.014.032-.022.032-.021.033-.021.058,0s.056.053.082.082a.1.1,0,0,0,.081.034h1.4a.09.09,0,0,0,.072-.03c.031-.031.062-.061.093-.093s.023-.017.047,0a.6.6,0,0,1,.1.089c.065.061.127.125.194.181.049.039.087.089.136.126s.089.087.136.126a.082.082,0,0,1,.028.069c0,.1,0,.206,0,.309a.094.094,0,0,0,.042.088.366.366,0,0,1,.074.073.916.916,0,0,1,.089.121.868.868,0,0,1,.051.1c.027.055.042.114.065.172.008.022,0,.049.016.066a1.16,1.16,0,0,1,.021.175,1.274,1.274,0,0,1,.011.269,1.335,1.335,0,0,0-.011.143.094.094,0,0,0-.009.062.3.3,0,0,1-.013.059,1.275,1.275,0,0,1-.032.149,1.633,1.633,0,0,1-.061.195c-.015.041-.03.083-.046.122l-.08.173c-.009.02-.024.038-.035.058l-.01.02h.061c.008.045.011.749,0,.913h-.082v.215c0,.022,0,.036.028.041a.082.082,0,0,1,.037.019c.011.01.029.008.032.028s.015.009.025.014a1.344,1.344,0,0,1,.181.119.507.507,0,0,0,.055.034l.017.007s-.006.01,0,.015.008.011.008.011c.023-.013.03.007.038.017l.213.211a.51.51,0,0,1,.115.2v.01c0,.055.015.108.013.164s0,.1,0,.166c.055-.05.1-.093.145-.137.016-.015.035-.026.052-.041a.063.063,0,0,0,.024-.057c0-.02.01-.037.01-.054a.371.371,0,0,0-.015-.066l0-.01c.008-.037-.012-.073-.011-.111,0-.1,0-.2,0-.3a.6.6,0,0,1,.011-.127c.007-.035.013-.072.022-.107s.018-.065.03-.1a1.456,1.456,0,0,1,.135-.285c.027-.043.061-.082.086-.127l.008-.007c.042-.046.081-.094.127-.136a1.351,1.351,0,0,1,.21-.165c.01-.006.017-.017.028-.02.027-.007.009-.014,0-.027s-.013-.02-.019-.029c-.04-.053-.08-.107-.119-.161-.025-.034-.048-.071-.076-.1a.128.128,0,0,1-.018-.087l0-.009a.188.188,0,0,1,.11-.074.143.143,0,0,1,.063.011c.062.016.125.036.189.05a1.328,1.328,0,0,1,.2.067c.068.029.139.053.209.08a.509.509,0,0,1,.128.058.023.023,0,0,0,.019,0c.039-.022.081,0,.126-.014v-.315c0-.022,0-.041-.021-.054a.075.075,0,0,1-.032-.076c0-.06,0-.119,0-.179a.062.062,0,0,1,.021-.049c.032-.03.712-.669.758-.7s.056-.058.1-.069.347-.127.382-.142a.021.021,0,0,1,.026,0c.064.065.133.126.192.195s.109.114.164.173.11.115.162.174a.688.688,0,0,1,.065.088l.1.141.118.161c.032.046.064.093.1.138a.671.671,0,0,1,.074.116c.032.064.066.127.1.189.025.046.048.092.072.137.048.088.095.175.141.263.013.027.022.057.033.086.021.057.047.113.066.172.025.085.062.167.089.252.016.058.043.114.063.173a.32.32,0,0,1,.017.055.522.522,0,0,0,.011.069c.007.019.006.036.012.053s.005.033.009.049c.014.048.021.1.035.148,0,.013,0,.027.007.039s.008.025.011.038a1.593,1.593,0,0,0,.034.164.176.176,0,0,1,.006.039v.677c0,.033,0,.042-.038.054s-.043.015-.065.02-.015.014-.006.022.028.036.051.042c.006,0,.011.009.015.013.075.071.839.778.89.827,0,.005.012.006.017.01a.154.154,0,0,1,.07.1c.007.049.394,1.465.41,1.5l0,.015c-.012.011-.006.026-.006.038,0,.165,0,.329,0,.493a.113.113,0,0,0,0,.032c0,.007.013.008,0,.018-.039.038-.074.076-.112.112a.152.152,0,0,1-.039.029c-.024.014-.042,0-.062-.025a.265.265,0,0,0,0,.029c0,.017-.006.035.009.047a.248.248,0,0,1-.048.049.705.705,0,0,0-.1.094c-.026.022-.054.045-.081.069a.748.748,0,0,1-.075.074.974.974,0,0,0-.1.1.028.028,0,0,1-.041,0c-.008-.007-.021-.012-.028-.019-.076-.071-2.42-2.232-2.46-2.27a.067.067,0,0,0-.021-.013.373.373,0,0,1-.069-.035c-.056-.036-.112-.068-.168-.1l-.1-.061a.259.259,0,0,1-.046-.026c-.013-.01-.018,0-.031,0a.642.642,0,0,1-.113.043c-.038.01-.075.025-.112.035-.052.014-.106.023-.157.039-.026.007-.057,0-.084.011-.072-.007-.143.016-.216.011-.029,0-.057-.009-.085-.011a.392.392,0,0,1-.084,0c-.039-.01-.079-.008-.117-.019a.726.726,0,0,1-.113-.031c-.014,0-.031,0-.043-.01a.032.032,0,0,0-.017.007c-.053.048-.1.1-.157.144s-.1.089-.143.135c-.027,0-.034.043-.062.037a.15.15,0,0,1-.057-.038c-.021-.017-.037-.037-.055-.054-.082.04-.393.233-.469.289a.064.064,0,0,1-.026.013.16.16,0,0,0-.062.041.306.306,0,0,1-.157.077.534.534,0,0,1-.132.009.368.368,0,0,1-.1-.018.26.26,0,0,0-.04,0c-.012,0-.025-.009-.037-.011a.055.055,0,0,0-.025.007c-.039.014-.64.253-.709.276-.017.007-.027.014-.025.032a.213.213,0,0,1-.027.105.088.088,0,0,1-.092.063.027.027,0,0,0-.028.024c-.007.03-.013.06-.021.091a.023.023,0,0,1-.024.022c-.017,0-.035,0-.052,0h-.229v.053q0,1.842,0,3.683c0,.064,0,.063-.062.063h-1.4c-.01,0-.02,0-.031,0s-.032-.009-.033-.03V148.07Zm-5.112-1.87c-.026.024-.052.051-.076.077l.088.087.035-.026c.014-.011.026-.024.04-.036-.021-.021-.039-.04-.059-.058S250.942,146.22,250.94,146.2Zm11.756-.031a.059.059,0,0,1-.021.049.809.809,0,0,0-.054.061l.057.058h.009l.1-.085C262.756,146.223,262.727,146.2,262.7,146.169Z"/><path class="f" d="M246.3,152.576h2.861c1.732,0,3.08.476,3.08,2.079a1.941,1.941,0,0,1-1.091,1.81v.051a1.9,1.9,0,0,1,1.5,1.963c0,1.708-1.436,2.464-3.246,2.464h-3.1Zm2.771,3.35c.924,0,1.322-.385,1.322-.988,0-.655-.423-.9-1.309-.9h-.9v1.887Zm.18,3.554c1.026,0,1.553-.359,1.553-1.128,0-.732-.513-1.028-1.553-1.028h-1.065v2.156Z"/><path class="e" d="M201.289,67.19h-.266c-.024,0-.031,0-.038-.027a.6.6,0,0,1-.021-.081c0-.015-.006-.025-.018-.028-.06-.016-.07-.069-.086-.116a.112.112,0,0,1-.011-.047c0-.025-.012-.033-.03-.04l-.058-.026c-.015-.006-.024,0-.032.018-.017.042-.03.084-.049.126a.625.625,0,0,1-.041.1c-.005.01-.007.014-.018.012-.027,0-.058.011-.084-.01h-.016c-.038,0-.039,0-.05.037a.6.6,0,0,1-.022.059.013.013,0,0,1-.01.009.13.13,0,0,1-.04,0c-.072-.03-1.307-.506-1.359-.521a.136.136,0,0,1-.021-.01c-.012-.01-.029-.019-.008-.036a1.219,1.219,0,0,1,.043-.129.042.042,0,0,0,0-.042.36.36,0,0,1-.063-.127l-.011-.042c-.044.039-.044.038-.087,0-.062-.06-.121-.12-.186-.174a1.176,1.176,0,0,1-.11-.1.048.048,0,0,0-.056-.015c-.029.009-.061.012-.09.023a.255.255,0,0,1-.071.014.345.345,0,0,1-.112.014,1.1,1.1,0,0,1-.256.009.164.164,0,0,1-.087-.008c-.024-.011-.056,0-.084-.011s-.041.009-.058-.011a.447.447,0,0,1-.149-.032c-.041-.01-.081-.025-.122-.038a.281.281,0,0,1-.062-.026.055.055,0,0,0-.064,0c-.044.025-.3.189-.323.2a.324.324,0,0,0-.11.076c-.073.065-2.411,2.22-2.452,2.256l-.41-.377a.045.045,0,0,1-.017-.045v-.054c-.049.043-.048.042-.092,0s-.08-.072-.118-.107c-.011-.01-.016-.016,0-.03s0-.023,0-.036c0-.162,0-.324,0-.487,0-.022-.014-.042,0-.066a.336.336,0,0,0,.018-.071c.006-.022.1-.362.111-.415s.271-.987.28-1.033a.061.061,0,0,1,.012-.027.923.923,0,0,1,.127-.115l.007-.007c.07-.067,1.9-1.757,1.947-1.8.008-.007.02-.012.028-.019a.014.014,0,0,1,.022,0c.021.018.043.034.062.052s.032.033.05.048.04.034.065.055c0-.053,0-.1,0-.15,0-.066.018-.13.011-.2a.027.027,0,0,1,.007-.018c.017-.012.015-.022,0-.038a.1.1,0,0,1-.006-.077.65.65,0,0,1,.11-.212c.026-.038.059-.073.088-.11s.061-.08.09-.12l.021-.023c.048-.048.094-.1.145-.144a1.462,1.462,0,0,1,.2-.146,1.343,1.343,0,0,1,.172-.09,1.548,1.548,0,0,1,.226-.079l.172-.038a.7.7,0,0,1,.184-.012.085.085,0,0,0,.05-.009.055.055,0,0,1,.05,0c.018.013.037.007.053.009a.32.32,0,0,0,.187-.043c.041-.019.085-.032.127-.051s.1-.036.153-.059a.777.777,0,0,1,.139-.045c.049-.013.1-.028.146-.039.031-.007.064-.018.095-.024a.1.1,0,0,1,.1.029l0,0c.044.016.048.052.044.091s-.019.038-.03.056c-.041.06-.088.116-.127.178-.027.042-.061.08-.09.117l.115.08a1.215,1.215,0,0,1,.155.132,1.7,1.7,0,0,1,.192.225c.009.011.009.026.016.036a.851.851,0,0,1,.11.206,1.517,1.517,0,0,1,.049.153c.012.043.017.087.028.129a.453.453,0,0,1,.012.127c0,.08,0,.161,0,.241,0,.052-.013.1-.011.154-.023.024,0,.06-.021.085.014.037.006.079.039.11.074.067.146.137.223.209v-.043c0-.086,0-.172,0-.257a.406.406,0,0,1,.079-.246.486.486,0,0,1,.059-.07c.052-.054.105-.108.159-.159.024-.022.036-.058.077-.057.013-.039.054-.045.081-.068a.594.594,0,0,1,.087-.057c.021-.014.043-.029.065-.042s.044-.012.046-.039a.45.45,0,0,1,.075-.033c.018,0,.018-.011.018-.024v-.229h-.187c-.026,0-.032-.009-.033-.035v-.257c0-.032,0-.03-.033-.045-.071-.035-.148-.054-.22-.089a1.143,1.143,0,0,0-.123-.046c-.014,0-.023-.011-.023-.029v-.256c0-.019.009-.025.027-.031.051-.018.1-.04.153-.058a.042.042,0,0,0,.031-.046c0-.069,0-.839,0-1.153,0-.048-.005-.05-.046-.065a.44.44,0,0,1-.05-.021l-.009-.013c0-.014,0-.018-.016-.019a.076.076,0,0,1-.03-.01.149.149,0,0,0-.057-.023c0-.021,0-.042,0-.062v-.42c0-.019,0-.035.026-.03.089-.045.185-.068.272-.114.084-.017.156-.066.238-.086.015,0,.021-.014.021-.03s0-.06,0-.089c0-.087,0-.175,0-.263a.045.045,0,0,1,.014-.036c.038-.036.072-.078.113-.11s.087-.088.137-.126.095-.1.147-.137.1-.091.144-.134a.319.319,0,0,1,.032-.023c.031-.022.033-.022.058,0s.056.054.082.082a.1.1,0,0,0,.08.035h1.4a.094.094,0,0,0,.072-.03l.093-.093c.021-.02.023-.018.047,0a.706.706,0,0,1,.1.09c.065.06.126.125.193.18.049.04.088.09.137.127s.089.086.136.127a.078.078,0,0,1,.028.067c0,.1,0,.207,0,.31a.092.092,0,0,0,.042.088.366.366,0,0,1,.074.073,1.045,1.045,0,0,1,.089.121c.02.032.034.066.051.1.027.056.041.115.064.173.009.022,0,.048.017.066a1.466,1.466,0,0,1,.021.175,1.264,1.264,0,0,1,.01.268c0,.048-.017.094-.01.143a.092.092,0,0,0-.009.063.387.387,0,0,1-.013.059,1.519,1.519,0,0,1-.032.149,1.692,1.692,0,0,1-.061.2c-.015.041-.03.082-.047.122-.026.058-.052.115-.079.172-.01.02-.024.039-.036.058s0,.012-.009.021h.06c.009.045.012.749,0,.912h-.083v.111c0,.035,0,.07,0,.1s0,.036.028.04a.082.082,0,0,1,.038.02c.01.009.029.007.031.027s.016.01.025.015a1.294,1.294,0,0,1,.182.119.434.434,0,0,0,.054.033l.018.008c0,.005-.006.01,0,.015s.008.011.008.011c.022-.013.029.007.038.017l.213.21a.53.53,0,0,1,.115.2v.01c0,.055.014.109.012.164s0,.1,0,.166c.054-.05.1-.093.144-.136.017-.015.036-.027.052-.041a.063.063,0,0,0,.025-.058c0-.02.01-.036.01-.053a.384.384,0,0,0-.016-.067l0-.009c.007-.038-.012-.073-.011-.11,0-.1,0-.2,0-.3a.591.591,0,0,1,.011-.126c.006-.035.013-.072.022-.107s.018-.066.029-.1a1.482,1.482,0,0,1,.136-.284c.027-.043.061-.082.086-.127l.008-.007c.042-.046.08-.094.126-.136a1.38,1.38,0,0,1,.21-.164c.011-.007.018-.019.029-.021.027-.007.009-.015,0-.027s-.013-.019-.019-.029c-.041-.053-.08-.107-.119-.161-.025-.034-.048-.071-.076-.105a.127.127,0,0,1-.018-.087l0-.009a.19.19,0,0,1,.11-.074.14.14,0,0,1,.062.012c.063.016.126.035.189.05a1.34,1.34,0,0,1,.2.067c.068.029.139.053.209.081a.454.454,0,0,1,.127.057.025.025,0,0,0,.02,0c.039-.022.08,0,.125-.013v-.316c0-.022,0-.041-.021-.054a.076.076,0,0,1-.031-.077c0-.059,0-.119,0-.178a.058.058,0,0,1,.021-.049c.031-.03.712-.67.758-.7s.056-.058.1-.069.348-.126.382-.141a.021.021,0,0,1,.027.005c.063.064.132.124.192.194s.108.114.164.172.109.115.161.175a.6.6,0,0,1,.065.088c.036.047.069.094.1.141s.078.107.118.161.063.092.1.138a.663.663,0,0,1,.074.115c.031.065.066.128.1.19.025.045.048.092.072.138q.072.13.141.261c.014.027.022.057.034.086.021.058.047.114.066.172.025.085.062.167.088.252.017.058.044.115.064.173.007.018.011.037.017.056a.522.522,0,0,0,.011.069c.006.018,0,.036.012.053s0,.033.009.048c.014.049.021.1.035.149,0,.013,0,.026.007.039s.008.025.01.037c.011.055.019.111.035.164a.185.185,0,0,1,.006.039v.677c0,.034,0,.043-.039.054s-.042.015-.064.021-.015.014-.007.022.029.035.052.042c.006,0,.011.009.015.013.074.071.839.778.89.827a.128.128,0,0,0,.017.01.156.156,0,0,1,.07.1c.007.049.393,1.465.41,1.5l0,.014c-.013.012-.006.026-.006.039,0,.166,0,.329,0,.493a.087.087,0,0,0,0,.032c0,.007.013.008,0,.019-.039.036-.075.074-.112.111a.227.227,0,0,1-.04.029c-.024.013-.042,0-.061-.025a.265.265,0,0,0,0,.029c0,.017-.007.035.009.048a.266.266,0,0,1-.048.047.71.71,0,0,0-.1.094c-.027.024-.055.046-.081.07a.737.737,0,0,1-.075.073,1.1,1.1,0,0,0-.1.1c-.014.013-.026.016-.041,0s-.021-.011-.028-.018l-2.461-2.27a.04.04,0,0,0-.021-.012.4.4,0,0,1-.068-.036c-.056-.036-.112-.068-.169-.1l-.1-.06c-.014-.009-.032-.016-.046-.026s-.017-.006-.03,0a.743.743,0,0,1-.114.043c-.037.01-.074.024-.111.035-.053.013-.106.023-.157.039-.026.006-.058,0-.085.011-.072-.007-.143.016-.215.01-.029,0-.057-.008-.086-.01a.458.458,0,0,1-.083,0c-.04-.01-.079-.008-.117-.019a1.062,1.062,0,0,1-.114-.031c-.013-.005-.03,0-.043-.011a.026.026,0,0,0-.016.008c-.054.048-.1.1-.157.144s-.1.088-.143.134c-.027,0-.035.043-.063.038a.139.139,0,0,1-.056-.039.7.7,0,0,1-.055-.053c-.082.04-.393.233-.469.288a.073.073,0,0,1-.026.014.16.16,0,0,0-.062.041.322.322,0,0,1-.158.077.577.577,0,0,1-.131.008.4.4,0,0,1-.1-.017.18.18,0,0,0-.04,0c-.013,0-.025-.009-.038-.01a.04.04,0,0,0-.025.006c-.038.014-.639.253-.709.276-.017.006-.026.014-.024.031a.222.222,0,0,1-.027.1.088.088,0,0,1-.092.063.027.027,0,0,0-.028.024l-.021.092a.022.022,0,0,1-.024.021c-.018,0-.036,0-.052,0h-.229v.054q0,1.841,0,3.683c0,.063,0,.062-.063.062h-1.426c-.024,0-.032-.009-.033-.029V67.19Zm-5.112-1.869-.076.076.087.088.036-.026c.013-.011.026-.024.04-.037-.021-.021-.039-.039-.059-.057S196.179,65.341,196.177,65.321Zm11.755-.031a.052.052,0,0,1-.021.048c-.019.019-.035.04-.053.061.019.02.038.039.056.059h.01l.1-.086C207.993,65.344,207.963,65.319,207.932,65.29Z"/><path class="f" d="M191.436,75.932c0-2.771,1.835-4.389,3.953-4.389a3.535,3.535,0,0,1,2.514,1.091l-1,1.207a2.136,2.136,0,0,0-1.475-.668c-1.142,0-2.053,1.014-2.053,2.695,0,1.72.8,2.721,2.027,2.721a2.234,2.234,0,0,0,1.63-.783l1,1.18a3.443,3.443,0,0,1-2.708,1.232C193.207,80.218,191.436,78.743,191.436,75.932Z"/><line class="g" x1="258.634" y1="155.927" x2="258.634" y2="196.888"/><polygon class="f" points="258.634 215.008 248.201 189.474 258.634 195.533 269.065 189.474 258.634 215.008"/></g></svg>