<svg xmlns="http://www.w3.org/2000/svg" viewBox="0 0 300 300"><defs><style>.a{isolation:isolate;}.b,.c{fill:#e1d6bc;mix-blend-mode:multiply;}.b{fill-opacity:0.1;stroke:#e1d6bc;stroke-linecap:round;stroke-miterlimit:10;stroke-opacity:0.2;stroke-width:0.535px;}.c{opacity:0.4;}.d{fill:#231f20;}.d,.e{fill-rule:evenodd;}.e,.f{fill:#be1e2d;}</style></defs><title>tactics</title><g class="a"><circle class="b" cx="134.962" cy="202.622" r="93.781" transform="translate(-85.476 305.954) rotate(-81.449)"/><circle class="c" cx="134.962" cy="202.622" r="60.632" transform="translate(-93.248 287.42) rotate(-76.717)"/><path class="d" d="M136.742,207.01c.018-.013,0-.044,0-.066,0-.062-.008-.124-.01-.185-.006-.172-.009-.344-.014-.514a.665.665,0,0,0-.016-.091,2.33,2.33,0,0,0-.235-.065.35.35,0,0,1,.035-.042.866.866,0,0,0,.243-.545,1.271,1.271,0,0,0-.054-.521,1.317,1.317,0,0,0-.328-.565c-.031-.031-.063-.065-.1-.1.076-.029.143-.052.2-.076a.3.3,0,0,0,.011-.143c0-.016-.006-.033-.007-.05,0-.117-.009-.235-.015-.354-.006-.139-.015-.281-.023-.42,0-.033,0-.066,0-.1s0-.045-.007-.074a1.278,1.278,0,0,0-.361-.038c-.007-.088-.014-.177-.019-.264a.674.674,0,0,0,.041-.687.46.46,0,0,1,.165-.045l.535.674a.526.526,0,0,0,.089-.008c.066-.012.13-.03.194-.044a.319.319,0,0,1,.062-.008l.06.075c.059.078.091.091.182.061a.942.942,0,0,0,.177-.088c.049-.03.094-.05.149-.01a.145.145,0,0,0,.071.009.411.411,0,0,0,.063-.006c.037.044.075.091.11.137q.291.381.583.76l.787,1.027c.192.248.386.5.576.748a.142.142,0,0,0,.159.054.289.289,0,0,0,.154-.086.147.147,0,0,0,.014-.221c-.154-.2-.308-.4-.458-.6-.237-.309-.471-.621-.706-.932-.276-.363-.55-.726-.827-1.09-.013-.017-.023-.033-.036-.051.009-.027.016-.049.023-.072a.085.085,0,0,0-.012-.089c-.074-.1-.146-.195-.219-.293a.1.1,0,0,0-.086-.041.248.248,0,0,1-.071-.007.176.176,0,0,1,.039-.019c.069-.02.138-.039.21-.057a.164.164,0,0,0,.106-.077c.046-.072.094-.142.145-.216-.011-.022-.021-.046-.032-.067-.061-.1-.121-.2-.18-.306a.208.208,0,0,0-.13-.113.111.111,0,0,1-.029-.018,1.06,1.06,0,0,1,0-.114.153.153,0,0,1,.019-.068c.045-.067.095-.132.14-.2a.588.588,0,0,0,.091-.428,1.131,1.131,0,0,0-.318-.62,1.5,1.5,0,0,0-.556-.376,1.051,1.051,0,0,0-.587-.06l-.041,0c-.074-.052-.1-.147-.179-.207a2.338,2.338,0,0,0-.291.147.715.715,0,0,0-.418.272l-.038-.022-.033-.023c-.081.011-.142.071-.226.092-.008-.014-.016-.026-.024-.041-.028-.064-.055-.128-.082-.194a.1.1,0,0,1-.012-.047.5.5,0,0,0-.093-.291l-.03-.053c.016-.01.027-.025.041-.029a.726.726,0,0,0,.333-.261c.057-.073.129-.131.186-.2.026-.033.057-.059.086-.09a.1.1,0,0,0,.018-.029,10.233,10.233,0,0,0-.677-.911.314.314,0,0,0-.056.027l-.3.188c-.026.016-.053.029-.086.047,0-.095.009-.179.013-.262h-.006c.006-.022.017-.044.021-.065a.13.13,0,0,0-.051-.136,2.291,2.291,0,0,0-1.1-.462,2.215,2.215,0,0,0-1.239.17c-.025.011-.049.022-.074.031a.1.1,0,0,0-.072.117c0,.027.007.054.009.081a2.285,2.285,0,0,0-.043.308c-.024,0-.047,0-.069-.006-.207-.032-.414-.065-.619-.1a.165.165,0,0,0-.151.027c-.062-.05-.124-.1-.19-.15-.024.021-.043.035-.062.053l-.423.394c-.13.121-.26.238-.39.359-.006.05-.012.1-.015.148-.01.132-.017.265-.023.4-.006.077-.01.154-.013.231a.083.083,0,0,0,.045.075l.1.075c-.049.044-.09.085-.131.122-.089.081-.177.157-.266.235a.1.1,0,0,0-.037.076c-.007.132-.018.264-.025.4,0,.055-.01.107-.013.16,0,.022,0,.042,0,.064l.1.076a.55.55,0,0,1-.038.042l-.3.255a.136.136,0,0,0-.042.1c-.011.144-.024.288-.036.432-.009.127-.018.253-.026.379a.1.1,0,0,0,.058.1c.088.049.171.1.257.154a.469.469,0,0,0,.064.031l.072-.042c.01.045.018.084.023.125a.076.076,0,0,1-.035.062c-.06.047-.118.1-.18.143a.192.192,0,0,0-.087.172c0,.095-.011.189-.018.291a.243.243,0,0,0,.048.04c.081.048.166.095.248.142.013.008.023.018.041.028.012.07.025.142.037.22l.129.075q.041.021.081.045a.079.079,0,0,0,.1-.005c.034-.027.071-.051.109-.078.085.047.169.095.252.143a.224.224,0,0,0-.022.18,1.674,1.674,0,0,0,.253.143c.037-.026.07-.046.1-.07.074-.052.145-.11.219-.161a.169.169,0,0,0,.077-.117c.023-.119.05-.239.073-.359a.149.149,0,0,1,.072-.109c.052-.033.1-.075.15-.108a.163.163,0,0,1,.079-.036c.193-.01.388-.019.583-.026.018,0,.036,0,.065,0-.036.06-.068.111-.1.164-.051,0-.1.012-.154.016-.02-.014-.042-.028-.063-.045a.309.309,0,0,0-.241-.06.528.528,0,0,1-.068.009.294.294,0,0,0-.249.151.431.431,0,0,0,.139.6.166.166,0,0,1,.035.029c-.084.04-.17,0-.255.033,0,.037-.005.078-.01.117s-.011.078-.018.121l-.139.015a.491.491,0,0,0-.025.16c-.007.125-.008.251-.014.379-.009.164-.017.331-.026.5,0,.065-.008.128-.01.192a.5.5,0,0,0,0,.074c.1.038.2.058.3.1-.021,0-.04,0-.062,0a.139.139,0,0,0-.126.067,2.321,2.321,0,0,0-.266.526c-.032.1-.058.2-.089.3,0,.017-.007.031-.011.046a.162.162,0,0,1-.107.016c-.122,0-.149.022-.167.142a1.392,1.392,0,0,0-.017.451c.011.065.016.132.031.195s.04.073.106.067c.043,0,.089,0,.137-.006a.556.556,0,0,1,.023.069,2.084,2.084,0,0,0,.208.59.386.386,0,0,1,.04.241,1.56,1.56,0,0,0-.007.216.188.188,0,0,0,.031.08c.134.226.269.453.4.678l.1.159c.023,0,.042.006.059,0,.144-.01.284-.024.428-.033.083-.007.168-.01.253-.016s.181-.014.273-.022.173-.011.259-.015.093-.014.1-.093c.006-.12.016-.239.024-.36.008-.148.017-.3.025-.445,0-.077.009-.156.016-.251a2.465,2.465,0,0,0,.315-.881.59.59,0,0,1,.076-.01.116.116,0,0,0,.126-.09.8.8,0,0,0,.034-.158,1.1,1.1,0,0,0-.024-.407.326.326,0,0,0-.042-.091.113.113,0,0,0-.13-.057.225.225,0,0,1-.045,0c-.037-.125-.068-.25-.111-.37s-.1-.231-.147-.354c.118-.033.238-.023.358-.052.022-.16.021-.32.034-.48s.018-.322.029-.487c.026-.006.047-.015.07-.018.075-.009.151-.017.226-.027a.374.374,0,0,0,.067-.022v-.167a.588.588,0,0,1,.171-.014c.032.185.018.371.053.554.031.009.06.018.087.024.087.019.175.035.261.052.044.011.046.013.048.061l-.037.012a.947.947,0,0,0-.341.149.421.421,0,0,0-.054.05.386.386,0,0,1-.182.115c-.05.016-.1.036-.153.056a1.278,1.278,0,0,0,.01.249l.073.027a.479.479,0,0,1-.009.169c-.006.055.006.114-.031.154v.144a.119.119,0,0,0,.054.12c.062.155.12.3.18.454-.017.011-.034.025-.054.039,0,.01,0,.022,0,.031a3.045,3.045,0,0,0,.026.346c.022.133.024.266.035.4,0,.051.014.064.076.08l.446.116,1.246.325a.154.154,0,0,0,.135-.016c.173-.112.346-.221.517-.332C136.7,207.044,136.717,207.028,136.742,207.01Zm-1.025-5.171c.024.017-.01.05-.015.076-.045.007-.086.011-.124.02s-.075.024-.127.038a1.082,1.082,0,0,0,.033-.1c.014-.072.06-.1.138-.106C135.649,201.784,135.681,201.809,135.717,201.839Z"/><circle class="b" cx="159.556" cy="97.557" r="93.781" transform="translate(-22.251 141.397) rotate(-45)"/><circle class="c" cx="159.556" cy="97.557" r="60.632" transform="translate(-22.251 141.397) rotate(-45)"/><path class="d" d="M161.337,101.946c.017-.014,0-.045,0-.066,0-.063-.009-.125-.011-.186,0-.172-.008-.343-.013-.514a.844.844,0,0,0-.016-.09,2.411,2.411,0,0,0-.235-.066l.034-.042a.859.859,0,0,0,.244-.544,1.278,1.278,0,0,0-.055-.522,1.317,1.317,0,0,0-.327-.564c-.032-.032-.063-.065-.1-.1l.2-.075a.289.289,0,0,0,.01-.144c0-.016-.006-.032-.007-.049,0-.118-.008-.235-.014-.354-.007-.14-.015-.281-.023-.421,0-.033,0-.066,0-.1l-.007-.075a1.312,1.312,0,0,0-.36-.038c-.007-.088-.015-.177-.02-.263a.677.677,0,0,0,.042-.687.47.47,0,0,1,.165-.046c.175.222.353.445.535.674a.514.514,0,0,0,.088-.008c.066-.012.131-.029.194-.044.02,0,.041,0,.062-.007.022.027.042.05.061.075.058.077.091.091.181.06a.917.917,0,0,0,.178-.087.118.118,0,0,1,.148-.011.135.135,0,0,0,.071.01.618.618,0,0,0,.064-.007c.036.044.074.091.11.137l.582.761.788,1.026c.192.249.386.5.575.748a.143.143,0,0,0,.16.056.3.3,0,0,0,.153-.087.147.147,0,0,0,.015-.221c-.155-.2-.308-.4-.459-.6-.237-.31-.47-.622-.705-.932q-.414-.546-.828-1.09c-.012-.017-.022-.034-.035-.052l.023-.072a.085.085,0,0,0-.013-.088c-.074-.1-.146-.195-.219-.293a.1.1,0,0,0-.085-.041.224.224,0,0,1-.072-.008.276.276,0,0,1,.039-.018c.069-.02.139-.04.21-.057a.166.166,0,0,0,.107-.078c.045-.072.094-.142.145-.215-.012-.023-.021-.046-.033-.067-.06-.1-.121-.2-.179-.306a.214.214,0,0,0-.131-.114.085.085,0,0,1-.028-.018c0-.04,0-.077,0-.114a.146.146,0,0,1,.02-.068c.045-.067.095-.131.14-.2a.587.587,0,0,0,.091-.427,1.128,1.128,0,0,0-.319-.621,1.5,1.5,0,0,0-.555-.377,1.061,1.061,0,0,0-.587-.06l-.041,0c-.074-.052-.1-.146-.18-.206a2.208,2.208,0,0,0-.291.147.716.716,0,0,0-.418.271l-.037-.021a.334.334,0,0,0-.034-.023c-.08.011-.142.071-.225.092a.436.436,0,0,1-.024-.041c-.028-.064-.056-.129-.083-.194a.116.116,0,0,1-.011-.048.508.508,0,0,0-.093-.29c-.01-.017-.019-.032-.03-.053a.189.189,0,0,1,.04-.03.73.73,0,0,0,.333-.259c.058-.074.13-.132.186-.2.026-.033.058-.06.087-.091a.22.22,0,0,0,.018-.028,10.447,10.447,0,0,0-.677-.912.418.418,0,0,0-.056.028c-.1.062-.2.125-.3.187-.026.016-.053.029-.087.047,0-.095.01-.178.014-.261h-.007a.492.492,0,0,0,.021-.065.126.126,0,0,0-.051-.135,2.28,2.28,0,0,0-1.1-.463,2.228,2.228,0,0,0-1.24.17c-.025.012-.049.022-.074.032a.1.1,0,0,0-.071.117c0,.026.006.054.008.081a2.6,2.6,0,0,0-.043.308c-.023,0-.046,0-.068-.006-.207-.033-.415-.066-.62-.1a.163.163,0,0,0-.15.026l-.19-.15c-.024.02-.044.036-.063.054-.141.13-.282.263-.423.394s-.26.239-.389.358c-.006.051-.013.1-.016.149-.009.133-.017.264-.023.4,0,.077-.009.154-.012.23a.08.08,0,0,0,.045.075c.032.023.062.047.1.076-.049.044-.09.084-.132.122-.088.079-.176.157-.266.235a.1.1,0,0,0-.037.076c-.007.132-.017.263-.025.395,0,.055-.009.108-.012.161,0,.021,0,.042,0,.063l.1.077c-.013.015-.025.029-.037.041-.1.086-.2.17-.3.255a.137.137,0,0,0-.043.1c-.01.144-.024.289-.035.433-.01.126-.018.252-.026.378a.1.1,0,0,0,.058.1c.088.049.17.1.257.154a.369.369,0,0,0,.064.03c.025-.014.046-.025.072-.042.009.046.017.086.023.126a.074.074,0,0,1-.036.062c-.059.047-.118.1-.18.143a.191.191,0,0,0-.086.173c0,.094-.012.189-.019.291a.328.328,0,0,0,.048.04c.082.048.166.095.249.142l.04.028c.013.069.025.142.038.219l.128.075.082.046a.079.079,0,0,0,.1-.006c.035-.027.071-.05.11-.077l.252.143a.219.219,0,0,0-.022.18,1.709,1.709,0,0,0,.252.142c.038-.025.07-.045.1-.069.074-.053.145-.11.219-.161a.167.167,0,0,0,.076-.117c.023-.119.05-.239.073-.359a.157.157,0,0,1,.072-.11c.052-.032.1-.074.151-.109a.17.17,0,0,1,.078-.034c.193-.011.389-.018.584-.026.018,0,.035,0,.064,0-.035.059-.067.111-.1.164l-.153.015-.064-.044a.3.3,0,0,0-.24-.06c-.023,0-.045.007-.068.008a.3.3,0,0,0-.25.152.431.431,0,0,0,.139.6.264.264,0,0,1,.036.029c-.085.04-.17,0-.256.034,0,.036,0,.077-.009.117s-.012.077-.018.121l-.139.014a.473.473,0,0,0-.025.16c-.007.126-.008.252-.015.379-.008.165-.016.331-.026.5,0,.064-.007.128-.009.192a.485.485,0,0,0,0,.073c.1.039.2.058.3.1-.021,0-.041,0-.063,0a.135.135,0,0,0-.125.067,2.235,2.235,0,0,0-.266.525c-.033.1-.059.2-.089.3,0,.016-.008.032-.012.045a.154.154,0,0,1-.106.016c-.122,0-.149.021-.167.142a1.423,1.423,0,0,0-.018.451c.011.065.017.132.031.2s.041.073.107.066c.043,0,.089,0,.137-.006.009.028.017.047.023.069a2.051,2.051,0,0,0,.207.59.389.389,0,0,1,.04.241,1.742,1.742,0,0,0-.006.217.2.2,0,0,0,.03.079l.4.679c.034.052.065.106.1.158a.338.338,0,0,0,.06,0c.143-.01.284-.023.427-.033.084-.006.168-.009.254-.015s.18-.015.272-.021.174-.013.259-.017.093-.013.1-.093c.007-.12.016-.239.024-.358.009-.149.017-.3.026-.446.005-.078.009-.156.015-.252a2.46,2.46,0,0,0,.316-.881c.028,0,.053-.008.076-.009.069,0,.1-.024.125-.091a.789.789,0,0,0,.035-.157,1.137,1.137,0,0,0-.024-.407.342.342,0,0,0-.042-.091.114.114,0,0,0-.131-.058.165.165,0,0,1-.045,0c-.036-.126-.068-.249-.11-.37s-.1-.232-.148-.355c.118-.033.238-.022.359-.051.021-.16.02-.321.033-.48s.019-.322.029-.487a.557.557,0,0,1,.07-.018c.075-.009.152-.017.227-.027a.653.653,0,0,0,.067-.022v-.168a.55.55,0,0,1,.171-.014c.031.186.018.372.052.555.031.01.061.018.088.024.086.018.174.034.261.053.044.009.046.012.048.059l-.038.013a.918.918,0,0,0-.34.149.362.362,0,0,0-.054.049.383.383,0,0,1-.182.115l-.154.057a1.349,1.349,0,0,0,.011.248l.073.027a.486.486,0,0,1-.009.17c-.007.054.006.113-.032.154v.143a.119.119,0,0,0,.055.12c.061.156.12.3.179.454-.017.011-.033.026-.053.04,0,.01,0,.021,0,.03a3.045,3.045,0,0,0,.026.346c.022.134.024.267.034.4,0,.051.015.065.076.081.149.038.3.075.446.116.416.107.832.216,1.246.324a.159.159,0,0,0,.136-.014c.172-.113.346-.223.517-.334C161.293,101.98,161.312,101.963,161.337,101.946Zm-1.026-5.172c.024.019-.009.05-.015.076-.044.008-.085.012-.124.021s-.075.023-.126.039c.013-.043.026-.074.032-.1a.126.126,0,0,1,.138-.107Z"/><circle class="b" cx="136.365" cy="108.841" r="93.781"/><circle class="c" cx="136.365" cy="108.841" r="60.632"/><path class="d" d="M138.146,113.229c.017-.013,0-.044,0-.066,0-.063-.009-.124-.011-.186,0-.172-.008-.343-.013-.514a.891.891,0,0,0-.016-.09,2.4,2.4,0,0,0-.235-.065.375.375,0,0,1,.034-.042.862.862,0,0,0,.244-.545,1.271,1.271,0,0,0-.055-.521,1.318,1.318,0,0,0-.328-.565l-.1-.1c.077-.028.143-.051.205-.075a.285.285,0,0,0,.01-.143c0-.017-.006-.033-.007-.05,0-.117-.008-.235-.015-.354-.006-.14-.014-.281-.022-.421,0-.032,0-.067,0-.1l-.007-.074a1.275,1.275,0,0,0-.36-.038c-.007-.09-.015-.177-.02-.264a.675.675,0,0,0,.042-.686.431.431,0,0,1,.165-.046l.534.674a.64.64,0,0,0,.089-.008c.066-.012.131-.03.194-.045.02,0,.041,0,.062-.007.022.027.042.05.061.075.058.078.091.092.181.061a1.091,1.091,0,0,0,.178-.088c.049-.03.094-.05.148-.01a.136.136,0,0,0,.071.009.411.411,0,0,0,.064-.006c.036.044.074.091.109.137q.292.379.583.76.393.513.788,1.026c.192.25.386.5.575.749a.144.144,0,0,0,.16.054.292.292,0,0,0,.153-.085.148.148,0,0,0,.015-.222c-.155-.2-.308-.4-.459-.6-.237-.309-.47-.622-.706-.932q-.412-.544-.827-1.09c-.012-.017-.023-.033-.035-.052l.023-.071a.087.087,0,0,0-.013-.089c-.074-.1-.146-.2-.219-.293a.1.1,0,0,0-.086-.041.22.22,0,0,1-.071-.007.2.2,0,0,1,.039-.019c.069-.02.139-.04.21-.057a.162.162,0,0,0,.106-.078c.046-.072.094-.141.146-.214-.012-.023-.021-.047-.033-.068-.06-.1-.121-.2-.179-.306a.214.214,0,0,0-.131-.114.1.1,0,0,1-.028-.017c0-.041,0-.078,0-.114a.142.142,0,0,1,.02-.068c.045-.067.095-.132.14-.2a.589.589,0,0,0,.091-.428,1.132,1.132,0,0,0-.319-.62,1.511,1.511,0,0,0-.555-.376,1.052,1.052,0,0,0-.587-.06l-.041.005c-.074-.052-.1-.146-.18-.207a2.1,2.1,0,0,0-.291.148.716.716,0,0,0-.418.271c-.016-.011-.028-.016-.037-.022a.334.334,0,0,0-.034-.023c-.08.011-.142.071-.225.093a.449.449,0,0,1-.024-.042c-.028-.064-.056-.128-.083-.193a.12.12,0,0,1-.011-.048.511.511,0,0,0-.093-.291c-.01-.016-.019-.032-.03-.053a.181.181,0,0,1,.04-.029.732.732,0,0,0,.333-.26c.058-.073.13-.132.186-.2.026-.032.058-.059.087-.091a.167.167,0,0,0,.018-.028,10.432,10.432,0,0,0-.677-.911.266.266,0,0,0-.056.028c-.1.061-.2.124-.3.187l-.087.047c0-.095.01-.179.014-.261h-.007a.545.545,0,0,0,.021-.065.126.126,0,0,0-.051-.135,2.28,2.28,0,0,0-1.1-.463,2.219,2.219,0,0,0-1.24.17l-.074.032a.1.1,0,0,0-.071.116c0,.027.006.054.008.081a2.615,2.615,0,0,0-.043.309c-.024,0-.046,0-.068-.007-.207-.032-.415-.066-.62-.1a.163.163,0,0,0-.15.027l-.19-.15c-.024.02-.044.035-.063.053-.141.13-.282.263-.423.395s-.26.238-.389.357c-.006.051-.013.1-.016.149-.009.133-.017.264-.023.4,0,.076-.009.154-.012.23a.08.08,0,0,0,.045.075l.1.075c-.049.045-.09.085-.132.122-.088.08-.176.158-.266.236a.1.1,0,0,0-.037.074c-.007.133-.017.265-.025.4,0,.056-.009.108-.012.162,0,.021,0,.041,0,.063.033.025.064.048.1.076a.55.55,0,0,1-.037.042c-.1.084-.2.17-.3.253a.145.145,0,0,0-.043.1c-.01.144-.024.288-.035.432-.01.126-.018.253-.026.378a.1.1,0,0,0,.058.106c.088.049.17.1.257.153a.307.307,0,0,0,.064.03c.025-.013.046-.025.072-.041.009.046.017.086.023.126a.071.071,0,0,1-.036.06c-.059.049-.118.1-.18.145a.19.19,0,0,0-.086.172c0,.095-.012.189-.019.291a.328.328,0,0,0,.048.04c.082.048.166.1.249.142.012.008.023.018.04.028.013.07.025.143.038.218l.128.077c.028.015.055.029.082.045a.077.077,0,0,0,.1-.006c.035-.026.071-.05.11-.077l.252.143a.22.22,0,0,0-.022.18,1.713,1.713,0,0,0,.252.143c.038-.026.07-.046.1-.07.074-.052.145-.109.219-.161a.165.165,0,0,0,.076-.117c.023-.119.05-.239.073-.359a.153.153,0,0,1,.072-.109c.052-.033.1-.075.151-.109a.172.172,0,0,1,.078-.035q.29-.015.584-.026c.018,0,.035,0,.064,0-.035.06-.067.111-.1.164l-.153.016c-.02-.014-.042-.028-.064-.045a.3.3,0,0,0-.24-.06c-.023,0-.045.008-.068.009a.3.3,0,0,0-.25.151.431.431,0,0,0,.139.6.292.292,0,0,1,.036.03c-.085.039-.17,0-.256.033,0,.037,0,.077-.009.117s-.012.077-.018.121l-.139.015a.465.465,0,0,0-.025.16c-.007.125-.008.251-.015.379-.008.165-.016.331-.026.5,0,.063-.007.127-.009.192a.472.472,0,0,0,0,.072c.1.039.2.058.3.1-.021,0-.041,0-.063,0a.135.135,0,0,0-.125.067,2.261,2.261,0,0,0-.266.526c-.033.1-.059.2-.089.3,0,.017-.008.031-.012.046a.159.159,0,0,1-.106.016c-.122,0-.149.02-.167.142a1.421,1.421,0,0,0-.018.451c.011.064.017.131.031.195s.041.073.107.067c.043-.005.089-.005.137-.006.009.027.017.047.023.069a2.035,2.035,0,0,0,.207.589.391.391,0,0,1,.04.242,1.726,1.726,0,0,0-.006.216.2.2,0,0,0,.03.079l.4.679c.034.053.065.106.1.159.023,0,.042.006.06,0,.143-.01.284-.024.427-.033.084-.008.168-.01.254-.016s.18-.015.272-.022.174-.012.259-.016.093-.013.1-.093c.007-.12.016-.238.024-.359.009-.148.017-.3.026-.445.005-.077.009-.156.015-.251a2.458,2.458,0,0,0,.316-.882c.028,0,.053-.008.076-.009a.115.115,0,0,0,.125-.09.793.793,0,0,0,.035-.159,1.135,1.135,0,0,0-.024-.406.328.328,0,0,0-.042-.091.114.114,0,0,0-.131-.058.165.165,0,0,1-.045,0c-.036-.126-.068-.25-.11-.37s-.1-.232-.148-.354c.118-.033.238-.023.359-.052.021-.16.02-.321.033-.48s.019-.322.029-.487c.026-.006.047-.015.07-.018l.227-.027a.476.476,0,0,0,.067-.022v-.167a.583.583,0,0,1,.171-.015c.031.186.018.372.052.555a.735.735,0,0,0,.088.024c.086.019.174.033.261.053.044.01.046.012.048.06l-.038.012a.935.935,0,0,0-.34.149.32.32,0,0,0-.054.05.391.391,0,0,1-.182.115c-.05.016-.1.037-.154.056a1.36,1.36,0,0,0,.011.249l.073.027a.507.507,0,0,1-.009.169c-.007.054.006.114-.032.154v.143a.122.122,0,0,0,.054.121c.062.155.121.3.18.454-.017.011-.033.025-.053.038,0,.011-.005.021-.005.032a3.011,3.011,0,0,0,.026.345c.022.134.024.267.034.4,0,.052.015.065.076.081.149.039.3.076.446.116.416.106.832.216,1.246.324a.159.159,0,0,0,.136-.014c.172-.113.346-.223.517-.333C138.1,113.263,138.121,113.246,138.146,113.229Zm-1.026-5.171c.024.018-.009.05-.015.076-.044.007-.085.011-.124.02s-.075.024-.126.039c.013-.043.026-.074.032-.105a.126.126,0,0,1,.138-.107Z"/><path class="e" d="M161.7,158.421h-.265c-.024,0-.032,0-.039-.027s-.015-.054-.021-.081-.006-.025-.017-.027c-.061-.017-.07-.069-.086-.117,0-.015-.015-.031-.012-.047s-.011-.033-.03-.04-.037-.018-.057-.026-.024,0-.033.019c-.016.041-.03.083-.049.125a.621.621,0,0,1-.04.1c-.006.01-.008.014-.018.013-.027,0-.059.01-.085-.011h-.015c-.038,0-.039,0-.051.038a.537.537,0,0,1-.022.059.012.012,0,0,1-.01.008.133.133,0,0,1-.04,0c-.072-.029-1.307-.506-1.358-.521a.059.059,0,0,1-.021-.01c-.013-.01-.029-.019-.008-.035,0-.047.033-.085.042-.13a.036.036,0,0,0,0-.041.362.362,0,0,1-.062-.128l-.012-.042c-.044.04-.044.038-.087,0-.061-.058-.121-.119-.185-.173a.972.972,0,0,1-.11-.1.053.053,0,0,0-.057-.014c-.029.008-.06.012-.089.023a.255.255,0,0,1-.071.014.348.348,0,0,1-.112.014,1.1,1.1,0,0,1-.257.009.165.165,0,0,1-.087-.008c-.024-.01-.056,0-.083-.01s-.042.008-.059-.012a.5.5,0,0,1-.149-.032c-.041-.01-.08-.025-.121-.038a.345.345,0,0,1-.063-.025.054.054,0,0,0-.064,0c-.043.024-.295.189-.322.2a.3.3,0,0,0-.111.075c-.073.066-2.41,2.22-2.452,2.256-.037-.033-.372-.342-.409-.377a.045.045,0,0,1-.018-.044V159.2c-.049.044-.048.042-.092,0s-.079-.072-.118-.107c-.01-.01-.015-.016,0-.031s0-.023,0-.035c0-.162,0-.324,0-.487,0-.023-.013-.042,0-.066a.275.275,0,0,0,.019-.071c0-.021.1-.362.111-.415s.27-.987.28-1.033a.066.066,0,0,1,.012-.027.915.915,0,0,1,.126-.115l.008-.006c.07-.068,1.9-1.759,1.946-1.8a.167.167,0,0,0,.028-.018c.01-.007.016,0,.022,0s.043.034.063.052.031.033.049.048.041.033.066.054c0-.052,0-.1,0-.149a1.833,1.833,0,0,0,.01-.2c0-.006,0-.015.008-.017s.014-.023,0-.039a.092.092,0,0,1-.007-.076.654.654,0,0,1,.11-.213c.026-.038.06-.073.089-.11s.06-.08.09-.12a.219.219,0,0,1,.021-.023c.048-.048.094-.1.145-.144a1.475,1.475,0,0,1,.2-.146,1.5,1.5,0,0,1,.173-.09,1.711,1.711,0,0,1,.225-.079l.172-.038a.707.707,0,0,1,.184-.012.083.083,0,0,0,.05-.009.055.055,0,0,1,.05,0c.018.013.037.007.054.009a.322.322,0,0,0,.187-.043c.04-.02.084-.032.126-.051s.1-.036.154-.059a.828.828,0,0,1,.138-.046c.049-.012.1-.027.147-.038.031-.008.063-.018.095-.024a.1.1,0,0,1,.1.029l0,0c.044.016.047.052.044.092,0,.024-.02.038-.03.054-.041.061-.088.117-.128.179-.027.042-.06.08-.09.118.038.025.077.052.115.079a1.237,1.237,0,0,1,.156.132,1.783,1.783,0,0,1,.192.225c.008.011.008.025.016.036a.854.854,0,0,1,.109.207,1.227,1.227,0,0,1,.049.152c.013.043.017.087.029.13a.477.477,0,0,1,.011.127c0,.079,0,.161,0,.24,0,.052-.012.1-.01.154-.023.024,0,.06-.021.085.013.037,0,.079.038.11.074.067.147.137.224.209v-.043c0-.086,0-.172,0-.257a.4.4,0,0,1,.078-.245.664.664,0,0,1,.06-.071c.052-.055.1-.108.158-.159.024-.021.037-.059.078-.056.012-.04.054-.046.08-.069a.555.555,0,0,1,.088-.057l.064-.042c.019-.01.044-.012.046-.039a.633.633,0,0,1,.076-.034c.017,0,.017-.01.017-.023v-.229h-.187c-.026,0-.032-.009-.033-.035v-.257c0-.032,0-.03-.032-.045-.071-.035-.149-.054-.221-.089a1,1,0,0,0-.123-.046.028.028,0,0,1-.023-.029v-.256c0-.018.01-.024.027-.031.051-.018.1-.039.154-.058a.041.041,0,0,0,.03-.046c0-.069,0-.84,0-1.153,0-.048,0-.05-.046-.065a.355.355,0,0,1-.05-.021l-.008-.013c0-.014-.006-.018-.017-.019a.082.082,0,0,1-.029-.009.155.155,0,0,0-.058-.024c0-.02,0-.041,0-.062v-.42c0-.019,0-.035.026-.029.089-.046.185-.069.273-.115.083-.017.155-.067.238-.086.015,0,.021-.014.021-.031s0-.058,0-.088c0-.087,0-.175,0-.263a.045.045,0,0,1,.013-.035,1.473,1.473,0,0,1,.113-.111c.049-.04.088-.088.138-.125s.095-.1.146-.138.1-.09.144-.134c.011-.009.022-.015.033-.023.031-.022.032-.022.057,0l.083.082a.1.1,0,0,0,.08.035q.7,0,1.4,0a.091.091,0,0,0,.072-.03l.093-.093c.021-.02.023-.018.047,0a.711.711,0,0,1,.1.09c.065.06.127.125.194.18.049.04.087.089.136.127a1.809,1.809,0,0,1,.136.127.08.08,0,0,1,.028.067c0,.1,0,.207,0,.31a.094.094,0,0,0,.042.088.346.346,0,0,1,.074.074.846.846,0,0,1,.089.12c.021.033.034.066.051.1.027.057.042.116.065.174.008.023,0,.048.017.067a1.426,1.426,0,0,1,.021.174,1.333,1.333,0,0,1,.01.268,1.13,1.13,0,0,0-.01.142.1.1,0,0,0-.01.065.412.412,0,0,1-.012.059c-.008.049-.02.1-.033.148a1.628,1.628,0,0,1-.06.195c-.016.041-.031.083-.047.122-.026.059-.053.115-.08.172-.009.02-.024.039-.035.058a.1.1,0,0,1-.01.021h.061c.008.046.011.75,0,.913h-.082v.11c0,.036,0,.07,0,.1s0,.035.028.04a.1.1,0,0,1,.037.02c.011.009.03.007.032.027s.015.011.025.015a1.421,1.421,0,0,1,.182.119.329.329,0,0,0,.054.034l.017.007s-.006.01,0,.015.009.011.009.011c.022-.013.029.006.037.017.071.069.142.142.213.211a.513.513,0,0,1,.115.2.033.033,0,0,1,0,.01c0,.055.015.109.013.164s0,.1,0,.166c.054-.05.1-.094.144-.135.016-.016.035-.027.052-.042a.063.063,0,0,0,.024-.059c0-.018.01-.035.01-.052a.382.382,0,0,0-.015-.067l0-.008c.007-.039-.013-.073-.012-.111,0-.1,0-.2,0-.3a.533.533,0,0,1,.012-.126.949.949,0,0,1,.022-.106.792.792,0,0,1,.029-.1,1.325,1.325,0,0,1,.136-.284c.027-.044.06-.083.085-.128l.009-.007c.041-.045.08-.094.126-.136a1.394,1.394,0,0,1,.21-.164c.01-.006.017-.019.028-.021.027-.007.009-.014,0-.027a.091.091,0,0,0-.019-.029c-.04-.053-.08-.107-.119-.161-.025-.034-.048-.071-.076-.1a.131.131,0,0,1-.018-.088l0-.008a.2.2,0,0,1,.11-.076.145.145,0,0,1,.063.013c.062.017.125.035.189.05a1.293,1.293,0,0,1,.2.067c.068.029.139.053.209.081a.473.473,0,0,1,.128.057.025.025,0,0,0,.02,0c.038-.021.08,0,.125-.013v-.316c0-.022,0-.041-.021-.054a.076.076,0,0,1-.031-.077c0-.058,0-.119,0-.177a.058.058,0,0,1,.02-.05c.032-.03.713-.671.759-.7s.055-.058.1-.069.347-.125.382-.14a.019.019,0,0,1,.026,0c.064.064.133.124.192.194s.109.114.164.172.11.115.162.175a.767.767,0,0,1,.065.088l.1.141.118.162.1.138a.619.619,0,0,1,.074.114c.032.065.066.128.1.19.025.044.048.092.072.138q.072.13.141.261c.013.028.022.057.033.086.021.059.047.115.066.172.025.085.063.167.089.252.016.058.044.115.063.173a.343.343,0,0,1,.017.057.4.4,0,0,0,.012.068c.006.017,0,.036.011.053s0,.033.01.048c.013.05.02.1.034.148,0,.015,0,.027.007.04s.009.025.011.037c.01.055.019.111.034.164a.2.2,0,0,1,.006.039v.677c0,.034-.005.044-.038.054s-.043.015-.065.021-.015.015-.006.022.028.035.051.043c.006,0,.011.008.016.012.074.071.838.777.889.827a.151.151,0,0,0,.017.01.148.148,0,0,1,.07.1c.007.049.394,1.464.41,1.5l0,.014c-.012.013-.006.027-.006.039,0,.166,0,.329,0,.494a.109.109,0,0,0,0,.031c0,.007.014.009,0,.019-.039.036-.074.074-.112.111a.219.219,0,0,1-.039.029c-.024.013-.042,0-.062-.025a.258.258,0,0,0,0,.029c0,.017-.006.036.009.048a.237.237,0,0,1-.048.047.832.832,0,0,0-.1.094c-.026.024-.054.046-.08.07a.751.751,0,0,1-.076.073,1.1,1.1,0,0,0-.105.1.028.028,0,0,1-.041,0c-.008-.007-.021-.011-.028-.018-.076-.072-2.419-2.232-2.46-2.27a.045.045,0,0,0-.021-.012.564.564,0,0,1-.069-.036c-.055-.036-.112-.068-.168-.1-.033-.018-.064-.039-.1-.059-.015-.01-.033-.016-.046-.026s-.018-.007-.031,0a.854.854,0,0,1-.113.044c-.038.009-.075.024-.112.034-.052.014-.105.023-.157.039-.026.006-.057,0-.084.011-.072-.007-.143.016-.215.01-.03,0-.058-.008-.086-.01a.47.47,0,0,1-.084,0c-.039-.011-.079-.008-.116-.021a.827.827,0,0,1-.114-.029c-.014-.006-.031,0-.043-.013a.056.056,0,0,0-.017.009c-.053.048-.1.1-.156.144s-.1.088-.144.134c-.027,0-.034.043-.062.037a.137.137,0,0,1-.057-.037c-.021-.017-.037-.038-.055-.055-.081.041-.393.234-.469.288a.057.057,0,0,1-.026.015.152.152,0,0,0-.062.042.309.309,0,0,1-.157.076.532.532,0,0,1-.132.007.365.365,0,0,1-.1-.016.261.261,0,0,0-.04,0c-.012,0-.025-.01-.037-.011a.037.037,0,0,0-.025.006c-.039.015-.639.253-.709.276-.017.006-.026.015-.024.031a.226.226,0,0,1-.028.1.086.086,0,0,1-.091.064c-.017,0-.025.009-.029.024l-.021.091a.022.022,0,0,1-.024.021h-.28v.054q0,1.84,0,3.683c0,.063,0,.062-.063.062h-1.427c-.024,0-.032-.008-.033-.029v-3.77Zm-5.112-1.869-.076.075c.028.03.059.059.088.089l.035-.026a.344.344,0,0,0,.04-.037l-.058-.057C156.587,156.571,156.587,156.572,156.584,156.552Zm11.756-.031a.055.055,0,0,1-.021.048c-.019.019-.036.041-.054.06l.057.061h.009l.1-.086C168.4,156.575,168.371,156.55,168.34,156.521Z"/><path class="f" d="M151.945,162.928h2.862c1.732,0,3.08.475,3.08,2.079a1.939,1.939,0,0,1-1.091,1.809v.051a1.9,1.9,0,0,1,1.5,1.964c0,1.707-1.437,2.464-3.246,2.464h-3.106Zm2.772,3.349c.924,0,1.322-.384,1.322-.988,0-.654-.424-.9-1.31-.9h-.9v1.886Zm.179,3.555c1.027,0,1.553-.359,1.553-1.129,0-.731-.512-1.027-1.553-1.027h-1.065v2.156Z"/><path class="e" d="M211.216,160.205h-.265c-.024,0-.031,0-.039-.029s-.015-.053-.021-.08-.006-.025-.017-.027c-.061-.017-.07-.071-.086-.117,0-.014-.015-.031-.011-.048s-.012-.031-.031-.039l-.057-.026c-.016-.006-.024,0-.033.017-.016.042-.03.086-.049.128a.572.572,0,0,1-.04.1c-.006.008-.008.013-.018.01-.027,0-.059.013-.085-.008,0,0-.01,0-.015,0-.038,0-.039,0-.05.038l-.022.06s-.007.009-.011.009a.11.11,0,0,1-.04,0c-.072-.031-1.307-.5-1.358-.522a.038.038,0,0,1-.021-.01c-.013-.009-.029-.017-.008-.036,0-.046.033-.083.042-.127a.041.041,0,0,0,0-.044.349.349,0,0,1-.062-.125l-.012-.042c-.044.038-.044.038-.086,0-.062-.061-.122-.119-.186-.174a1.063,1.063,0,0,1-.11-.1.05.05,0,0,0-.056-.015c-.03.009-.061.013-.09.023a.258.258,0,0,1-.071.015.348.348,0,0,1-.112.013,1.163,1.163,0,0,1-.257.01.188.188,0,0,1-.087-.008c-.024-.013-.056,0-.083-.013s-.042.011-.059-.01a.447.447,0,0,1-.149-.032c-.041-.01-.08-.025-.121-.037a.442.442,0,0,1-.063-.027.055.055,0,0,0-.063,0c-.044.025-.3.188-.323.2a.34.34,0,0,0-.111.075l-2.452,2.258c-.037-.036-.371-.343-.409-.378a.045.045,0,0,1-.018-.044v-.054c-.049.042-.048.042-.092,0s-.079-.073-.118-.109c-.01-.008-.015-.014,0-.029s0-.023,0-.036c0-.162,0-.325,0-.488,0-.021-.013-.04,0-.065a.265.265,0,0,0,.019-.071c0-.023.1-.361.111-.416s.27-.985.28-1.031a.06.06,0,0,1,.012-.028.907.907,0,0,1,.126-.114l.008-.009c.07-.067,1.9-1.756,1.946-1.8.009-.008.02-.012.028-.019a.015.015,0,0,1,.022,0c.021.017.043.034.063.053s.031.033.049.048l.066.054c0-.052,0-.1,0-.15a1.819,1.819,0,0,0,.01-.195.029.029,0,0,1,.008-.019c.016-.01.014-.02,0-.037a.09.09,0,0,1-.006-.077.624.624,0,0,1,.109-.211c.026-.04.06-.074.089-.111s.061-.08.09-.12a.219.219,0,0,1,.021-.023c.048-.048.094-.1.145-.144a1.54,1.54,0,0,1,.2-.146,1.5,1.5,0,0,1,.173-.09,1.573,1.573,0,0,1,.225-.078c.057-.015.115-.027.172-.039a.753.753,0,0,1,.184-.012.07.07,0,0,0,.05-.009.061.061,0,0,1,.051,0c.017.013.036.007.053.009a.329.329,0,0,0,.187-.043c.041-.019.084-.031.126-.05s.1-.038.154-.06a.752.752,0,0,1,.139-.045c.049-.012.1-.029.146-.039.031-.006.063-.018.095-.023a.1.1,0,0,1,.1.029l0,0c.046.016.049.051.046.091,0,.025-.02.039-.03.056-.041.061-.088.116-.128.178a1.339,1.339,0,0,1-.09.117c.038.025.077.053.115.079a1.173,1.173,0,0,1,.156.134,1.775,1.775,0,0,1,.192.224c.008.011.008.027.016.036a.885.885,0,0,1,.109.206,1.378,1.378,0,0,1,.049.154c.013.041.017.085.029.129a.481.481,0,0,1,.011.126c0,.081,0,.16,0,.242,0,.052-.012.1-.01.152-.023.025,0,.061-.021.086.013.037.005.079.038.111.075.066.147.135.224.208v-.043c0-.086,0-.172,0-.257a.412.412,0,0,1,.078-.247.5.5,0,0,1,.06-.069c.052-.054.1-.108.158-.158.024-.023.037-.059.078-.057.012-.04.054-.046.08-.069a.6.6,0,0,1,.088-.056l.065-.044c.018-.008.043-.01.045-.038a.624.624,0,0,1,.076-.033c.018,0,.018-.01.018-.024v-.229h-.187c-.027,0-.033-.009-.034-.035v-.257c0-.032,0-.029-.032-.044-.071-.036-.148-.056-.221-.089a1.008,1.008,0,0,0-.123-.047c-.013,0-.023-.012-.023-.028v-.257c0-.019.01-.025.027-.032.052-.016.1-.039.154-.057a.04.04,0,0,0,.03-.045c0-.07,0-.84,0-1.154,0-.048,0-.05-.046-.065a.355.355,0,0,1-.05-.021s-.009-.009-.008-.013,0-.018-.017-.019a.089.089,0,0,1-.029-.009.128.128,0,0,0-.058-.024c0-.021,0-.042,0-.062v-.42c0-.019,0-.034.026-.03.089-.044.185-.067.273-.114.083-.018.156-.066.238-.085a.028.028,0,0,0,.021-.031c0-.029,0-.059,0-.09,0-.086,0-.174,0-.262a.047.047,0,0,1,.013-.036c.039-.036.072-.077.113-.11s.088-.088.138-.126.095-.1.146-.137.1-.091.144-.135l.033-.022c.031-.022.032-.022.057,0s.056.053.083.082a.1.1,0,0,0,.08.033h1.4a.087.087,0,0,0,.072-.029c.031-.031.062-.061.093-.093s.023-.018.047,0a.65.65,0,0,1,.1.089c.064.06.126.125.193.181.049.039.087.089.137.126s.088.087.135.126a.083.083,0,0,1,.029.069c0,.1,0,.206,0,.309a.094.094,0,0,0,.042.088.342.342,0,0,1,.074.073.855.855,0,0,1,.089.121.784.784,0,0,1,.051.1c.027.056.042.115.065.173.008.022,0,.049.017.066a1.466,1.466,0,0,1,.021.175,1.266,1.266,0,0,1,.01.268,1.132,1.132,0,0,0-.01.143.092.092,0,0,0-.01.063.386.386,0,0,1-.012.059,2.215,2.215,0,0,1-.093.344c-.016.041-.031.083-.047.122-.026.058-.052.115-.08.173-.009.02-.024.038-.035.058l-.01.02h.061c.008.045.012.749,0,.913h-.082v.11c0,.035,0,.07,0,.1s0,.036.028.04a.076.076,0,0,1,.037.021c.011.008.03.006.032.027,0,0,.015.008.025.015a1.322,1.322,0,0,1,.182.119c.016.012.035.021.054.033l.018.006c0,.007-.007.011-.006.015s.009.013.009.013c.022-.015.029.006.037.016.071.069.142.14.213.211a.5.5,0,0,1,.115.2v.01c0,.054.015.109.013.163s0,.1,0,.167c.054-.05.1-.094.144-.138.016-.014.035-.025.052-.04a.062.062,0,0,0,.024-.058c0-.019.01-.035.01-.052a.363.363,0,0,0-.015-.067s0-.006,0-.01c.007-.038-.013-.074-.012-.111,0-.1,0-.2,0-.3a.52.52,0,0,1,.012-.125,1.052,1.052,0,0,1,.022-.109.947.947,0,0,1,.029-.1,1.356,1.356,0,0,1,.136-.285c.027-.043.06-.082.085-.127l.009-.007a1.8,1.8,0,0,1,.126-.136,1.453,1.453,0,0,1,.21-.165c.01-.006.018-.018.028-.02.027-.007.009-.014,0-.027a.073.073,0,0,0-.019-.029c-.04-.053-.08-.108-.119-.161-.025-.034-.048-.071-.076-.1a.128.128,0,0,1-.018-.087l0-.009a.189.189,0,0,1,.109-.075.16.16,0,0,1,.063.012c.063.016.125.035.189.05a1.293,1.293,0,0,1,.2.067c.068.029.139.053.209.08a.476.476,0,0,1,.128.058.025.025,0,0,0,.02,0c.038-.022.08,0,.125-.014v-.315c0-.022,0-.041-.021-.054a.076.076,0,0,1-.031-.077c0-.059,0-.119,0-.178a.058.058,0,0,1,.021-.049c.031-.03.712-.67.758-.7s.055-.058.1-.069.348-.127.382-.142a.021.021,0,0,1,.026,0c.064.065.133.126.192.194s.109.115.164.174.11.115.162.174a.688.688,0,0,1,.065.088l.1.141c.039.054.079.106.118.161s.064.093.1.138a.57.57,0,0,1,.074.116c.032.064.066.127.1.189.025.045.048.091.072.137.048.088.095.175.141.262.013.028.022.058.033.087.021.057.047.113.066.171.025.086.063.167.089.253.017.058.044.114.063.172a.362.362,0,0,1,.017.056.4.4,0,0,0,.012.069c.006.018,0,.036.011.053s.005.034.01.049c.013.048.02.1.034.148,0,.012,0,.027.007.039s.009.026.011.038c.01.054.019.109.034.163a.2.2,0,0,1,.006.04v.676c0,.034,0,.042-.038.055l-.065.021c-.017,0-.014.012-.006.02s.028.036.051.042c.006,0,.012.011.016.015.074.071.838.777.889.827,0,0,.012,0,.017.008a.154.154,0,0,1,.07.107c.007.048.394,1.464.41,1.5a.025.025,0,0,1,0,.015c-.012.011-.006.025-.006.038,0,.165,0,.33,0,.493a.105.105,0,0,0,0,.031c0,.008.014.008,0,.019-.038.037-.074.075-.112.112a.288.288,0,0,1-.039.03c-.024.012-.042,0-.062-.025a.274.274,0,0,0,0,.029c0,.017-.006.033.01.046a.272.272,0,0,1-.048.048.775.775,0,0,0-.1.094c-.026.023-.054.046-.08.071a1.036,1.036,0,0,1-.075.073,1.1,1.1,0,0,0-.106.1.026.026,0,0,1-.041,0c-.008-.006-.021-.01-.028-.019-.076-.071-2.419-2.23-2.46-2.27a.072.072,0,0,0-.021-.012.324.324,0,0,1-.069-.036c-.055-.035-.112-.067-.168-.1l-.1-.061a.255.255,0,0,1-.046-.025c-.013-.01-.018-.006-.03,0a.679.679,0,0,1-.114.042c-.038.01-.074.025-.112.036s-.1.023-.157.039c-.026.007-.057,0-.084.011-.072-.007-.143.016-.215.01-.03,0-.058-.008-.086-.01a.383.383,0,0,1-.083,0c-.04-.011-.08-.009-.117-.019a.711.711,0,0,1-.114-.032c-.014,0-.031,0-.043-.01a.049.049,0,0,0-.017.008c-.053.048-.1.1-.156.144s-.1.088-.143.134c-.028,0-.035.044-.063.038a.14.14,0,0,1-.057-.038c-.02-.017-.037-.037-.055-.054-.081.04-.393.234-.469.288a.061.061,0,0,1-.026.015.146.146,0,0,0-.061.039.3.3,0,0,1-.158.078.489.489,0,0,1-.132.008.367.367,0,0,1-.1-.017.246.246,0,0,0-.04,0c-.012,0-.025-.008-.037-.01a.1.1,0,0,0-.025.006c-.039.015-.639.255-.709.278-.017.006-.026.012-.024.031a.233.233,0,0,1-.027.1.089.089,0,0,1-.092.063.029.029,0,0,0-.029.025c-.007.029-.013.061-.02.09a.023.023,0,0,1-.024.023h-.281v.052q0,1.842,0,3.684c0,.063,0,.063-.063.063-.466,0-.93,0-1.4,0a.15.15,0,0,1-.03,0c-.024,0-.033-.009-.034-.029v-3.768Zm-5.112-1.869c-.026.023-.052.05-.076.075.028.027.059.058.088.088.008-.007.022-.015.035-.025l.04-.038a.746.746,0,0,0-.058-.056C206.107,158.355,206.107,158.355,206.1,158.336Zm11.756-.032a.053.053,0,0,1-.021.048.06.06,0,0,0,0,.119l.009,0,.1-.086C217.92,158.359,217.891,158.334,217.86,158.3Z"/><path class="f" d="M203.43,164.711H205.7l2.617,8.367h-2l-.512-1.989H203.25l-.514,1.989h-1.924Zm.2,4.9h1.784l-.192-.769c-.232-.835-.463-1.823-.681-2.7H204.5c-.206.886-.424,1.861-.655,2.7Z"/><path class="e" d="M140.9,216.424h-.266c-.024,0-.031,0-.038-.027a.617.617,0,0,1-.021-.082.027.027,0,0,0-.018-.027c-.061-.015-.07-.069-.086-.117a.1.1,0,0,1-.011-.046c0-.025-.012-.033-.03-.039a.6.6,0,0,0-.058-.026c-.016-.007-.024,0-.032.017-.017.042-.031.084-.049.127a.614.614,0,0,1-.041.1c0,.01-.007.015-.018.012-.027,0-.058.011-.084-.01h-.016c-.038,0-.039,0-.05.038a.577.577,0,0,1-.022.058.012.012,0,0,1-.011.008.086.086,0,0,1-.039,0c-.072-.029-1.308-.5-1.359-.52a.081.081,0,0,1-.021-.01c-.012-.011-.029-.019-.008-.036a1.3,1.3,0,0,1,.043-.129.042.042,0,0,0,0-.042.36.36,0,0,1-.063-.127c0-.013-.007-.027-.011-.042-.044.04-.044.039-.087,0-.062-.06-.121-.12-.186-.175a1.045,1.045,0,0,1-.11-.1.049.049,0,0,0-.056-.016c-.029.01-.061.013-.09.023a.2.2,0,0,1-.071.015.379.379,0,0,1-.112.015,1.224,1.224,0,0,1-.257.008.17.17,0,0,1-.086-.007c-.024-.012-.057,0-.084-.012s-.041.009-.058-.01a.455.455,0,0,1-.15-.034c-.04-.008-.08-.025-.121-.037a.309.309,0,0,1-.062-.025.051.051,0,0,0-.064,0c-.044.024-.3.188-.323.2a.312.312,0,0,0-.11.075c-.074.065-2.411,2.22-2.452,2.256-.038-.033-.372-.343-.41-.376a.047.047,0,0,1-.017-.046V217.2c-.05.044-.048.043-.092,0s-.08-.071-.118-.107c-.011-.01-.016-.016,0-.03s0-.023,0-.035c0-.162,0-.325,0-.488,0-.022-.014-.042,0-.065a.312.312,0,0,0,.019-.071c.006-.023.1-.363.111-.416s.271-.987.28-1.033a.052.052,0,0,1,.012-.026.93.93,0,0,1,.127-.116l.007-.007c.07-.067,1.9-1.757,1.947-1.8.008-.007.019-.011.028-.019a.015.015,0,0,1,.022,0c.021.019.043.036.062.053s.032.033.05.048.04.034.065.055c0-.053,0-.1,0-.149,0-.067.018-.13.011-.2a.026.026,0,0,1,.007-.016c.017-.013.015-.022,0-.038a.094.094,0,0,1-.006-.077.63.63,0,0,1,.11-.212c.026-.039.059-.074.088-.11s.061-.081.09-.121c.006-.008.014-.015.021-.023.048-.048.094-.1.145-.144a1.65,1.65,0,0,1,.2-.146,1.343,1.343,0,0,1,.172-.09,1.544,1.544,0,0,1,.226-.078c.056-.014.114-.027.172-.039a.7.7,0,0,1,.184-.013.077.077,0,0,0,.05-.008.058.058,0,0,1,.05,0c.018.013.036.006.053.008a.319.319,0,0,0,.187-.041c.041-.02.085-.033.126-.052s.1-.036.154-.059a.7.7,0,0,1,.139-.045c.049-.013.1-.028.146-.039.031-.007.064-.018.095-.024a.1.1,0,0,1,.1.03l0,0c.044.016.047.052.044.092,0,.025-.02.037-.03.055-.041.061-.088.116-.127.179-.028.041-.061.079-.09.116l.115.08a1.139,1.139,0,0,1,.155.132,1.7,1.7,0,0,1,.192.225c.009.01.009.026.016.035a.914.914,0,0,1,.11.207,1.6,1.6,0,0,1,.049.153c.012.044.016.087.028.129a.5.5,0,0,1,.011.128c0,.079,0,.16,0,.24,0,.052-.012.1-.01.154-.023.024,0,.061-.021.086.014.035,0,.078.039.109.074.066.146.137.223.208v-.041c0-.086,0-.173,0-.257a.4.4,0,0,1,.079-.247.486.486,0,0,1,.059-.07c.052-.054.1-.107.159-.159.024-.021.036-.058.077-.057.013-.04.054-.045.08-.069a.658.658,0,0,1,.088-.056c.021-.014.043-.029.065-.042s.044-.011.046-.04a.445.445,0,0,1,.075-.032c.018,0,.018-.011.018-.024v-.23h-.187c-.026,0-.033-.008-.034-.033v-.257c0-.033,0-.03-.032-.046-.071-.035-.148-.054-.22-.089-.04-.019-.082-.032-.123-.047-.014,0-.023-.01-.023-.027v-.257c0-.019.009-.025.027-.031.051-.018.1-.04.153-.059a.04.04,0,0,0,.031-.044c0-.07,0-.84,0-1.154,0-.048,0-.05-.046-.065a.366.366,0,0,1-.051-.021l-.008-.013c0-.014,0-.018-.017-.018a.145.145,0,0,1-.029-.011.149.149,0,0,0-.057-.023c0-.021,0-.042,0-.062v-.42c0-.019,0-.035.026-.029.088-.045.185-.068.272-.115.084-.017.156-.066.238-.086.015,0,.021-.015.021-.03s0-.06,0-.089c0-.088,0-.175,0-.263a.045.045,0,0,1,.014-.036c.038-.036.072-.077.113-.11s.087-.088.137-.126.095-.1.147-.137.1-.09.144-.134l.032-.023c.031-.021.032-.021.057,0s.057.054.083.083a.1.1,0,0,0,.08.034q.7,0,1.4,0a.093.093,0,0,0,.072-.029c.03-.032.061-.063.093-.094s.023-.017.047,0a.759.759,0,0,1,.1.088c.065.061.126.126.193.182.049.04.088.089.137.125s.089.087.136.128a.08.08,0,0,1,.028.068c0,.1,0,.2,0,.31a.1.1,0,0,0,.041.088.289.289,0,0,1,.075.073.869.869,0,0,1,.088.121.845.845,0,0,1,.052.1c.027.055.041.116.064.172.009.023,0,.049.017.067a1.458,1.458,0,0,1,.021.176,1.249,1.249,0,0,1,.01.267,1.355,1.355,0,0,0-.01.143.089.089,0,0,0-.009.064c0,.021-.011.037-.013.058a1.44,1.44,0,0,1-.032.148,1.723,1.723,0,0,1-.061.2c-.016.039-.03.081-.047.121-.026.058-.052.115-.079.172-.01.02-.024.039-.036.059s0,.011-.009.02h.06c.009.045.012.749.005.912h-.083v.111c0,.035,0,.071,0,.1s0,.037.028.042a.085.085,0,0,1,.038.019c.01.009.029.007.031.027s.016.01.025.015a1.211,1.211,0,0,1,.182.119.3.3,0,0,0,.054.033.1.1,0,0,0,.018.008c0,.005-.006.011,0,.015s.008.011.008.011c.022-.013.029.007.038.016.071.07.142.142.213.211a.556.556,0,0,1,.115.2v.009c0,.055.014.109.012.165s0,.1,0,.165c.054-.05.1-.093.144-.136.017-.014.036-.027.052-.042a.057.057,0,0,0,.024-.057c0-.02.011-.036.011-.053a.407.407,0,0,0-.016-.067l0-.008c.007-.038-.013-.073-.012-.111,0-.1,0-.2,0-.3a.6.6,0,0,1,.011-.126c.006-.036.013-.071.022-.107s.018-.065.029-.1a1.542,1.542,0,0,1,.136-.284c.027-.044.06-.081.086-.127l.008-.007c.042-.045.08-.093.126-.135a1.326,1.326,0,0,1,.21-.165c.011-.007.018-.019.028-.021.028-.006.01-.015.006-.027s-.013-.019-.019-.03c-.041-.052-.081-.106-.119-.16-.025-.034-.048-.071-.076-.105a.126.126,0,0,1-.018-.086l0-.01a.19.19,0,0,1,.11-.074.142.142,0,0,1,.062.012c.063.016.125.035.189.05a1.336,1.336,0,0,1,.2.066c.068.03.139.055.209.082a.512.512,0,0,1,.127.056s.016.007.02,0c.039-.02.08,0,.125-.012v-.315c0-.023,0-.042-.021-.055a.076.076,0,0,1-.031-.077c0-.058,0-.119,0-.178a.062.062,0,0,1,.021-.05c.031-.029.712-.669.758-.7s.055-.058.1-.069.348-.127.382-.141a.018.018,0,0,1,.026,0c.064.065.133.125.193.194s.108.115.164.172.109.115.161.175a.757.757,0,0,1,.065.087l.1.143c.038.053.078.106.117.16s.064.092.1.138a.663.663,0,0,1,.074.115c.031.065.066.127.1.19.025.045.048.092.072.138.048.088.095.173.141.261.014.027.022.057.034.087.02.057.047.113.065.172.025.085.063.167.089.252.017.057.044.113.064.172.007.019.011.038.017.056a.55.55,0,0,0,.011.069c.006.018,0,.036.012.052s0,.034.009.05c.014.049.021.1.034.148a.287.287,0,0,1,.008.038c0,.013.008.026.01.038.011.055.019.111.035.165a.167.167,0,0,1,.006.039v.676c0,.035-.005.043-.039.055l-.065.02c-.016.006-.014.014-.006.022s.028.036.051.042c.007,0,.012.009.016.013.074.071.839.778.89.827,0,0,.011.006.016.01a.15.15,0,0,1,.07.1c.008.05.394,1.465.411,1.5l0,.015c-.013.013-.007.027-.007.04,0,.165,0,.328,0,.493a.109.109,0,0,0,0,.031c0,.006.014.008,0,.019-.039.036-.075.075-.112.11a.161.161,0,0,1-.04.03c-.024.013-.042,0-.061-.025a.131.131,0,0,0,0,.029c0,.017-.007.035.009.048a.311.311,0,0,1-.048.048.712.712,0,0,0-.1.094l-.08.069a.644.644,0,0,1-.075.073,1.1,1.1,0,0,0-.106.1.025.025,0,0,1-.04,0c-.009-.007-.021-.011-.029-.018-.076-.072-2.419-2.232-2.46-2.27a.04.04,0,0,0-.021-.012.564.564,0,0,1-.069-.036c-.055-.035-.111-.069-.168-.1-.032-.02-.063-.041-.1-.06a.367.367,0,0,1-.046-.027c-.012-.009-.018-.005-.03,0a.584.584,0,0,1-.114.044c-.038.011-.074.025-.112.036s-.105.023-.156.037c-.026.008-.058,0-.085.013-.072-.009-.143.014-.215.009-.029,0-.057-.007-.086-.009a.572.572,0,0,1-.083,0c-.04-.011-.08-.009-.117-.02s-.077-.016-.114-.03c-.014-.007-.03,0-.043-.012a.03.03,0,0,0-.016.007c-.054.048-.1.1-.157.144s-.1.089-.143.135c-.027,0-.035.043-.063.038a.13.13,0,0,1-.056-.039c-.021-.017-.038-.036-.056-.053-.081.041-.392.233-.468.288a.07.07,0,0,1-.027.014.157.157,0,0,0-.061.041.332.332,0,0,1-.158.078.644.644,0,0,1-.131.007.309.309,0,0,1-.1-.018.248.248,0,0,0-.039,0c-.013,0-.025-.008-.038-.01a.046.046,0,0,0-.025.006c-.039.015-.639.253-.709.276-.017.006-.026.014-.024.031a.238.238,0,0,1-.027.106.089.089,0,0,1-.092.063.025.025,0,0,0-.028.023l-.021.092a.023.023,0,0,1-.024.021c-.018,0-.036,0-.052,0h-.229v.054q0,1.841,0,3.682c0,.065,0,.063-.063.063h-1.426c-.024,0-.032-.008-.033-.029v-3.77Zm-5.112-1.869c-.026.025-.052.052-.076.076.028.028.058.058.087.089l.036-.027.04-.036c-.021-.021-.039-.04-.059-.058S135.788,214.576,135.786,214.555Zm11.755-.032a.054.054,0,0,1-.021.049c-.019.018-.035.041-.053.061l.056.06h.01c.034-.03.069-.059.1-.086C147.6,214.578,147.572,214.553,147.541,214.523Z"/><path class="f" d="M131.045,225.167c0-2.772,1.836-4.389,3.953-4.389a3.535,3.535,0,0,1,2.515,1.091l-1,1.206a2.137,2.137,0,0,0-1.476-.668c-1.141,0-2.053,1.015-2.053,2.7,0,1.719.795,2.72,2.028,2.72a2.234,2.234,0,0,0,1.63-.783l1,1.181a3.449,3.449,0,0,1-2.708,1.232C132.816,229.453,131.045,227.978,131.045,225.167Z"/></g></svg>