<?xml version="1.0" encoding="utf-8"?>
<!-- Generator: Adobe Illustrator 16.0.3, SVG Export Plug-In . SVG Version: 6.00 Build 0)  -->
<!DOCTYPE svg PUBLIC "-//W3C//DTD SVG 1.1//EN" "http://www.w3.org/Graphics/SVG/1.1/DTD/svg11.dtd">
<svg version="1.1" id="Layer_1" xmlns="http://www.w3.org/2000/svg" xmlns:xlink="http://www.w3.org/1999/xlink" x="0px" y="0px"
	 width="420px" height="420.566px" viewBox="0 0 420 420.566" enable-background="new 0 0 420 420.566" xml:space="preserve">
<path opacity="0.4" fill="#231F20" enable-background="new    " d="M13.283,151.865c-5.22,0-9.489-4.266-9.489-9.484v-17.08
	c0-5.215,4.27-9.486,9.489-9.486h17.078c5.217,0,9.483,4.271,9.483,9.486v17.08c0,5.219-4.266,9.484-9.483,9.484H13.283
	 M30.361,112.021H13.283c-7.276,0-13.202,5.877-13.283,13.133v17.373c0.081,7.258,6.007,13.135,13.283,13.135h17.078
	c7.321,0,13.276-5.957,13.276-13.281v-17.08C43.637,117.979,37.682,112.021,30.361,112.021"/>
<path opacity="0.4" fill="#231F20" enable-background="new    " d="M88.23,151.865c-5.218,0-9.487-4.266-9.487-9.484v-17.08
	c0-5.215,4.269-9.486,9.487-9.486h17.078c5.219,0,9.487,4.271,9.487,9.486v17.08c0,5.219-4.268,9.484-9.487,9.484H88.23
	 M105.308,112.021H88.23c-7.255,0-13.167,5.842-13.283,13.066v17.506c0.116,7.227,6.028,13.068,13.283,13.068h17.078
	c7.325,0,13.28-5.957,13.28-13.281V125.3C118.588,117.979,112.633,112.021,105.308,112.021"/>
<path opacity="0.4" fill="#231F20" enable-background="new    " d="M163.181,151.865c-5.221,0-9.489-4.266-9.489-9.484v-17.08
	c0-5.215,4.269-9.486,9.489-9.486h17.076c5.218,0,9.486,4.271,9.486,9.486v17.08c0,5.219-4.268,9.484-9.486,9.484H163.181
	 M180.257,112.021h-17.076c-7.251,0-13.169,5.842-13.282,13.066v17.506c0.113,7.227,6.031,13.068,13.282,13.068h17.076
	c7.324,0,13.282-5.957,13.282-13.281V125.3C193.539,117.979,187.581,112.021,180.257,112.021"/>
<path d="M238.129,153.764c-6.277,0-11.384-5.105-11.384-11.383v-17.076c0-6.283,5.106-11.385,11.384-11.385h17.077
	c6.278,0,11.383,5.102,11.383,11.385v17.076c0,6.277-5.104,11.383-11.383,11.383H238.129z"/>
<path d="M255.206,115.814c5.219,0,9.489,4.271,9.489,9.486v17.08c0,5.219-4.271,9.484-9.489,9.484h-17.074
	c-5.221,0-9.491-4.266-9.491-9.484V125.3c0-5.215,4.271-9.486,9.491-9.486H255.206 M255.206,112.021h-17.074
	c-7.325,0-13.284,5.957-13.284,13.279v17.08c0,7.324,5.959,13.281,13.284,13.281h17.074c7.321,0,13.28-5.957,13.28-13.281V125.3
	C268.486,117.979,262.527,112.021,255.206,112.021"/>
<path d="M313.078,153.764c-6.275,0-11.381-5.105-11.381-11.383v-17.076c0-6.283,5.104-11.385,11.381-11.385h17.078
	c6.279,0,11.385,5.102,11.385,11.385v17.076c0,6.277-5.105,11.383-11.385,11.383H313.078z"/>
<path d="M330.156,115.814c5.219,0,9.486,4.271,9.486,9.486v17.08c0,5.219-4.269,9.484-9.486,9.484H313.08
	c-5.223,0-9.489-4.266-9.489-9.484V125.3c0-5.215,4.269-9.486,9.489-9.486H330.156 M330.156,112.021H313.08
	c-7.321,0-13.285,5.957-13.285,13.279v17.08c0,7.324,5.964,13.281,13.285,13.281h17.076c7.322,0,13.283-5.957,13.283-13.281V125.3
	C343.439,117.979,337.479,112.021,330.156,112.021"/>
<path fill="#FFFFFF" d="M388.029,153.764c-6.277,0-11.385-5.105-11.385-11.383v-17.076c0-6.283,5.106-11.385,11.385-11.385h17.074
	c6.281,0,11.388,5.102,11.388,11.385v17.076c0,6.277-5.105,11.383-11.388,11.383H388.029z"/>
<path d="M405.104,115.814c5.222,0,9.486,4.271,9.486,9.486v17.08c0,5.219-4.266,9.484-9.486,9.484h-17.071
	c-5.222,0-9.491-4.266-9.491-9.484V125.3c0-5.215,4.27-9.486,9.491-9.486H405.104 M405.104,112.021h-17.071
	c-7.325,0-13.285,5.957-13.285,13.279v17.08c0,7.324,5.96,13.281,13.285,13.281h17.071c7.325,0,13.282-5.957,13.282-13.281V125.3
	C418.387,117.979,412.43,112.021,405.104,112.021"/>
<path opacity="0.4" fill="#231F20" d="M21.819,128.777L21.819,128.777c-2.795,0-5.063,2.268-5.063,5.064
	c0,2.799,2.268,5.064,5.063,5.064s5.065-2.266,5.065-5.064l0,0C26.884,131.045,24.615,128.777,21.819,128.777"/>
<path opacity="0.4" fill="#231F20" d="M86.774,118.65h-0.269c-2.735,0.072-4.93,2.313-4.93,5.063c0,2.797,2.265,5.064,5.066,5.064
	c2.795,0,5.062-2.268,5.062-5.064l0,0C91.704,120.963,89.507,118.723,86.774,118.65"/>
<path opacity="0.4" fill="#231F20" d="M106.897,138.906c-2.795,0-5.063,2.268-5.063,5.064c0,2.796,2.268,5.063,5.063,5.063
	s5.065-2.266,5.065-5.063l0,0C111.962,141.174,109.692,138.906,106.897,138.906"/>
<path fill="#FFFFFF" d="M241.498,123.713c0,2.797-2.27,5.064-5.064,5.064s-5.063-2.268-5.063-5.064c0-2.795,2.268-5.066,5.063-5.066
	S241.498,120.918,241.498,123.713"/>
<path fill="#FFFFFF" d="M256.691,138.906c-2.799,0-5.065,2.268-5.065,5.064c0,2.796,2.267,5.063,5.065,5.063
	c2.798,0,5.063-2.266,5.063-5.063C261.754,141.173,259.489,138.906,256.691,138.906"/>
<path fill="#FFFFFF" d="M236.434,138.906c2.795,0,5.063,2.268,5.063,5.064c0,2.796-2.269,5.063-5.063,5.063
	s-5.063-2.266-5.063-5.063C231.37,141.173,233.639,138.906,236.434,138.906"/>
<path fill="#FFFFFF" d="M251.626,123.713c0,2.797,2.271,5.064,5.065,5.064c2.798,0,5.063-2.268,5.063-5.064
	c0-2.795-2.266-5.066-5.063-5.066C253.896,118.646,251.626,120.918,251.626,123.713"/>
<path d="M391.398,123.713c0,2.797-2.266,5.064-5.066,5.064c-2.796,0-5.063-2.268-5.063-5.064c0-2.795,2.267-5.066,5.063-5.066
	C389.134,118.646,391.398,120.918,391.398,123.713"/>
<path d="M391.398,133.842c0,2.797-2.266,5.064-5.066,5.064c-2.796,0-5.063-2.268-5.063-5.064c0-2.796,2.267-5.064,5.063-5.064
	C389.134,128.777,391.398,131.045,391.398,133.842"/>
<path d="M411.656,133.842c0,2.797-2.271,5.064-5.066,5.064c-2.798,0-5.063-2.268-5.063-5.064c0-2.796,2.267-5.064,5.063-5.064
	C409.387,128.777,411.656,131.045,411.656,133.842"/>
<path d="M406.59,138.906c-2.798,0-5.063,2.268-5.063,5.064c0,2.796,2.267,5.063,5.063,5.063s5.066-2.266,5.066-5.063
	C411.656,141.173,409.387,138.906,406.59,138.906"/>
<path d="M406.59,128.777c-2.798,0-5.063-2.268-5.063-5.064s2.267-5.066,5.063-5.066s5.066,2.27,5.066,5.066
	S409.387,128.777,406.59,128.777"/>
<path d="M391.398,143.971c0-2.797-2.266-5.064-5.066-5.064c-2.796,0-5.063,2.268-5.063,5.064c0,2.796,2.267,5.063,5.063,5.063
	C389.134,149.033,391.398,146.768,391.398,143.971"/>
<path opacity="0.4" fill="#231F20" d="M161.615,118.65h-0.267c-2.74,0.072-4.932,2.313-4.932,5.063c0,2.797,2.268,5.064,5.063,5.064
	c2.765,0,5.017-2.217,5.065-4.975v-0.18C166.497,120.912,164.32,118.721,161.615,118.65"/>
<path opacity="0.4" fill="#231F20" d="M181.737,138.906c-2.797,0-5.065,2.268-5.065,5.064c0,2.796,2.268,5.063,5.065,5.063
	c2.768,0,5.015-2.217,5.065-4.975v-0.178C186.752,141.125,184.505,138.906,181.737,138.906"/>
<path opacity="0.4" fill="#231F20" d="M171.444,128.777L171.444,128.777c-2.77,0-5.018,2.221-5.063,4.975v0.18
	c0.045,2.758,2.293,4.975,5.063,4.975c2.767,0,5.012-2.217,5.062-4.975v-0.182C176.456,130.998,174.211,128.777,171.444,128.777"/>
<path fill="#FFFFFF" d="M316.859,123.713c0,2.797-2.265,5.064-5.063,5.064c-2.797,0-5.063-2.268-5.063-5.064
	c0-2.795,2.267-5.066,5.063-5.066C314.596,118.646,316.859,120.918,316.859,123.713"/>
<path fill="#FFFFFF" d="M332.055,138.906c-2.798,0-5.064,2.268-5.064,5.064c0,2.796,2.268,5.063,5.064,5.063
	s5.063-2.266,5.063-5.063C337.118,141.173,334.852,138.906,332.055,138.906"/>
<path fill="#FFFFFF" d="M332.055,128.777c-2.798,0-5.064-2.268-5.064-5.064s2.268-5.066,5.064-5.066s5.063,2.27,5.063,5.066
	S334.852,128.777,332.055,128.777"/>
<path fill="#FFFFFF" d="M316.859,143.971c0-2.797-2.265-5.064-5.063-5.064c-2.797,0-5.063,2.268-5.063,5.064
	c0,2.796,2.267,5.063,5.063,5.063C314.596,149.033,316.859,146.768,316.859,143.971"/>
<path fill="#FFFFFF" d="M326.684,133.842c0,2.797-2.269,5.064-5.063,5.064c-2.802,0-5.067-2.268-5.067-5.064
	c0-2.796,2.266-5.064,5.067-5.064C324.415,128.777,326.684,131.045,326.684,133.842"/>
<path d="M204.25,203.795c8.876,0,17.624,2.721,18.357,3.883c0.125,0.193,1.517,7.169,1.523,10.816c0,0.949-0.085,1.672-0.32,1.996
	c-0.252,0.354-1.189,0.898-1.189,0.898l0.313,1.723c-1.227,2.047-8.875,4.488-8.875,4.488l0.26,0.524l5.094-0.429l2.4,0.8
	l3.597-0.397l3.61,2.002l4.398-0.8l1.604-1.202l1.201-0.4l0.397-0.805c0.676-0.386,11.616-5.599,11.616-5.599l14.367,16.024
	c0,0-0.131,2.607-0.354,5.593c-0.184,2.45-0.867,8.293-0.799,8.807v-0.002l4.801,6.813v38.43l-2.003,7.215l0.808,2.396v6.004
	c0,0-0.643,2.131-3.205,3.604c-0.766,0.435-3.203,1.199-3.203,1.199l-2.409,4.812c-0.579,0.354-1.509,0.86-2.623,0.86
	c-0.554,0-1.155-0.125-1.776-0.461c-0.604-0.332-0.563-1.529-1.604-1.604l-4.993,1.7l1.39,13.515c0,0,4.266,5.422,6.413,12.406
	c0.286,0.932,2.198,0.983,2.796,1.604c0.016,0.016,1.831,3.35,2.186,6.652c0.492,4.549-1.006,7.52-1.788,8.16
	c-0.298,0.256-1.671,0.909-1.992,1.602c-0.272,0.574-0.138,2.398-0.405,3.604c-0.242,1.058-0.775,2.117-0.795,2.806
	c-0.076,1.844,1.003,6.135,1.2,7.61c0.056,0.441,0.394,1.201,0.397,1.201c0.021,0.99,0.246,9.879,0.246,9.879l-14.847,9.634
	l-26.424,0.385l-1.402-21.256l-3.358-2.24c0,0-1.574-1.979-2.667-4.807c-0.666-1.757-1.043-3.546-1.596-4.81
	c0,0-1.679-2.248-1.83-3.721c-0.156-1.476-0.447-8.047-0.171-8.693c0.262-0.629,1.026-0.797,1.191-1.602
	c0.151-0.648,0.048-3.717,0.96-7.926c0.91-4.216,3.046-5.681,3.046-5.681l-2.403-1.606l-3.2-20.013l-4.406-0.409l-0.769-4.334
	l-3.233-0.472l2.006,2.803l-2.519,20.062l-1.807,1.209c0,0,1.084,1.42,1.521,1.955c0.591,0.725,4.208,6.287,3.691,16.535
	c-0.332,6.52-4.057,12.381-4.49,13.092c-0.226,0.363-1.425,3.9-1.425,3.9l-0.173,16.92l-27.731,5.506l-17.219-3.213L145,376.303
	l3.283-6.268l-0.141-1.402c-0.598-0.744-1.061-2.026-1.604-3.203c-0.334-0.721-2.202-4.703-1.327-13.321
	c0.879-8.623,5.105-12.781,5.329-13.103l0.121-0.035l0.556,0.066l0.123-0.031l2.403-3.203l-1.202-2.809l1.604-14.408
	c0,0-1.608-0.828-2.805-1.207c-0.86-0.262-1.415-0.826-2.393-0.826l-0.412,0.029c-0.687,0.992-2.574,3.65-5.716,3.65
	c-0.701,0-1.463-0.136-2.29-0.445c-1.219-0.459-2.519-3.105-2.519-3.105h-1.287c0,0-0.634,1.111-1.632,1.111l-0.171-0.012
	c-1.794-0.217-2.81-1.603-3.183-1.603h-0.01c-0.417,0.041-1.604,1.199-1.604,1.199l-0.287,2.273l-8.127,7.344
	c-0.188,0.076-0.475,0.1-0.769,0.1c-0.596,0-1.235-0.1-1.235-0.1l-3.574,2.225c0,0-0.209,0.099-0.621,0.099
	c-0.397,0-0.983-0.093-1.752-0.455c-0.56-0.267-1.161-1.187-1.161-1.187l-6.896,4.922h-2.808l-1.202,1.597l-0.405,2.006
	l-16.909,14.221c0,0-0.443,0.154-1.132,0.154c-0.344,0-0.751-0.039-1.196-0.154c-0.834-0.215-1.981-1.039-1.981-1.039l-2.8,2.033
	c0,0-0.287,0.174-0.853,0.174c-1.083,0-3.195-0.617-6.342-4.186c-4.804-5.443-3.369-7.724-3.369-7.724l2.823-2.426
	c0,0-0.702-1.021-0.943-1.979c-0.344-1.386,0.397-2.576,0.397-2.576l9.887-8.91c0,0-0.586-1.686-0.402-2.805
	c0.058-0.33,1.201-1.199,1.201-1.199l-0.244-1.184l2.936-2.992c0,0-1.126-1.396-1.488-2.236c-2.111-4.842,0.49-16.369,9.11-24.142
	c5.507-4.965,10.693-6.18,14.755-6.18c3.906,0,6.785,1.123,7.926,1.123l0.239-0.021c0.734-0.468,10.794-10.841,11.606-12.015
	c0.274-0.387,0.118-0.867,0.402-1.207c0.691-0.803,1.551-1.489,2.003-1.6c0.302-0.068,0.575-0.104,0.819-0.104
	c1.335,0,1.92,0.92,3.183,1.303c1.065,0.33,6.812,2.004,6.812,2.004l5.203-1.199l-0.802-1.201l0.4-1.199l-1.604-2.012l6.405-6.397
	l12.018,3.209l5.204,6.399c0,0,0.384-1.951,0.794-3.604c0.412-1.65,0.802-3.197,0.802-3.197l-5.601-3.205l-4.007-16.819
	l14.555-10.955l12.433,3.063l3.175-1.11l0.731,0.166l3.394-1.24l-0.417-1.037c0,0-1.508,0.133-3.303,0.133
	c-1.754,0-3.783-0.129-4.942-0.635l-1.197-3.199c0,0-2.156-0.414-2.803-1.604c-0.467-0.865-0.94-3.877-1.199-5.599
	c-0.684-4.491-1.076-6.282,1.599-8.414c0.372-0.291,5.083-4.865,17.458-8.131C198.611,204.066,201.439,203.795,204.25,203.795
	 M204.25,198.1L204.25,198.1c-3.542,0-6.799,0.389-9.68,1.145c-11.244,2.969-17.123,7.066-19.627,9.248l0.03-0.021
	c-5.105,4.104-4.394,8.723-3.705,13.191l0.075,0.489c0.302,2.009,0.558,3.474,0.819,4.601l-2.328-0.573l-2.161,1.627l-14.552,10.957
	L150.142,241l0.863,3.631l2.798,11.732l-5.002-1.334l-3.167-0.846l-2.323,2.319l-6.404,6.399l-2.685,2.679
	c-0.621-0.185-1.151-0.345-1.468-0.438l-0.171-0.103c-0.86-0.524-2.453-1.498-4.847-1.498c-0.686,0-1.397,0.084-2.106,0.252
	c-2.157,0.502-3.927,2.144-5.033,3.431c-0.644,0.77-1.01,1.541-1.222,2.178c-1.639,1.809-5.856,6.195-8.331,8.67
	c-1.606-0.34-3.745-0.715-6.304-0.715c-6.691,0-12.938,2.574-18.566,7.647c-9.823,8.855-13.413,22.138-10.884,29.689l-2.046,2.088
	l0.279,1.358c-0.309,0.556-0.546,1.183-0.666,1.886c-0.088,0.541-0.118,1.088-0.108,1.619l-7.574,6.823l-0.596,0.541l-0.425,0.677
	c-0.417,0.676-1.624,2.897-1.3,5.797l-0.505,0.436l-0.458,0.728c-1.114,1.771-2.966,6.727,3.914,14.522
	c3.574,4.055,7.146,6.111,10.613,6.111c1.38,0,2.717-0.349,3.769-0.979l0.221-0.131l0.207-0.146l0.095-0.072
	c0.825,0.209,1.685,0.313,2.539,0.313c1.443,0,2.512-0.299,3.019-0.477l0.978-0.346l0.794-0.668l16.912-14.22l1.523-1.28
	l0.198-0.986h0.853l1.483-1.059l3.733-2.668c0.938,0.299,1.862,0.446,2.77,0.446c1.416,0,2.461-0.36,3.089-0.664l0.276-0.133
	l0.261-0.162l2.037-1.266c0.99-0.021,1.86-0.189,2.652-0.508c1.058-0.422,1.058-0.422,9.841-8.412l0.482-0.443l0.091,0.011
	c0.267,0.034,0.563,0.055,0.85,0.055c0.276,0,0.553-0.021,0.82-0.049c0.754,0.709,1.624,1.303,2.614,1.676
	c1.422,0.533,2.865,0.811,4.293,0.811c1.4,0,3.112-0.264,4.912-1.146l-0.844,7.586l-0.171,1.49l0.292,0.68
	c-0.325,0.262-0.628,0.563-0.895,0.895c-3.667,4.238-5.917,9.785-6.561,16.104c-0.676,6.633-0.045,12.264,1.82,16.285
	c0.121,0.262,0.241,0.533,0.354,0.801c0.128,0.291,0.259,0.596,0.399,0.904l-2.167,4.143l-0.702,1.34l0.056,1.517l0.631,16.641
	l0.173,4.549l4.475,0.832l17.224,3.211l1.073,0.197l1.076-0.211l27.726-5.506l4.535-0.898l0.05-4.623l0.163-16
	c0.309-0.895,0.631-1.795,0.802-2.235c0.427-0.709,0.915-1.568,1.413-2.554c0.301,0.537,0.608,1.017,0.895,1.435
	c0.118,0.354,0.256,0.813,0.387,1.262c0.258,0.852,0.545,1.82,0.935,2.844c1.378,3.564,3.311,6.053,3.53,6.326l0.556,0.701
	l0.747,0.498l1.02,0.678l1.217,18.453l0.357,5.395l5.404-0.075l26.427-0.386l1.639-0.024l1.375-0.896l14.849-9.627l2.669-1.738
	l-0.077-3.186c0,0-0.229-8.857-0.245-9.84l-0.107-5.691l-1.063,0.019c-0.172-0.886-0.35-1.875-0.412-2.482l0.049-0.139
	c0.184-0.531,0.413-1.189,0.59-1.957c0.146-0.664,0.226-1.318,0.271-1.912l0.237-0.197c2.386-1.996,4.469-6.811,3.789-13.125
	c-0.482-4.44-2.734-8.711-3.297-9.459l-0.205-0.272l-0.237-0.25c-0.718-0.746-1.511-1.222-2.218-1.549
	c-1.779-4.765-4.226-8.644-5.592-10.628l-0.576-5.582c0.672,0.154,1.354,0.232,2.051,0.232c2.828,0,4.921-1.289,5.605-1.711
	l1.379-0.852l0.725-1.447l1.372-2.728c0.84-0.315,1.495-0.612,1.976-0.889c4.328-2.492,5.622-6.197,5.838-6.914l0.237-0.799v-0.836
	v-6.004v-0.939l-0.296-0.883l-0.249-0.734l1.532-5.524l0.209-0.75v-0.779v-38.43v-1.791l-1.028-1.472l-2.388-3.414
	c-0.469-0.657-0.876-1.248-1.258-1.771c0.076-0.756,0.164-1.631,0.232-2.321c0.17-1.646,0.344-3.347,0.424-4.418
	c0.223-3.021,0.355-5.625,0.362-5.732l0.122-2.346l-1.568-1.746l-14.367-16.027l-2.844-3.168l-3.844,1.832
	c-7.382,3.52-11.41,5.465-11.979,5.787l-0.147,0.086l-0.146,0.092c-0.377,0.246-0.707,0.518-0.988,0.811l-0.184,0.063l-0.742,0.551
	l-0.528,0.398L230,224.139l-1.223-0.682l-0.023-0.135c0.938-1.566,1.07-3.389,1.07-4.828c-0.002-1.984-0.993-11.699-2.451-13.93
	C224.264,199.65,209.335,198.1,204.25,198.1 M198.785,338.789l0.13-1.037l0.194-1.561l0.659,4.108l0.136,0.847
	C199.516,340.221,199.135,339.432,198.785,338.789"/>
<polygon points="324.465,165.645 324.465,198.725 232.374,290.814 228.35,286.789 318.771,196.365 318.771,165.645 "/>
<polygon points="250.52,165.645 250.52,198.725 158.428,290.814 154.406,286.789 244.829,196.365 244.829,165.645 "/>
<polygon points="399.413,165.645 399.413,198.725 282.199,315.936 278.176,311.912 393.725,196.365 393.725,165.645 "/>
<path d="M409.488,87.092l2.127-2.129l9.417,9.42l-2.126,2.127l-3.445-3.447l-9.369,9.371l-2.526-2.527l9.37-9.371L409.488,87.092z
	 M410.68,84.031l-2.123,2.123l-6.07-6.066l-2.463,2.463l5.568,5.57l-1.963,1.963l-5.573-5.57l-2.813,2.818l6.198,6.199l-2.126,2.123
	l-8.729-8.725l11.498-11.498L410.68,84.031z M385.268,81.43c-0.779-0.316-1.449-0.754-2.006-1.311
	c-0.88-0.881-1.521-1.826-1.916-2.834c-0.397-1.01-0.568-2.023-0.517-3.045c0.054-1.018,0.315-2.018,0.78-3
	c0.47-0.984,1.119-1.895,1.957-2.73c0.86-0.857,1.785-1.525,2.777-2.004c0.994-0.479,2.004-0.75,3.033-0.814
	c1.03-0.063,2.055,0.1,3.068,0.494c1.016,0.391,1.962,1.027,2.842,1.906c0.591,0.588,1.074,1.25,1.452,1.98
	c0.373,0.729,0.61,1.488,0.712,2.279c0.104,0.789,0.046,1.58-0.167,2.375c-0.215,0.795-0.616,1.549-1.207,2.27l-2.415-2.416
	c0.492-0.795,0.688-1.568,0.578-2.316c-0.105-0.752-0.467-1.434-1.076-2.047c-0.571-0.568-1.163-0.943-1.779-1.119
	c-0.617-0.176-1.236-0.203-1.854-0.08c-0.615,0.123-1.219,0.363-1.803,0.723c-0.584,0.361-1.133,0.793-1.635,1.297
	c-0.482,0.484-0.896,1.008-1.24,1.58c-0.342,0.568-0.573,1.158-0.691,1.77c-0.118,0.613-0.088,1.227,0.088,1.844
	c0.178,0.617,0.55,1.211,1.121,1.779c0.835,0.836,1.693,1.271,2.574,1.303c0.88,0.033,1.761-0.316,2.639-1.045l-2.542-2.545
	l1.886-1.885l4.829,4.832l-6.215,6.215l-1.612-1.609l1.049-1.564C386.948,81.842,386.046,81.746,385.268,81.43z M384.436,57.787
	c0.519,0.514,0.896,1.063,1.144,1.643c0.249,0.578,0.376,1.162,0.38,1.748c0.007,0.582-0.104,1.146-0.33,1.68
	c-0.227,0.539-0.557,1.027-0.997,1.467c-0.676,0.676-1.405,1.119-2.183,1.326c-0.779,0.213-1.619,0.121-2.521-0.264l-0.029,0.031
	c0.226,0.396,0.353,0.787,0.377,1.168c0.025,0.381-0.015,0.758-0.129,1.127c-0.112,0.369-0.282,0.732-0.516,1.078
	c-0.23,0.35-0.48,0.678-0.749,0.99c-0.172,0.193-0.378,0.42-0.61,0.676c-0.238,0.26-0.472,0.531-0.701,0.814
	c-0.231,0.285-0.434,0.572-0.604,0.859c-0.172,0.293-0.279,0.576-0.322,0.855l-2.527-2.529c0.226-0.502,0.572-1.023,1.045-1.561
	c0.473-0.537,0.91-1.068,1.309-1.594c0.514-0.686,0.771-1.309,0.771-1.867s-0.315-1.154-0.948-1.787l-2.527-2.529l-4.492,4.492
	l-2.527-2.527l11.495-11.496L384.436,57.787z M378.335,62.086c0.579,0.578,1.142,0.887,1.69,0.918
	c0.545,0.033,1.109-0.24,1.691-0.82c0.559-0.559,0.816-1.109,0.779-1.65c-0.038-0.543-0.348-1.104-0.926-1.684l-2.771-2.768
	l-3.237,3.234L378.335,62.086z M372.939,46.291l-7.194,15.795l-2.623-2.623l1.688-3.432l-4.3-4.299l-3.461,1.658l-2.544-2.543
	l15.846-7.148L372.939,46.291z M366.035,53.488l2.768-5.666l-0.029-0.033l-5.719,2.719L366.035,53.488z M355.826,33.428l2.126-2.125
	l9.416,9.418l-2.123,2.127l-3.446-3.447l-9.371,9.371l-2.525-2.527l9.371-9.371L355.826,33.428z M341.514,19.115l2.125-2.127
	l9.418,9.42l-2.125,2.125l-3.445-3.445l-9.371,9.371l-2.526-2.529l9.371-9.371L341.514,19.115z M342.318,15.668L330.82,27.164
	l-2.523-2.525l11.494-11.498L342.318,15.668z M330.389,3.738l-4.412,4.412l4.652,4.652l4.414-4.41l2.525,2.525l-11.493,11.498
	l-2.529-2.529l4.959-4.959l-4.653-4.652l-4.959,4.959l-2.524-2.529l11.491-11.494L330.389,3.738z"/>
<path d="M342.834,90.279c0.516,0.514,0.896,1.063,1.143,1.641c0.246,0.58,0.373,1.162,0.377,1.746
	c0.004,0.586-0.103,1.146-0.328,1.684c-0.225,0.538-0.559,1.025-0.998,1.463c-0.676,0.678-1.403,1.123-2.184,1.33
	c-0.777,0.209-1.619,0.121-2.519-0.266l-0.032,0.033c0.225,0.396,0.352,0.785,0.38,1.166c0.024,0.383-0.019,0.758-0.131,1.129
	c-0.11,0.369-0.283,0.729-0.513,1.078c-0.232,0.348-0.483,0.678-0.75,0.99c-0.174,0.193-0.375,0.418-0.611,0.676
	c-0.238,0.256-0.471,0.527-0.7,0.813c-0.231,0.283-0.432,0.574-0.604,0.861c-0.174,0.289-0.28,0.574-0.323,0.854l-2.526-2.527
	c0.223-0.504,0.573-1.025,1.045-1.563c0.473-0.535,0.906-1.066,1.305-1.594c0.518-0.688,0.771-1.311,0.771-1.869
	c0-0.557-0.314-1.152-0.947-1.787l-2.529-2.525l-4.489,4.492l-2.528-2.529l11.496-11.494L342.834,90.279z M336.732,94.576
	c0.576,0.58,1.142,0.885,1.688,0.918c0.547,0.033,1.108-0.242,1.69-0.822c0.558-0.555,0.816-1.105,0.781-1.648
	c-0.039-0.543-0.348-1.104-0.927-1.682l-2.768-2.77l-3.237,3.234L336.732,94.576z M334.8,82.244l-2.125,2.123l-6.069-6.068
	l-2.465,2.465l5.571,5.57l-1.965,1.963l-5.567-5.57l-2.822,2.818l6.199,6.199l-2.125,2.123l-8.725-8.725l11.494-11.496L334.8,82.244
	z M307.059,77.494l7.777-15.213l2.592,2.59l-5.523,10.643l0.033,0.031l10.672-5.488l2.609,2.607l-15.31,7.68L307.059,77.494z
	 M300.014,54.27c0.994-0.479,2.004-0.75,3.034-0.813c1.032-0.066,2.054,0.1,3.067,0.49c1.016,0.393,1.962,1.029,2.843,1.908
	c0.894,0.889,1.53,1.84,1.915,2.852c0.389,1.008,0.55,2.027,0.484,3.059c-0.063,1.027-0.338,2.041-0.813,3.033
	c-0.479,0.992-1.146,1.918-2.005,2.777c-0.835,0.838-1.745,1.488-2.729,1.957c-0.983,0.467-1.983,0.725-3.004,0.781
	c-1.021,0.053-2.031-0.115-3.033-0.508c-1.004-0.393-1.955-1.033-2.844-1.926c-0.88-0.881-1.52-1.824-1.916-2.832
	c-0.397-1.008-0.566-2.023-0.517-3.041c0.054-1.021,0.315-2.021,0.784-3.006c0.466-0.982,1.117-1.893,1.953-2.729
	C298.098,55.416,299.021,54.748,300.014,54.27z M298.523,60.379c-0.342,0.57-0.572,1.16-0.69,1.771
	c-0.118,0.613-0.089,1.227,0.088,1.844c0.177,0.617,0.55,1.209,1.12,1.777c0.568,0.57,1.162,0.943,1.777,1.121
	c0.617,0.178,1.231,0.207,1.843,0.088c0.614-0.117,1.204-0.35,1.772-0.693c0.568-0.342,1.094-0.756,1.578-1.238
	c0.504-0.506,0.938-1.049,1.295-1.635c0.36-0.586,0.604-1.186,0.724-1.803c0.127-0.617,0.099-1.234-0.079-1.852
	c-0.178-0.617-0.551-1.209-1.116-1.781c-0.571-0.566-1.164-0.939-1.78-1.117c-0.617-0.176-1.236-0.205-1.853-0.08
	c-0.616,0.123-1.22,0.363-1.804,0.725c-0.584,0.362-1.131,0.791-1.635,1.295C299.284,59.285,298.867,59.811,298.523,60.379z
	 M295.909,49.488c0.09-0.393,0.116-0.791,0.069-1.199c-0.039-0.41-0.155-0.807-0.336-1.191c-0.181-0.387-0.43-0.736-0.738-1.049
	c-0.571-0.568-1.164-0.941-1.78-1.119c-0.618-0.176-1.235-0.201-1.853-0.08c-0.617,0.123-1.22,0.365-1.804,0.725
	c-0.584,0.36-1.13,0.791-1.634,1.297c-0.48,0.482-0.896,1.008-1.241,1.58c-0.342,0.566-0.573,1.158-0.69,1.768
	c-0.118,0.615-0.088,1.229,0.088,1.846c0.176,0.617,0.55,1.209,1.121,1.777c0.771,0.775,1.611,1.143,2.518,1.104
	c0.906-0.037,1.795-0.395,2.667-1.07l2.447,2.447c-0.783,0.654-1.603,1.137-2.447,1.449c-0.851,0.311-1.698,0.449-2.544,0.42
	c-0.852-0.033-1.675-0.236-2.479-0.615c-0.809-0.373-1.563-0.916-2.271-1.625c-0.881-0.879-1.52-1.826-1.915-2.834
	c-0.397-1.008-0.569-2.023-0.519-3.043c0.055-1.018,0.315-2.02,0.783-3.002c0.467-0.982,1.119-1.893,1.957-2.73
	c0.857-0.854,1.783-1.525,2.775-2.002c0.993-0.479,2.005-0.75,3.035-0.814c1.029-0.063,2.051,0.1,3.064,0.492
	c1.017,0.393,1.961,1.027,2.844,1.908c0.632,0.633,1.141,1.322,1.521,2.068s0.618,1.516,0.715,2.311
	c0.1,0.795,0.034,1.594-0.193,2.398c-0.226,0.805-0.633,1.578-1.221,2.318l-2.447-2.447
	C295.646,50.242,295.818,49.879,295.909,49.488z M274.262,25.957l2.127-2.127l9.416,9.42l-2.123,2.125l-3.447-3.445l-9.37,9.371
	l-2.526-2.529l9.371-9.371L274.262,25.957z M275.064,22.51L263.57,34.006l-2.526-2.525l11.496-11.498L275.064,22.51z
	 M263.137,10.582l-4.412,4.41l4.652,4.654l4.414-4.412l2.527,2.529L258.82,29.257l-2.525-2.529l4.959-4.959l-4.656-4.652
	l-4.957,4.959l-2.529-2.525l11.496-11.498L263.137,10.582z"/>
<path d="M267.323,90.279c0.513,0.514,0.896,1.063,1.142,1.641c0.247,0.58,0.372,1.162,0.376,1.746
	c0.009,0.586-0.103,1.146-0.325,1.684c-0.227,0.537-0.56,1.025-1,1.463c-0.676,0.678-1.402,1.123-2.183,1.33
	c-0.776,0.209-1.619,0.121-2.519-0.266l-0.035,0.033c0.229,0.396,0.354,0.785,0.381,1.166c0.025,0.383-0.016,0.758-0.131,1.129
	c-0.109,0.369-0.281,0.729-0.512,1.078c-0.231,0.348-0.482,0.678-0.748,0.99c-0.174,0.193-0.379,0.418-0.615,0.676
	c-0.235,0.256-0.467,0.527-0.699,0.813c-0.229,0.283-0.432,0.574-0.604,0.861c-0.172,0.289-0.281,0.574-0.319,0.854l-2.529-2.527
	c0.226-0.504,0.573-1.025,1.046-1.563c0.473-0.535,0.906-1.066,1.303-1.594c0.517-0.688,0.773-1.311,0.773-1.869
	c0-0.557-0.318-1.152-0.951-1.787l-2.525-2.525l-4.492,4.492l-2.528-2.529l11.498-11.494L267.323,90.279z M261.221,94.576
	c0.578,0.58,1.141,0.885,1.688,0.918c0.547,0.033,1.112-0.242,1.69-0.822c0.56-0.555,0.818-1.105,0.782-1.648
	c-0.039-0.543-0.346-1.104-0.926-1.682l-2.771-2.77l-3.236,3.234L261.221,94.576z M259.289,82.244l-2.125,2.123l-6.071-6.068
	l-2.463,2.465l5.569,5.57l-1.963,1.963l-5.57-5.57l-2.818,2.818l6.198,6.199l-2.126,2.123l-8.725-8.725l11.494-11.496
	L259.289,82.244z M231.546,77.494l7.778-15.213l2.591,2.59l-5.522,10.643l0.033,0.031l10.676-5.488l2.608,2.607l-15.313,7.68
	L231.546,77.494z M224.503,54.27c0.993-0.479,2.006-0.75,3.037-0.813c1.03-0.066,2.05,0.1,3.067,0.49
	c1.012,0.393,1.959,1.029,2.84,1.908c0.89,0.889,1.527,1.84,1.914,2.852c0.389,1.008,0.55,2.027,0.484,3.059
	c-0.063,1.027-0.336,2.041-0.813,3.033c-0.478,0.992-1.146,1.918-2.003,2.777c-0.84,0.838-1.75,1.488-2.73,1.957
	c-0.982,0.467-1.982,0.725-3.001,0.781c-1.021,0.053-2.03-0.115-3.037-0.508c-1.002-0.393-1.95-1.033-2.84-1.926
	c-0.88-0.881-1.519-1.824-1.915-2.832c-0.396-1.008-0.57-2.023-0.52-3.041c0.057-1.021,0.318-2.021,0.783-3.006
	c0.467-0.982,1.119-1.893,1.959-2.729C222.584,55.416,223.51,54.748,224.503,54.27z M223.016,60.379
	c-0.346,0.57-0.578,1.16-0.695,1.771c-0.117,0.613-0.088,1.227,0.092,1.844c0.175,0.617,0.548,1.209,1.115,1.777
	c0.572,0.57,1.164,0.943,1.781,1.121c0.617,0.178,1.231,0.207,1.844,0.088c0.611-0.117,1.201-0.35,1.771-0.693
	c0.568-0.342,1.097-0.756,1.578-1.238c0.504-0.506,0.935-1.049,1.297-1.635c0.356-0.586,0.599-1.186,0.726-1.803
	c0.123-0.617,0.096-1.234-0.082-1.852c-0.176-0.617-0.551-1.209-1.121-1.781c-0.568-0.566-1.161-0.939-1.776-1.117
	c-0.616-0.176-1.235-0.205-1.853-0.08c-0.616,0.123-1.217,0.363-1.803,0.725c-0.584,0.361-1.127,0.791-1.634,1.295
	C223.77,59.285,223.355,59.811,223.016,60.379z M220.398,49.488c0.09-0.393,0.113-0.791,0.072-1.199
	c-0.045-0.41-0.156-0.807-0.339-1.191c-0.185-0.387-0.431-0.736-0.741-1.049c-0.568-0.568-1.162-0.941-1.779-1.119
	c-0.617-0.176-1.233-0.201-1.853-0.08c-0.618,0.123-1.216,0.365-1.802,0.725c-0.586,0.359-1.129,0.791-1.637,1.297
	c-0.482,0.482-0.896,1.008-1.236,1.58c-0.346,0.566-0.576,1.158-0.694,1.768c-0.118,0.615-0.088,1.229,0.091,1.846
	c0.176,0.617,0.548,1.209,1.117,1.777c0.773,0.775,1.613,1.143,2.521,1.104c0.907-0.037,1.795-0.395,2.665-1.07l2.445,2.447
	c-0.781,0.654-1.598,1.137-2.445,1.449c-0.848,0.311-1.696,0.449-2.543,0.42c-0.848-0.033-1.678-0.236-2.481-0.615
	c-0.804-0.373-1.561-0.916-2.268-1.625c-0.882-0.879-1.521-1.826-1.917-2.834c-0.397-1.008-0.568-2.023-0.516-3.043
	c0.056-1.018,0.314-2.02,0.782-3.002c0.465-0.982,1.119-1.893,1.956-2.73c0.856-0.854,1.785-1.525,2.778-2.002
	c0.992-0.479,2.006-0.75,3.037-0.814c1.031-0.063,2.051,0.1,3.066,0.492c1.012,0.393,1.961,1.027,2.84,1.908
	c0.633,0.633,1.142,1.322,1.523,2.068c0.38,0.746,0.618,1.516,0.713,2.311c0.096,0.795,0.032,1.594-0.191,2.398
	c-0.227,0.805-0.633,1.578-1.227,2.318l-2.445-2.447C220.139,50.242,220.305,49.879,220.398,49.488z M198.752,25.957l2.124-2.127
	l9.419,9.42l-2.126,2.125l-3.444-3.445l-9.371,9.371l-2.529-2.529l9.371-9.371L198.752,25.957z M199.557,22.51l-11.498,11.496
	l-2.529-2.525l11.498-11.498L199.557,22.51z M187.627,10.582l-4.414,4.41l4.655,4.654l4.409-4.412l2.529,2.529L183.31,29.257
	l-2.526-2.529l4.957-4.959l-4.653-4.652l-4.959,4.959l-2.529-2.525l11.498-11.498L187.627,10.582z"/>
<rect x="108.659" y="338.512" width="121.657" height="40.554"/>
<polygon fill="#FFFFFF" points="108.659,379.064 108.659,378.117 229.369,378.117 229.369,339.461 109.606,339.461 109.606,379.064 
	108.659,379.064 108.659,378.117 108.659,379.064 107.711,379.064 107.711,337.564 231.266,337.564 231.266,380.014 
	107.711,380.014 107.711,379.064 "/>
<rect x="108.659" y="297.957" width="121.657" height="40.555"/>
<polygon fill="#FFFFFF" points="108.659,338.512 108.659,337.564 229.369,337.564 229.369,298.908 109.606,298.908 109.606,338.512 
	108.659,338.512 108.659,337.564 108.659,338.512 107.711,338.512 107.711,297.012 231.266,297.012 231.266,339.461 
	107.711,339.461 107.711,338.512 "/>
<rect x="108.659" y="379.064" width="121.657" height="40.551"/>
<polygon fill="#FFFFFF" points="108.659,419.619 108.659,418.668 229.369,418.668 229.369,380.014 109.606,380.014 109.606,419.619 
	108.659,419.619 108.659,418.668 108.659,419.619 107.711,419.619 107.711,378.117 231.266,378.117 231.266,420.566 
	107.711,420.566 107.711,419.619 "/>
</svg>
