<?xml version="1.0" encoding="utf-8"?>
<!-- Generator: Adobe Illustrator 16.0.3, SVG Export Plug-In . SVG Version: 6.00 Build 0)  -->
<!DOCTYPE svg PUBLIC "-//W3C//DTD SVG 1.1//EN" "http://www.w3.org/Graphics/SVG/1.1/DTD/svg11.dtd">
<svg version="1.1" id="Layer_1" xmlns="http://www.w3.org/2000/svg" xmlns:xlink="http://www.w3.org/1999/xlink" x="0px" y="0px"
	 width="420px" height="406.406px" viewBox="0 0 420 406.406" enable-background="new 0 0 420 406.406" xml:space="preserve">
<path opacity="0.41" fill="#231F20" enable-background="new    " d="M13.283,150.758c-5.218,0-9.487-4.27-9.487-9.486v-17.08
	c0-5.215,4.27-9.486,9.487-9.486h17.076c5.219,0,9.486,4.271,9.486,9.486v17.08c0,5.217-4.267,9.486-9.486,9.486H13.283
	 M30.359,110.91H13.283C5.958,110.91,0,116.867,0,124.191v17.08c0,7.324,5.958,13.281,13.283,13.281h17.076
	c7.326,0,13.281-5.957,13.281-13.281v-17.08C43.64,116.867,37.686,110.91,30.359,110.91"/>
<path opacity="0.41" fill="#231F20" enable-background="new    " d="M88.232,150.758c-5.219,0-9.487-4.27-9.487-9.486v-17.08
	c0-5.215,4.269-9.486,9.487-9.486h17.078c5.219,0,9.484,4.271,9.484,9.486v17.08c0,5.217-4.265,9.486-9.484,9.486H88.232
	 M105.31,110.91H88.232c-7.189,0-13.062,5.74-13.277,12.877v17.891c0.216,7.137,6.088,12.875,13.277,12.875h17.078
	c7.325,0,13.278-5.957,13.278-13.281v-17.08C118.588,116.867,112.635,110.91,105.31,110.91"/>
<path opacity="0.41" fill="#231F20" enable-background="new    " d="M163.181,150.758c-5.218,0-9.487-4.27-9.487-9.486v-17.08
	c0-5.215,4.269-9.486,9.487-9.486h17.078c5.219,0,9.484,4.271,9.484,9.486v17.08c0,5.217-4.266,9.486-9.484,9.486H163.181
	 M180.259,110.91h-17.078c-7.325,0-13.283,5.957-13.283,13.281v17.08c0,7.324,5.958,13.281,13.283,13.281h17.078
	c7.325,0,13.28-5.957,13.28-13.281v-17.08C193.539,116.867,187.583,110.91,180.259,110.91"/>
<path opacity="0.41" fill="#231F20" enable-background="new    " d="M238.132,150.758c-5.221,0-9.489-4.27-9.489-9.486v-17.08
	c0-5.215,4.269-9.486,9.489-9.486h17.076c5.217,0,9.485,4.271,9.485,9.486v17.08c0,5.217-4.27,9.486-9.485,9.486H238.132
	 M255.208,110.91h-17.076c-7.272,0-13.205,5.877-13.284,13.131v17.381c0.079,7.254,6.012,13.131,13.284,13.131h17.076
	c7.321,0,13.28-5.957,13.28-13.281v-17.08C268.489,116.867,262.529,110.91,255.208,110.91"/>
<path fill="#FFFFFF" d="M313.08,152.656c-6.275,0-11.385-5.105-11.385-11.385v-17.076c0-6.281,5.109-11.385,11.385-11.385h17.076
	c6.279,0,11.387,5.104,11.387,11.385v17.076c0,6.279-5.107,11.385-11.387,11.385H313.08z"/>
<path d="M330.156,114.705c5.221,0,9.486,4.27,9.486,9.486v17.08c0,5.217-4.267,9.486-9.486,9.486h-17.074
	c-5.219,0-9.491-4.27-9.491-9.486v-17.08c0-5.217,4.272-9.486,9.491-9.486H330.156 M330.156,110.91h-17.074
	c-7.325,0-13.285,5.959-13.285,13.281v17.08c0,7.324,5.96,13.281,13.285,13.281h17.074c7.324,0,13.283-5.957,13.283-13.281v-17.08
	C343.439,116.869,337.48,110.91,330.156,110.91"/>
<path fill="#FFFFFF" d="M388.027,152.656c-6.275,0-11.383-5.105-11.383-11.385v-17.076c0-6.281,5.106-11.385,11.383-11.385h17.079
	c6.278,0,11.385,5.104,11.385,11.385v17.076c0,6.279-5.105,11.385-11.385,11.385H388.027z"/>
<path d="M405.106,114.705c5.219,0,9.486,4.27,9.486,9.486v17.08c0,5.217-4.269,9.486-9.486,9.486h-17.074
	c-5.22,0-9.489-4.27-9.489-9.486v-17.08c0-5.217,4.27-9.486,9.489-9.486H405.106 M405.106,110.91h-17.074
	c-7.323,0-13.283,5.959-13.283,13.281v17.08c0,7.324,5.96,13.281,13.283,13.281h17.074c7.322,0,13.281-5.957,13.281-13.281v-17.08
	C418.389,116.869,412.43,110.91,405.106,110.91"/>
<path opacity="0.41" fill="#231F20" d="M21.821,127.666L21.821,127.666c-2.799,0-5.065,2.27-5.065,5.064
	c0,2.799,2.266,5.066,5.065,5.066c2.765,0,5.015-2.217,5.063-4.977v-0.178C26.836,129.889,24.586,127.666,21.821,127.666"/>
<path opacity="0.41" fill="#231F20" d="M86.777,117.541h-0.269c-2.738,0.07-4.93,2.313-4.93,5.063c0,2.799,2.265,5.063,5.063,5.063
	c2.798,0,5.065-2.264,5.065-5.063l0,0C91.706,119.854,89.509,117.611,86.777,117.541"/>
<path opacity="0.41" fill="#231F20" d="M106.899,137.797c-2.795,0-5.065,2.268-5.065,5.063c0,2.801,2.27,5.066,5.065,5.066
	c2.768,0,5.012-2.219,5.063-4.977v-0.178C111.911,140.016,109.667,137.797,106.899,137.797"/>
<path opacity="0.41" fill="#231F20" d="M236.57,117.541h-0.272c-2.733,0.07-4.926,2.313-4.926,5.063
	c0,2.799,2.262,5.063,5.062,5.063c2.75,0,4.993-2.191,5.063-4.928v-0.268C241.427,119.781,239.26,117.611,236.57,117.541"/>
<path opacity="0.41" fill="#231F20" d="M256.689,137.797c-2.795,0-5.063,2.268-5.063,5.063c0,2.801,2.269,5.066,5.063,5.066
	c2.802,0,5.065-2.266,5.065-5.066l0,0C261.756,140.064,259.491,137.797,256.689,137.797"/>
<path opacity="0.41" fill="#231F20" d="M236.436,137.797c-2.801,0-5.063,2.268-5.063,5.063c0,2.801,2.262,5.066,5.063,5.066
	c2.75,0,4.992-2.195,5.063-4.932v-0.266C241.427,139.994,239.186,137.797,236.436,137.797"/>
<path opacity="0.41" fill="#231F20" d="M256.827,117.541h-0.271c-2.731,0.07-4.931,2.313-4.931,5.063
	c0,2.799,2.269,5.063,5.063,5.063c2.802,0,5.065-2.264,5.065-5.063l0,0C261.756,119.854,259.561,117.611,256.827,117.541"/>
<path d="M391.4,122.604c0,2.799-2.268,5.063-5.066,5.063c-2.798,0-5.064-2.264-5.064-5.063c0-2.795,2.268-5.063,5.064-5.063
	C389.134,117.541,391.4,119.809,391.4,122.604"/>
<path d="M391.4,132.73c0,2.799-2.268,5.066-5.066,5.066c-2.798,0-5.064-2.268-5.064-5.066c0-2.795,2.268-5.064,5.064-5.064
	C389.134,127.666,391.4,129.936,391.4,132.73"/>
<path d="M411.654,132.73c0,2.799-2.266,5.066-5.063,5.066c-2.8,0-5.063-2.268-5.063-5.066c0-2.795,2.265-5.064,5.063-5.064
	S411.654,129.936,411.654,132.73"/>
<path d="M406.592,137.797c-2.8,0-5.063,2.268-5.063,5.063c0,2.801,2.265,5.066,5.063,5.066c2.798,0,5.063-2.266,5.063-5.066
	C411.654,140.064,409.39,137.797,406.592,137.797"/>
<path d="M406.592,127.666c-2.8,0-5.063-2.264-5.063-5.063c0-2.797,2.265-5.063,5.063-5.063c2.798,0,5.063,2.266,5.063,5.063
	C411.654,125.402,409.39,127.666,406.592,127.666"/>
<path d="M391.4,142.859c0-2.797-2.268-5.063-5.066-5.063c-2.798,0-5.064,2.266-5.064,5.063c0,2.801,2.268,5.066,5.064,5.066
	C389.134,147.926,391.4,145.66,391.4,142.859"/>
<path opacity="0.41" fill="#231F20" d="M161.617,117.541h-0.27c-2.737,0.07-4.929,2.313-4.929,5.063
	c0,2.799,2.265,5.063,5.063,5.063c2.765,0,5.018-2.217,5.063-4.971v-0.182C166.499,119.805,164.319,117.611,161.617,117.541"/>
<path opacity="0.41" fill="#231F20" d="M181.737,137.797c-2.795,0-5.063,2.268-5.063,5.063c0,2.801,2.268,5.066,5.063,5.066
	c2.77,0,5.017-2.219,5.065-4.977v-0.178C186.754,140.016,184.507,137.797,181.737,137.797"/>
<path opacity="0.41" fill="#231F20" d="M171.443,127.666L171.443,127.666c-2.767,0-5.014,2.223-5.065,4.977v0.18
	c0.051,2.758,2.298,4.975,5.065,4.975c2.768,0,5.015-2.217,5.063-4.975v-0.18C176.458,129.889,174.211,127.666,171.443,127.666"/>
<path d="M316.861,122.604c0,2.799-2.266,5.063-5.063,5.063c-2.797,0-5.063-2.264-5.063-5.063c0-2.795,2.268-5.063,5.063-5.063
	C314.596,117.541,316.861,119.809,316.861,122.604"/>
<path d="M332.057,137.797c-2.8,0-5.064,2.268-5.064,5.063c0,2.801,2.266,5.066,5.064,5.066c2.795,0,5.063-2.266,5.063-5.066
	C337.118,140.064,334.852,137.797,332.057,137.797"/>
<path d="M332.057,127.666c-2.8,0-5.064-2.264-5.064-5.063c0-2.797,2.266-5.063,5.064-5.063c2.795,0,5.063,2.266,5.063,5.063
	C337.118,125.402,334.852,127.666,332.057,127.666"/>
<path d="M316.861,142.859c0-2.797-2.266-5.063-5.063-5.063c-2.797,0-5.063,2.266-5.063,5.063c0,2.801,2.268,5.066,5.063,5.066
	C314.596,147.926,316.861,145.66,316.861,142.859"/>
<path d="M326.684,132.73c0,2.799-2.266,5.066-5.063,5.066c-2.802,0-5.065-2.268-5.065-5.066c0-2.795,2.264-5.064,5.065-5.064
	C324.418,127.666,326.684,129.936,326.684,132.73"/>
<path d="M204.25,202.686c8.878,0,17.626,2.721,18.359,3.882c0.127,0.193,1.517,7.168,1.524,10.816c0,0.949-0.088,1.676-0.321,1.998
	c-0.254,0.35-1.191,0.898-1.191,0.898l0.313,1.723c-1.228,2.045-8.875,4.486-8.875,4.486l0.262,0.525l5.094-0.429l2.398,0.799
	l3.6-0.397l3.605,2.004l4.399-0.801l1.604-1.203l1.201-0.4l0.397-0.805c0.676-0.383,11.616-5.598,11.616-5.598l14.369,16.022
	c0,0-0.133,2.61-0.354,5.597c-0.186,2.446-0.869,8.288-0.801,8.805v-0.004l4.803,6.817v38.429l-2.005,7.211l0.81,2.397v6.006
	c0,0-0.643,2.129-3.207,3.604c-0.763,0.436-3.201,1.198-3.201,1.198l-2.409,4.813c-0.579,0.35-1.511,0.863-2.625,0.863
	c-0.558,0-1.155-0.131-1.777-0.468c-0.601-0.331-0.562-1.526-1.601-1.604l-4.993,1.703l1.388,13.514c0,0,4.266,5.422,6.412,12.408
	c0.288,0.93,2.2,0.979,2.801,1.604c0.01,0.017,1.828,3.349,2.186,6.65c0.486,4.551-1.008,7.521-1.789,8.16
	c-0.299,0.26-1.672,0.91-1.994,1.604c-0.273,0.57-0.139,2.396-0.402,3.601c-0.244,1.059-0.775,2.119-0.8,2.807
	c-0.075,1.842,1.009,6.138,1.202,7.609c0.057,0.442,0.396,1.201,0.398,1.201c0.021,0.991,0.248,9.881,0.248,9.881l-14.847,9.631
	l-26.425,0.387l-1.402-21.256l-3.361-2.24c0,0-1.571-1.979-2.667-4.807c-0.666-1.756-1.041-3.547-1.594-4.809
	c0,0-1.679-2.246-1.832-3.722c-0.154-1.477-0.448-8.049-0.168-8.694c0.261-0.63,1.023-0.796,1.191-1.601
	c0.151-0.647,0.045-3.715,0.96-7.928c0.91-4.215,3.046-5.678,3.046-5.678l-2.403-1.607l-3.203-20.014l-4.406-0.408l-0.767-4.332
	l-3.235-0.471l2.008,2.803l-2.521,20.059l-1.808,1.209c0,0,1.086,1.42,1.524,1.953c0.588,0.726,4.208,6.289,3.687,16.539
	c-0.329,6.521-4.054,12.379-4.487,13.09c-0.226,0.365-1.428,3.902-1.428,3.902l-0.173,16.92l-27.729,5.504l-17.221-3.213
	l-0.631-16.643l3.283-6.269l-0.144-1.401c-0.598-0.744-1.058-2.031-1.602-3.201c-0.336-0.726-2.204-4.703-1.327-13.322
	c0.877-8.623,5.103-12.785,5.327-13.102l0.123-0.035l0.559,0.063l0.118-0.028l2.403-3.205l-1.201-2.81l1.606-14.412
	c0,0-1.611-0.825-2.808-1.203c-0.857-0.262-1.415-0.829-2.393-0.829l-0.41,0.032c-0.688,0.992-2.574,3.646-5.719,3.646
	c-0.701,0-1.46-0.131-2.29-0.441c-1.217-0.457-2.519-3.104-2.519-3.104h-1.282c0,0-0.638,1.108-1.634,1.108l-0.17-0.012
	c-1.795-0.217-2.813-1.602-3.183-1.602h-0.013c-0.415,0.041-1.601,1.198-1.601,1.198l-0.287,2.273l-8.129,7.344
	c-0.186,0.076-0.473,0.103-0.769,0.103c-0.593,0-1.232-0.103-1.232-0.103l-3.577,2.224c0,0-0.209,0.1-0.621,0.1
	c-0.397,0-0.98-0.092-1.75-0.455c-0.563-0.27-1.164-1.186-1.164-1.186l-6.895,4.922h-2.805l-1.202,1.596l-0.407,2.006
	l-16.909,14.217c0,0-0.442,0.16-1.129,0.16c-0.345,0-0.751-0.041-1.196-0.16c-0.835-0.211-1.981-1.034-1.981-1.034l-2.8,2.034
	c0,0-0.287,0.173-0.853,0.173c-1.085,0-3.197-0.617-6.343-4.188c-4.802-5.441-3.368-7.723-3.368-7.723l2.823-2.422
	c0,0-0.702-1.023-0.941-1.98c-0.344-1.383,0.397-2.574,0.397-2.574l9.886-8.914c0,0-0.585-1.684-0.402-2.805
	c0.055-0.328,1.201-1.197,1.201-1.197l-0.244-1.184l2.936-2.994c0,0-1.126-1.396-1.488-2.234c-2.111-4.842,0.49-16.369,9.11-24.139
	c5.505-4.967,10.69-6.186,14.753-6.186c3.908,0,6.784,1.127,7.925,1.127l0.242-0.025c0.734-0.463,10.794-10.836,11.603-12.01
	c0.276-0.389,0.121-0.867,0.402-1.207c0.691-0.801,1.554-1.492,2.006-1.598c0.302-0.072,0.573-0.104,0.819-0.104
	c1.333,0,1.92,0.92,3.18,1.304c1.068,0.327,6.812,2.002,6.812,2.002l5.206-1.199l-0.804-1.201l0.402-1.199l-1.604-2.012l6.405-6.398
	l12.016,3.207l5.204,6.402c0,0,0.387-1.953,0.794-3.607c0.412-1.648,0.804-3.197,0.804-3.197l-5.601-3.203l-4.007-16.819
	l14.555-10.955l12.43,3.063l3.175-1.112l0.734,0.168l3.391-1.242l-0.418-1.035c0,0-1.508,0.134-3.3,0.134
	c-1.755,0-3.786-0.127-4.942-0.634l-1.196-3.2c0,0-2.157-0.414-2.806-1.604c-0.467-0.865-0.939-3.879-1.199-5.599
	c-0.684-4.494-1.076-6.28,1.602-8.414c0.372-0.291,5.083-4.864,17.455-8.13C198.611,202.957,201.439,202.686,204.25,202.686
	 M204.25,196.99L204.25,196.99c-3.542,0-6.799,0.387-9.678,1.145c-11.246,2.969-17.123,7.066-19.626,9.248l0.028-0.021
	c-5.105,4.104-4.392,8.724-3.706,13.191l0.076,0.488c0.302,2.01,0.56,3.477,0.822,4.602l-2.328-0.576l-2.162,1.632l-14.554,10.954
	l-2.977,2.238l0.862,3.627l2.795,11.734l-5-1.332l-3.17-0.844l-2.32,2.316l-6.405,6.399l-2.685,2.681
	c-0.624-0.187-1.151-0.343-1.469-0.438l-0.17-0.104c-0.86-0.523-2.456-1.496-4.847-1.496c-0.688,0-1.397,0.086-2.109,0.248
	c-2.157,0.506-3.924,2.147-5.032,3.436c-0.644,0.768-1.008,1.537-1.222,2.176c-1.639,1.811-5.854,6.193-8.328,8.668
	c-1.609-0.338-3.746-0.713-6.307-0.713c-6.689,0-12.936,2.574-18.564,7.65c-9.823,8.854-13.413,22.135-10.884,29.688l-2.049,2.084
	l0.282,1.361c-0.312,0.557-0.546,1.182-0.666,1.887c-0.088,0.537-0.118,1.088-0.108,1.617l-7.575,6.824l-0.595,0.541l-0.424,0.678
	c-0.418,0.676-1.625,2.896-1.3,5.795l-0.506,0.436l-0.455,0.728c-1.115,1.771-2.965,6.725,3.913,14.521
	c3.574,4.058,7.144,6.113,10.612,6.113c1.378,0,2.718-0.346,3.769-0.979l0.221-0.132l0.206-0.146l0.096-0.072
	c0.824,0.207,1.681,0.314,2.539,0.314c1.443,0,2.511-0.299,3.019-0.478l0.978-0.344l0.794-0.67l16.913-14.217l1.523-1.281
	l0.196-0.988h0.853l1.485-1.059l3.73-2.668c0.938,0.301,1.862,0.449,2.77,0.449c1.416,0,2.463-0.363,3.092-0.668l0.277-0.132
	l0.261-0.163l2.036-1.265c0.99-0.022,1.858-0.19,2.649-0.508c1.056-0.422,1.056-0.422,9.843-8.416l0.483-0.441l0.09,0.011
	c0.267,0.035,0.563,0.053,0.85,0.053c0.277,0,0.553-0.012,0.815-0.047c0.756,0.707,1.628,1.305,2.619,1.678
	c1.42,0.533,2.866,0.812,4.291,0.812c1.4,0,3.115-0.267,4.91-1.146l-0.842,7.586l-0.168,1.49l0.292,0.68
	c-0.327,0.258-0.628,0.563-0.897,0.896c-3.668,4.235-5.917,9.787-6.561,16.1c-0.676,6.637-0.045,12.268,1.822,16.289
	c0.121,0.262,0.239,0.533,0.352,0.799c0.128,0.293,0.261,0.594,0.402,0.906l-2.167,4.143l-0.704,1.341l0.055,1.516l0.633,16.641
	l0.171,4.549l4.474,0.83l17.224,3.214l1.076,0.198l1.074-0.215l27.729-5.504l4.535-0.9l0.048-4.618l0.164-16
	c0.312-0.896,0.631-1.795,0.804-2.24c0.427-0.707,0.915-1.566,1.413-2.549c0.302,0.53,0.609,1.016,0.893,1.434
	c0.118,0.354,0.259,0.813,0.39,1.26c0.256,0.854,0.542,1.822,0.935,2.845c1.375,3.563,3.308,6.053,3.527,6.327l0.555,0.701
	l0.75,0.494l1.021,0.682l1.216,18.447l0.357,5.4l5.404-0.08l26.425-0.383l1.639-0.025l1.375-0.895l14.85-9.627l2.671-1.74
	l-0.077-3.183c0,0-0.229-8.858-0.247-9.844l-0.104-5.69l-1.063,0.02c-0.174-0.885-0.351-1.875-0.412-2.484l0.05-0.137
	c0.186-0.531,0.41-1.188,0.586-1.959c0.147-0.664,0.227-1.315,0.271-1.91l0.24-0.194c2.383-2,4.466-6.813,3.787-13.127
	c-0.48-4.441-2.735-8.714-3.297-9.46l-0.203-0.274l-0.237-0.25c-0.718-0.744-1.513-1.223-2.222-1.547
	c-1.776-4.765-4.223-8.646-5.592-10.625l-0.576-5.582c0.676,0.153,1.357,0.229,2.052,0.229c2.832,0,4.923-1.287,5.606-1.711
	l1.381-0.848l0.725-1.449l1.374-2.727c0.833-0.318,1.491-0.615,1.971-0.888c4.33-2.493,5.625-6.198,5.835-6.916l0.242-0.799v-0.834
	v-6.006v-0.938l-0.3-0.885l-0.247-0.734l1.535-5.527l0.208-0.75v-0.775v-38.428v-1.795l-1.028-1.467l-2.391-3.42
	c-0.465-0.658-0.875-1.246-1.256-1.77c0.074-0.759,0.166-1.632,0.234-2.322c0.169-1.646,0.344-3.346,0.424-4.42
	c0.223-3.021,0.355-5.625,0.361-5.73l0.12-2.346l-1.567-1.748l-14.369-16.023l-2.843-3.17l-3.844,1.832
	c-7.38,3.518-11.407,5.463-11.976,5.787l-0.149,0.082l-0.146,0.096c-0.377,0.246-0.705,0.518-0.988,0.811l-0.184,0.06l-0.74,0.556
	l-0.527,0.399l-1.08,0.188l-1.223-0.678l-0.024-0.138c0.938-1.567,1.071-3.385,1.071-4.826c-0.004-1.983-0.991-11.696-2.449-13.93
	C224.264,198.537,209.334,196.99,204.25,196.99 M198.788,337.68l0.127-1.039l0.197-1.559l0.658,4.109l0.133,0.846
	C199.519,339.109,199.137,338.322,198.788,337.68"/>
<polygon points="324.465,164.535 324.465,197.613 284.684,237.396 280.654,233.373 318.773,195.258 318.773,164.535 "/>
<polygon points="399.413,164.535 399.413,197.613 282.199,314.826 278.178,310.799 393.723,195.258 393.723,164.535 "/>
<path d="M409.488,85.879l2.127-2.127l9.419,9.422l-2.128,2.123l-3.443-3.445l-9.371,9.371l-2.528-2.529l9.37-9.367L409.488,85.879z
	 M410.68,82.82l-2.123,2.123l-6.07-6.068l-2.463,2.465l5.568,5.57l-1.963,1.965l-5.571-5.57l-2.815,2.816l6.197,6.197l-2.128,2.127
	l-8.725-8.729l11.496-11.494L410.68,82.82z M385.268,80.221c-0.779-0.316-1.447-0.754-2.004-1.313
	c-0.882-0.881-1.521-1.826-1.918-2.834c-0.397-1.01-0.568-2.025-0.517-3.043c0.056-1.018,0.315-2.021,0.78-3.004
	c0.47-0.98,1.119-1.891,1.957-2.73c0.86-0.857,1.785-1.523,2.777-2c0.994-0.479,2.006-0.75,3.033-0.814
	c1.03-0.066,2.055,0.1,3.07,0.49c1.014,0.391,1.96,1.027,2.84,1.906c0.591,0.592,1.074,1.252,1.452,1.982
	c0.373,0.729,0.61,1.488,0.715,2.277c0.101,0.789,0.045,1.58-0.17,2.375c-0.215,0.795-0.616,1.551-1.207,2.27l-2.417-2.412
	c0.496-0.795,0.688-1.57,0.582-2.32c-0.107-0.752-0.469-1.434-1.078-2.045c-0.571-0.568-1.166-0.941-1.779-1.121
	c-0.617-0.176-1.234-0.199-1.854-0.08c-0.615,0.127-1.217,0.367-1.803,0.725c-0.586,0.361-1.133,0.793-1.635,1.297
	c-0.482,0.482-0.896,1.01-1.238,1.578c-0.347,0.568-0.576,1.16-0.693,1.77c-0.118,0.613-0.088,1.229,0.088,1.846
	c0.18,0.619,0.55,1.213,1.121,1.779c0.837,0.836,1.693,1.273,2.574,1.303c0.88,0.035,1.763-0.316,2.641-1.045l-2.542-2.545
	l1.881-1.883l4.832,4.828l-6.217,6.215l-1.608-1.609l1.047-1.561C386.948,80.631,386.046,80.537,385.268,80.221z M384.436,56.576
	c0.517,0.516,0.897,1.063,1.146,1.643c0.248,0.58,0.372,1.16,0.378,1.746c0.007,0.586-0.104,1.146-0.33,1.682
	c-0.227,0.537-0.559,1.025-0.999,1.467c-0.674,0.676-1.401,1.117-2.181,1.328c-0.779,0.209-1.619,0.121-2.52-0.266l-0.031,0.031
	c0.224,0.398,0.353,0.787,0.375,1.17c0.027,0.381-0.016,0.754-0.127,1.127c-0.112,0.369-0.285,0.729-0.516,1.078
	c-0.23,0.35-0.48,0.678-0.749,0.988c-0.172,0.195-0.376,0.422-0.61,0.678c-0.236,0.256-0.472,0.527-0.701,0.811
	c-0.231,0.285-0.434,0.572-0.604,0.863c-0.172,0.289-0.279,0.574-0.322,0.855l-2.527-2.529c0.226-0.504,0.574-1.025,1.048-1.563
	c0.47-0.537,0.907-1.066,1.305-1.596c0.515-0.686,0.771-1.307,0.771-1.865c0-0.557-0.315-1.156-0.948-1.789l-2.527-2.525
	l-4.494,4.49l-2.525-2.527l11.495-11.496L384.436,56.576z M378.337,60.875c0.577,0.58,1.14,0.887,1.688,0.918
	c0.55,0.031,1.11-0.242,1.69-0.82c0.56-0.559,0.818-1.111,0.779-1.65c-0.036-0.541-0.345-1.104-0.923-1.684l-2.771-2.77
	l-3.234,3.238L378.337,60.875z M372.941,45.082l-7.196,15.793l-2.626-2.625l1.689-3.428l-4.299-4.303l-3.461,1.66l-2.544-2.543
	l15.845-7.15L372.941,45.082z M366.033,52.277l2.771-5.668l-0.033-0.029l-5.717,2.719L366.033,52.277z M355.826,32.217l2.126-2.127
	l9.418,9.422l-2.123,2.123l-3.448-3.445l-9.369,9.371l-2.525-2.529l9.369-9.369L355.826,32.217z M341.514,17.902l2.125-2.127
	l9.422,9.422l-2.127,2.125l-3.447-3.447l-9.368,9.371l-2.529-2.529l9.371-9.367L341.514,17.902z M342.316,14.459l-11.492,11.492
	l-2.529-2.525l11.496-11.496L342.316,14.459z M330.389,2.529l-4.41,4.41l4.65,4.654l4.414-4.414l2.525,2.529l-11.495,11.494
	l-2.529-2.525l4.961-4.961l-4.653-4.652l-4.959,4.957l-2.524-2.525L327.861,0L330.389,2.529z"/>
<path d="M335.395,85.879l2.125-2.127l9.418,9.422l-2.125,2.123l-3.444-3.445l-9.369,9.371l-2.528-2.529l9.37-9.367L335.395,85.879z
	 M336.586,82.82l-2.127,2.123l-6.066-6.068l-2.466,2.465l5.571,5.57l-1.962,1.965l-5.573-5.57l-2.816,2.816l6.199,6.197
	l-2.127,2.127l-8.728-8.729l11.499-11.494L336.586,82.82z M311.174,80.221c-0.779-0.316-1.449-0.754-2.008-1.313
	c-0.88-0.881-1.518-1.826-1.915-2.834c-0.397-1.01-0.569-2.025-0.517-3.043c0.054-1.018,0.313-2.021,0.783-3.004
	c0.467-0.98,1.117-1.891,1.955-2.73c0.858-0.857,1.783-1.523,2.777-2c0.992-0.479,2.003-0.75,3.034-0.814
	c1.03-0.066,2.054,0.1,3.065,0.49c1.018,0.391,1.963,1.027,2.844,1.906c0.591,0.592,1.074,1.252,1.449,1.982
	c0.375,0.729,0.613,1.488,0.715,2.277c0.104,0.789,0.045,1.58-0.17,2.375c-0.213,0.795-0.613,1.551-1.205,2.27l-2.416-2.412
	c0.494-0.795,0.688-1.57,0.578-2.32c-0.105-0.752-0.465-1.434-1.076-2.045c-0.568-0.568-1.163-0.941-1.779-1.121
	c-0.618-0.176-1.236-0.199-1.854-0.08c-0.613,0.127-1.217,0.367-1.801,0.725c-0.587,0.361-1.132,0.793-1.635,1.297
	c-0.482,0.482-0.896,1.01-1.24,1.578c-0.344,0.568-0.574,1.16-0.691,1.77c-0.12,0.613-0.088,1.229,0.087,1.846
	c0.176,0.619,0.551,1.213,1.122,1.779c0.832,0.836,1.693,1.273,2.574,1.303c0.877,0.035,1.758-0.316,2.639-1.045l-2.544-2.545
	l1.885-1.883l4.833,4.828l-6.218,6.215l-1.61-1.609l1.049-1.561C312.854,80.631,311.95,80.537,311.174,80.221z M310.343,56.576
	c0.515,0.516,0.896,1.063,1.142,1.643c0.25,0.58,0.375,1.16,0.381,1.746c0.007,0.586-0.104,1.146-0.33,1.682
	c-0.227,0.537-0.559,1.025-0.998,1.467c-0.678,0.676-1.404,1.117-2.182,1.328c-0.777,0.209-1.619,0.121-2.521-0.266l-0.029,0.031
	c0.226,0.398,0.351,0.787,0.375,1.17c0.028,0.381-0.015,0.754-0.129,1.127c-0.111,0.369-0.283,0.729-0.516,1.078
	c-0.229,0.35-0.479,0.678-0.747,0.988c-0.171,0.195-0.377,0.422-0.61,0.678c-0.238,0.256-0.472,0.527-0.703,0.811
	c-0.229,0.285-0.432,0.572-0.604,0.863c-0.169,0.289-0.279,0.574-0.322,0.855l-2.525-2.529c0.226-0.504,0.572-1.025,1.045-1.563
	c0.473-0.537,0.91-1.066,1.308-1.596c0.513-0.686,0.771-1.307,0.771-1.865c0-0.557-0.317-1.156-0.95-1.789l-2.525-2.525l-4.495,4.49
	l-2.527-2.527l11.498-11.496L310.343,56.576z M304.239,60.875c0.581,0.58,1.144,0.887,1.69,0.918
	c0.545,0.031,1.112-0.242,1.691-0.82c0.559-0.559,0.818-1.111,0.779-1.65c-0.036-0.541-0.346-1.104-0.926-1.684l-2.77-2.77
	l-3.234,3.238L304.239,60.875z M298.846,45.082l-7.193,15.793l-2.625-2.625l1.688-3.428l-4.298-4.303l-3.461,1.66l-2.544-2.543
	l15.844-7.15L298.846,45.082z M291.939,52.277l2.768-5.668l-0.03-0.029l-5.715,2.719L291.939,52.277z M281.73,32.217l2.127-2.127
	l9.416,9.422l-2.123,2.123l-3.447-3.445l-9.371,9.371l-2.523-2.529l9.371-9.369L281.73,32.217z M267.42,17.902l2.125-2.127
	l9.417,9.422l-2.124,2.125l-3.445-3.447l-9.371,9.371l-2.526-2.529l9.371-9.367L267.42,17.902z M268.223,14.459l-11.494,11.492
	l-2.526-2.525l11.497-11.496L268.223,14.459z M256.292,2.529l-4.411,4.41l4.654,4.654l4.414-4.414l2.523,2.529l-11.494,11.494
	l-2.528-2.525l4.959-4.961l-4.652-4.652l-4.959,4.957l-2.526-2.525L253.764,0L256.292,2.529z"/>
</svg>
