<?xml version="1.0" encoding="utf-8"?>
<!-- Generator: Adobe Illustrator 16.0.3, SVG Export Plug-In . SVG Version: 6.00 Build 0)  -->
<!DOCTYPE svg PUBLIC "-//W3C//DTD SVG 1.1//EN" "http://www.w3.org/Graphics/SVG/1.1/DTD/svg11.dtd">
<svg version="1.1" id="Layer_1" xmlns="http://www.w3.org/2000/svg" xmlns:xlink="http://www.w3.org/1999/xlink" x="0px" y="0px"
	 width="420px" height="469.74px" viewBox="0 0 420 469.74" enable-background="new 0 0 420 469.74" xml:space="preserve">
<path opacity="0.4" fill="#231F20" enable-background="new    " d="M13.281,150.758c-5.219,0-9.489-4.266-9.489-9.486v-17.078
	c0-5.217,4.271-9.488,9.489-9.488h17.076c5.219,0,9.487,4.271,9.487,9.488v17.078c0,5.221-4.268,9.486-9.487,9.486H13.281
	 M30.357,110.91H13.281c-7.275,0-13.202,5.881-13.281,13.135v17.375c0.08,7.256,6.006,13.131,13.281,13.131h17.076
	c7.325,0,13.282-5.955,13.282-13.279v-17.078C43.639,116.871,37.682,110.91,30.357,110.91"/>
<path opacity="0.4" fill="#231F20" enable-background="new    " d="M88.232,150.758c-5.219,0-9.489-4.266-9.489-9.486v-17.078
	c0-5.217,4.271-9.488,9.489-9.488h17.076c5.218,0,9.484,4.271,9.484,9.488v17.078c0,5.221-4.266,9.486-9.484,9.486H88.232
	 M105.308,110.91H88.232c-7.254,0-13.169,5.844-13.282,13.068v17.506c0.113,7.227,6.028,13.066,13.282,13.066h17.076
	c7.325,0,13.28-5.955,13.28-13.279v-17.078C118.588,116.871,112.633,110.91,105.308,110.91"/>
<path opacity="0.4" fill="#231F20" enable-background="new    " d="M163.181,150.758c-5.218,0-9.486-4.266-9.486-9.486v-17.078
	c0-5.217,4.268-9.488,9.486-9.488h17.078c5.219,0,9.484,4.271,9.484,9.488v17.078c0,5.221-4.266,9.486-9.484,9.486H163.181
	 M180.259,110.91h-17.078c-7.189,0-13.061,5.742-13.277,12.877v17.889c0.216,7.139,6.088,12.875,13.277,12.875h17.078
	c7.325,0,13.278-5.955,13.278-13.279v-17.078C193.537,116.871,187.583,110.91,180.259,110.91"/>
<path opacity="0.4" fill="#231F20" enable-background="new    " d="M238.132,150.758c-5.221,0-9.489-4.266-9.489-9.486v-17.078
	c0-5.217,4.269-9.488,9.489-9.488h17.074c5.219,0,9.487,4.271,9.487,9.488v17.078c0,5.221-4.27,9.486-9.487,9.486H238.132
	 M255.206,110.91h-17.074c-7.272,0-13.206,5.881-13.284,13.135v17.375c0.078,7.256,6.01,13.131,13.284,13.131h17.074
	c7.323,0,13.282-5.955,13.282-13.279v-17.078C268.489,116.871,262.529,110.91,255.206,110.91"/>
<path d="M313.078,152.654c-6.278,0-11.383-5.104-11.383-11.383v-17.076c0-6.283,5.104-11.385,11.383-11.385h17.078
	c6.279,0,11.385,5.102,11.385,11.385v17.076c0,6.279-5.105,11.383-11.385,11.383H313.078z"/>
<path d="M330.156,114.705c5.217,0,9.486,4.271,9.486,9.488v17.078c0,5.217-4.271,9.486-9.486,9.486H313.08
	c-5.221,0-9.489-4.27-9.489-9.486v-17.078c0-5.217,4.271-9.488,9.489-9.488H330.156 M330.156,110.914H313.08
	c-7.323,0-13.285,5.957-13.285,13.279v17.078c0,7.324,5.962,13.281,13.285,13.281h17.076c7.324,0,13.283-5.957,13.283-13.281
	v-17.078C343.439,116.871,337.48,110.914,330.156,110.914"/>
<path fill="#FFFFFF" d="M388.032,152.654c-6.28,0-11.388-5.104-11.388-11.383v-17.076c0-6.283,5.106-11.385,11.388-11.385h17.071
	c6.281,0,11.388,5.102,11.388,11.385v17.076c0,6.279-5.105,11.383-11.388,11.383H388.032z"/>
<path d="M405.106,114.705c5.219,0,9.483,4.271,9.483,9.488v17.078c0,5.217-4.266,9.486-9.483,9.486h-17.074
	c-5.22,0-9.489-4.27-9.489-9.486v-17.078c0-5.217,4.27-9.488,9.489-9.488H405.106 M405.106,110.914h-17.074
	c-7.325,0-13.285,5.957-13.285,13.279v17.078c0,7.324,5.96,13.281,13.285,13.281h17.074c7.322,0,13.279-5.957,13.279-13.281v-17.078
	C418.387,116.871,412.43,110.914,405.106,110.914"/>
<path opacity="0.4" fill="#231F20" d="M21.82,127.67L21.82,127.67c-2.8,0-5.065,2.268-5.065,5.063c0,2.77,2.217,5.018,4.975,5.064
	h0.181c2.753-0.047,4.972-2.295,4.972-5.064l0,0C26.883,129.938,24.616,127.67,21.82,127.67"/>
<path opacity="0.4" fill="#231F20" d="M86.774,117.541h-0.267c-2.707,0.072-4.884,2.264-4.932,4.973v0.18
	c0.051,2.758,2.298,4.977,5.065,4.977c2.795,0,5.065-2.268,5.065-5.066l0,0C91.707,119.854,89.509,117.615,86.774,117.541"/>
<path opacity="0.4" fill="#231F20" d="M106.899,137.797c-2.795,0-5.068,2.27-5.068,5.064c0,2.799,2.272,5.063,5.068,5.063
	s5.063-2.264,5.063-5.063l0,0C111.962,140.066,109.694,137.797,106.899,137.797"/>
<path opacity="0.4" fill="#231F20" d="M236.568,117.541h-0.271c-2.705,0.072-4.882,2.264-4.927,4.973v0.18
	c0.045,2.758,2.292,4.977,5.063,4.977c2.75,0,4.993-2.195,5.063-4.934v-0.266C241.428,119.781,239.257,117.613,236.568,117.541"/>
<path opacity="0.4" fill="#231F20" d="M256.689,137.797c-2.797,0-5.063,2.27-5.063,5.064c0,2.799,2.266,5.063,5.063,5.063
	c2.754,0,4.994-2.191,5.063-4.928v-0.27C261.684,139.994,259.443,137.797,256.689,137.797"/>
<path opacity="0.4" fill="#231F20" d="M236.434,137.797c-2.77,0-5.017,2.219-5.062,4.975v0.178c0.045,2.758,2.292,4.975,5.062,4.975
	c2.766,0,5.014-2.217,5.064-4.975v-0.178C241.447,140.016,239.199,137.797,236.434,137.797"/>
<path opacity="0.4" fill="#231F20" d="M256.825,117.541h-0.269c-2.733,0.074-4.93,2.313-4.93,5.063c0,2.799,2.268,5.066,5.063,5.066
	c2.754,0,4.994-2.195,5.063-4.934v-0.266C261.684,119.781,259.516,117.613,256.825,117.541"/>
<path d="M391.398,122.604c0,2.799-2.269,5.066-5.064,5.066c-2.798,0-5.064-2.268-5.064-5.066c0-2.795,2.268-5.064,5.064-5.064
	C389.131,117.539,391.398,119.809,391.398,122.604"/>
<path d="M391.398,132.732c0,2.801-2.269,5.064-5.064,5.064c-2.798,0-5.064-2.264-5.064-5.064c0-2.795,2.268-5.063,5.064-5.063
	C389.131,127.67,391.398,129.938,391.398,132.732"/>
<path d="M411.654,132.732c0,2.801-2.269,5.064-5.063,5.064c-2.8,0-5.063-2.264-5.063-5.064c0-2.795,2.265-5.063,5.063-5.063
	C409.387,127.67,411.654,129.938,411.654,132.732"/>
<path d="M406.59,137.797c-2.798,0-5.063,2.27-5.063,5.064c0,2.799,2.267,5.063,5.063,5.063s5.064-2.264,5.064-5.063
	C411.654,140.066,409.387,137.797,406.59,137.797"/>
<path d="M406.59,127.67c-2.798,0-5.063-2.268-5.063-5.066c0-2.797,2.267-5.064,5.063-5.064s5.064,2.268,5.064,5.064
	C411.654,125.402,409.387,127.67,406.59,127.67"/>
<path d="M391.398,142.861c0-2.801-2.269-5.064-5.064-5.064c-2.798,0-5.064,2.264-5.064,5.064c0,2.799,2.268,5.063,5.064,5.063
	S391.398,145.66,391.398,142.861"/>
<path opacity="0.4" fill="#231F20" d="M161.615,117.541h-0.269c-2.734,0.074-4.929,2.313-4.929,5.063
	c0,2.799,2.268,5.066,5.065,5.066c2.765,0,5.015-2.219,5.063-4.977v-0.18C166.499,119.805,164.32,117.613,161.615,117.541"/>
<path opacity="0.4" fill="#231F20" d="M181.737,137.797c-2.797,0-5.063,2.27-5.063,5.064c0,2.799,2.265,5.063,5.063,5.063
	c2.77,0,5.018-2.217,5.063-4.975v-0.178C186.755,140.016,184.507,137.797,181.737,137.797"/>
<path opacity="0.4" fill="#231F20" d="M171.444,127.67L171.444,127.67c-2.768,0-5.015,2.219-5.065,4.971v0.182
	c0.05,2.727,2.248,4.928,4.975,4.975h0.179c2.727-0.047,4.926-2.248,4.974-4.975v-0.182
	C176.458,129.889,174.211,127.67,171.444,127.67"/>
<path fill="#FFFFFF" d="M316.861,122.604c0,2.799-2.266,5.066-5.065,5.066c-2.795,0-5.063-2.268-5.063-5.066
	c0-2.795,2.269-5.064,5.063-5.064C314.596,117.539,316.861,119.809,316.861,122.604"/>
<path fill="#FFFFFF" d="M332.055,137.797c-2.798,0-5.066,2.27-5.066,5.064c0,2.799,2.27,5.063,5.066,5.063s5.063-2.264,5.063-5.063
	C337.118,140.066,334.852,137.797,332.055,137.797"/>
<path fill="#FFFFFF" d="M332.055,127.67c-2.798,0-5.066-2.268-5.066-5.066c0-2.797,2.27-5.064,5.066-5.064s5.063,2.268,5.063,5.064
	C337.118,125.402,334.852,127.67,332.055,127.67"/>
<path fill="#FFFFFF" d="M316.861,142.861c0-2.801-2.266-5.064-5.065-5.064c-2.795,0-5.063,2.264-5.063,5.064
	c0,2.799,2.269,5.063,5.063,5.063C314.596,147.924,316.861,145.66,316.861,142.861"/>
<path fill="#FFFFFF" d="M326.684,132.732c0,2.801-2.266,5.064-5.064,5.064s-5.064-2.264-5.064-5.064
	c0-2.795,2.266-5.063,5.064-5.063S326.684,129.938,326.684,132.732"/>
<path d="M261.175,202.684c8.875,0,17.626,2.725,18.357,3.885c0.129,0.195,1.516,7.17,1.522,10.814c0,0.951-0.089,1.674-0.322,1.998
	c-0.254,0.355-1.188,0.898-1.188,0.898l0.312,1.723c-1.229,2.049-8.873,4.488-8.873,4.488l0.259,0.525l5.093-0.428l2.402,0.799
	l3.594-0.398l3.607,2.002l4.399-0.799l1.604-1.203l1.201-0.4l0.397-0.805c0.679-0.385,11.619-5.596,11.619-5.596l14.366,16.021
	c0,0-0.131,2.611-0.355,5.594c-0.181,2.453-0.868,8.291-0.799,8.807v-0.002l4.803,6.814v38.43l-2.006,7.213l0.811,2.396v6.006
	c0,0-0.643,2.129-3.207,3.604c-0.761,0.436-3.197,1.199-3.197,1.199l-2.417,4.811c-0.575,0.355-1.507,0.863-2.619,0.863
	c-0.56,0-1.157-0.125-1.78-0.463c-0.599-0.334-0.56-1.527-1.604-1.604l-4.991,1.701l1.394,13.514c0,0,4.262,5.422,6.408,12.408
	c0.287,0.93,2.202,0.982,2.795,1.604c0.016,0.016,1.834,3.352,2.192,6.653c0.489,4.547-1.009,7.519-1.795,8.158
	c-0.29,0.258-1.668,0.91-1.99,1.602c-0.271,0.574-0.138,2.398-0.401,3.604c-0.244,1.059-0.779,2.119-0.801,2.805
	c-0.074,1.847,1.008,6.135,1.202,7.609c0.056,0.445,0.397,1.203,0.397,1.203c0.019,0.989,0.246,9.879,0.246,9.879l-14.847,9.633
	l-26.424,0.385l-1.397-21.256l-3.363-2.24c0,0-1.569-1.979-2.664-4.807c-0.666-1.756-1.041-3.543-1.598-4.809
	c0,0-1.68-2.246-1.832-3.72c-0.153-1.477-0.447-8.047-0.17-8.694c0.266-0.629,1.024-0.797,1.192-1.603
	c0.153-0.647,0.049-3.715,0.964-7.926c0.91-4.215,3.046-5.68,3.046-5.68l-2.405-1.609l-3.199-20.012l-4.407-0.41l-0.767-4.332
	l-3.237-0.469l2.011,2.803l-2.52,20.059l-1.809,1.209c0,0,1.086,1.423,1.521,1.955c0.589,0.726,4.203,6.287,3.687,16.535
	c-0.325,6.521-4.053,12.381-4.483,13.092c-0.229,0.365-1.428,3.902-1.428,3.902l-0.177,16.92l-27.728,5.502l-17.222-3.211
	l-0.631-16.643l3.282-6.271l-0.144-1.399c-0.599-0.742-1.059-2.027-1.6-3.201c-0.339-0.722-2.207-4.703-1.327-13.324
	c0.876-8.623,5.103-12.781,5.324-13.104l0.12-0.035l0.559,0.067l0.12-0.032l2.404-3.201l-1.202-2.81l1.61-14.41
	c0,0-1.615-0.827-2.813-1.204c-0.859-0.263-1.413-0.83-2.392-0.83l-0.408,0.032c-0.691,0.994-2.574,3.648-5.721,3.648
	c-0.699,0-1.461-0.131-2.288-0.445c-1.222-0.455-2.518-3.104-2.518-3.104h-1.287c0,0-0.637,1.113-1.632,1.113l-0.168-0.015
	c-1.797-0.217-2.816-1.602-3.183-1.602h-0.015c-0.417,0.041-1.604,1.199-1.604,1.199l-0.283,2.274l-8.127,7.342
	c-0.187,0.076-0.472,0.103-0.769,0.103c-0.593,0-1.235-0.103-1.235-0.103l-3.574,2.224c0,0-0.208,0.1-0.621,0.1
	c-0.397,0-0.98-0.092-1.754-0.455c-0.558-0.266-1.162-1.186-1.162-1.186l-6.895,4.922h-2.806l-1.204,1.596l-0.404,2.006
	l-16.91,14.222c0,0-0.443,0.155-1.126,0.155c-0.35,0-0.755-0.041-1.202-0.155c-0.834-0.213-1.979-1.039-1.979-1.039l-2.8,2.032
	c0,0-0.285,0.175-0.855,0.175c-1.083,0-3.195-0.617-6.342-4.185c-4.801-5.444-3.366-7.723-3.366-7.723l2.821-2.426
	c0,0-0.702-1.023-0.94-1.979c-0.347-1.385,0.395-2.576,0.395-2.576l9.889-8.912c0,0-0.588-1.686-0.402-2.805
	c0.055-0.328,1.201-1.201,1.201-1.201l-0.241-1.182l2.936-2.992c0,0-1.128-1.396-1.49-2.235c-2.114-4.843,0.487-16.369,9.112-24.14
	c5.505-4.965,10.688-6.184,14.75-6.184c3.909,0,6.785,1.125,7.926,1.125l0.244-0.021c0.731-0.466,10.791-10.841,11.601-12.015
	c0.274-0.388,0.12-0.867,0.405-1.207c0.688-0.801,1.554-1.49,2-1.599c0.307-0.069,0.576-0.104,0.82-0.104
	c1.337,0,1.925,0.92,3.182,1.303c1.069,0.328,6.812,2.004,6.812,2.004l5.204-1.199l-0.8-1.2l0.399-1.201l-1.604-2.01l6.407-6.4
	l12.016,3.212l5.205,6.399c0,0,0.381-1.953,0.793-3.604c0.412-1.652,0.801-3.197,0.801-3.197l-5.599-3.207l-4.008-16.82
	l14.556-10.957l12.428,3.066l3.178-1.111l0.732,0.166l3.395-1.242l-0.419-1.035c0,0-1.509,0.133-3.302,0.133
	c-1.756,0-3.783-0.127-4.942-0.633l-1.196-3.201c0,0-2.158-0.414-2.804-1.604c-0.468-0.863-0.94-3.879-1.2-5.596
	c-0.685-4.494-1.078-6.283,1.604-8.414c0.369-0.293,5.082-4.867,17.455-8.133C255.537,202.957,258.361,202.684,261.175,202.684
	 M261.175,196.99L261.175,196.99c-3.545,0-6.802,0.389-9.678,1.146c-11.246,2.969-17.124,7.064-19.627,9.246l0.024-0.021
	c-5.103,4.105-4.388,8.723-3.705,13.193l0.076,0.488c0.303,2.008,0.561,3.475,0.824,4.602l-2.33-0.574l-2.16,1.625l-14.556,10.958
	l-2.976,2.236l0.861,3.631l2.795,11.734l-4.999-1.336l-3.171-0.846l-2.323,2.322l-6.405,6.397l-2.679,2.679
	c-0.624-0.185-1.154-0.343-1.473-0.438l-0.171-0.104c-0.86-0.524-2.454-1.498-4.847-1.498c-0.687,0-1.393,0.086-2.107,0.252
	c-2.157,0.502-3.924,2.144-5.03,3.431c-0.646,0.771-1.008,1.538-1.222,2.178c-1.639,1.812-5.856,6.197-8.331,8.67
	c-1.606-0.342-3.742-0.713-6.307-0.713c-6.689,0-12.935,2.574-18.564,7.647c-9.823,8.854-13.413,22.138-10.884,29.689l-2.046,2.086
	l0.279,1.357c-0.309,0.559-0.543,1.184-0.664,1.889c-0.09,0.539-0.121,1.088-0.11,1.619l-7.577,6.824l-0.596,0.541l-0.422,0.676
	c-0.419,0.676-1.624,2.897-1.299,5.797l-0.508,0.434l-0.457,0.728c-1.114,1.772-2.961,6.727,3.916,14.524
	c3.575,4.054,7.145,6.109,10.611,6.109c1.38,0,2.717-0.35,3.773-0.977l0.219-0.132l0.203-0.147l0.096-0.07
	c0.824,0.205,1.684,0.314,2.544,0.314c1.443,0,2.509-0.301,3.017-0.479l0.98-0.344l0.79-0.67l16.915-14.217l1.525-1.283l0.196-0.986
	h0.852l1.483-1.059l3.73-2.666c0.938,0.299,1.862,0.445,2.772,0.445c1.415,0,2.458-0.361,3.092-0.662l0.274-0.133l0.259-0.164
	l2.036-1.265c0.993-0.022,1.863-0.19,2.652-0.508c1.058-0.422,1.058-0.422,9.846-8.414l0.482-0.442l0.085,0.01
	c0.272,0.033,0.564,0.051,0.853,0.051c0.279,0,0.551-0.016,0.817-0.045c0.755,0.709,1.624,1.303,2.614,1.674
	c1.423,0.537,2.868,0.812,4.294,0.812c1.399,0,3.115-0.263,4.912-1.146l-0.844,7.586l-0.167,1.49l0.29,0.68
	c-0.326,0.262-0.631,0.563-0.897,0.896c-3.665,4.237-5.917,9.787-6.56,16.104c-0.674,6.631-0.045,12.267,1.823,16.285
	c0.122,0.262,0.238,0.533,0.354,0.801c0.128,0.291,0.257,0.594,0.399,0.904l-2.169,4.143l-0.701,1.341l0.058,1.516l0.628,16.641
	l0.174,4.551l4.475,0.832l17.228,3.209l1.068,0.199l1.078-0.211l27.729-5.508l4.537-0.898l0.045-4.623l0.166-15.997
	c0.311-0.896,0.629-1.796,0.798-2.24c0.428-0.707,0.917-1.566,1.42-2.549c0.298,0.532,0.604,1.016,0.889,1.432
	c0.12,0.355,0.259,0.816,0.39,1.264c0.256,0.853,0.547,1.818,0.938,2.843c1.377,3.563,3.309,6.053,3.525,6.327l0.557,0.701
	l0.744,0.496l1.023,0.68l1.215,18.451l0.356,5.396l5.408-0.078l26.422-0.385l1.642-0.025l1.373-0.895l14.846-9.627l2.678-1.736
	l-0.082-3.187c0,0-0.229-8.858-0.242-9.842l-0.107-5.69l-1.063,0.02c-0.174-0.887-0.348-1.877-0.412-2.484l0.049-0.139
	c0.184-0.531,0.412-1.188,0.588-1.955c0.146-0.67,0.228-1.319,0.271-1.914l0.237-0.194c2.388-1.998,4.471-6.813,3.787-13.127
	c-0.479-4.441-2.73-8.709-3.293-9.459l-0.207-0.273l-0.235-0.25c-0.72-0.748-1.515-1.221-2.22-1.547
	c-1.777-4.765-4.221-8.646-5.594-10.629l-0.572-5.58c0.675,0.151,1.354,0.229,2.051,0.229c2.829,0,4.918-1.289,5.605-1.711
	l1.377-0.85l0.727-1.447l1.374-2.729c0.833-0.316,1.494-0.613,1.974-0.888c4.328-2.493,5.624-6.198,5.838-6.916l0.237-0.799v-0.834
	v-6.006v-0.938l-0.296-0.885l-0.249-0.734l1.532-5.524l0.209-0.752v-0.774V257.42v-1.793l-1.028-1.471l-2.388-3.412
	c-0.469-0.66-0.881-1.25-1.258-1.772c0.076-0.757,0.164-1.632,0.232-2.322c0.17-1.646,0.344-3.346,0.424-4.416
	c0.224-3.021,0.355-5.629,0.362-5.734l0.12-2.346l-1.566-1.746L309.4,216.382l-2.842-3.17l-3.847,1.832
	c-7.379,3.52-11.407,5.467-11.976,5.787l-0.149,0.086l-0.146,0.094c-0.375,0.244-0.707,0.518-0.989,0.809l-0.181,0.063l-0.744,0.551
	L288,222.832l-1.076,0.197l-1.221-0.682l-0.023-0.133c0.935-1.568,1.068-3.389,1.068-4.832c-0.004-1.982-0.989-11.697-2.451-13.928
	C281.188,198.541,266.258,196.99,261.175,196.99 M255.711,337.68l0.129-1.037l0.197-1.561l0.654,4.109l0.134,0.846
	C256.441,339.109,256.063,338.322,255.711,337.68"/>
<path d="M198.513,441.605l-3.479-2.313l-0.186-0.236c-0.083-0.104-2.066-2.629-3.459-6.227c-0.397-1.043-0.708-2.084-1-3.063
	c-0.266-0.896-0.522-1.75-0.794-2.411c-0.583-0.808-2.209-3.214-2.413-5.188c-0.011-0.09-0.729-9.727-0.066-11.301
	c0.307-0.721,0.804-1.162,1.132-1.455l0.236-0.227c-0.011-0.099,0-0.468,0.03-0.976c0.093-1.629,0.266-4.668,1.066-8.373
	c0.613-2.838,1.654-4.779,2.578-6.029l-1.699-1.141l-3.715-23.225l-4.604-0.429l-2.62,20.818l-1.182,0.795
	c0.206,0.264,0.402,0.51,0.538,0.678c0.063,0.074,5.535,7,4.824,21.019c-0.352,6.951-3.635,13.26-5.561,16.397
	c-0.198,0.39-0.902,2.363-1.495,4.099l-0.219,21.405l-34.933,6.938l-22.392-4.174l-0.825-21.865l3.879-7.418l-0.06-0.604
	c-0.51-0.777-0.913-1.707-1.337-2.681c-0.148-0.344-0.302-0.694-0.46-1.037c-1.061-2.278-2.697-7.504-1.745-16.879
	c0.656-6.455,3.017-12.311,6.646-16.479c0.438-0.572,1.015-0.867,1.664-0.89c0.393-0.521,0.978-1.311,1.579-2.129l-1.201-2.809
	l1.819-16.348c-0.588-0.271-1.296-0.57-1.89-0.761c-0.467-0.141-0.887-0.344-1.302-0.553l-0.542-0.252
	c-2.237,2.854-4.839,4.297-7.737,4.297c-1.111,0-2.258-0.219-3.398-0.647c-1.362-0.511-2.529-2.052-3.283-3.269
	c-0.601,0.523-1.453,1.012-2.54,1.012l-0.432-0.028c-1.609-0.193-2.811-0.949-3.59-1.525l-0.1,0.084l-0.348,2.723l-0.515,0.476
	c-9.826,8.938-9.826,8.938-10.276,9.117c-0.425,0.168-0.938,0.248-1.609,0.248c-0.367,0-0.734-0.025-1.038-0.054l-3.781,2.354
	l-0.096,0.045c-0.191,0.092-0.729,0.303-1.562,0.303c-0.902,0-1.877-0.24-2.898-0.723c-0.312-0.146-0.608-0.357-0.875-0.586
	l-7.317,5.225h-3.009l-0.606,0.803l-0.525,2.617L48.851,406.36l-0.322,0.113c-0.141,0.053-0.89,0.297-1.983,0.297
	c-0.642,0-1.282-0.08-1.908-0.25c-0.613-0.156-1.265-0.47-1.807-0.775l-2.3,1.668c-0.377,0.234-1.045,0.562-2.131,0.562
	c-2.665,0-5.691-1.894-8.987-5.625c-6.342-7.195-4.61-10.824-4.198-11.479l0.151-0.238l2.403-2.065
	c-0.213-0.447-0.417-0.959-0.545-1.474c-0.588-2.366,0.566-4.319,0.699-4.534l0.141-0.229l11.118-10.02
	c-0.198-0.865-0.372-2.019-0.203-3.033c0.06-0.349,0.148-0.875,1.217-1.851l-0.267-1.282l3.071-3.13
	c-0.387-0.563-0.789-1.203-1.025-1.746c-3.067-7.032,0.832-21.479,11.336-30.948c5.787-5.218,12.131-7.863,18.865-7.863
	c3.235,0,5.925,0.604,7.709,1.008c0.478,0.109,1,0.228,1.368,0.289c2.192-2.043,11.588-11.787,12.85-13.369
	c0.075-0.494,0.193-1.119,0.668-1.69c0.458-0.531,1.988-2.205,3.414-2.541c0.493-0.113,0.965-0.173,1.413-0.173
	c1.478,0,2.453,0.597,3.235,1.07c0.395,0.238,0.731,0.445,1.114,0.563c1.071,0.33,6.058,1.785,7.626,2.244l3.278-0.759l-0.055-0.235
	l0.319-0.959l-2.327-2.921l9.615-9.602l15.979,4.266l4.11,5.052l0.729-2.921l-6.148-3.518l-5.253-22.072l19.068-14.352l15.153,3.738
	l0.191-0.07c-1-0.148-1.82-0.365-2.476-0.65l-0.739-0.319l-1.368-3.652c-1.131-0.373-2.785-1.137-3.577-2.59
	c-0.538-0.996-0.996-3.039-1.639-7.306l-0.093-0.598c-0.769-5.029-1.234-8.072,2.697-11.199c2.735-2.381,9.064-6.761,21.514-10.052
	c3.024-0.797,6.485-1.199,10.289-1.199c9.538,0,21.837,2.889,23.501,5.52c0.621,0.959,2.104,10.131,2.11,13.905
	c0,1.738-0.223,2.783-0.753,3.503c-0.204,0.286-0.515,0.577-0.859,0.844l0.274,1.528l-0.366,0.611
	c-0.657,1.099-2.209,2.164-3.996,3.103l1.239,0.416l4.474-0.505l4.238,2.357l4.144-0.752l1.797-1.354l0.91-0.301
	c0.281-0.563,0.561-0.832,0.867-1.033c0.911-0.521,11.87-5.748,14.059-6.791l1.283-0.611l18.604,20.75l-0.041,0.781
	c0,0-0.156,3.139-0.428,6.717c-0.092,1.248-0.291,3.225-0.487,5.143c-0.165,1.64-0.386,3.793-0.448,4.715
	c0.941,1.199,2.497,3.425,5.374,7.543l0.343,0.486v46.689l-2.308,8.285l0.88,2.594v7.756l-0.079,0.269
	c-0.101,0.336-1.082,3.319-4.698,5.397c-0.766,0.438-2.402,1.012-3.416,1.346l-2.766,5.511l-0.462,0.28
	c-0.915,0.564-2.341,1.314-4.122,1.314c-1.045,0-2.063-0.269-3.023-0.779c-0.748-0.42-1.109-1.051-1.346-1.506
	c-0.846,0.32-1.997,0.723-3.57,1.262l1.447,14.084c1.202,1.623,5.238,7.392,7.529,14.648l0.777,0.285
	c0.748,0.252,1.595,0.537,2.211,1.18l0.104,0.105l0.083,0.121c0.23,0.327,2.486,4.618,2.938,8.815
	c0.662,6.092-1.381,10.229-2.818,11.406c-0.107,0.094-0.389,0.281-0.749,0.502c-0.267,0.166-0.851,0.523-1.091,0.756
	c-0.045,0.283-0.07,0.848-0.09,1.24c-0.043,0.848-0.09,1.805-0.276,2.647c-0.146,0.623-0.354,1.242-0.552,1.818
	c-0.141,0.393-0.344,0.986-0.358,1.187c-0.045,1.266,0.536,4.159,0.925,6.077c0.199,0.994,0.371,1.863,0.467,2.466h0.486l0.034,1.86
	c0.022,1.183,0.292,11.771,0.292,11.771l0.027,1.063l-19.053,12.363l-33.86,0.49L198.513,441.605z"/>
<path fill="#F1F2F2" d="M190.841,229.834c10.588,0,21.021,3.25,21.897,4.635c0.148,0.23,1.809,8.546,1.816,12.896
	c0,1.137-0.104,2-0.386,2.381c-0.296,0.426-1.417,1.076-1.417,1.076l0.369,2.055c-1.462,2.439-10.578,5.354-10.578,5.354
	l0.309,0.621l6.067-0.508l2.866,0.955l4.292-0.48l4.3,2.392l5.25-0.953l1.913-1.438l1.431-0.475l0.471-0.961
	c0.81-0.457,13.856-6.678,13.856-6.678l17.132,19.105c0,0-0.154,3.125-0.421,6.678c-0.222,2.922-1.036,9.889-0.954,10.5l5.726,8.125
	v45.83l-2.394,8.6l0.965,2.854v7.169c0,0-0.76,2.534-3.82,4.295c-0.904,0.52-3.813,1.432-3.813,1.432l-2.879,5.736
	c-0.687,0.422-1.803,1.03-3.129,1.03c-0.661,0-1.378-0.153-2.124-0.553c-0.712-0.402-0.663-1.822-1.904-1.916l-5.953,2.033
	l1.658,16.113c0,0,5.09,6.469,7.643,14.793c0.344,1.112,2.63,1.176,3.342,1.916c0.011,0.018,2.179,3.998,2.6,7.934
	c0.59,5.422-1.195,8.965-2.132,9.732c-0.351,0.303-1.991,1.079-2.376,1.905c-0.326,0.688-0.163,2.859-0.482,4.295
	c-0.287,1.265-0.924,2.531-0.951,3.354c-0.084,2.191,1.201,7.313,1.434,9.072c0.064,0.526,0.473,1.432,0.477,1.432
	c0.026,1.182,0.295,11.785,0.295,11.785l-17.705,11.481l-31.51,0.461l-1.674-25.352l-4.007-2.664c0,0-1.875-2.363-3.178-5.736
	c-0.796-2.094-1.239-4.229-1.905-5.733c0,0-2.001-2.678-2.181-4.439c-0.186-1.756-0.534-9.594-0.206-10.366
	c0.316-0.746,1.222-0.949,1.425-1.908c0.178-0.775,0.057-4.433,1.144-9.455c1.086-5.025,3.635-6.769,3.635-6.769l-2.865-1.92
	l-3.821-23.864l-5.253-0.486l-0.913-5.164l-3.858-0.566l2.393,3.345l-3.006,23.92l-2.154,1.444c0,0,1.294,1.693,1.817,2.328
	c0.702,0.867,5.017,7.502,4.397,19.722c-0.393,7.778-4.834,14.766-5.35,15.61c-0.274,0.435-1.704,4.654-1.704,4.654l-0.209,20.176
	l-33.06,6.563l-20.545-3.83l-0.751-19.843l3.917-7.479l-0.171-1.672c-0.713-0.891-1.267-2.416-1.91-3.818
	c-0.402-0.86-2.629-5.608-1.581-15.889c1.043-10.283,6.085-15.242,6.352-15.623l0.146-0.045l0.664,0.082l0.141-0.037
	c0.276-0.271,2.871-3.824,2.871-3.824l-1.433-3.342l1.913-17.191c0,0-1.923-0.979-3.351-1.434c-1.021-0.316-1.679-0.986-2.845-0.986
	l-0.493,0.037c-0.825,1.185-3.072,4.349-6.82,4.349c-0.834,0-1.742-0.154-2.728-0.523c-1.458-0.549-3.006-3.705-3.006-3.705h-1.532
	c0,0-0.761,1.326-1.953,1.326l-0.198-0.017c-2.145-0.26-3.355-1.911-3.798-1.911h-0.015c-0.498,0.049-1.908,1.432-1.908,1.432
	l-0.342,2.713l-9.69,8.756c-0.226,0.088-0.565,0.117-0.92,0.117c-0.709,0-1.473-0.117-1.473-0.117l-4.261,2.65
	c0,0-0.249,0.119-0.736,0.119c-0.475,0-1.177-0.107-2.089-0.543c-0.671-0.32-1.39-1.412-1.39-1.412l-8.22,5.867h-3.348l-1.436,1.903
	l-0.48,2.392l-20.17,16.955c0,0-0.522,0.188-1.344,0.188c-0.41,0-0.897-0.049-1.426-0.188c-0.998-0.255-2.362-1.232-2.362-1.232
	l-3.343,2.422c0,0-0.337,0.203-1.016,0.203c-1.29,0-3.811-0.729-7.566-4.988c-5.726-6.489-4.012-9.209-4.012-9.209l3.363-2.887
	c0,0-0.837-1.223-1.119-2.365c-0.412-1.651,0.47-3.069,0.47-3.069l11.789-10.629c0,0-0.693-2.009-0.475-3.347
	c0.065-0.387,1.43-1.424,1.43-1.424l-0.292-1.412l3.504-3.572c0,0-1.342-1.664-1.774-2.664c-2.521-5.778,0.583-19.518,10.864-28.788
	c6.568-5.923,12.745-7.375,17.593-7.375c4.661,0,8.092,1.346,9.454,1.346l0.287-0.029c0.875-0.555,12.87-12.922,13.835-14.322
	c0.327-0.463,0.143-1.034,0.482-1.442c0.82-0.955,1.848-1.779,2.383-1.904c0.367-0.084,0.687-0.121,0.98-0.121
	c1.593,0,2.292,1.09,3.793,1.549c1.274,0.392,8.126,2.392,8.126,2.392l6.204-1.433l-0.956-1.434l0.476-1.43l-1.914-2.398
	l7.642-7.625l14.331,3.82l6.207,7.633c0,0,0.458-2.328,0.945-4.297c0.493-1.969,0.958-3.813,0.958-3.813l-6.684-3.818l-4.771-20.066
	l17.354-13.063l14.823,3.654l3.786-1.324l0.872,0.199l4.05-1.48l-0.503-1.234c0,0-1.788,0.158-3.924,0.158
	c-2.094,0-4.52-0.154-5.904-0.754l-1.425-3.816c0,0-2.574-0.498-3.346-1.916c-0.558-1.029-1.119-4.625-1.43-6.678
	c-0.815-5.355-1.282-7.486,1.91-10.027c0.442-0.35,6.061-5.807,20.813-9.703C184.121,230.164,187.489,229.834,190.841,229.834
	 M190.841,226.041L190.841,226.041c-3.966,0-7.591,0.428-10.773,1.268c-12.825,3.383-19.416,7.963-22.207,10.389
	c-4.799,3.822-4.178,7.863-3.394,12.979l0.091,0.598c0.696,4.615,1.176,6.683,1.837,7.906c0.719,1.318,1.858,2.205,2.974,2.795
	l-7.149-1.766l-1.754-0.432l-1.438,1.086l-17.354,13.063l-1.986,1.496l0.576,2.412l4.492,18.881l-10.809-2.885l-2.111-0.563
	l-1.543,1.545l-7.645,7.631l-2.4,2.396l2.116,2.65l0.156,0.201l-0.89,0.198c-1.92-0.557-6.169-1.797-7.116-2.09
	c-0.164-0.053-0.41-0.199-0.691-0.371c-0.827-0.504-2.212-1.35-4.223-1.35c-0.594,0-1.209,0.074-1.835,0.221
	c-1.871,0.438-3.564,2.148-4.404,3.123c-0.651,0.781-0.916,1.568-1.036,2.121c-1.805,2.078-8.833,9.375-11.679,12.146l-0.341-0.076
	c-1.865-0.418-4.681-1.058-8.127-1.058c-7.214,0-13.988,2.813-20.137,8.355c-11.101,10.006-15.127,25.483-11.799,33.121
	c0.098,0.231,0.224,0.475,0.357,0.717l-1.314,1.348l-1.416,1.443l0.267,1.289c-0.578,0.69-0.895,1.361-1.023,2.115
	c-0.148,0.895-0.103,1.83,0.013,2.666l-10.128,9.133l-0.4,0.358l-0.281,0.455c-0.292,0.465-1.694,2.938-0.933,5.996l0.128,0.455
	l-1.161,1l-0.432,0.373l-0.307,0.48c-0.97,1.541-2.483,5.961,4.379,13.743c3.675,4.162,7.177,6.269,10.412,6.269
	c1.503,0,2.501-0.459,2.961-0.736l0.146-0.086l0.141-0.104l1.368-0.988c0.377,0.162,0.771,0.305,1.159,0.404
	c0.767,0.203,1.571,0.305,2.373,0.305c1.332,0,2.274-0.281,2.616-0.404l0.646-0.229l0.525-0.441L70.5,390.643l1.018-0.856
	l0.262-1.301l0.254-1.248h1.292h1.212l0.99-0.707l5.771-4.119l0.008,0.002c1.282,0.604,2.531,0.91,3.718,0.91
	c1.176,0,1.998-0.312,2.383-0.492l0.186-0.09l0.174-0.111l3.175-1.971l0.553,0.012c0.92,0,1.659-0.125,2.328-0.385
	c0.75-0.299,0.75-0.299,10.839-9.473l1.033-0.947l0.1-0.789c0.571,0.209,1.212,0.377,1.913,0.465l0.658,0.039
	c0.722,0,1.388-0.137,1.994-0.373c0.852,1.064,1.916,2.037,3.162,2.506c1.355,0.513,2.723,0.771,4.063,0.771
	c3.084,0,5.847-1.297,8.242-3.861c0.239,0.1,0.508,0.203,0.8,0.293l0.39,0.133l-1.609,14.443l-0.11,0.996l0.395,0.918l0.58,1.35
	l-0.48,0.646c-0.782,0.223-1.468,0.682-1.978,1.324l-0.048,0.059c-3.887,4.459-6.405,10.688-7.104,17.535
	c-0.739,7.281-0.061,13.629,1.915,17.867c0.151,0.323,0.294,0.659,0.443,0.995c0.336,0.779,0.681,1.576,1.101,2.322l-3.295,6.293
	l-0.467,0.896l0.038,1.008l0.751,19.848l0.116,3.025l2.983,0.559l20.537,3.83l0.719,0.133l0.714-0.143l33.065-6.562l3.026-0.602
	l0.03-3.082l0.201-19.564c0.488-1.428,1.041-2.975,1.251-3.491c1.592-2.601,4.03-7.211,5.186-12.619
	c0.098,2.774,0.314,5.289,0.32,5.334c0.231,2.266,1.812,4.76,2.619,5.906c0.21,0.553,0.43,1.278,0.653,2.034
	c0.292,0.972,0.618,2.066,1.041,3.187c1.479,3.818,3.524,6.455,3.755,6.74l0.367,0.471l0.503,0.332l2.449,1.631l1.548,23.479
	l0.236,3.594l3.603-0.049l31.514-0.461l1.09-0.015l0.918-0.596l17.707-11.486l1.781-1.155l-0.057-2.123
	c0-0.004-0.269-10.578-0.293-11.759l-0.067-3.762l-0.774,0.01c-0.057-0.289-0.115-0.592-0.181-0.909
	c-0.313-1.548-0.883-4.375-0.892-5.507c0.052-0.176,0.166-0.51,0.252-0.764c0.199-0.561,0.439-1.262,0.609-2.014
	c0.228-1.021,0.278-2.062,0.323-2.979l0.015-0.313l0.27-0.162c0.342-0.215,0.668-0.412,0.986-0.683
	c2.231-1.858,4.134-6.922,3.473-13.049c-0.502-4.684-2.956-9.252-3.268-9.698l-0.166-0.242l-0.205-0.215
	c-0.896-0.929-2-1.334-2.848-1.617c-2.226-6.562-5.729-11.83-7.209-13.888l-1.24-12.069l0.115-0.039
	c0.245-0.082,0.481-0.162,0.709-0.24c0.291,0.307,0.652,0.604,1.094,0.854c1.293,0.7,2.613,1.038,3.979,1.038
	c2.525,0,4.473-1.194,5.116-1.59l0.921-0.567l0.486-0.97l2.17-4.325c1.06-0.367,2.297-0.834,3.018-1.248
	c4.256-2.445,5.447-6.093,5.566-6.502l0.162-0.531v-0.555v-7.168v-0.621l-0.195-0.593l-0.596-1.748l2.082-7.473l0.137-0.498v-0.521
	v-45.83v-1.195l-0.682-0.979c0,0-1.426-2.033-2.852-4.068c-0.717-1.02-1.438-2.039-1.975-2.805l-0.152-0.215
	c0.092-1.043,0.255-2.627,0.38-3.896c0.197-1.918,0.403-3.899,0.496-5.187c0.265-3.559,0.425-6.633,0.429-6.762l0.082-1.563
	l-1.046-1.164l-17.134-19.111l-1.896-2.113l-2.563,1.222c-3.959,1.887-13.257,6.327-14.092,6.803l-0.09,0.052l-0.086,0.057
	c-0.426,0.27-0.782,0.606-1.094,1.043l-0.55,0.182l-0.494,0.373l-1.198,0.898l-3.031,0.549l-3.11-1.732l-1.062-0.59l-0.572,0.066
	l0.09-0.152l0.734-1.221l-0.217-1.207l0.381-0.475c0.74-1.005,1.076-2.39,1.076-4.56c-0.009-3.088-1.356-13.287-2.418-14.945
	C213.51,228.592,199.225,226.041,190.841,226.041 M181.053,391.09l0.244-0.16l0.218-1.719l2.275-18.141l1.315,0.125l3.352,20.959
	l0.262,1.631l0.847,0.567c-0.716,1.31-1.387,2.984-1.842,5.085c-0.83,3.852-1.011,6.979-1.107,8.668l-0.012,0.237
	c-0.294,0.293-0.646,0.687-0.948,1.207C185.588,400.5,182.969,394.068,181.053,391.09"/>
<polygon points="324.465,164.535 324.465,197.615 260.982,261.092 256.962,257.065 318.773,195.258 318.773,164.535 "/>
<polygon points="399.413,164.535 399.413,197.615 341.236,255.791 337.211,251.767 393.723,195.258 393.723,164.535 "/>
<path d="M409.488,85.879l2.127-2.123l9.417,9.418l-2.126,2.123l-3.445-3.443l-9.371,9.369l-2.527-2.527l9.371-9.371L409.488,85.879z
	 M410.68,82.82l-2.128,2.127l-6.065-6.07l-2.463,2.461l5.568,5.572l-1.963,1.965l-5.573-5.572l-2.813,2.816l6.198,6.199
	l-2.129,2.127l-8.727-8.727l11.498-11.496L410.68,82.82z M385.268,80.221c-0.779-0.316-1.449-0.754-2.008-1.313
	c-0.881-0.881-1.519-1.824-1.914-2.832c-0.397-1.01-0.57-2.023-0.517-3.045c0.053-1.022,0.313-2.021,0.78-3.004
	c0.47-0.98,1.119-1.891,1.957-2.727c0.86-0.861,1.783-1.529,2.777-2.008c0.991-0.477,2.004-0.748,3.033-0.811
	c1.03-0.066,2.055,0.098,3.068,0.49c1.016,0.393,1.959,1.027,2.842,1.908c0.591,0.59,1.074,1.252,1.449,1.98
	c0.376,0.729,0.613,1.49,0.715,2.277c0.104,0.789,0.046,1.582-0.169,2.375c-0.213,0.795-0.614,1.553-1.207,2.271l-2.415-2.414
	c0.494-0.795,0.688-1.566,0.58-2.318c-0.108-0.752-0.467-1.434-1.078-2.043c-0.569-0.572-1.164-0.943-1.78-1.119
	c-0.618-0.178-1.235-0.207-1.851-0.08c-0.615,0.123-1.219,0.363-1.803,0.725c-0.586,0.357-1.133,0.791-1.635,1.293
	c-0.482,0.486-0.896,1.012-1.24,1.578c-0.345,0.572-0.574,1.16-0.691,1.773c-0.118,0.609-0.088,1.227,0.088,1.842
	c0.177,0.615,0.55,1.209,1.121,1.781c0.835,0.836,1.693,1.27,2.574,1.303c0.88,0.031,1.758-0.316,2.639-1.049l-2.544-2.543
	l1.885-1.883l4.832,4.83l-6.217,6.215l-1.61-1.611l1.049-1.561C386.948,80.631,386.046,80.537,385.268,80.221z M384.436,56.576
	c0.517,0.516,0.896,1.064,1.144,1.643c0.247,0.58,0.374,1.164,0.38,1.746c0.007,0.586-0.104,1.146-0.33,1.686
	c-0.227,0.535-0.559,1.021-0.999,1.463c-0.676,0.678-1.403,1.119-2.181,1.33c-0.779,0.207-1.619,0.119-2.521-0.268l-0.029,0.033
	c0.224,0.396,0.353,0.787,0.375,1.166c0.027,0.381-0.016,0.756-0.127,1.129c-0.112,0.369-0.285,0.729-0.516,1.078
	c-0.23,0.35-0.48,0.678-0.749,0.99c-0.172,0.193-0.378,0.418-0.61,0.676c-0.238,0.258-0.472,0.529-0.703,0.813
	c-0.229,0.283-0.432,0.572-0.604,0.861c-0.17,0.289-0.279,0.574-0.32,0.852l-2.527-2.525c0.227-0.506,0.572-1.025,1.045-1.561
	c0.473-0.537,0.91-1.068,1.309-1.596c0.51-0.688,0.769-1.311,0.771-1.867c-0.002-0.559-0.315-1.154-0.951-1.785l-2.524-2.529
	l-4.494,4.492l-2.529-2.529l11.499-11.494L384.436,56.576z M378.332,60.875c0.582,0.582,1.145,0.885,1.691,0.918
	c0.545,0.033,1.111-0.242,1.691-0.82c0.559-0.557,0.818-1.107,0.779-1.65c-0.036-0.543-0.346-1.104-0.926-1.682l-2.77-2.771
	l-3.238,3.236L378.332,60.875z M372.939,45.082l-7.194,15.793l-2.626-2.623l1.689-3.43l-4.299-4.299l-3.461,1.656l-2.544-2.543
	l15.845-7.146L372.939,45.082z M366.033,52.279l2.767-5.668l-0.028-0.033l-5.717,2.721L366.033,52.279z M355.826,32.217l2.126-2.125
	l9.416,9.42l-2.123,2.123l-3.448-3.443l-9.369,9.367l-2.525-2.525l9.371-9.371L355.826,32.217z M341.514,17.904l2.125-2.125
	l9.416,9.42l-2.123,2.123l-3.445-3.445l-9.371,9.371l-2.526-2.527l9.371-9.371L341.514,17.904z M342.316,14.457L330.82,25.955
	l-2.525-2.529l11.496-11.494L342.316,14.457z M330.386,2.527l-4.409,4.41l4.652,4.654l4.411-4.412l2.528,2.529l-11.495,11.496
	l-2.529-2.527l4.959-4.959l-4.651-4.652l-4.959,4.959l-2.527-2.529L327.859,0L330.386,2.527z"/>
<path d="M342.831,89.068c0.517,0.514,0.897,1.063,1.146,1.641c0.246,0.58,0.371,1.162,0.377,1.748
	c0.004,0.584-0.104,1.146-0.33,1.682c-0.224,0.539-0.559,1.025-0.996,1.467c-0.676,0.676-1.403,1.117-2.184,1.326
	c-0.779,0.211-1.619,0.121-2.519-0.264l-0.032,0.033c0.225,0.396,0.352,0.783,0.38,1.166c0.022,0.379-0.021,0.756-0.131,1.125
	c-0.11,0.373-0.285,0.732-0.513,1.08c-0.232,0.348-0.483,0.678-0.75,0.99c-0.174,0.193-0.379,0.42-0.613,0.676
	c-0.236,0.26-0.471,0.531-0.698,0.814c-0.231,0.283-0.434,0.57-0.604,0.859c-0.172,0.291-0.279,0.576-0.322,0.854l-2.525-2.527
	c0.223-0.504,0.572-1.023,1.045-1.563c0.473-0.535,0.905-1.066,1.303-1.592c0.519-0.686,0.772-1.311,0.772-1.869
	c0-0.557-0.315-1.152-0.948-1.787l-2.528-2.527l-4.489,4.492l-2.529-2.527l11.495-11.496L342.831,89.068z M336.732,93.367
	c0.576,0.578,1.14,0.885,1.688,0.918c0.547,0.033,1.108-0.24,1.688-0.822c0.558-0.559,0.82-1.109,0.785-1.65
	c-0.041-0.541-0.349-1.104-0.928-1.682l-2.77-2.77l-3.237,3.236L336.732,93.367z M334.798,81.033l-2.123,2.127l-6.071-6.07
	l-2.463,2.463l5.569,5.57l-1.963,1.965l-5.571-5.57l-2.818,2.816l6.199,6.197l-2.125,2.127l-8.725-8.727l11.494-11.496
	L334.798,81.033z M307.059,76.283l7.775-15.215l2.591,2.592l-5.521,10.643l0.031,0.033l10.674-5.49l2.609,2.607l-15.313,7.682
	L307.059,76.283z M300.014,53.061c0.992-0.479,2.004-0.75,3.034-0.814c1.03-0.063,2.054,0.1,3.067,0.49
	c1.016,0.393,1.96,1.027,2.843,1.908c0.894,0.893,1.53,1.842,1.915,2.85c0.384,1.01,0.547,2.029,0.484,3.059
	c-0.063,1.031-0.338,2.045-0.813,3.037c-0.479,0.99-1.146,1.918-2.007,2.775c-0.833,0.838-1.743,1.49-2.729,1.957
	c-0.981,0.465-1.981,0.729-3.002,0.779c-1.021,0.055-2.031-0.115-3.033-0.506c-1.006-0.391-1.955-1.033-2.846-1.924
	c-0.878-0.881-1.518-1.826-1.914-2.832c-0.397-1.012-0.566-2.025-0.517-3.045c0.054-1.018,0.313-2.021,0.782-3.002
	c0.468-0.982,1.117-1.893,1.955-2.73C298.098,54.205,299.02,53.537,300.014,53.061z M298.523,59.168
	c-0.344,0.57-0.572,1.158-0.69,1.773c-0.118,0.609-0.089,1.225,0.088,1.842c0.177,0.619,0.55,1.211,1.12,1.779
	c0.566,0.568,1.162,0.943,1.777,1.119c0.613,0.178,1.229,0.205,1.843,0.088c0.614-0.119,1.202-0.348,1.771-0.691
	c0.57-0.344,1.096-0.756,1.58-1.238c0.504-0.506,0.937-1.051,1.295-1.635c0.36-0.586,0.604-1.188,0.724-1.805
	c0.125-0.617,0.097-1.234-0.081-1.852c-0.178-0.617-0.549-1.211-1.114-1.779c-0.571-0.57-1.166-0.941-1.78-1.119
	c-0.617-0.178-1.238-0.201-1.853-0.078c-0.616,0.121-1.22,0.363-1.804,0.723c-0.586,0.359-1.131,0.793-1.635,1.297
	C299.282,58.074,298.867,58.6,298.523,59.168z M295.909,48.277c0.09-0.393,0.116-0.793,0.069-1.199
	c-0.039-0.408-0.155-0.805-0.336-1.191c-0.181-0.389-0.43-0.734-0.738-1.047c-0.571-0.57-1.164-0.941-1.78-1.117
	c-0.618-0.18-1.235-0.207-1.853-0.082c-0.617,0.123-1.22,0.365-1.804,0.725c-0.587,0.359-1.132,0.791-1.634,1.295
	c-0.482,0.484-0.896,1.01-1.241,1.578c-0.342,0.57-0.573,1.158-0.69,1.773c-0.118,0.609-0.088,1.225,0.088,1.842
	s0.55,1.209,1.119,1.779c0.771,0.771,1.611,1.141,2.52,1.104c0.906-0.037,1.795-0.395,2.665-1.072l2.447,2.447
	c-0.784,0.656-1.601,1.139-2.447,1.449c-0.849,0.313-1.696,0.451-2.544,0.418c-0.85-0.033-1.673-0.236-2.479-0.609
	c-0.808-0.377-1.563-0.918-2.273-1.627c-0.878-0.881-1.518-1.824-1.915-2.834c-0.396-1.01-0.565-2.023-0.515-3.043
	c0.054-1.021,0.314-2.021,0.781-3.002c0.467-0.982,1.117-1.893,1.955-2.73c0.86-0.859,1.786-1.527,2.778-2.006
	c0.993-0.477,2.003-0.746,3.033-0.811c1.03-0.066,2.053,0.098,3.067,0.488c1.016,0.395,1.961,1.029,2.842,1.91
	c0.633,0.633,1.139,1.324,1.521,2.068c0.382,0.746,0.618,1.518,0.717,2.311c0.1,0.793,0.032,1.596-0.193,2.398
	c-0.226,0.807-0.633,1.58-1.221,2.318l-2.449-2.445C295.646,49.029,295.818,48.668,295.909,48.277z M274.262,24.746l2.127-2.125
	l9.416,9.42l-2.123,2.125l-3.449-3.445l-9.368,9.369l-2.526-2.525l9.368-9.371L274.262,24.746z M275.064,21.303L263.57,32.797
	l-2.526-2.529l11.492-11.494L275.064,21.303z M263.135,9.369l-4.412,4.414l4.654,4.65l4.412-4.408l2.527,2.525L258.82,28.046
	l-2.528-2.527l4.96-4.959l-4.652-4.652l-4.959,4.959l-2.526-2.529l11.491-11.494L263.135,9.369z"/>
</svg>
