<?xml version="1.0" encoding="utf-8"?>
<!-- Generator: Adobe Illustrator 16.0.3, SVG Export Plug-In . SVG Version: 6.00 Build 0)  -->
<!DOCTYPE svg PUBLIC "-//W3C//DTD SVG 1.1//EN" "http://www.w3.org/Graphics/SVG/1.1/DTD/svg11.dtd">
<svg version="1.1" id="Layer_1" xmlns="http://www.w3.org/2000/svg" xmlns:xlink="http://www.w3.org/1999/xlink" x="0px" y="0px"
	 width="320px" height="158px" viewBox="0 0 320 158" enable-background="new 0 0 320 158" xml:space="preserve">
<path fill="#010101" d="M24.812,119.522c1,0,2.032,0.116,3.098,0.351c1.066,0.233,2.04,0.659,2.923,1.273
	c0.882,0.616,1.606,1.475,2.174,2.574c0.565,1.099,0.833,2.498,0.8,4.197c-0.035,1.599-0.318,3.023-0.851,4.271
	c-0.533,1.25-1.258,2.316-2.174,3.199c-0.917,0.883-1.998,1.557-3.248,2.023c-1.25,0.466-2.623,0.717-4.122,0.749v0.1
	c1.799,0.268,3.156,0.993,4.072,2.174c0.916,1.183,1.358,2.923,1.325,5.223c-0.033,0.932-0.067,1.881-0.1,2.848
	c-0.034,0.968-0.068,1.948-0.1,2.948c0,0.633,0.032,1.267,0.1,1.899c0.066,0.632,0.2,1.248,0.399,1.849h-1
	c-0.233-0.633-0.383-1.258-0.45-1.875c-0.067-0.615-0.1-1.257-0.1-1.924c0.033-0.965,0.066-1.914,0.1-2.849
	c0.033-0.932,0.083-1.897,0.15-2.896c0.033-1.531-0.193-2.766-0.675-3.698c-0.484-0.932-1.099-1.657-1.849-2.175
	c-0.75-0.515-1.566-0.865-2.449-1.048c-0.883-0.185-1.708-0.275-2.474-0.275H8.122l-3.499,16.74H3.675l7.396-35.679H24.812z
	 M20.364,137.461c1,0,2.207-0.081,3.622-0.249c1.417-0.167,2.774-0.575,4.073-1.224c1.299-0.65,2.406-1.608,3.323-2.874
	c0.916-1.266,1.391-2.997,1.424-5.196c0.034-1.666-0.233-2.981-0.799-3.948c-0.566-0.966-1.274-1.706-2.124-2.223
	c-0.849-0.517-1.765-0.851-2.748-1c-0.983-0.15-1.874-0.226-2.674-0.226H11.969l-3.547,16.939H20.364z"/>
<path fill="#010101" d="M38.203,143.458l-7.296,11.743h-1.1l22.286-35.679h1l6.595,35.679h-0.999l-2.198-11.743H38.203z
	 M52.394,120.923h-0.1l-13.442,21.535h17.489L52.394,120.923z"/>
<path fill="#010101" d="M61.737,155.201l7.596-35.679h13.491c3.131,0,5.43,0.775,6.896,2.324c1.466,1.548,2.199,3.556,2.199,6.021
	c0,1.1-0.175,2.299-0.525,3.599c-0.349,1.299-1.007,2.499-1.973,3.599c-0.967,1.098-2.323,2.022-4.073,2.771
	c-1.748,0.75-4.022,1.124-6.821,1.124H66.235l-3.498,16.241H61.737z M78.827,137.961c1.799,0,3.439-0.208,4.922-0.625
	c1.482-0.416,2.756-1.048,3.823-1.897c1.065-0.851,1.89-1.907,2.474-3.174c0.581-1.265,0.874-2.73,0.874-4.397
	c0-1.565-0.267-2.823-0.799-3.772c-0.534-0.949-1.2-1.69-1.999-2.224c-0.801-0.531-1.692-0.891-2.674-1.074
	c-0.983-0.183-1.924-0.275-2.823-0.275H70.132l-3.747,17.439H78.827z"/>
<polygon fill="#010101" points="98.265,119.522 99.265,119.522 91.619,155.201 90.669,155.201 "/>
<path fill="#010101" d="M113.355,119.522c1.132,0,2.332,0.025,3.598,0.075s2.515,0.209,3.747,0.475
	c1.232,0.267,2.406,0.684,3.523,1.25c1.115,0.566,2.105,1.366,2.973,2.398c0.866,1.032,1.55,2.349,2.049,3.947
	c0.5,1.6,0.75,3.547,0.75,5.846c0,1.366-0.117,2.774-0.351,4.223c-0.233,1.449-0.583,2.874-1.049,4.272
	c-0.467,1.399-1.042,2.74-1.725,4.023c-0.683,1.282-1.474,2.423-2.373,3.421c-1.133,1.268-2.291,2.283-3.473,3.049
	c-1.183,0.768-2.407,1.349-3.673,1.75c-1.266,0.399-2.582,0.658-3.947,0.773c-1.366,0.118-2.815,0.176-4.348,0.176H98.063
	l7.796-35.679H113.355z M109.058,154.201c1.599,0,3.049-0.059,4.348-0.175c1.299-0.117,2.522-0.357,3.672-0.725
	c1.149-0.365,2.25-0.898,3.299-1.599c1.049-0.699,2.123-1.632,3.223-2.798c0.732-0.801,1.424-1.757,2.074-2.873
	c0.649-1.116,1.223-2.34,1.724-3.674c0.499-1.331,0.891-2.748,1.175-4.247c0.282-1.499,0.425-3.031,0.425-4.598
	c0-1.998-0.201-3.714-0.601-5.146c-0.399-1.432-0.949-2.623-1.649-3.572c-0.699-0.95-1.533-1.708-2.497-2.274
	c-0.967-0.565-2.033-0.999-3.199-1.299c-1.166-0.299-2.398-0.49-3.697-0.574c-1.3-0.083-2.633-0.124-3.997-0.124h-6.696
	l-7.396,33.678H109.058z"/>
<path fill="#010101" d="M150.182,143.458l-7.295,11.743h-1.1l22.286-35.679h0.999l6.597,35.679h-1.001l-2.197-11.743H150.182z
	 M164.372,120.923h-0.1l-13.441,21.535h17.489L164.372,120.923z"/>
<polygon fill="#010101" points="173.767,119.522 173.567,120.523 186.459,120.523 179.063,155.201 180.113,155.201 187.509,120.523 
	211.443,120.523 204.049,155.201 205.097,155.201 212.493,120.523 225.384,120.523 225.585,119.522 "/>
<path fill="#010101" d="M221.438,143.458l-7.295,11.743h-1.099l22.285-35.679h0.999l6.596,35.679h-0.998l-2.2-11.743H221.438z
	 M235.629,120.923h-0.1l-13.442,21.535h17.489L235.629,120.923z"/>
<path fill="#010101" d="M275.604,148.006c-1.033,1.632-2.292,3.039-3.772,4.222c-1.482,1.183-3.148,2.108-4.997,2.773
	c-1.849,0.666-3.823,0.999-5.922,0.999c-2.131,0-4.048-0.342-5.746-1.024c-1.699-0.683-3.14-1.648-4.322-2.898
	c-1.184-1.248-2.091-2.764-2.724-4.546s-0.949-3.774-0.949-5.972c0-2.765,0.417-5.505,1.25-8.22
	c0.831-2.715,2.055-5.155,3.672-7.321c1.615-2.165,3.631-3.923,6.047-5.271c2.415-1.35,5.188-2.04,8.318-2.074
	c1.733,0,3.399,0.26,4.998,0.775c1.599,0.517,3.015,1.274,4.247,2.272c1.232,1,2.215,2.217,2.948,3.648
	c0.732,1.433,1.1,3.064,1.1,4.896h-1c0-1.664-0.35-3.156-1.048-4.473c-0.7-1.314-1.625-2.423-2.774-3.322s-2.457-1.59-3.923-2.074
	c-1.465-0.482-2.98-0.724-4.548-0.724c-2.931,0-5.529,0.625-7.794,1.873c-2.266,1.25-4.173,2.899-5.722,4.947
	c-1.55,2.05-2.732,4.38-3.548,6.996c-0.816,2.615-1.225,5.306-1.225,8.07c0,2.231,0.324,4.189,0.975,5.871s1.549,3.09,2.699,4.222
	c1.148,1.134,2.498,1.983,4.047,2.549c1.549,0.567,3.222,0.85,5.021,0.85c1.933,0,3.748-0.291,5.447-0.874
	c1.698-0.583,3.239-1.416,4.622-2.499c1.382-1.082,2.573-2.39,3.573-3.923c0.999-1.531,1.78-3.247,2.347-5.146h1.001
	C277.402,144.575,276.636,146.374,275.604,148.006"/>
<polygon fill="#010101" points="280.399,155.201 279.451,155.201 286.996,119.522 287.995,119.522 283.498,140.71 312.28,119.522 
	313.93,119.522 293.142,134.863 307.734,155.201 306.534,155.201 292.343,135.462 283.198,142.109 "/>
<polygon fill="#BE202E" points="37.619,2.633 24.408,35.233 11.245,2.633 3.545,39.654 5.731,39.654 11.861,10 11.957,10 
	24.408,40.842 36.906,10 37.001,10 43.131,39.654 45.318,39.654 "/>
<path fill="#BE202E" d="M84.616,21.738c0,10.075-8.507,18.391-18.581,18.391c-10.075,0-18.582-8.316-18.582-18.391
	S55.912,3.347,66.035,3.347C76.109,3.347,84.616,11.663,84.616,21.738 M49.734,21.738c0,8.838,7.365,16.252,16.301,16.252
	c8.886,0,16.3-7.461,16.3-16.252c0-8.839-7.414-16.252-16.3-16.252C57.1,5.485,49.734,12.898,49.734,21.738"/>
<path fill="#BE202E" d="M90.173,39.654V3.822h7.176c2.709,0,5.275,0.19,7.415,2.091c2.185,1.901,2.992,4.562,2.992,7.413
	c0,3.28-1.282,5.703-4.134,7.319c4.42,0.903,7.413,4.467,7.413,9.03c0,2.898-1.093,5.512-3.326,7.413
	c-2.519,2.138-5.18,2.566-8.364,2.566H90.173z M92.454,20.075h3.944c2.424,0,4.372,0.143,6.416-1.332
	c2.043-1.473,2.661-3.279,2.661-5.75c0-2.329-0.902-4.609-2.946-5.893c-1.807-1.141-4.04-1.141-6.131-1.141h-3.944V20.075z
	 M92.454,37.515h5.465c2.52,0,5.134,0.096,7.319-1.378s3.517-3.707,3.517-6.368c0-2.614-1.283-5.227-3.707-6.415
	c-2.186-1.093-5.18-1.14-7.557-1.14h-5.037V37.515z"/>
<rect x="117.021" y="3.822" fill="#BE202E" width="2.281" height="35.832"/>
<polygon fill="#BE202E" points="129.281,37.515 138.405,37.515 138.405,39.654 126.999,39.654 126.999,3.822 129.281,3.822 "/>
<polygon fill="#BE202E" points="144.819,5.96 144.819,18.981 159.266,18.981 159.266,21.119 144.819,21.119 144.819,37.515 
	159.646,37.515 159.646,39.654 142.538,39.654 142.538,3.822 159.646,3.822 159.646,5.96 "/>
<polygon fill="#BE202E" points="183.643,5.96 183.643,18.981 195.476,18.981 195.476,21.119 183.643,21.119 183.643,39.654 
	181.36,39.654 181.36,3.822 195.809,3.822 195.809,5.96 "/>
<path fill="#BE202E" d="M220.186,39.653h-2.613l-11.691-16.965h-1.141v16.965h-2.281V3.822h4.468c2.898,0,5.75,0.048,8.174,1.806
	c2.566,1.807,3.612,4.657,3.612,7.699c0,6.226-4.325,9.458-10.266,9.362L220.186,39.653z M207.64,20.55
	c2.233,0,4.466-0.095,6.273-1.664c1.711-1.378,2.519-3.517,2.519-5.655c0-2.662-1.236-5.323-3.803-6.463
	c-1.9-0.903-4.324-0.809-6.416-0.809h-1.473v14.59H207.64z"/>
<path fill="#BE202E" d="M229.165,27.868l-4.799,11.785h-2.33l15.018-37.02l14.97,37.02h-2.328l-4.801-11.785H229.165z
	 M237.054,8.431l-7.033,17.298h14.019L237.054,8.431z"/>
<polygon fill="#BE202E" points="286.144,10 286.047,10 273.55,40.842 261.1,10 261.003,10 254.873,39.653 252.687,39.653 
	260.387,2.634 273.55,35.233 286.761,2.634 294.459,39.653 292.272,39.653 "/>
<polygon fill="#BE202E" points="301.015,5.96 301.015,18.981 315.461,18.981 315.461,21.119 301.015,21.119 301.015,37.515 
	315.843,37.515 315.843,39.654 298.732,39.654 298.732,3.822 315.843,3.822 315.843,5.96 "/>
<polygon fill="#BE202E" points="85.001,49.59 144.801,49.59 144.801,56.318 93.243,56.318 93.243,75.747 142.781,75.747 
	142.781,82.475 93.243,82.475 93.243,103.754 145.136,103.754 145.136,110.482 85.001,110.482 "/>
<path fill="#BE202E" d="M157.162,49.59h48.696c17.578,0,20.354,5.804,20.354,17.242v4.962c0,8.578-4.878,10.933-11.187,11.521v0.169
	c8.41,1.513,10.43,5.887,10.43,11.438v15.561h-7.738V97.108c0-9.503-4.625-10.681-12.111-10.681h-40.203v24.055h-8.241V49.59z
	 M204.935,79.699c9.168,0,13.036-2.438,13.036-8.831v-5.551c0-6.813-2.944-8.999-15.056-8.999h-37.512v23.381H204.935z"/>
<path fill="#BE202E" d="M239.078,71.709c0-15.391,5.216-22.792,21.7-22.792h35.071c16.484,0,21.7,7.401,21.7,22.792v16.654
	c0,15.391-5.216,22.792-21.7,22.792h-35.071c-16.484,0-21.7-7.401-21.7-22.792V71.709z M309.308,68.598
	c0-10.598-6.393-12.951-14.3-12.951h-33.389c-7.907,0-14.298,2.354-14.298,12.951v22.876c0,10.598,6.391,12.953,14.298,12.953
	h33.389c7.907,0,14.3-2.355,14.3-12.953V68.598z"/>
<path fill="#BE202E" d="M255.39,97.991c-1.027,0-2.034-0.492-2.654-1.406c-0.991-1.464-0.607-3.454,0.856-4.444l45.951-31.117
	c1.463-0.99,3.453-0.607,4.446,0.856c0.991,1.463,0.607,3.454-0.856,4.444L257.182,97.44
	C256.632,97.813,256.007,97.991,255.39,97.991"/>
<path fill="#BE202E" d="M65.468,107.744h-0.587c-0.751,0-1.1,0.314-1.1,0.875v1.862h2.834v-1.788
	C66.615,108.018,66.403,107.744,65.468,107.744z"/>
<path fill="#BE202E" d="M68.82,107.744h-0.416c-1.059,0-1.202,0.438-1.202,0.997v1.74h2.731v-1.945
	C69.934,108.134,69.756,107.744,68.82,107.744z"/>
<path fill="#BE202E" d="M73.396,103.754H16.374L72.22,55.478V49.59H5.44v6.729h53.828L3.673,104.09v6.392h56.708
	c-0.176-0.199-0.237-0.456-0.237-0.723V107.8h-0.765v-0.479h0.765v-0.827h0.587v0.827h2.329v0.479H60.73v1.733
	c0,0.648,0.226,0.848,0.868,0.848h0.185c0.778,0,0.9-0.164,0.9-0.896v-0.259h0.479v0.382c0,0.343-0.019,0.648-0.186,0.873h0.218
	v-3.16h0.546v0.409h0.014c0.246-0.361,0.58-0.465,1.168-0.465h0.949c0.532,0,0.941,0.212,1.126,0.643
	c0.219-0.471,0.689-0.643,1.291-0.643h0.71c0.942,0,1.523,0.411,1.523,1.203v2.013h2.875V103.754z"/>
<g>
</g>
<g>
</g>
<g>
</g>
<g>
</g>
<g>
</g>
<g>
</g>
</svg>
